<svg xmlns="http://www.w3.org/2000/svg" viewBox="0 0 512 512">
    <defs>
        <style>.cls-1{fill:#d60dff;}</style>
    </defs>
    <title>description_9</title>
    <g id="OBJECTS">
        <g id="_Group_" data-name="&lt;Group&gt;">
            <g id="_Group_2" data-name="&lt;Group&gt;">
                <g id="_Group_3" data-name="&lt;Group&gt;">
                    <path id="_Compound_Path_" data-name="&lt;Compound Path&gt;"
                        d="M186,225.53a12.3,12.3,0,0,1-5.68-8.44,46.24,46.24,0,0,1-3.35,3.47,8.34,8.34,0,1,1-10.75-12.75,8.24,8.24,0,0,1,12,1.46,36,36,0,0,1,2.25,3.85,41.31,41.31,0,0,1,3.36-3.79,39.24,39.24,0,0,1,4.18-2.85,43.63,43.63,0,0,1-3.1-3.91A8.73,8.73,0,0,1,186,191.75a9.15,9.15,0,0,1,11.35-1.38,14.07,14.07,0,0,1,2.54,2.4c.64.69,1.17,1.47,1.87,2.36C203,194,204,193,205,192.2s1.91-1.34,2.82-2c.49-1.34-.76-1.7-1.2-2.45s-1-1.25-1.31-1.94a9,9,0,0,1,.53-9.47,9.37,9.37,0,0,1,8.54-4.33,9.82,9.82,0,0,1,4.73,2.08,29.9,29.9,0,0,1,3.82,3.83l5.89-4.49-4.44-7.1a39.15,39.15,0,0,1-3.46,3.33,8.45,8.45,0,0,1-10.3-13.4,8.54,8.54,0,0,1,12,1.58,37.17,37.17,0,0,1,2.25,3.91c7.55-8.14,12.34-8.22,18.93-.21l6.17-4.47a47,47,0,0,1-2.87-4.44c-1.94-3.87-1.7-5.76.87-9.17a9.11,9.11,0,0,1,11-3.27,11.39,11.39,0,0,1,3.4,2.21,22.5,22.5,0,0,1,2.39,2.89l6.47-5c-4.85-6.54-4.71-11.92.58-15.34,4.76-3.07,10-1.12,14.12,5.44a37.22,37.22,0,0,1,3.83-3.44,42.69,42.69,0,0,1,4.87-2.51,30.77,30.77,0,0,1-3-2.58A8.39,8.39,0,1,1,304.34,111a8.32,8.32,0,0,1-2.06,12.29,26.67,26.67,0,0,1-3.54,1.63,34.09,34.09,0,0,1,3.82,3.27,44.21,44.21,0,0,1,3.13,4.63,40.42,40.42,0,0,1,3.28-2.91,8.91,8.91,0,0,1,12.19,1.42,8.67,8.67,0,0,1-.64,12.17,24.54,24.54,0,0,1-2.84,2.19l5,6.68L325,150.6a9.48,9.48,0,0,1,13.16,1.64c3,4,2.62,8.9-1.18,12.69-.41.41-1,.69-1.38,1.09a6,6,0,0,0-.71.77l4.14,6.06,7.17-4c-.6-.6-1.26-1.19-1.86-1.85a16.72,16.72,0,0,1-2.26-2.66c-2.41-4.14-1.29-8.48,2.77-11.15a8.58,8.58,0,0,1,11.55,2.09,8.37,8.37,0,0,1-1.53,11.57,37.56,37.56,0,0,1-4.21,2.53,31,31,0,0,1,3.85,3.51,33.43,33.43,0,0,1,2.61,4.62c1.79.34,1.9-1.56,2.85-2.36,2.79-2.35,5.83-3.24,9.27-1.8a8.42,8.42,0,0,1,2.08,14.42,28.46,28.46,0,0,1-4,2.28c-.17,1.34,1.05,1.45,1.74,2,5.7,4.91,5.7,10.41,0,15.4a8.63,8.63,0,0,1-2.35,1l5.24,7.2c7-5,12.41-5,15.8.13s1.52,9.83-5.06,13.89l5.73,8.3a43.42,43.42,0,0,1,3.33-3.07,8.38,8.38,0,0,1,9.42-.36,8.36,8.36,0,0,1-1.77,14.93,8.27,8.27,0,0,1-9.06-2.49,43.77,43.77,0,0,1-2.65-4,45.89,45.89,0,0,1-3.69,3.85,33.48,33.48,0,0,1-4,2.5c5.6,6.22,6,11.9,1.18,15.66s-9.64,2.35-14.53-4.15l-6.58,5a34.31,34.31,0,0,1,2.53,3.59c2.55,4.75,2.06,8.3-2.15,12a9.15,9.15,0,0,1-12.33-.53,33.83,33.83,0,0,1-2.56-3l-5.71,4.75,3.84,7c1.47-1.4,2.74-3.1,4.43-4.13a8.42,8.42,0,0,1,12.62,5.79,8.58,8.58,0,0,1-4.83,9.19,8.49,8.49,0,0,1-10.48-2.8,38,38,0,0,1-2.24-4.38,13,13,0,0,1-9.08,7c1.45,1.32,2.51,2.13,3.38,3.11a8.6,8.6,0,0,1,1.31,9.81,8.53,8.53,0,0,1-15.94-2.71,7.79,7.79,0,0,1,3-7.79,37,37,0,0,1,4.23-2.63c-1.15-1-2.16-1.8-3-2.71s-1.79-2.06-2.55-3l-5.89,4.6c4.7,7.24,4.66,11.28-.25,15.18s-9.35,2.85-14.9-3.51l-6.45,5c4.7,5.92,4.85,10.88,0,14.62s-10,2.08-15.1-5.06c-2.15,2.63-4.42,5.11-8.75,5.4,1.5,1.4,2.65,2.29,3.57,3.37a8.32,8.32,0,0,1-1,12,8.61,8.61,0,0,1-12.07-1.47,8.12,8.12,0,0,1,1.94-11.85,43.66,43.66,0,0,1,4-2.27,13.29,13.29,0,0,1-6.67-6.87c-1.43-.67-1.59.45-2.14.86s-1.13,1.1-1.78,1.53a8.68,8.68,0,0,1-9.46.57,8.77,8.77,0,0,1-4.73-8.22,8.36,8.36,0,0,1,2.91-6.2c1-.9,2.06-1.68,3.14-2.55l-5-6.2-8,4.55a38.48,38.48,0,0,1,3.63,3.37,8,8,0,0,1,.66,9.31,8.24,8.24,0,1,1-11.82-10.92,37,37,0,0,1,4.06-2.11c-8.61-7.54-8.77-11.92-.68-19.07l-4.48-5.75-7.43,4.34c3.86,3.13,7.09,6.53,4.63,11.83a8.58,8.58,0,0,1-9.17,4.95,8.31,8.31,0,0,1-7-7c-.74-5.56,2.48-8.53,7.81-10.42-3.61-2.32-6.39-4.69-6.75-9.23a49,49,0,0,1-4.3,4.21,8.54,8.54,0,0,1-11.23-1.2,8.46,8.46,0,0,1,10.63-12.92,16.62,16.62,0,0,1,3.47,3.86,14.91,14.91,0,0,1,1.29,2.47l5.9-6.22-5.45-5.05c.18-.11-.72.48-1.63,1-6.82,4.26-13.38,1.3-15-6.56-.55-2.67.61-4.61,2-6.47,1-1.39,2.56-2.37,4.09-3.73l-5-6.67c-6.46,5.21-11.64,5.33-15.37.44S178.91,230.62,186,225.53Zm169.61-31.06c1.28-1.06,2.34-1.88,3.34-2.78s3.11-.48,3.59-2.31a35.77,35.77,0,0,1-3.37-3.25,31,31,0,0,1-2.29-3.81l-4.9,5ZM376,229.17l-5.22-5.77L366.25,228l3.67,4.74Zm-8.77,23.73,6.41-4.48-5.22-4.78-4.56,3.83ZM201,202.83l-6.27,4.38,5,5,4.72-4ZM304.83,139.1l-4.87,5,3.86,4.63,5.57-3.4Zm-15.69,3.72-4-6-5.67,4.92,4.28,4.32ZM202,227.76,198.24,223l-6,3.47,5.18,5.84Zm66.28,83.82-4-4.62a26,26,0,0,0-2.69,1.77c-.8.69-2.3.53-2.5,2.06l4.29,5.82ZM284,309.22l-4.67,3.8,3.54,6,5.94-5ZM262.7,162l4.8-2.69L264,154.06l-5,4.21ZM224.9,191.73l-3-4.69-5.29,3.85c1.2,1.29,2.08,2.32,3.06,3.24a5.8,5.8,0,0,0,1.59.73Zm22.86,94.88c-1.76,1-3.69,1.45-4.31,3l3.25,5.47c1.51-1.5,2.62-2.56,3.67-3.68.22-.24.19-.7.32-1.26ZM214.64,244c-1.55,2.12-3.87,2.18-4.72,4.12l4,4.57,3.88-3.66Zm128.74,20.21,3,4.64,5.17-4.16-3.94-3.84ZM354.31,203l-4,4.1,3.31,4.09,4.76-2.93Zm-33.19-42-4,4.05,3.5,4,4.9-2.92ZM305.5,293.68l-4.86,2.77,3.58,5.19,5-3.94Zm-74.53-28-4.1,3c1.09,1.55,1.94,2.83,2.88,4.05.19.25.69.28,1.16.46l3.78-3.69ZM341.6,187.2l-3.7-4.89-4.1,3.76L337.2,190Zm-98.68-16.53L238,174.76l4,3.72,3.86-3.15Zm79.14,109.74,3.21,4.28c1.56-1.07,2.86-1.92,4.1-2.86.23-.18.21-.68.36-1.23l-3.63-3.67ZM279.5,159.88c.71,2,1.41,3.21,3.09,2.6.76-.28,1.33-1.09,2.13-1.8l-2.55-2.82Zm9.25,135.41c-2.31-2.64-2.31-2.64-5-.37l1.82,3Zm-22.84.21a15.18,15.18,0,0,0,2-2.39c.18-.35-.14-1.1-.45-1.52s-.94-1-1.31-.87a15.49,15.49,0,0,0-2.86,1.27Zm-47.34-65.24c-1.87-3.34-1.87-3.34-4.91-.63l2.75,2.78ZM352.09,245.8a19.11,19.11,0,0,0-1.82-1.86,1.49,1.49,0,0,0-1.1,0,2.8,2.8,0,0,0-1,.56,1.87,1.87,0,0,0-.1,3C348.94,248.39,349.63,248.15,352.09,245.8Zm-.74-17.1c1.19-1,2.63-1.64,2.63-2.31,0-.84-1-1.92-1.88-2.42-.35-.2-2,.82-2.06,1.33C350,226.25,350.73,227.23,351.36,228.69Zm-109.1-35c-1-.93-1.67-2-2.23-1.93a3.52,3.52,0,0,0-2.06,1.58c-.4.57.8,2,1.62,1.82A11.92,11.92,0,0,0,242.26,193.67ZM305,163.61l-2.75-3.23a22.52,22.52,0,0,0-1.87,1.85,1.39,1.39,0,0,0-.13,1.06,1.87,1.87,0,0,0,.61,1c.43.34,1,.87,1.42.77A14.38,14.38,0,0,0,305,163.61ZM327.77,264.2c1.55,0,2.81-1.35,2.41-2.21a2.55,2.55,0,0,0-1.57-1.32,1.57,1.57,0,0,0-1.94,1.57C326.71,263,327.46,263.67,327.77,264.2Zm-80.94,6.94a17.47,17.47,0,0,0,2.11,2.38c.6.45,2.09-.43,2.2-1.24a1.73,1.73,0,0,0-1.4-2.13C249,270.05,248.17,270.64,246.82,271.13Zm-30.66-61.52c2.13,2.58,2.42,2.71,3.71,1.77s1.24-1.27-.63-4ZM263.43,177c-1.07-.82-1.8-1.8-2.42-1.74s-1.54,1-1.89,1.72.92,2,1.74,1.7A13.23,13.23,0,0,0,263.43,177Zm-28.28,74c-1-.83-1.64-1.6-2.38-1.77-.44-.1-1.62.89-1.56,1.15.21.81.72,1.87,1.39,2.11C233.08,252.62,234,251.67,235.14,251Zm74.68,27.66c-1.29-.7-2-1.38-2.75-1.41-.51,0-1.24.78-1.53,1.38s.94,2.1,1.64,1.83A15.65,15.65,0,0,0,309.82,278.61Zm25.66-75.53c-1.43.47-2.42,1.19-1.47,2.83a1.63,1.63,0,0,0,2.77.15C337.82,204.52,336.67,203.77,335.48,203.09Zm-16.79-21.5c-.75,1.17-1.64,2-1.53,2.57s1.13,1.35,1.89,1.56,1.91-1.06,1.56-1.76A15.49,15.49,0,0,0,318.69,181.59Z" />
                    <path id="_Path_" data-name="&lt;Path&gt;"
                        d="M238.25,138.3a8.4,8.4,0,0,1,7,9.84c-.8,4.2-5.42,7.69-9.47,7.16-4.41-.58-7.91-5.32-7.28-9.85A8.31,8.31,0,0,1,238.25,138.3Z" />
                    <path id="_Path_2" data-name="&lt;Path&gt;"
                        d="M193.89,254.61a8,8,0,0,1-8.88,7.25,8.21,8.21,0,0,1-7.49-9.3,8.51,8.51,0,0,1,9.25-7A8.26,8.26,0,0,1,193.89,254.61Z" />
                    <path id="_Path_3" data-name="&lt;Path&gt;"
                        d="M318.38,326.61a8.25,8.25,0,0,1-9.07,7.15,8.59,8.59,0,0,1-7.28-9.59,8.3,8.3,0,0,1,9.45-6.68A7.88,7.88,0,0,1,318.38,326.61Z" />
                    <path id="_Path_4" data-name="&lt;Path&gt;"
                        d="M381.63,277.57a8.28,8.28,0,0,1-9.19,7,8,8,0,0,1-7.23-8.9,8.27,8.27,0,0,1,9.44-7.37A8.5,8.5,0,0,1,381.63,277.57Z" />
                    <path id="_Path_5" data-name="&lt;Path&gt;"
                        d="M249.78,129.21a8.24,8.24,0,0,1,16.37,1.88c-.47,4.52-5.22,8.31-9.48,7.57A8.7,8.7,0,0,1,249.78,129.21Z" />
                    <path id="_Path_6" data-name="&lt;Path&gt;"
                        d="M193.75,187.35a8,8,0,0,1-7-9,8.21,8.21,0,0,1,9-7.22c4.52.45,8.38,5.16,7.41,9.48C202,185.45,198,188,193.75,187.35Z" />
                    <path id="_Path_7" data-name="&lt;Path&gt;"
                        d="M390.72,202.94a8.14,8.14,0,0,1-9,7.15,8,8,0,0,1-7.44-8.75,8.27,8.27,0,1,1,16.47,1.6Z" />
                    <path id="_Path_8" data-name="&lt;Path&gt;"
                        d="M341.12,140.64a8.54,8.54,0,0,1-9.26,7,8.72,8.72,0,0,1-7.08-9.3,8.24,8.24,0,0,1,9.67-7A7.9,7.9,0,0,1,341.12,140.64Z" />
                    <path id="_Path_9" data-name="&lt;Path&gt;"
                        d="M391.21,221.95a7.81,7.81,0,1,1,6.79,8.66A7.83,7.83,0,0,1,391.21,221.95Z" />
                    <path id="_Path_10" data-name="&lt;Path&gt;"
                        d="M324.33,119.26a7.83,7.83,0,1,1-7-8.56A8,8,0,0,1,324.33,119.26Z" />
                    <path id="_Path_11" data-name="&lt;Path&gt;"
                        d="M174.56,188a7.46,7.46,0,0,1,6.9,8.51,7.6,7.6,0,0,1-8.72,6.73A7.76,7.76,0,0,1,166,195,7.62,7.62,0,0,1,174.56,188Z" />
                    <path id="_Path_12" data-name="&lt;Path&gt;"
                        d="M288.23,349.58A7.8,7.8,0,0,1,290,334.09a7.87,7.87,0,0,1,7,8.63A7.78,7.78,0,0,1,288.23,349.58Z" />
                    <path id="_Path_13" data-name="&lt;Path&gt;"
                        d="M286.61,114.71a7.56,7.56,0,0,1-8.63,6.82,7.68,7.68,0,0,1,1.63-15.27A7.49,7.49,0,0,1,286.61,114.71Z" />
                    <path id="_Path_14" data-name="&lt;Path&gt;"
                        d="M259.32,338.59a7.83,7.83,0,0,1-9.08,6.34,7.64,7.64,0,0,1-6.14-9.15,7.5,7.5,0,0,1,8.68-6A7.58,7.58,0,0,1,259.32,338.59Z" />
                    <path id="_Path_15" data-name="&lt;Path&gt;"
                        d="M402,261.44a7.71,7.71,0,0,1-15.25-2.34A7.72,7.72,0,1,1,402,261.44Z" />
                    <path id="_Path_16" data-name="&lt;Path&gt;"
                        d="M168.45,240.55a7.77,7.77,0,0,1-6.92-8.64,7.82,7.82,0,0,1,15.53,1.66A7.85,7.85,0,0,1,168.45,240.55Z" />
                    <path id="_Path_17" data-name="&lt;Path&gt;"
                        d="M369,155a7.57,7.57,0,0,1,6.83,8.58,7.74,7.74,0,0,1-8.36,6.54,7.6,7.6,0,0,1-6.78-8.64A7.45,7.45,0,0,1,369,155Z" />
                    <path id="_Path_18" data-name="&lt;Path&gt;"
                        d="M207.44,294.22a7.39,7.39,0,0,1-8.19,6.6,7.61,7.61,0,0,1-6.92-8.52,7.75,7.75,0,0,1,8.87-6.57A7.51,7.51,0,0,1,207.44,294.22Z" />
                    <path id="_Path_19" data-name="&lt;Path&gt;"
                        d="M348.77,319a7.69,7.69,0,0,1-6.19-9.11,7.49,7.49,0,0,1,8.76-5.88,7.63,7.63,0,0,1,6.37,8.44A7.9,7.9,0,0,1,348.77,319Z" />
                    <path id="_Path_20" data-name="&lt;Path&gt;"
                        d="M219.17,136.78a7.62,7.62,0,1,1-2,15.11,7.62,7.62,0,0,1,2-15.11Z" />
                    <path id="_Path_21" data-name="&lt;Path&gt;"
                        d="M189.76,159.44a7.28,7.28,0,0,1,8.47-6.11,7.46,7.46,0,0,1,6.41,8.31,7.69,7.69,0,0,1-8.9,6.44A7.49,7.49,0,0,1,189.76,159.44Z" />
                    <path id="_Path_22" data-name="&lt;Path&gt;"
                        d="M385.72,176a7.28,7.28,0,0,1,6.47,8.19,7.52,7.52,0,0,1-8.74,6.56,7.66,7.66,0,0,1-6.21-8.54A7.49,7.49,0,0,1,385.72,176Z" />
                    <path id="_Path_23" data-name="&lt;Path&gt;"
                        d="M184.64,265.06a7.31,7.31,0,0,1,6.27,8.35A7.53,7.53,0,1,1,176,271.06,7.41,7.41,0,0,1,184.64,265.06Z" />
                    <path id="_Path_24" data-name="&lt;Path&gt;"
                        d="M350.85,149a7.3,7.3,0,0,1-6.47-8.2,7.48,7.48,0,0,1,8.09-6.71,7.78,7.78,0,0,1,6.85,8.62A7.65,7.65,0,0,1,350.85,149Z" />
                    <path id="_Path_25" data-name="&lt;Path&gt;"
                        d="M327.9,335.22a7.51,7.51,0,0,1,2-14.88,7.64,7.64,0,0,1,6.63,8.73A7.73,7.73,0,0,1,327.9,335.22Z" />
                    <path id="_Path_26" data-name="&lt;Path&gt;"
                        d="M370.35,302.56a7.58,7.58,0,0,1-6.81-8,7.42,7.42,0,0,1,8-6.81,7.22,7.22,0,0,1,7,8.25A7.4,7.4,0,0,1,370.35,302.56Z" />
                    <path id="_Path_27" data-name="&lt;Path&gt;"
                        d="M223.83,315.11a7.31,7.31,0,0,1-8.23,6.42,7.21,7.21,0,0,1-6.58-8.06,7.41,7.41,0,0,1,8.54-6.76A7.49,7.49,0,0,1,223.83,315.11Z" />
                    <path id="_Path_28" data-name="&lt;Path&gt;"
                        d="M238.3,135.29a7.15,7.15,0,0,1-6.51-8.08A7.44,7.44,0,1,1,246.56,129,7.15,7.15,0,0,1,238.3,135.29Z" />
                    <path id="_Path_29" data-name="&lt;Path&gt;"
                        d="M240,335.74a7.14,7.14,0,0,1-7.65,6.46,7.18,7.18,0,1,1,1.44-14.29A7.14,7.14,0,0,1,240,335.74Z" />
                    <path id="_Path_30" data-name="&lt;Path&gt;"
                        d="M174.34,183.91a7.2,7.2,0,0,1-5.25-8.54,7.48,7.48,0,0,1,8.52-5.43c3.93.93,6.59,5.3,5.47,9A7.24,7.24,0,0,1,174.34,183.91Z" />
                    <path id="_Path_31" data-name="&lt;Path&gt;"
                        d="M267.35,112.66a7.36,7.36,0,0,1-8,6.11,7.11,7.11,0,0,1-6.11-8.39,6.9,6.9,0,0,1,8.12-5.7A7.12,7.12,0,0,1,267.35,112.66Z" />
                    <path id="_Path_32" data-name="&lt;Path&gt;"
                        d="M400,211.27a7.08,7.08,0,0,1,2.11-14,7.08,7.08,0,1,1-2.11,14Z" />
                    <path id="_Path_33" data-name="&lt;Path&gt;"
                        d="M315.11,344.84a7.22,7.22,0,0,1-7.67,6.45,7.34,7.34,0,0,1-6.59-8.12,7.14,7.14,0,0,1,8-6A7,7,0,0,1,315.11,344.84Z" />
                    <path id="_Path_34" data-name="&lt;Path&gt;"
                        d="M174,252.69a7.08,7.08,0,0,1-8.13,5.84,7.26,7.26,0,0,1-6.09-8,7.5,7.5,0,0,1,8.54-6.13A7.23,7.23,0,0,1,174,252.69Z" />
                    <path id="_Path_35" data-name="&lt;Path&gt;"
                        d="M391,285.8a7,7,0,0,1-5.9-8,6.91,6.91,0,0,1,7.87-6,7.09,7.09,0,0,1,6.23,8.29A7.27,7.27,0,0,1,391,285.8Z" />
                    <path id="_Path_36" data-name="&lt;Path&gt;"
                        d="M333.94,127.74a7.05,7.05,0,0,1-5.63-8.22,7.12,7.12,0,1,1,14,2.71A7.13,7.13,0,0,1,333.94,127.74Z" />
                    <path id="_Path_37" data-name="&lt;Path&gt;"
                        d="M267.35,365.14a7,7,0,0,1-6.2-7.76A7.08,7.08,0,0,1,275.22,359,7,7,0,0,1,267.35,365.14Z" />
                    <path id="_Path_38" data-name="&lt;Path&gt;"
                        d="M416.56,236.94a6.78,6.78,0,0,1,5.73,8,7,7,0,0,1-8.06,5.79,7.29,7.29,0,0,1-5.82-8.13A7,7,0,0,1,416.56,236.94Z" />
                    <path id="_Path_39" data-name="&lt;Path&gt;"
                        d="M145.87,211.21a6.78,6.78,0,0,1,7.73-6.11,7,7,0,0,1,6.23,7.71A7.22,7.22,0,0,1,152,219,7,7,0,0,1,145.87,211.21Z" />
                    <path id="_Path_40" data-name="&lt;Path&gt;"
                        d="M299.27,104.44a6.75,6.75,0,0,1-6.18-7.69,7.11,7.11,0,0,1,7.78-6.25,7.36,7.36,0,0,1,6.25,7.85A7,7,0,0,1,299.27,104.44Z" />
                    <path id="_Path_41" data-name="&lt;Path&gt;"
                        d="M369.48,306.9a7,7,0,0,1,6.14,7.33A6.84,6.84,0,1,1,362,312.9,7.11,7.11,0,0,1,369.48,306.9Z" />
                    <path id="_Path_42" data-name="&lt;Path&gt;"
                        d="M219.79,132.47a6.93,6.93,0,0,1-6.17-7.28,6.84,6.84,0,1,1,13.62,1.3A7,7,0,0,1,219.79,132.47Z" />
                    <path id="_Path_43" data-name="&lt;Path&gt;"
                        d="M204.45,312.78a6.84,6.84,0,0,1-13.59-1.5,6.84,6.84,0,1,1,13.59,1.5Z" />
                    <path id="_Path_44" data-name="&lt;Path&gt;"
                        d="M174.46,290.26a6.91,6.91,0,0,1,7.35-6.07A7,7,0,0,1,188,292a6.9,6.9,0,0,1-7.65,5.68A6.76,6.76,0,0,1,174.46,290.26Z" />
                    <path id="_Path_45" data-name="&lt;Path&gt;"
                        d="M206.17,142.8a6.74,6.74,0,0,1-7.36,6,6.81,6.81,0,0,1-6.15-7.76,7,7,0,0,1,7.66-5.71A6.88,6.88,0,0,1,206.17,142.8Z" />
                    <path id="_Path_46" data-name="&lt;Path&gt;"
                        d="M348.95,323.4a6.75,6.75,0,1,1-7.88,5.34A6.85,6.85,0,0,1,348.95,323.4Z" />
                    <path id="_Path_47" data-name="&lt;Path&gt;"
                        d="M393.7,165.52a6.73,6.73,0,1,1-13.33-1.8,6.72,6.72,0,0,1,13.33,1.8Z" />
                    <path id="_Path_48" data-name="&lt;Path&gt;"
                        d="M377.27,144.82a6.83,6.83,0,0,1-13.55-1.59,6.83,6.83,0,0,1,7.9-6A6.68,6.68,0,0,1,377.27,144.82Z" />
                    <path id="_Path_49" data-name="&lt;Path&gt;"
                        d="M352.77,129.29a6.44,6.44,0,0,1-5.22-7.33,6.64,6.64,0,0,1,7.82-5.38,6.57,6.57,0,0,1,5.18,7.4A6.44,6.44,0,0,1,352.77,129.29Z" />
                    <path id="_Path_50" data-name="&lt;Path&gt;"
                        d="M409.91,186.36a6.48,6.48,0,0,1-7.46,5.77,6.57,6.57,0,0,1,2-13A6.48,6.48,0,0,1,409.91,186.36Z" />
                    <path id="_Path_51" data-name="&lt;Path&gt;"
                        d="M161.48,194.3a6.23,6.23,0,0,1-7.08,5.46,6.47,6.47,0,0,1-5.85-7.37,6.64,6.64,0,0,1,7.17-5.52A6.42,6.42,0,0,1,161.48,194.3Z" />
                    <path id="_Path_52" data-name="&lt;Path&gt;"
                        d="M149.94,237A6.4,6.4,0,0,1,144,229.7a6.53,6.53,0,0,1,7.11-5.57A6.47,6.47,0,1,1,149.94,237Z" />
                    <path id="_Path_53" data-name="&lt;Path&gt;"
                        d="M280.46,359.8a6.63,6.63,0,0,1,7.47-5.85,6.55,6.55,0,0,1,5.46,7.19,6.4,6.4,0,0,1-7.42,5.8A6.49,6.49,0,0,1,280.46,359.8Z" />
                    <path id="_Path_54" data-name="&lt;Path&gt;"
                        d="M412.28,268.75a6.24,6.24,0,0,1-5.62-6.95,6.5,6.5,0,1,1,12.87,1.72A6.25,6.25,0,0,1,412.28,268.75Z" />
                    <path id="_Path_55" data-name="&lt;Path&gt;"
                        d="M325.23,100.55a6.52,6.52,0,0,1-7.46,5.8,6.59,6.59,0,0,1,2.08-13A6.45,6.45,0,0,1,325.23,100.55Z" />
                    <path id="_Path_56" data-name="&lt;Path&gt;"
                        d="M396.24,298.42a6.41,6.41,0,0,1-7.2,5.39,6.56,6.56,0,0,1-5.71-7.53,6.83,6.83,0,0,1,7.28-5.45A6.61,6.61,0,0,1,396.24,298.42Z" />
                    <path id="_Path_57" data-name="&lt;Path&gt;"
                        d="M416.77,231.5a6.29,6.29,0,0,1-5.58-7,6.62,6.62,0,0,1,7.46-5.83,6.73,6.73,0,0,1,5.52,7.72A6.46,6.46,0,0,1,416.77,231.5Z" />
                    <path id="_Path_58" data-name="&lt;Path&gt;"
                        d="M243,354.86a6.52,6.52,0,0,1,12.84,2.2,6.52,6.52,0,1,1-12.84-2.2Z" />
                    <path id="_Path_59" data-name="&lt;Path&gt;"
                        d="M177.75,164.87A6.48,6.48,0,1,1,179,152a6.48,6.48,0,1,1-1.29,12.89Z" />
                    <path id="_Path_60" data-name="&lt;Path&gt;"
                        d="M158.39,268.43a6.48,6.48,0,0,1,8.3-4.48A6.31,6.31,0,0,1,171,271.8a6.52,6.52,0,0,1-12.6-3.37Z" />
                    <path id="_Path_61" data-name="&lt;Path&gt;"
                        d="M333.2,347.34a6.43,6.43,0,0,1-7.09,5.52,6.46,6.46,0,1,1,7.09-5.52Z" />
                    <path id="_Path_62" data-name="&lt;Path&gt;"
                        d="M282.31,88.91A6.3,6.3,0,0,1,287.7,96a6.52,6.52,0,1,1-5.39-7.14Z" />
                    <path id="_Path_63" data-name="&lt;Path&gt;"
                        d="M213.34,339.15a6.2,6.2,0,0,1-5.63-6.93,6.47,6.47,0,0,1,7.32-5.93,6.66,6.66,0,0,1,5.64,7.6A6.5,6.5,0,0,1,213.34,339.15Z" />
                    <path id="_Path_64" data-name="&lt;Path&gt;"
                        d="M247.9,110.26a6.26,6.26,0,0,1-7.07,5.48,6.46,6.46,0,0,1-5.88-7.35,6.79,6.79,0,0,1,7.17-5.6A6.58,6.58,0,0,1,247.9,110.26Z" />
                    <path id="_Path_65" data-name="&lt;Path&gt;"
                        d="M163.36,175.8a6.12,6.12,0,1,1-4.82-7A6.15,6.15,0,0,1,163.36,175.8Z" />
                    <path id="_Path_66" data-name="&lt;Path&gt;"
                        d="M231.4,347.6a6.1,6.1,0,1,1-6.82,5.15A6.41,6.41,0,0,1,231.4,347.6Z" />
                    <path id="_Path_67" data-name="&lt;Path&gt;"
                        d="M263.1,87a6.16,6.16,0,0,1,5.51,6.46,6.1,6.1,0,1,1-12.14-1.15A6.12,6.12,0,0,1,263.1,87Z" />
                    <path id="_Path_68" data-name="&lt;Path&gt;"
                        d="M311.76,363.64a6.28,6.28,0,0,1-6.79,5.14,6,6,0,1,1,6.79-5.14Z" />
                    <path id="_Path_69" data-name="&lt;Path&gt;"
                        d="M147.27,255.22a6.09,6.09,0,1,1,2.22-12,6.09,6.09,0,0,1-2.22,12Z" />
                    <path id="_Path_70" data-name="&lt;Path&gt;"
                        d="M178.35,315.52a5.7,5.7,0,0,1-5.39-6.35,6,6,0,1,1,11.92,1.17A5.71,5.71,0,0,1,178.35,315.52Z" />
                    <path id="_Path_71" data-name="&lt;Path&gt;"
                        d="M414.06,205.45a6,6,0,0,1,11.87,1.95,6,6,0,1,1-11.87-1.95Z" />
                    <path id="_Path_72" data-name="&lt;Path&gt;"
                        d="M367.38,326.42a6,6,0,0,1-1.46,11.82,6,6,0,1,1,1.46-11.82Z" />
                    <path id="_Path_73" data-name="&lt;Path&gt;"
                        d="M200.64,129.28a5.73,5.73,0,0,1-4.84-6.78,6,6,0,1,1,11.79,2.12A5.81,5.81,0,0,1,200.64,129.28Z" />
                    <path id="_Path_74" data-name="&lt;Path&gt;"
                        d="M416.92,281.69a6.21,6.21,0,0,1-6.56,5.37,6.1,6.1,0,0,1-5.5-7,6.08,6.08,0,0,1,12.06,1.58Z" />
                    <path id="_Path_75" data-name="&lt;Path&gt;"
                        d="M338.18,96.18a6,6,0,0,1,5.47,6.38,6.09,6.09,0,0,1-6.93,5.49,5.91,5.91,0,0,1-5.09-6.66A5.83,5.83,0,0,1,338.18,96.18Z" />
                    <path id="_Path_76" data-name="&lt;Path&gt;"
                        d="M395.2,147.08a5.76,5.76,0,0,1-6.75,4.92,5.84,5.84,0,0,1-5.19-6.55,6.11,6.11,0,0,1,7.13-5.24A6,6,0,0,1,395.2,147.08Z" />
                    <path id="_Path_77" data-name="&lt;Path&gt;"
                        d="M393.32,317a5.82,5.82,0,0,1-6.83,4.77,5.9,5.9,0,0,1-4.78-6.84,5.81,5.81,0,0,1,6.87-4.73A5.63,5.63,0,0,1,393.32,317Z" />
                    <path id="_Path_78" data-name="&lt;Path&gt;"
                        d="M201.17,331.55a5.76,5.76,0,0,1-6.83,4.77,6,6,0,0,1-4.82-6.85,5.92,5.92,0,0,1,6.91-4.73A5.65,5.65,0,0,1,201.17,331.55Z" />
                    <path id="_Path_79" data-name="&lt;Path&gt;"
                        d="M221.73,112.86a5.69,5.69,0,0,1-4.77-6.79,5.76,5.76,0,0,1,6.81-4.79,5.88,5.88,0,1,1-2,11.58Z" />
                    <path id="_Path_80" data-name="&lt;Path&gt;"
                        d="M161.55,294.47a5.64,5.64,0,0,1-4.86-6.7,5.92,5.92,0,0,1,6.73-5,6.2,6.2,0,0,1,4.93,6.84A5.86,5.86,0,0,1,161.55,294.47Z" />
                    <path id="_Path_81" data-name="&lt;Path&gt;"
                        d="M345,354.47a5.91,5.91,0,0,1-5.47-6.34,6.26,6.26,0,0,1,6.51-5.41,6,6,0,0,1,5.38,6.45A5.77,5.77,0,0,1,345,354.47Z" />
                    <path id="_Path_82" data-name="&lt;Path&gt;"
                        d="M411.62,167.84a5.88,5.88,0,0,1-6.67,5,5.88,5.88,0,1,1,1.6-11.65A5.79,5.79,0,0,1,411.62,167.84Z" />
                    <path id="_Path_83" data-name="&lt;Path&gt;"
                        d="M186.5,140.48a5.85,5.85,0,0,1-6.56,5.18,6,6,0,0,1-5.2-6.59,6.07,6.07,0,0,1,6.63-5.19A5.87,5.87,0,0,1,186.5,140.48Z" />
                    <path id="_Path_84" data-name="&lt;Path&gt;"
                        d="M378.6,126.39A5.9,5.9,0,1,1,367,124.12a6.07,6.07,0,0,1,6.95-4.74A6,6,0,0,1,378.6,126.39Z" />
                    <path id="_Path_85" data-name="&lt;Path&gt;"
                        d="M133.44,215.41a5.78,5.78,0,0,1-5-6.15,5.61,5.61,0,0,1,6-5.18,5.73,5.73,0,0,1,5.37,6.4A5.93,5.93,0,0,1,133.44,215.41Z" />
                    <path id="_Path_86" data-name="&lt;Path&gt;"
                        d="M266.44,371.1a5.92,5.92,0,0,1,5.16,6.53,5.81,5.81,0,0,1-6.22,4.85,5.64,5.64,0,0,1-5.17-5.89A5.83,5.83,0,0,1,266.44,371.1Z" />
                    <path id="_Path_87" data-name="&lt;Path&gt;"
                        d="M439.78,246.57a5.49,5.49,0,0,1-6,5.07,5.63,5.63,0,0,1-5.27-6.4,5.56,5.56,0,0,1,6.31-4.71A5.41,5.41,0,0,1,439.78,246.57Z" />
                    <path id="_Path_88" data-name="&lt;Path&gt;"
                        d="M307.89,79.7a5.42,5.42,0,0,1-6.2,4.81,5.57,5.57,0,0,1-5-6.07,5.76,5.76,0,0,1,6.6-5.13A5.57,5.57,0,0,1,307.89,79.7Z" />
                    <path id="_Path_89" data-name="&lt;Path&gt;"
                        d="M249.21,91.42a5.49,5.49,0,1,1-4.75-6.23A5.53,5.53,0,0,1,249.21,91.42Z" />
                    <path id="_Path_90" data-name="&lt;Path&gt;"
                        d="M423,182.46a5.47,5.47,0,0,1,4.67,6.27,5.52,5.52,0,1,1-10.92-1.6A5.41,5.41,0,0,1,423,182.46Z" />
                    <path id="_Path_91" data-name="&lt;Path&gt;"
                        d="M414.21,300.17a5.65,5.65,0,0,1-6.15,4.92,5.49,5.49,0,1,1,1.06-10.94A5.66,5.66,0,0,1,414.21,300.17Z" />
                    <path id="_Path_92" data-name="&lt;Path&gt;"
                        d="M355.73,109.78a5.37,5.37,0,0,1-4.92-6,5.45,5.45,0,0,1,6.12-4.84,5.53,5.53,0,0,1,5,6.06A5.43,5.43,0,0,1,355.73,109.78Z" />
                    <path id="_Path_93" data-name="&lt;Path&gt;"
                        d="M159,161.56a5.47,5.47,0,1,1,1.23-10.87A5.47,5.47,0,1,1,159,161.56Z" />
                    <path id="_Path_94" data-name="&lt;Path&gt;"
                        d="M206.5,350.41a5.49,5.49,0,1,1,4.4,6.41A5.38,5.38,0,0,1,206.5,350.41Z" />
                    <path id="_Path_95" data-name="&lt;Path&gt;"
                        d="M323.38,370.38a5.25,5.25,0,0,1-4.33-6.4,5.51,5.51,0,0,1,10.81,2.11A5.36,5.36,0,0,1,323.38,370.38Z" />
                    <path id="_Path_96" data-name="&lt;Path&gt;"
                        d="M288.82,77.41A5.36,5.36,0,0,1,283,81.94a5.22,5.22,0,0,1-4.66-5.72,5.14,5.14,0,0,1,6.14-4.74A5.25,5.25,0,0,1,288.82,77.41Z" />
                    <path id="_Path_97" data-name="&lt;Path&gt;"
                        d="M145,273.19a5.18,5.18,0,0,1-4.45-6.29,5.26,5.26,0,0,1,6.33-4.45A5.45,5.45,0,1,1,145,273.19Z" />
                    <path id="_Path_98" data-name="&lt;Path&gt;"
                        d="M437.1,265.43a5.29,5.29,0,0,1-10.5-1.23,5.26,5.26,0,0,1,6.19-4.74A5.18,5.18,0,0,1,437.1,265.43Z" />
                    <path id="_Path_99" data-name="&lt;Path&gt;"
                        d="M392.35,122.39a5.16,5.16,0,0,1,4.52,5.81,5.35,5.35,0,1,1-10.58-1.6A5.21,5.21,0,0,1,392.35,122.39Z" />
                    <path id="_Path_100" data-name="&lt;Path&gt;"
                        d="M159.56,312.64a5.48,5.48,0,0,1-4.73-5.74,5.35,5.35,0,1,1,10.64,1.21A5.45,5.45,0,0,1,159.56,312.64Z" />
                    <path id="_Path_101" data-name="&lt;Path&gt;"
                        d="M413.38,149a5.53,5.53,0,0,1-5.79,4.72,5.25,5.25,0,0,1-4.81-5.61,5.33,5.33,0,0,1,6-5A5.56,5.56,0,0,1,413.38,149Z" />
                    <path id="_Path_102" data-name="&lt;Path&gt;"
                        d="M171.49,327.31a5.16,5.16,0,0,1,6-4.26,5.38,5.38,0,0,1,4.49,5.88,5.53,5.53,0,0,1-6.42,4.54A5.3,5.3,0,0,1,171.49,327.31Z" />
                    <path id="_Path_103" data-name="&lt;Path&gt;"
                        d="M209.14,105.72a5.29,5.29,0,0,1-5.94,4.4,5.64,5.64,0,0,1-4.58-5.89A5.33,5.33,0,0,1,205,99.71,5,5,0,0,1,209.14,105.72Z" />
                    <path id="_Path_104" data-name="&lt;Path&gt;"
                        d="M386.16,329.27a5.62,5.62,0,0,1,4.43,6,5.31,5.31,0,0,1-6.44,4.41,5.07,5.07,0,0,1-4-6.13A5.38,5.38,0,0,1,386.16,329.27Z" />
                    <path id="_Path_105" data-name="&lt;Path&gt;"
                        d="M248.07,369.44a5,5,0,0,1,4.23,6,5.29,5.29,0,0,1-5.91,4.45,5.49,5.49,0,0,1-4.53-6.42A5.26,5.26,0,0,1,248.07,369.44Z" />
                    <path id="_Path_106" data-name="&lt;Path&gt;"
                        d="M285.38,373.75a5.35,5.35,0,0,1,4.51,5.88,5.11,5.11,0,0,1-5.66,4.69,5.35,5.35,0,0,1-4.88-6.1A5.72,5.72,0,0,1,285.38,373.75Z" />
                    <path id="_Path_107" data-name="&lt;Path&gt;"
                        d="M137.08,229.13a5.2,5.2,0,0,1-5.93,4.36,5.07,5.07,0,0,1-4.6-5.7,5.43,5.43,0,0,1,6.22-4.75A5.62,5.62,0,0,1,137.08,229.13Z" />
                    <path id="_Path_108" data-name="&lt;Path&gt;"
                        d="M141.5,191.84a5,5,0,0,1-5.83,4.43,5.25,5.25,0,0,1-4.67-5.7,5.55,5.55,0,0,1,6.27-4.77A5.25,5.25,0,0,1,141.5,191.84Z" />
                    <path id="_Path_109" data-name="&lt;Path&gt;"
                        d="M321.57,75.9a5.33,5.33,0,0,1,4.82,5.63,5.31,5.31,0,1,1-10.56-.92A5.36,5.36,0,0,1,321.57,75.9Z" />
                    <path id="_Path_110" data-name="&lt;Path&gt;"
                        d="M369.5,351.51a5.29,5.29,0,1,1-10.48-1.4,5.29,5.29,0,0,1,10.48,1.4Z" />
                    <path id="_Path_111" data-name="&lt;Path&gt;"
                        d="M188.19,121.93a5.29,5.29,0,0,1-5.87,4.49,5.4,5.4,0,0,1-4.72-5.73,5.32,5.32,0,0,1,6.24-4.7A5.19,5.19,0,0,1,188.19,121.93Z" />
                    <path id="_Path_112" data-name="&lt;Path&gt;"
                        d="M435.61,232.62a5.22,5.22,0,0,1-4.44-5.89,5.34,5.34,0,1,1,4.44,5.89Z" />
                    <path id="_Path_113" data-name="&lt;Path&gt;"
                        d="M144.28,281.35a5.11,5.11,0,0,1-.88,10.18,5.21,5.21,0,0,1-4.82-5.52A5.35,5.35,0,0,1,144.28,281.35Z" />
                    <path id="_Path_114" data-name="&lt;Path&gt;"
                        d="M348.2,368.18a5.17,5.17,0,0,1-6,4.13,5.38,5.38,0,0,1-4.08-5.6,5.15,5.15,0,0,1,5.84-4.37A5,5,0,0,1,348.2,368.18Z" />
                    <path id="_Path_115" data-name="&lt;Path&gt;"
                        d="M375.66,101.58a5,5,0,0,1,4.4,5.77,5.12,5.12,0,0,1-5.27,4.41,5.3,5.3,0,0,1-4.8-5.55A5.22,5.22,0,0,1,375.66,101.58Z" />
                    <path id="_Path_116" data-name="&lt;Path&gt;"
                        d="M423.58,174.22a5,5,0,0,1-4.05-6,5.12,5.12,0,0,1,10.05,1.89A5.07,5.07,0,0,1,423.58,174.22Z" />
                    <path id="_Path_117" data-name="&lt;Path&gt;"
                        d="M264.24,79.33a5.09,5.09,0,0,1-4.38-5.78,5,5,0,0,1,9.88,1.68A5.16,5.16,0,0,1,264.24,79.33Z" />
                    <path id="_Path_118" data-name="&lt;Path&gt;"
                        d="M198.23,349.76a5,5,0,0,1-5.85,4.28,5,5,0,0,1-4.33-5.26,5.11,5.11,0,0,1,5.58-4.68A5.21,5.21,0,0,1,198.23,349.76Z" />
                    <path id="_Path_119" data-name="&lt;Path&gt;"
                        d="M224.41,93.42a5.13,5.13,0,0,1-4.47-5.71,5,5,0,0,1,5.94-4.13,5,5,0,0,1,4.2,5.34A5,5,0,0,1,224.41,93.42Z" />
                    <path id="_Path_120" data-name="&lt;Path&gt;"
                        d="M162.62,132.43a5.15,5.15,0,0,1,4.27,5.9,5,5,0,0,1-6,4.14,4.92,4.92,0,0,1-4-5.51A5.07,5.07,0,0,1,162.62,132.43Z" />
                    <path id="_Path_121" data-name="&lt;Path&gt;"
                        d="M233.25,373.2a5.11,5.11,0,0,1-5.52,4,5.21,5.21,0,0,1-4.28-5.88,5.3,5.3,0,0,1,5.57-4A5.09,5.09,0,0,1,233.25,373.2Z" />
                    <path id="_Path_122" data-name="&lt;Path&gt;"
                        d="M428.83,288.25a5,5,0,1,1,5.63-3.92A5.18,5.18,0,0,1,428.83,288.25Z" />
                    <path id="_Path_123" data-name="&lt;Path&gt;"
                        d="M340.24,78.66A4.87,4.87,0,1,1,334.89,83,4.91,4.91,0,0,1,340.24,78.66Z" />
                    <path id="_Path_124" data-name="&lt;Path&gt;"
                        d="M439.19,203.82a5,5,0,1,1-5.31,4.4A5,5,0,0,1,439.19,203.82Z" />
                    <path id="_Path_125" data-name="&lt;Path&gt;"
                        d="M411.21,319.21a5,5,0,0,1-9.88-1.65,5,5,0,1,1,9.88,1.65Z" />
                    <path id="_Path_126" data-name="&lt;Path&gt;"
                        d="M303,386.3a4.86,4.86,0,0,1-4.44-5.21A4.91,4.91,0,1,1,303,386.3Z" />
                    <path id="_Path_127" data-name="&lt;Path&gt;"
                        d="M128.6,251.78a4.92,4.92,0,1,1,5.77-3.78A5,5,0,0,1,128.6,251.78Z" />
                    <path id="_Path_128" data-name="&lt;Path&gt;"
                        d="M137.75,177.31a4.94,4.94,0,0,1-4.07-5.54,5,5,0,1,1,9.86,1.75A5.08,5.08,0,0,1,137.75,177.31Z" />
                    <path id="_Path_129" data-name="&lt;Path&gt;"
                        d="M387.68,353.67a4.72,4.72,0,0,1-9.42-.6,4.64,4.64,0,0,1,5-4.47A4.59,4.59,0,0,1,387.68,353.67Z" />
                    <path id="_Path_130" data-name="&lt;Path&gt;"
                        d="M184.81,107.23a4.6,4.6,0,0,1-4.18-5.26,4.74,4.74,0,0,1,4.78-4.17,5,5,0,0,1,4.58,5A4.89,4.89,0,0,1,184.81,107.23Z" />
                    <path id="_Path_131" data-name="&lt;Path&gt;"
                        d="M398.44,109.29a4.57,4.57,0,0,1-4.84,4.1,4.36,4.36,0,0,1-4.31-4.61,4.66,4.66,0,0,1,5.1-4.5A4.91,4.91,0,0,1,398.44,109.29Z" />
                    <path id="_Path_132" data-name="&lt;Path&gt;"
                        d="M414.92,130.46a4.68,4.68,0,1,1-4.09-5.3A4.61,4.61,0,0,1,414.92,130.46Z" />
                    <path id="_Path_133" data-name="&lt;Path&gt;"
                        d="M153.18,325.55a5,5,0,0,1,5.25-4.33,4.77,4.77,0,0,1,4.08,5.36,4.51,4.51,0,0,1-4.84,4A4.74,4.74,0,0,1,153.18,325.55Z" />
                    <path id="_Path_134" data-name="&lt;Path&gt;"
                        d="M431.2,151.51a4.57,4.57,0,0,1-5.13,3.74,4.86,4.86,0,0,1-3.91-5.08,4.64,4.64,0,0,1,5.56-3.89A4.35,4.35,0,0,1,431.2,151.51Z" />
                    <path id="_Path_135" data-name="&lt;Path&gt;"
                        d="M214.2,370.46a4.8,4.8,0,0,1-4.87,4.16,4.61,4.61,0,0,1-4.23-4.71,4.39,4.39,0,0,1,5.1-4.34A4.5,4.5,0,0,1,214.2,370.46Z" />
                    <path id="_Path_136" data-name="&lt;Path&gt;"
                        d="M173.72,351.34a4.52,4.52,0,0,1-3.88-5,4.71,4.71,0,0,1,5.48-4,4.59,4.59,0,0,1,3.5,5.3A4.4,4.4,0,0,1,173.72,351.34Z" />
                    <path id="_Path_137" data-name="&lt;Path&gt;"
                        d="M250.46,72.79a4.52,4.52,0,0,1-5,3.91,4.82,4.82,0,0,1-4-5,4.61,4.61,0,0,1,5.4-4.09A4.35,4.35,0,0,1,250.46,72.79Z" />
                    <path id="_Path_138" data-name="&lt;Path&gt;"
                        d="M146,305.75a4.57,4.57,0,0,1-5.06,3.83,4.52,4.52,0,0,1-4-5.43,4.6,4.6,0,0,1,9,1.6Z" />
                    <path id="_Path_139" data-name="&lt;Path&gt;"
                        d="M408.45,337.55a4.54,4.54,0,0,1-5,3.91,4.9,4.9,0,0,1-4-5.54,4.65,4.65,0,0,1,5.35-3.46A4.28,4.28,0,0,1,408.45,337.55Z" />
                    <path id="_Path_140" data-name="&lt;Path&gt;"
                        d="M145.33,154.64a4.56,4.56,0,0,1-5.1,3.78,4.8,4.8,0,0,1-3.94-5,4.62,4.62,0,0,1,5.51-3.95A4.4,4.4,0,0,1,145.33,154.64Z" />
                    <path id="_Path_141" data-name="&lt;Path&gt;"
                        d="M366.47,370.43a4.66,4.66,0,0,1-5.24,3.65,4.51,4.51,0,0,1-3.65-5.67,4.59,4.59,0,0,1,5.41-3.35A4.76,4.76,0,0,1,366.47,370.43Z" />
                    <path id="_Path_142" data-name="&lt;Path&gt;"
                        d="M326.77,384.2a4.6,4.6,0,0,1-5,3.9,4.39,4.39,0,0,1-4.13-4.75,4.51,4.51,0,0,1,5.26-4.21A4.7,4.7,0,0,1,326.77,384.2Z" />
                    <path id="_Path_143" data-name="&lt;Path&gt;"
                        d="M431.89,302.58a4.59,4.59,0,0,1-5.07,3.79,4.49,4.49,0,1,1,1.31-8.87A4.53,4.53,0,0,1,431.89,302.58Z" />
                    <path id="_Path_144" data-name="&lt;Path&gt;"
                        d="M163.74,123.47a4.6,4.6,0,0,1-4.09-4.87,4.4,4.4,0,0,1,4.72-4.19,4.57,4.57,0,0,1,4.4,5.11A4.72,4.72,0,0,1,163.74,123.47Z" />
                    <path id="_Path_145" data-name="&lt;Path&gt;"
                        d="M445.52,190.94a4.57,4.57,0,0,1-5.12,3.74,4.4,4.4,0,0,1-3.83-5.47,4.34,4.34,0,0,1,5.27-3.39A4.48,4.48,0,0,1,445.52,190.94Z" />
                    <path id="_Path_146" data-name="&lt;Path&gt;"
                        d="M131.76,266.06a4.72,4.72,0,0,1-4.87,4.12,4.65,4.65,0,0,1-4.11-5.37,4.54,4.54,0,0,1,9,1.25Z" />
                    <path id="_Path_147" data-name="&lt;Path&gt;"
                        d="M363.07,86.56a4.64,4.64,0,0,1-5.13,3.75,4.59,4.59,0,0,1-3.74-5.62,4.54,4.54,0,0,1,8.87,1.87Z" />
                    <path id="_Path_148" data-name="&lt;Path&gt;"
                        d="M205.49,90.62a4.32,4.32,0,0,1-3.69-5.07,4.73,4.73,0,0,1,5-4,4.81,4.81,0,0,1,4,5.55A4.41,4.41,0,0,1,205.49,90.62Z" />
                    <path id="_Path_149" data-name="&lt;Path&gt;"
                        d="M268,396a4.41,4.41,0,1,1-8.71-1.4,4.78,4.78,0,0,1,4.75-3.55A4.63,4.63,0,0,1,268,396Z" />
                    <path id="_Path_150" data-name="&lt;Path&gt;"
                        d="M119.67,207.87A4.38,4.38,0,1,1,115.6,203,4.64,4.64,0,0,1,119.67,207.87Z" />
                    <path id="_Path_151" data-name="&lt;Path&gt;"
                        d="M381.48,88.32a4,4,0,0,1-4.29,3.85,4.11,4.11,0,0,1-4-4.73,4,4,0,0,1,4.57-3.51A4,4,0,0,1,381.48,88.32Z" />
                    <path id="_Path_152" data-name="&lt;Path&gt;"
                        d="M442.55,175.61a4,4,0,0,1-3.41-4.62,4.13,4.13,0,0,1,4.57-3.56,4.08,4.08,0,0,1,3.63,5A4,4,0,0,1,442.55,175.61Z" />
                    <path id="_Path_153" data-name="&lt;Path&gt;"
                        d="M308.89,60.83a4.33,4.33,0,1,1-8.56-1.26,4.33,4.33,0,0,1,8.56,1.26Z" />
                    <path id="_Path_154" data-name="&lt;Path&gt;"
                        d="M341.49,381.85a4.07,4.07,0,0,1,3.6,4.55,4.26,4.26,0,0,1-4.49,3.73,4.32,4.32,0,0,1-3.86-4.93A4.18,4.18,0,0,1,341.49,381.85Z" />
                    <path id="_Path_155" data-name="&lt;Path&gt;"
                        d="M142.6,139.31a4.12,4.12,0,0,1-3.61-4.55,4.24,4.24,0,1,1,8.38,1.2A4.24,4.24,0,0,1,142.6,139.31Z" />
                    <path id="_Path_156" data-name="&lt;Path&gt;"
                        d="M231.48,70.28A4.33,4.33,0,0,1,227,74.11a4.24,4.24,0,1,1,.83-8.44A4.27,4.27,0,0,1,231.48,70.28Z" />
                    <path id="_Path_157" data-name="&lt;Path&gt;"
                        d="M457.18,248.9a4.28,4.28,0,0,1-5,3.67,4.19,4.19,0,0,1-3.49-5.06,4.14,4.14,0,0,1,4.61-3.41A4.22,4.22,0,0,1,457.18,248.9Z" />
                    <path id="_Path_158" data-name="&lt;Path&gt;"
                        d="M195,368.06a4.08,4.08,0,0,1-4.35,3.84,4.19,4.19,0,0,1-4-4.22,4.41,4.41,0,0,1,4.7-4.19A4.34,4.34,0,0,1,195,368.06Z" />
                    <path id="_Path_159" data-name="&lt;Path&gt;"
                        d="M125.44,280a4.24,4.24,0,0,1,3.64,4.53,4,4,0,0,1-4.34,3.77,4.1,4.1,0,0,1-4-4.75A4.37,4.37,0,0,1,125.44,280Z" />
                    <path id="_Path_160" data-name="&lt;Path&gt;"
                        d="M424.57,324.65a4.14,4.14,0,0,1,.67-8.26,4.3,4.3,0,0,1,4.05,4.78A4.38,4.38,0,0,1,424.57,324.65Z" />
                    <path id="_Path_161" data-name="&lt;Path&gt;"
                        d="M402,351.39a4.15,4.15,0,0,1,3.79,4.34,3.93,3.93,0,0,1-4.31,3.74,3.89,3.89,0,0,1-3.79-4.26A4.14,4.14,0,0,1,402,351.39Z" />
                    <path id="_Path_162" data-name="&lt;Path&gt;"
                        d="M285.53,62.09a4,4,0,0,1,.66-8.07A4.16,4.16,0,0,1,290,58.39,4.21,4.21,0,0,1,285.53,62.09Z" />
                    <path id="_Path_163" data-name="&lt;Path&gt;"
                        d="M322.81,66.65A4.08,4.08,0,0,1,324,58.56a4.19,4.19,0,0,1,3.49,4.61A4.26,4.26,0,0,1,322.81,66.65Z" />
                    <path id="_Path_164" data-name="&lt;Path&gt;"
                        d="M459.32,230.09a4.31,4.31,0,0,1-4.46,3.72,4,4,0,0,1-3.66-4.41,3.83,3.83,0,0,1,4.34-3.67A4.16,4.16,0,0,1,459.32,230.09Z" />
                    <path id="_Path_165" data-name="&lt;Path&gt;"
                        d="M384.7,372.25a3.83,3.83,0,0,1-4.46,3.53,4,4,0,0,1-3.63-4.42,4.37,4.37,0,0,1,4.53-3.66A4.26,4.26,0,0,1,384.7,372.25Z" />
                    <path id="_Path_166" data-name="&lt;Path&gt;"
                        d="M138.35,327.66a4.06,4.06,0,0,1,1.66-7.94,4.06,4.06,0,1,1-1.66,7.94Z" />
                    <path id="_Path_167" data-name="&lt;Path&gt;"
                        d="M121.59,189.28a4.09,4.09,0,0,1-4.49,3.6,4.25,4.25,0,0,1-3.62-4.52,4.18,4.18,0,0,1,4.55-3.57A4,4,0,0,1,121.59,189.28Z" />
                    <path id="_Path_168" data-name="&lt;Path&gt;"
                        d="M450.12,271a4.22,4.22,0,0,1-3.55-4.57,4.08,4.08,0,0,1,8.09,1A4.22,4.22,0,0,1,450.12,271Z" />
                    <path id="_Path_169" data-name="&lt;Path&gt;"
                        d="M117.1,226.8a4.3,4.3,0,0,1-4.79,3.28,4,4,0,0,1-3.23-4.74,4.13,4.13,0,0,1,4.71-3.32A4.33,4.33,0,0,1,117.1,226.8Z" />
                    <path id="_Path_170" data-name="&lt;Path&gt;"
                        d="M245.64,389.27a3.92,3.92,0,0,1,3.2,4.73,4.25,4.25,0,0,1-4.81,3.24,4.42,4.42,0,0,1-3.25-4.85A4.1,4.1,0,0,1,245.64,389.27Z" />
                    <path id="_Path_171" data-name="&lt;Path&gt;"
                        d="M159.71,345.21a4.27,4.27,0,0,1-4.66,3.47,4.14,4.14,0,0,1-3.4-4.65,3.89,3.89,0,0,1,4.59-3.39A4,4,0,0,1,159.71,345.21Z" />
                    <path id="_Path_172" data-name="&lt;Path&gt;"
                        d="M188.14,79.92a4.06,4.06,0,1,1-4.67,3.39A4.09,4.09,0,0,1,188.14,79.92Z" />
                    <path id="_Path_173" data-name="&lt;Path&gt;"
                        d="M166,104.24a4.12,4.12,0,0,1-3.59-4.49A4.3,4.3,0,0,1,167,96.18a4.08,4.08,0,0,1,3.51,4.57A3.89,3.89,0,0,1,166,104.24Z" />
                    <path id="_Path_174" data-name="&lt;Path&gt;"
                        d="M413,107.14a4.06,4.06,0,0,1-.91,8.07,4.06,4.06,0,1,1,.91-8.07Z" />
                    <path id="_Path_175" data-name="&lt;Path&gt;"
                        d="M286.42,398.24a4,4,0,0,1-4.58,3.43,4,4,0,0,1-3.51-4.53,4.29,4.29,0,0,1,4.62-3.51A4.19,4.19,0,0,1,286.42,398.24Z" />
                    <path id="_Path_176" data-name="&lt;Path&gt;"
                        d="M428.47,136a3.81,3.81,0,0,1-3.37-4.56A4.21,4.21,0,0,1,429.7,128a4.42,4.42,0,0,1,3.44,4.69A4.07,4.07,0,0,1,428.47,136Z" />
                    <path id="_Path_177" data-name="&lt;Path&gt;"
                        d="M212.42,68.07a4.13,4.13,0,0,1-4.07,3.36,3.94,3.94,0,0,1-3.65-4.32,3.85,3.85,0,0,1,4-3.32A4,4,0,0,1,212.42,68.07Z" />
                    <path id="_Path_178" data-name="&lt;Path&gt;"
                        d="M449.36,153.55a4,4,0,0,1-4.14,3.25,3.87,3.87,0,0,1-3.47-4.43,4,4,0,0,1,4.11-3.29A4.07,4.07,0,0,1,449.36,153.55Z" />
                    <path id="_Path_179" data-name="&lt;Path&gt;"
                        d="M226.52,387a3.88,3.88,0,0,1-.55,7.73,3.87,3.87,0,1,1,.55-7.73Z" />
                    <path id="_Path_180" data-name="&lt;Path&gt;"
                        d="M452.09,286.27a4,4,0,0,1-4.2,3.12,4,4,0,0,1-3.36-4.56,4,4,0,0,1,4.26-3.07A3.78,3.78,0,0,1,452.09,286.27Z" />
                    <path id="_Path_181" data-name="&lt;Path&gt;"
                        d="M423,335.28a4,4,0,0,1,3.64,4.37,4.17,4.17,0,0,1-4.09,3.37,3.88,3.88,0,0,1,.45-7.75Z" />
                    <path id="_Path_182" data-name="&lt;Path&gt;"
                        d="M119.11,173.86a3.72,3.72,0,0,1,1.23-7.34,3.82,3.82,0,0,1,3.32,4.61A3.9,3.9,0,0,1,119.11,173.86Z" />
                    <path id="_Path_183" data-name="&lt;Path&gt;"
                        d="M266.37,59.54a3.81,3.81,0,0,1-3.06-4.33,3.81,3.81,0,1,1,7.48,1.41A3.81,3.81,0,0,1,266.37,59.54Z" />
                    <path id="_Path_184" data-name="&lt;Path&gt;"
                        d="M461.19,211.59a3.89,3.89,0,0,1-4.11,3.35,3.82,3.82,0,0,1-3.31-4.63,3.76,3.76,0,0,1,7.41,1.27Z" />
                    <path id="_Path_185" data-name="&lt;Path&gt;"
                        d="M175.89,366.19a3.83,3.83,0,0,1-4.36,3,3.93,3.93,0,0,1-3.28-4.16,3.85,3.85,0,0,1,4.73-3.19A3.67,3.67,0,0,1,175.89,366.19Z" />
                    <path id="_Path_186" data-name="&lt;Path&gt;"
                        d="M399.92,90.73a3.84,3.84,0,0,1-4,3.38,3.81,3.81,0,1,1,.29-7.61A3.8,3.8,0,0,1,399.92,90.73Z" />
                    <path id="_Path_187" data-name="&lt;Path&gt;"
                        d="M304.79,400.67a3.64,3.64,0,0,1-4.23,3.08,3.7,3.7,0,0,1-3.17-4.18,4,4,0,0,1,4.6-3.4A3.93,3.93,0,0,1,304.79,400.67Z" />
                    <path id="_Path_188" data-name="&lt;Path&gt;"
                        d="M110.48,248.4a3.73,3.73,0,0,1,.28-7.45,3.74,3.74,0,1,1-.28,7.45Z" />
                    <path id="_Path_189" data-name="&lt;Path&gt;"
                        d="M122.32,306.58a3.64,3.64,0,0,1-3.39-4,3.79,3.79,0,0,1,4.42-3.58,3.85,3.85,0,0,1,3.08,4.29A3.72,3.72,0,0,1,122.32,306.58Z" />
                    <path id="_Path_190" data-name="&lt;Path&gt;"
                        d="M341.82,68.6a3.7,3.7,0,0,1-3.54-3.87,3.79,3.79,0,0,1,4.41-3.57,3.75,3.75,0,0,1-.87,7.44Z" />
                    <path id="_Path_191" data-name="&lt;Path&gt;"
                        d="M137.27,338.67a3.64,3.64,0,1,1-4,3.39A3.85,3.85,0,0,1,137.27,338.67Z" />
                    <path id="_Path_192" data-name="&lt;Path&gt;"
                        d="M149.16,117.19a3.54,3.54,0,0,1-4.1,3.16,3.66,3.66,0,0,1-3.29-4.53,3.73,3.73,0,0,1,4.38-2.85A3.59,3.59,0,0,1,149.16,117.19Z" />
                    <path id="_Path_193" data-name="&lt;Path&gt;"
                        d="M112.08,263.65a3.66,3.66,0,0,1-4.08,3.19,3.71,3.71,0,0,1-3.14-3.59,3.65,3.65,0,0,1,3.82-3.46A3.47,3.47,0,0,1,112.08,263.65Z" />
                    <path id="_Path_194" data-name="&lt;Path&gt;"
                        d="M361.55,63.67A3.48,3.48,0,0,1,364.27,68a3.53,3.53,0,0,1-3.87,2.72,3.89,3.89,0,0,1-3.17-4.16A3.76,3.76,0,0,1,361.55,63.67Z" />
                    <path id="_Path_195" data-name="&lt;Path&gt;"
                        d="M431.93,110a3.47,3.47,0,0,1,2.92,4.18,3.74,3.74,0,0,1-4.39,2.76,3.61,3.61,0,0,1-2.62-3.93A3.4,3.4,0,0,1,431.93,110Z" />
                    <path id="_Path_196" data-name="&lt;Path&gt;"
                        d="M168.53,85.3a3.74,3.74,0,0,1-3.33-4,3.49,3.49,0,0,1,3.51-3.14,3.61,3.61,0,0,1,3.71,3.62A3.89,3.89,0,0,1,168.53,85.3Z" />
                    <path id="_Path_197" data-name="&lt;Path&gt;"
                        d="M403.05,374.67a3.82,3.82,0,0,1-4.26,3,3.64,3.64,0,0,1-2.77-4.37,3.45,3.45,0,0,1,3.84-2.72A3.62,3.62,0,0,1,403.05,374.67Z" />
                    <path id="_Path_198" data-name="&lt;Path&gt;"
                        d="M251.81,53.91a3.45,3.45,0,0,1-4,3.12,3.6,3.6,0,0,1-3-4.18A3.41,3.41,0,0,1,248.54,50,3.37,3.37,0,0,1,251.81,53.91Z" />
                    <path id="_Path_199" data-name="&lt;Path&gt;"
                        d="M363.39,388.66a3.54,3.54,0,0,1-4,3.2,3.59,3.59,0,0,1-3.42-3.89,3.66,3.66,0,0,1,4.39-3.45A3.53,3.53,0,0,1,363.39,388.66Z" />
                    <path id="_Path_200" data-name="&lt;Path&gt;"
                        d="M122.84,148.12a3.48,3.48,0,0,1,2.7,4.32,3.39,3.39,0,0,1-3.86,2.62,3.55,3.55,0,0,1-3.09-4.06A3.61,3.61,0,0,1,122.84,148.12Z" />
                    <path id="_Path_201" data-name="&lt;Path&gt;"
                        d="M459.14,195.92a3.43,3.43,0,0,1-2.85-4.23,3.63,3.63,0,0,1,3.8-2.86,3.88,3.88,0,0,1,3.27,4.09A3.67,3.67,0,0,1,459.14,195.92Z" />
                    <path id="_Path_202" data-name="&lt;Path&gt;"
                        d="M320.5,398.69a3.62,3.62,0,0,1,2.84,4.31,3.56,3.56,0,1,1-2.84-4.31Z" />
                    <path id="_Path_203" data-name="&lt;Path&gt;"
                        d="M445.89,307.64a3.39,3.39,0,0,1-3.33-3.83,3.61,3.61,0,0,1,4-3.21,3.7,3.7,0,0,1,3.07,3.6A3.45,3.45,0,0,1,445.89,307.64Z" />
                    <path id="_Path_204" data-name="&lt;Path&gt;"
                        d="M127.75,133.26a3.36,3.36,0,0,1-3.63,3,3.4,3.4,0,0,1-3.05-3.63,3.52,3.52,0,0,1,3.66-3.05A3.42,3.42,0,0,1,127.75,133.26Z" />
                    <path id="_Path_205" data-name="&lt;Path&gt;"
                        d="M189.59,68.74a3.62,3.62,0,0,1-3.32-3.48,3.49,3.49,0,0,1,4-3.32,3.42,3.42,0,0,1-.66,6.8Z" />
                    <path id="_Path_206" data-name="&lt;Path&gt;"
                        d="M207.87,385.19a3.48,3.48,0,0,1,3,4.14,3.77,3.77,0,0,1-4.31,2.88,3.68,3.68,0,0,1-2.68-3.89A3.4,3.4,0,0,1,207.87,385.19Z" />
                    <path id="_Path_207" data-name="&lt;Path&gt;"
                        d="M153.79,359.72a3.7,3.7,0,0,1,3,4.29,3.47,3.47,0,0,1-4.06,2.48,3.23,3.23,0,0,1-2.67-3.85A3.38,3.38,0,0,1,153.79,359.72Z" />
                    <path id="_Path_208" data-name="&lt;Path&gt;"
                        d="M381.91,390.68a3.6,3.6,0,0,1-4,3.23,3.43,3.43,0,0,1-2.92-3.63,3.31,3.31,0,0,1,3.33-3.22A3.45,3.45,0,0,1,381.91,390.68Z" />
                    <path id="_Path_209" data-name="&lt;Path&gt;"
                        d="M148.44,94.7a3.45,3.45,0,0,1,2.76,3.87,3.62,3.62,0,0,1-4.41,2.8,3.49,3.49,0,0,1-2.34-4.15A3.28,3.28,0,0,1,148.44,94.7Z" />
                    <path id="_Path_210" data-name="&lt;Path&gt;"
                        d="M447.09,323a3.17,3.17,0,0,1-3.52,3,3.34,3.34,0,0,1-3.16-3.48,3.61,3.61,0,0,1,3.59-3.15A3.46,3.46,0,0,1,447.09,323Z" />
                    <path id="_Path_211" data-name="&lt;Path&gt;"
                        d="M420,361.18a3.54,3.54,0,0,1-3-3.59,3.61,3.61,0,0,1,3.93-3.29,3.71,3.71,0,0,1,3,4.18A3.66,3.66,0,0,1,420,361.18Z" />
                    <path id="_Path_212" data-name="&lt;Path&gt;"
                        d="M123.76,322a3.54,3.54,0,0,1-3.79,2.89,3.66,3.66,0,0,1-3-4.31,3.45,3.45,0,0,1,4.09-2.44A3.19,3.19,0,0,1,123.76,322Z" />
                    <path id="_Path_213" data-name="&lt;Path&gt;"
                        d="M188.9,383.07a3.43,3.43,0,0,1,3.08,3.59,3.59,3.59,0,0,1-3.67,3.06,3.41,3.41,0,0,1-3-3.64A3.23,3.23,0,0,1,188.9,383.07Z" />
                    <path id="_Path_214" data-name="&lt;Path&gt;"
                        d="M232.84,51.8A3.28,3.28,0,0,1,229,54.5a3.43,3.43,0,0,1-2.74-3.86,3.57,3.57,0,0,1,3.92-2.74A3.35,3.35,0,0,1,232.84,51.8Z" />
                    <path id="_Path_215" data-name="&lt;Path&gt;"
                        d="M341.93,405.16a3.35,3.35,0,0,1-6.58-1.26,3.52,3.52,0,0,1,3.93-2.69A3.56,3.56,0,0,1,341.93,405.16Z" />
                    <path id="_Path_216" data-name="&lt;Path&gt;"
                        d="M418.29,93.15a3.54,3.54,0,0,1-3.86,2.8,3.43,3.43,0,1,1,1.18-6.75A3.54,3.54,0,0,1,418.29,93.15Z" />
                    <path id="_Path_217" data-name="&lt;Path&gt;"
                        d="M106.76,278.63a3.47,3.47,0,0,1,2.8,3.83,3.54,3.54,0,0,1-3.86,2.79,3.27,3.27,0,0,1-2.71-3.84A3.23,3.23,0,0,1,106.76,278.63Z" />
                    <path id="_Path_218" data-name="&lt;Path&gt;"
                        d="M447.2,137.75a3.55,3.55,0,0,1-2.83-3.84,3.42,3.42,0,0,1,4.3-2.84,3.31,3.31,0,0,1,2.48,4A3.47,3.47,0,0,1,447.2,137.75Z" />
                    <path id="_Path_219" data-name="&lt;Path&gt;"
                        d="M379.76,66.13a3.14,3.14,0,0,1,3.11,3.4,3.08,3.08,0,0,1-3.41,3.08,3.25,3.25,0,0,1-3.18-3.38A3.29,3.29,0,0,1,379.76,66.13Z" />
                    <path id="_Path_220" data-name="&lt;Path&gt;"
                        d="M172.93,384.3a3.21,3.21,0,0,1-3.59,2.89,3.12,3.12,0,1,1,3.59-2.89Z" />
                    <path id="_Path_221" data-name="&lt;Path&gt;"
                        d="M461.75,177.07a3.09,3.09,0,0,1-3-3.49,3.22,3.22,0,0,1,3.48-3,3.27,3.27,0,0,1,2.95,3.55A3.09,3.09,0,0,1,461.75,177.07Z" />
                    <path id="_Path_222" data-name="&lt;Path&gt;"
                        d="M210.21,52a3.19,3.19,0,0,1-2.47-3.46,3.06,3.06,0,0,1,3.4-2.5,3,3,0,0,1,2.69,3.74A3.13,3.13,0,0,1,210.21,52Z" />
                    <path id="_Path_223" data-name="&lt;Path&gt;"
                        d="M397.45,389.69a3.06,3.06,0,0,1,2.81,3.17,3,3,0,0,1-3.08,2.86,3.14,3.14,0,0,1-3.12-3.46A3.2,3.2,0,0,1,397.45,389.69Z" />
                    <path id="_Path_224" data-name="&lt;Path&gt;"
                        d="M360.49,407.19a3.14,3.14,0,1,1-6.22-.77,3.42,3.42,0,0,1,3.21-2.76A3.31,3.31,0,0,1,360.49,407.19Z" />
                    <path id="_Path_225" data-name="&lt;Path&gt;"
                        d="M127.34,111.31a3.22,3.22,0,0,1,2.44,3.4,3.12,3.12,0,1,1-6.09-1.27A3.38,3.38,0,0,1,127.34,111.31Z" />
                    <path id="_Path_226" data-name="&lt;Path&gt;"
                        d="M150.14,76.27a3.12,3.12,0,0,1,2.92,3.07,3.18,3.18,0,0,1-3.46,3.13,3.12,3.12,0,0,1,.54-6.2Z" />
                    <path id="_Path_227" data-name="&lt;Path&gt;"
                        d="M453,116.66a3.05,3.05,0,0,1-3.75,2,3,3,0,1,1,3.75-2Z" />
                    <path id="_Path_228" data-name="&lt;Path&gt;"
                        d="M434.33,91.81a3.11,3.11,0,0,1-1.2,6.08,3.1,3.1,0,1,1,1.2-6.08Z" />
                    <path id="_Path_229" data-name="&lt;Path&gt;"
                        d="M103.37,303.62a3.34,3.34,0,0,1-2.48-3.92,3.4,3.4,0,0,1,3.6-2.24,3.32,3.32,0,0,1,2.48,3.92A3.43,3.43,0,0,1,103.37,303.62Z" />
                    <path id="_Path_230" data-name="&lt;Path&gt;"
                        d="M398.62,68.73a2.9,2.9,0,0,1,2.78,3.07,3,3,0,1,1-6-.46A2.9,2.9,0,0,1,398.62,68.73Z" />
                    <path id="_Path_231" data-name="&lt;Path&gt;"
                        d="M472,247.71a3,3,0,0,1,2.6,3.26,3.23,3.23,0,0,1-3.3,2.64,3.05,3.05,0,0,1-2.52-3.33A2.81,2.81,0,0,1,472,247.71Z" />
                    <path id="_Path_232" data-name="&lt;Path&gt;"
                        d="M418.88,373.49a2.86,2.86,0,0,1,2.25,3.45,3,3,0,0,1-3.38,2.41,3,3,0,1,1,1.14-5.87Z" />
                    <path id="_Path_233" data-name="&lt;Path&gt;"
                        d="M307.06,38.85a2.89,2.89,0,0,1,2.79,3.07,3.13,3.13,0,0,1-3.18,2.76,3.09,3.09,0,0,1-2.78-3.16A2.94,2.94,0,0,1,307.06,38.85Z" />
                    <path id="_Path_234" data-name="&lt;Path&gt;"
                        d="M121.14,340.6a3,3,0,0,1-3.42,2.39,2.94,2.94,0,0,1-2.55-3.27,3,3,0,1,1,6,.89Z" />
                    <path id="_Path_235" data-name="&lt;Path&gt;"
                        d="M444.55,341.53a3,3,0,0,1-3,2.93,3,3,0,0,1-3.06-3.39,2.93,2.93,0,0,1,3.22-2.62A3,3,0,0,1,444.55,341.53Z" />
                    <path id="_Path_236" data-name="&lt;Path&gt;"
                        d="M261.93,411.18a3.09,3.09,0,0,1,2.36,3.46,3.2,3.2,0,0,1-3.5,2.36,3,3,0,0,1-2.29-3.49A3,3,0,0,1,261.93,411.18Z" />
                    <path id="_Path_237" data-name="&lt;Path&gt;"
                        d="M464.74,152.29a3,3,0,1,1-1.18,5.86,2.94,2.94,0,0,1-2.22-3.5A2.9,2.9,0,0,1,464.74,152.29Z" />
                    <path id="_Path_238" data-name="&lt;Path&gt;"
                        d="M291,39.78a3,3,0,0,1-3.33,2.46,2.82,2.82,0,0,1-2.24-3.4,2.78,2.78,0,0,1,2.92-2.21A2.91,2.91,0,0,1,291,39.78Z" />
                    <path id="_Path_239" data-name="&lt;Path&gt;"
                        d="M168.05,62.78A3,3,0,0,1,171.16,60a3.08,3.08,0,0,1,2.92,3.54A3,3,0,0,1,170.69,66,2.93,2.93,0,0,1,168.05,62.78Z" />
                    <path id="_Path_240" data-name="&lt;Path&gt;"
                        d="M135.08,358a3,3,0,0,1-.66,5.93,3,3,0,1,1,.66-5.93Z" />
                    <path id="_Path_241" data-name="&lt;Path&gt;"
                        d="M416.67,76.73a2.81,2.81,0,1,1,3.3-2.46A2.9,2.9,0,0,1,416.67,76.73Z" />
                    <path id="_Path_242" data-name="&lt;Path&gt;"
                        d="M439.35,357.31a2.71,2.71,0,0,1,2.68,3,3,3,0,0,1-3.23,2.55,3.1,3.1,0,0,1-2.4-2.82A2.71,2.71,0,0,1,439.35,357.31Z" />
                    <path id="_Path_243" data-name="&lt;Path&gt;"
                        d="M101.6,186.66a2.86,2.86,0,0,1-3,2.76,3.1,3.1,0,0,1-2.62-3.2,2.77,2.77,0,0,1,2.76-2.36A2.62,2.62,0,0,1,101.6,186.66Z" />
                    <path id="_Path_244" data-name="&lt;Path&gt;"
                        d="M96.77,202.31a2.85,2.85,0,0,1,2.7,3.11,3,3,0,0,1-3.14,2.75A3.15,3.15,0,0,1,93.59,205,3,3,0,0,1,96.77,202.31Z" />
                    <path id="_Path_245" data-name="&lt;Path&gt;"
                        d="M97.12,224.24a3,3,0,0,1-3.53,2.29,2.86,2.86,0,0,1-2-3.14,2.62,2.62,0,0,1,3.44-2.2A2.76,2.76,0,0,1,97.12,224.24Z" />
                    <path id="_Path_246" data-name="&lt;Path&gt;"
                        d="M472.17,269.5A3,3,0,0,1,469,272a2.92,2.92,0,0,1-2.36-3.34,2.83,2.83,0,0,1,5.58.82Z" />
                    <path id="_Path_247" data-name="&lt;Path&gt;"
                        d="M94.74,242.65a2.88,2.88,0,0,1-2.81,2.45,2.69,2.69,0,0,1-2.53-3.19,2.56,2.56,0,0,1,3-2.1A2.75,2.75,0,0,1,94.74,242.65Z" />
                    <path id="_Path_248" data-name="&lt;Path&gt;"
                        d="M474,229.28a2.79,2.79,0,0,1,2.81,3,3,3,0,0,1-2.87,2.46,2.8,2.8,0,0,1-2.73-3.1A2.59,2.59,0,0,1,474,229.28Z" />
                    <path id="_Path_249" data-name="&lt;Path&gt;"
                        d="M328.44,44.09a2.88,2.88,0,0,1-3.19,2.68,2.81,2.81,0,0,1-2.35-2.87,2.63,2.63,0,0,1,2.55-2.65A2.8,2.8,0,0,1,328.44,44.09Z" />
                    <path id="_Path_250" data-name="&lt;Path&gt;"
                        d="M104.48,319.54a2.73,2.73,0,0,1-2.89,2.3,2.63,2.63,0,0,1-2.64-3.1,2.78,2.78,0,0,1,2.84-2.38A2.87,2.87,0,0,1,104.48,319.54Z" />
                    <path id="_Path_251" data-name="&lt;Path&gt;"
                        d="M379,409.37a2.88,2.88,0,0,1-3.29,2.39,2.6,2.6,0,0,1-2.32-2.74,2.85,2.85,0,0,1,2.94-2.81A3.07,3.07,0,0,1,379,409.37Z" />
                    <path id="_Path_252" data-name="&lt;Path&gt;"
                        d="M150.7,384.68a3.06,3.06,0,0,1-2.42-3.34,2.84,2.84,0,0,1,3.42-2.18,2.58,2.58,0,0,1,2.12,2.9A2.91,2.91,0,0,1,150.7,384.68Z" />
                    <path id="_Path_253" data-name="&lt;Path&gt;"
                        d="M282.87,417.06a2.87,2.87,0,0,1-3.63,1.84,2.58,2.58,0,0,1-1.85-3.07,2.88,2.88,0,0,1,3.34-2.3A3.07,3.07,0,0,1,282.87,417.06Z" />
                    <path id="_Path_254" data-name="&lt;Path&gt;"
                        d="M466.31,139.45a2.9,2.9,0,0,1-2.51-3.22,2.75,2.75,0,0,1,2.75-2.38,2.82,2.82,0,0,1,2.85,2.9A3,3,0,0,1,466.31,139.45Z" />
                    <path id="_Path_255" data-name="&lt;Path&gt;"
                        d="M239.87,411.36a2.58,2.58,0,0,1,2.77-2.29,2.72,2.72,0,0,1,2.78,2.92,3.08,3.08,0,0,1-3.15,2.68A3,3,0,0,1,239.87,411.36Z" />
                    <path id="_Path_256" data-name="&lt;Path&gt;"
                        d="M192.54,43.9a3,3,0,0,1,2.36,3.36,2.93,2.93,0,0,1-3.5,2.16,2.74,2.74,0,0,1-2.05-3A2.79,2.79,0,0,1,192.54,43.9Z" />
                    <path id="_Path_257" data-name="&lt;Path&gt;"
                        d="M129.59,93.1a2.57,2.57,0,0,1,2.13,3,2.81,2.81,0,0,1-3.38,2.37,3,3,0,0,1-2.22-3A2.85,2.85,0,0,1,129.59,93.1Z" />
                    <path id="_Path_258" data-name="&lt;Path&gt;"
                        d="M478.82,213.49A2.55,2.55,0,0,1,476.2,216a2.64,2.64,0,0,1-2.64-3.07,2.58,2.58,0,0,1,2.9-2.19A2.51,2.51,0,0,1,478.82,213.49Z" />
                    <path id="_Path_259" data-name="&lt;Path&gt;"
                        d="M101,170.65a2.85,2.85,0,0,1-2.6-2.66,2.62,2.62,0,0,1,2.5-2.69,2.7,2.7,0,0,1,2.92,2.89A2.91,2.91,0,0,1,101,170.65Z" />
                    <path id="_Path_260" data-name="&lt;Path&gt;"
                        d="M469.73,288.08a2.56,2.56,0,0,1-2.75,2.37,2.69,2.69,0,0,1-2.58-3.16,2.77,2.77,0,0,1,3.06-2.05A2.52,2.52,0,0,1,469.73,288.08Z" />
                    <path id="_Path_261" data-name="&lt;Path&gt;"
                        d="M298.73,421.27a2.51,2.51,0,0,1-2.52-2.64,2.79,2.79,0,0,1,2.48-2.77,2.88,2.88,0,0,1,2.87,3A2.78,2.78,0,0,1,298.73,421.27Z" />
                    <path id="_Path_262" data-name="&lt;Path&gt;"
                        d="M345,43.64a2.72,2.72,0,0,1,2.06,3,2.6,2.6,0,0,1-3.47,2.05,2.49,2.49,0,0,1-1.68-3.18A2.59,2.59,0,0,1,345,43.64Z" />
                    <path id="_Path_263" data-name="&lt;Path&gt;"
                        d="M272,37.38a2.6,2.6,0,0,1-2.68,2.43,2.53,2.53,0,0,1-2.51-2.58,2.69,2.69,0,0,1,3-2.74A2.79,2.79,0,0,1,272,37.38Z" />
                    <path id="_Path_264" data-name="&lt;Path&gt;"
                        d="M226.46,410.12a2.84,2.84,0,0,1-3.09,2.08,2.68,2.68,0,0,1-2-3.55,2.58,2.58,0,0,1,3.23-1.71A2.79,2.79,0,0,1,226.46,410.12Z" />
                    <path id="_Path_265" data-name="&lt;Path&gt;"
                        d="M320.15,421a2.72,2.72,0,0,1-2.74,2.44,2.61,2.61,0,0,1,.37-5.21A2.67,2.67,0,0,1,320.15,421Z" />
                    <path id="_Path_266" data-name="&lt;Path&gt;"
                        d="M92.37,261.18a2.63,2.63,0,1,1-2.46-2.69A2.69,2.69,0,0,1,92.37,261.18Z" />
                    <path id="_Path_267" data-name="&lt;Path&gt;"
                        d="M363,51.08a2.47,2.47,0,0,1-2.34-2.69A2.49,2.49,0,1,1,363,51.08Z" />
                    <path id="_Path_268" data-name="&lt;Path&gt;"
                        d="M207.56,407.4a2.52,2.52,0,0,1-2.64,2.41,2.48,2.48,0,0,1-2.34-2.7,2.49,2.49,0,1,1,5,.29Z" />
                    <path id="_Path_269" data-name="&lt;Path&gt;"
                        d="M105.92,149.81a2.66,2.66,0,0,1-3,2,2.57,2.57,0,0,1-2-3,2.52,2.52,0,0,1,3-2A2.55,2.55,0,0,1,105.92,149.81Z" />
                    <path id="_Path_270" data-name="&lt;Path&gt;"
                        d="M481,195a2.44,2.44,0,0,1-2.79,2.2,2.5,2.5,0,1,1,.55-5A2.45,2.45,0,0,1,481,195Z" />
                    <path id="_Path_271" data-name="&lt;Path&gt;"
                        d="M234.06,33.71a7.06,7.06,0,0,1-2.48,1.14,2.12,2.12,0,0,1-2-2.81,2.31,2.31,0,0,1,2.58-1.77C233.6,30.45,234.5,31.74,234.06,33.71Z" />
                    <path id="_Path_272" data-name="&lt;Path&gt;"
                        d="M253.11,34.9a2.47,2.47,0,0,1-2.63,2.45,2.46,2.46,0,0,1,0-4.91A2.51,2.51,0,0,1,253.11,34.9Z" />
                    <path id="_Path_273" data-name="&lt;Path&gt;"
                        d="M89.92,280.06a2.4,2.4,0,0,1-3,1.87,2.28,2.28,0,0,1-1.88-2.43,2.47,2.47,0,0,1,2.71-2.26A2.53,2.53,0,0,1,89.92,280.06Z" />
                    <path id="_Path_274" data-name="&lt;Path&gt;"
                        d="M480.43,178.46a2.41,2.41,0,1,1,.91-4.71,2.41,2.41,0,0,1,1.85,2.51A2.47,2.47,0,0,1,480.43,178.46Z" />
                    <path id="_Path_275" data-name="&lt;Path&gt;"
                        d="M382.06,48.29a2.54,2.54,0,0,1,2.18,2.8,2.85,2.85,0,0,1-2.31,2.18,2.6,2.6,0,0,1-2.48-2.56A2.53,2.53,0,0,1,382.06,48.29Z" />
                    <path id="_Path_276" data-name="&lt;Path&gt;"
                        d="M467.26,306.6a2.36,2.36,0,0,1-2.76,2.23,2.39,2.39,0,0,1-2.17-2.29,2.51,2.51,0,0,1,2.52-2.56A2.39,2.39,0,0,1,467.26,306.6Z" />
                    <path id="_Path_277" data-name="&lt;Path&gt;"
                        d="M186,407.35a2.36,2.36,0,0,1-2-2.91,2.39,2.39,0,0,1,4.7.56A2.38,2.38,0,0,1,186,407.35Z" />
                    <path id="_Path_278" data-name="&lt;Path&gt;"
                        d="M336.81,425.48c-2.1-.17-3.14-1.37-2.83-2.74a2.36,2.36,0,0,1,2.42-2,2.15,2.15,0,0,1,2.15,2.71C338.27,424.31,337.26,425,336.81,425.48Z" />
                    <path id="_Path_279" data-name="&lt;Path&gt;"
                        d="M463.44,322.8a6.77,6.77,0,0,1,1.36,2.33,2.12,2.12,0,0,1-2.65,2.22,2.3,2.3,0,0,1-2-2.38C460.21,323.52,461.42,322.53,463.44,322.8Z" />
                    <path id="_Path_280" data-name="&lt;Path&gt;"
                        d="M105,133c-.42-.51-1.43-1.22-1.68-2.13-.37-1.33,1-2.63,2.4-2.61A2.34,2.34,0,0,1,108,131C107.85,132.25,106.86,133.08,105,133Z" />
                    <path id="_Path_281" data-name="&lt;Path&gt;"
                        d="M80.22,182.26c.61.89,1.3,1.45,1.26,2a2.23,2.23,0,0,1-1.21,1.51c-.78.34-2-.83-1.68-1.64C78.82,183.51,79.47,183.08,80.22,182.26Z" />
                    <path id="_Path_282" data-name="&lt;Path&gt;"
                        d="M261.36,432.67c-1.12.71-1.73,1.4-2.25,1.34a2.1,2.1,0,0,1-1.42-1.35,1.13,1.13,0,0,1,1.41-1.33A9.46,9.46,0,0,1,261.36,432.67Z" />
                    <path id="_Path_283" data-name="&lt;Path&gt;"
                        d="M280,435.63a9.87,9.87,0,0,1-2.52.63,1.1,1.1,0,0,1-1-1.66,2.14,2.14,0,0,1,1.73-1C278.72,433.72,279.11,434.6,280,435.63Z" />
                    <path id="_Path_284" data-name="&lt;Path&gt;"
                        d="M490.61,234c1.09-.56,1.78-1.21,2.25-1.08s.87,1,1.29,1.55c-.56.39-1.12,1.08-1.68,1.08S491.49,234.77,490.61,234Z" />
                    <path id="_Path_285" data-name="&lt;Path&gt;"
                        d="M75.21,223.73c-.51-1.12-1.13-1.84-1-2.36s1-.89,1.56-1.32c.42.58,1.2,1.17,1.17,1.72S76.08,222.8,75.21,223.73Z" />
                    <path id="_Path_286" data-name="&lt;Path&gt;"
                        d="M492.36,253.92a8.86,8.86,0,0,1-2.68.09,1.1,1.1,0,0,1-.48-1.85,2.15,2.15,0,0,1,1.92-.41C491.61,252,491.79,252.85,492.36,253.92Z" />
                    <path id="_Path_287" data-name="&lt;Path&gt;"
                        d="M79.73,203.29c-.9.51-1.46,1.05-2.06,1.1a1.35,1.35,0,0,1-1.12-2,2.1,2.1,0,0,1,1.7-.84C78.74,201.67,79.09,202.5,79.73,203.29Z" />
                    <path id="_Path_288" data-name="&lt;Path&gt;"
                        d="M240.51,428.47c.6.89,1.19,1.4,1.3,2,.15.88-1.11,1.8-1.86,1.35a2.22,2.22,0,0,1-1-1.68C239,429.64,239.79,429.2,240.51,428.47Z" />
                    <path id="_Path_289" data-name="&lt;Path&gt;"
                        d="M291.1,18.82c.34,1.07.84,1.8.66,2.29a2.19,2.19,0,0,1-1.56,1.16,1.39,1.39,0,0,1-1.14-2A9,9,0,0,1,291.1,18.82Z" />
                    <path id="_Path_290" data-name="&lt;Path&gt;"
                        d="M488.17,273.41c-.72-.81-1.33-1.24-1.53-1.81-.28-.78,1-1.95,1.69-1.58a2.33,2.33,0,0,1,1.19,1.58C489.55,272.08,488.81,272.61,488.17,273.41Z" />
                    <path id="_Path_291" data-name="&lt;Path&gt;"
                        d="M311.19,23.35c-1,.59-1.75,1.32-2.22,1.18s-.9-1.06-1.33-1.64c.58-.42,1.15-1.16,1.73-1.16S310.35,22.57,311.19,23.35Z" />
                    <path id="_Path_292" data-name="&lt;Path&gt;"
                        d="M329.91,25.93c-1.18.38-1.94.89-2.38.69s-.71-1.09-1-1.67c.6-.31,1.24-.91,1.79-.84S329.12,25,329.91,25.93Z" />
                </g>
                <g id="_Group_4" data-name="&lt;Group&gt;">
                    <path id="_Compound_Path_2" data-name="&lt;Compound Path&gt;"
                        d="M121.35,286.18c-1.05-1.12-1.75-2-2.54-2.69a56.34,56.34,0,0,0-23.51-13c-2.6-.71-5.22-1.35-7.82-2.08a21.09,21.09,0,0,1-3.6-1.22c-3.42-1.67-4.3-5.32-1.89-8.31a21.38,21.38,0,0,1,3.86-3.48c4.42-3.35,8.93-6.59,13.36-9.92,2.78-2.1,5.5-4.28,8.23-6.45,9.19-7.33,16.14-16.43,21.86-26.61,5.92-10.54,7.39-21.63,5.56-33.44a67.69,67.69,0,0,0-17.94-36.45c-3-3.25-6-6.49-9-9.77a12.78,12.78,0,0,1-2-2.65,2.39,2.39,0,0,1,.41-3.06,3.73,3.73,0,0,1,2.54-.87,16.73,16.73,0,0,1,4,1.37c6.12,2.62,12.17,5.41,18.34,7.9a181,181,0,0,0,30,9.23,67.18,67.18,0,0,0,22.73,1.09c9.88-1.27,18.49-5.48,26.15-11.7a90.4,90.4,0,0,0,17.51-19.27,115.7,115.7,0,0,0,16.19-36.18c1.82-6.86,3.28-13.82,4.92-20.74a48.58,48.58,0,0,1,1.65-6.41c1.57-4,5.21-5,8.29-2a46.9,46.9,0,0,1,6.07,7.84c3.84,5.8,7.41,11.78,11.25,17.59a140.35,140.35,0,0,0,22.81,26,46.14,46.14,0,0,0,24.16,11.43,57.28,57.28,0,0,0,28.15-2.65,100.09,100.09,0,0,0,33.48-19.54c6.95-6,13.58-12.38,20.37-18.57,1.87-1.71,3.71-3.46,5.69-5a14.4,14.4,0,0,1,3.66-2.15,4.42,4.42,0,0,1,6.09,2.83,9.71,9.71,0,0,1,.35,4.63c-.73,3.55-1.78,7-2.8,10.51-1.54,5.3-3.56,10.51-4.68,15.89-3,14.45-4.32,29.07-2.51,43.81a57.07,57.07,0,0,0,10.81,27,43.7,43.7,0,0,0,15.14,12.8c7.3,3.83,14.9,7.09,23.18,8.33a48.63,48.63,0,0,0,6.14.6,212.87,212.87,0,0,0,26.61-1.53c.9-.09,1.81-.09,3.37-.15-.92,1.18-1.42,1.93-2,2.58-3.2,3.51-6.38,7-9.67,10.46a44,44,0,0,1-4.94,4.41c-4.4,3.38-8.89,6.64-13.33,10-15.58,11.67-24.51,27.42-28.59,46.15a81.7,81.7,0,0,0-2,24c.81,10.19,3.12,19.94,8.61,28.77a21.39,21.39,0,0,1,2.34,5.16c1,3.44-1,6.34-4.59,6.81a19.61,19.61,0,0,1-3.8,0c-3-.2-6-.47-9-.73-17.35-1.48-33,3.25-47.14,13.06-.39.27-.75.59-1.14.86-15.09,10.72-24.44,25.42-29.92,42.78-1.38,4.37-2.54,8.8-3.9,13.18a34.67,34.67,0,0,1-2.4,6.16c-2.21,4.09-5.61,4.92-9.56,2.47a26.14,26.14,0,0,1-3.77-2.88q-5.28-4.79-10.45-9.7c-7.67-7.3-16.26-13.16-26.4-16.49a58.18,58.18,0,0,0-10.17-2.33,33.31,33.31,0,0,0-16.8,2.29,78.52,78.52,0,0,0-22.49,13.1,114.23,114.23,0,0,0-19.51,20.67c-1.75,2.44-3.54,4.86-5.42,7.21a18.66,18.66,0,0,1-3.33,3.35,5.56,5.56,0,0,1-7.74-.7,17.82,17.82,0,0,1-2.83-4.35c-1.75-3.72-3.28-7.53-5-11.28-2.47-5.47-4.87-11-7.52-16.37a54,54,0,0,0-12.28-16.18,68.66,68.66,0,0,0-7.5-5.82,31.88,31.88,0,0,0-19.78-5.69c-3.8.17-7.59.61-11.37,1-2.37.25-4.71.75-7.08,1-7.65.65-11.14-3.24-9.42-10.61.79-3.38,1.93-6.67,2.89-10,.74-2.58,1.45-5.16,2.28-8.13a8.88,8.88,0,0,0-2.38,0,101.36,101.36,0,0,0-32,17.25C75.57,367.46,59.41,388.3,47,412.15A145.87,145.87,0,0,0,31.25,463q-.79,6.82-1.76,13.63a13.64,13.64,0,0,1-1.08,4.08,3.24,3.24,0,0,1-5.78.37A12.52,12.52,0,0,1,21,476.72c-.68-3.73-1.19-7.49-1.69-11.24a156.24,156.24,0,0,1,.29-42C21.46,410.09,24.26,397,29,384.36a186.66,186.66,0,0,1,34.35-57c2.29-2.62,4.74-5.11,7.09-7.68,10.61-11.6,23.4-20.34,37.16-27.75,3.19-1.72,6.72-2.8,10.08-4.19C118.82,287.29,119.91,286.8,121.35,286.18Zm11.55.54c-1.68,1.1-2.83,1.94-4.06,2.63s-2.54,1.29-3.84,1.86c-4.5,2-9.21,3.57-13.47,5.95-10.82,6-21.19,12.78-30.25,21.31C54.88,343.36,36.9,373.1,29,408.6a164.52,164.52,0,0,0-4.35,39.47c0,1.48.17,3,.26,4.45a13.51,13.51,0,0,0,1.66-4.44c.54-2.31,1-4.63,1.59-6.92,8.16-31.32,24.27-58.17,46.57-81.48a174.82,174.82,0,0,1,25.06-21.1,75,75,0,0,1,23.07-11c4.72-1.35,9.48-2.56,14.23-3.84l4.31-1.14a9.25,9.25,0,0,1,.17,2,58.9,58.9,0,0,1-1.16,6c-1.65,6.09-3.42,12.16-5.13,18.24-.42,1.48-.8,3-1.24,4.62a10.86,10.86,0,0,0,5.46-.13,83.66,83.66,0,0,1,17-1.57,38.82,38.82,0,0,1,17.82,4.48A57.58,57.58,0,0,1,187.83,366a64.77,64.77,0,0,1,14,19c3.37,7.14,6.4,14.45,9.6,21.67.62,1.41.82,3.07,2.35,4.12,1.58-.9,2.38-2.48,3.34-3.87,6.52-9.46,14.53-17.5,23.33-24.87A81.14,81.14,0,0,1,267,367.61a38.33,38.33,0,0,1,16.41-2.06,63,63,0,0,1,16.13,3.93,80.81,80.81,0,0,1,26.54,17.25c3.22,3,6.44,6.1,9.69,9.12a21.27,21.27,0,0,0,2.44,1.67c.48-1.2.88-2,1.15-2.92,1-3.17,1.88-6.36,2.82-9.54a119.93,119.93,0,0,1,10.27-24.93,69.42,69.42,0,0,1,10.7-14.46A100.06,100.06,0,0,1,378.7,332.4c13.63-9.24,28.67-14,45.25-13.62,3.33.08,6.64.55,10,.76.84.05,1.87.58,2.55-.6a7.32,7.32,0,0,0-.44-1.26c-4.88-8.71-7.15-18.16-8.31-28s0-19.24,2.08-28.69c4.53-20.49,14.72-37.53,31.51-50.43,4.39-3.37,9-6.44,13.52-9.69.55-.4,1.58-.55,1.3-1.87-1.38,0-2.77,0-4.16,0-3.33-.07-6.68,0-10-.31-10.92-1.13-21-5.1-30.41-10.39A51,51,0,0,1,414,172.57a66.76,66.76,0,0,1-11.75-32.17,153.13,153.13,0,0,1,2.34-41,121.13,121.13,0,0,1,5.62-19.07,5.69,5.69,0,0,0,.59-3.85c-1.28,1.13-2.23,1.94-3.14,2.78-6,5.45-11.89,11-17.91,16.33a111.67,111.67,0,0,1-24,16.17A77.76,77.76,0,0,1,340.08,120c-17.44,2.17-33.16-1.68-46.52-13.35A135.53,135.53,0,0,1,269.65,79.7c-3.85-5.79-7.42-11.77-11.14-17.65-.54-.85-.71-2.1-2.32-2.2-.26.9-.55,1.78-.76,2.68-1.35,5.68-2.55,11.41-4,17.05-3.57,13.52-8.61,26.43-16.3,38.22A96.3,96.3,0,0,1,215,140.47c-8.42,6.8-17.89,11.45-28.69,13a75,75,0,0,1-27-1.11,180.43,180.43,0,0,1-28.56-9c-.7-.28-1.5-1.33-2.41-.26a2,2,0,0,0,.15.48c.35.53.69,1.06,1.08,1.56A69.89,69.89,0,0,1,143.46,178c1.22,8.19,1.55,16.36-.69,24.45a72.24,72.24,0,0,1-7.19,16.47c-6.85,12-16.13,21.86-27.13,30.16-4.43,3.34-8.91,6.61-13.34,10-.7.53-1.75.87-1.54,2.52,7.46,2,15,4.45,21.64,8.79A64.16,64.16,0,0,1,132.9,286.72Z" />
                    <path id="_Path_293" data-name="&lt;Path&gt;" class="cls-1"
                        d="M132.9,286.72a64.16,64.16,0,0,0-17.69-16.39c-6.69-4.34-14.18-6.78-21.64-8.79-.22-1.64.84-2,1.54-2.52,4.43-3.34,8.91-6.61,13.34-10,11-8.31,20.28-18.15,27.13-30.16a72.24,72.24,0,0,0,7.19-16.47c2.24-8.09,1.91-16.26.69-24.45a69.89,69.89,0,0,0-13.86-32.84c-.38-.5-.73-1-1.08-1.56a2,2,0,0,1-.15-.48c.91-1.07,1.71,0,2.41.26a180.43,180.43,0,0,0,28.56,9,75,75,0,0,0,27,1.11c10.8-1.54,20.27-6.19,28.69-13a96.3,96.3,0,0,0,20.08-22.66c7.68-11.79,12.73-24.7,16.3-38.22,1.49-5.65,2.69-11.37,4-17.05.21-.9.5-1.78.76-2.68,1.61.1,1.79,1.35,2.32,2.2,3.72,5.88,7.29,11.86,11.14,17.65a135.53,135.53,0,0,0,23.91,26.91c13.35,11.67,29.08,15.52,46.52,13.35a77.76,77.76,0,0,0,25.69-8.25,111.67,111.67,0,0,0,24-16.17c6-5.38,11.94-10.89,17.91-16.33.92-.84,1.86-1.65,3.14-2.78a5.69,5.69,0,0,1-.59,3.85,121.13,121.13,0,0,0-5.62,19.07,153.13,153.13,0,0,0-2.34,41A66.76,66.76,0,0,0,414,172.57a51,51,0,0,0,17.56,15.75c9.45,5.29,19.49,9.26,30.41,10.39,3.3.34,6.65.23,10,.31,1.39,0,2.79,0,4.16,0,.28,1.32-.75,1.47-1.3,1.87-4.49,3.25-9.13,6.31-13.52,9.69-16.8,12.89-27,29.93-31.51,50.43-2.09,9.46-3.23,19-2.08,28.69s3.43,19.27,8.31,28a7.32,7.32,0,0,1,.44,1.26c-.68,1.18-1.72.65-2.55.6-3.33-.21-6.64-.67-10-.76-16.58-.41-31.62,4.38-45.25,13.62a100.06,100.06,0,0,0-15.53,13.24,69.42,69.42,0,0,0-10.7,14.46A119.93,119.93,0,0,0,342.19,385c-.94,3.18-1.85,6.37-2.82,9.54-.27.88-.67,1.71-1.15,2.92a21.27,21.27,0,0,1-2.44-1.67c-3.26-3-6.47-6.07-9.69-9.12a80.81,80.81,0,0,0-26.54-17.25,63,63,0,0,0-16.13-3.93A38.33,38.33,0,0,0,267,367.61a81.14,81.14,0,0,0-26.55,14.49c-8.8,7.37-16.81,15.41-23.33,24.87-1,1.39-1.76,3-3.34,3.87-1.54-1.05-1.73-2.72-2.35-4.12-3.2-7.22-6.23-14.53-9.6-21.67a64.77,64.77,0,0,0-14-19,57.58,57.58,0,0,0-13.47-9.67,38.82,38.82,0,0,0-17.82-4.48,83.66,83.66,0,0,0-17,1.57,10.86,10.86,0,0,1-5.46.13c.44-1.65.82-3.14,1.24-4.62,1.71-6.08,3.48-12.14,5.13-18.24a58.9,58.9,0,0,0,1.16-6,9.25,9.25,0,0,0-.17-2l-4.31,1.14c-4.74,1.27-9.51,2.48-14.23,3.84a75,75,0,0,0-23.07,11,174.82,174.82,0,0,0-25.06,21.1c-22.3,23.3-38.41,50.15-46.57,81.48-.6,2.29-1,4.62-1.59,6.92a13.51,13.51,0,0,1-1.66,4.44c-.09-1.48-.22-3-.26-4.45A164.52,164.52,0,0,1,29,408.6c7.89-35.5,25.88-65.24,52.27-90.12,9.05-8.53,19.42-15.28,30.25-21.31,4.27-2.38,9-4,13.47-5.95,1.3-.57,2.6-1.16,3.84-1.86S131.22,287.82,132.9,286.72Z" />
                </g>
            </g>
        </g>
    </g>
</svg>