<svg xmlns="http://www.w3.org/2000/svg" viewBox="0 0 512 512">
    <defs>
        <style>.cls-1{fill:#211c1d;}.cls-2{fill:#ff260d;}.cls-3{fill:#191919;opacity:0.2;}</style>
    </defs>
    <title>description_20</title>
    <g id="OBJECTS">
        <g id="_Group_" data-name="&lt;Group&gt;">
            <g id="_Group_2" data-name="&lt;Group&gt;">
                <path id="_Path_" data-name="&lt;Path&gt;" class="cls-1"
                    d="M246.78,276A10.11,10.11,0,1,1,257,265.9,10.19,10.19,0,0,1,246.78,276Z" />
                <path id="_Path_2" data-name="&lt;Path&gt;" class="cls-1"
                    d="M254.55,234.11a10.11,10.11,0,1,1-10.88,9.47A10.12,10.12,0,0,1,254.55,234.11Z" />
                <path id="_Path_3" data-name="&lt;Path&gt;" class="cls-1"
                    d="M223.81,268.76a10.11,10.11,0,1,1,10.81-9.55A10.13,10.13,0,0,1,223.81,268.76Z" />
                <path id="_Path_4" data-name="&lt;Path&gt;" class="cls-1"
                    d="M277.29,261.53a10.11,10.11,0,1,1,10.32-10.05A10.18,10.18,0,0,1,277.29,261.53Z" />
                <path id="_Path_5" data-name="&lt;Path&gt;" class="cls-1"
                    d="M239.28,298.35a10.11,10.11,0,1,1,10.29-10.07A10.19,10.19,0,0,1,239.28,298.35Z" />
                <path id="_Path_6" data-name="&lt;Path&gt;" class="cls-1"
                    d="M280.13,273.51A10.44,10.44,0,1,1,270.27,263,10.2,10.2,0,0,1,280.13,273.51Z" />
                <path id="_Path_7" data-name="&lt;Path&gt;" class="cls-1"
                    d="M288.11,324.27a10.27,10.27,0,1,1-10.47-9.8A10,10,0,0,1,288.11,324.27Z" />
                <path id="_Path_8" data-name="&lt;Path&gt;" class="cls-1"
                    d="M262.28,305.53a10.06,10.06,0,1,1,10.34-9.94A10.09,10.09,0,0,1,262.28,305.53Z" />
                <path id="_Path_9" data-name="&lt;Path&gt;" class="cls-1"
                    d="M248.81,214.66a10.36,10.36,0,1,1-10.22-10.06A10,10,0,0,1,248.81,214.66Z" />
                <path id="_Path_10" data-name="&lt;Path&gt;" class="cls-1"
                    d="M254.66,327.15a10,10,0,0,1-10.21-10c0-5.74,4.63-10.08,10.59-10a10,10,0,1,1-.38,20Z" />
                <path id="_Path_11" data-name="&lt;Path&gt;" class="cls-1"
                    d="M271.94,221.75a10.39,10.39,0,1,1-10.32-10A10.08,10.08,0,0,1,271.94,221.75Z" />
                <path id="_Path_12" data-name="&lt;Path&gt;" class="cls-1"
                    d="M231.79,320.58a10,10,0,1,1,10.19-10A10,10,0,0,1,231.79,320.58Z" />
                <path id="_Path_13" data-name="&lt;Path&gt;" class="cls-1"
                    d="M310,258.65a10.39,10.39,0,1,1-10.23-10.05A10.09,10.09,0,0,1,310,258.65Z" />
                <path id="_Path_14" data-name="&lt;Path&gt;" class="cls-1"
                    d="M226.31,207.51a10.27,10.27,0,1,1-10.21-10.06A10,10,0,0,1,226.31,207.51Z" />
                <path id="_Path_15" data-name="&lt;Path&gt;" class="cls-1"
                    d="M193.67,263.82a10,10,0,1,1-10.31,9.93A10,10,0,0,1,193.67,263.82Z" />
                <path id="_Path_16" data-name="&lt;Path&gt;" class="cls-1"
                    d="M302.37,206.77a10.27,10.27,0,1,1-10.29-10A10,10,0,0,1,302.37,206.77Z" />
                <path id="_Path_17" data-name="&lt;Path&gt;" class="cls-1"
                    d="M219.55,303.25a10.29,10.29,0,1,1-10.4-9.85A10,10,0,0,1,219.55,303.25Z" />
                <path id="_Path_18" data-name="&lt;Path&gt;" class="cls-1"
                    d="M322.54,275.16a9.94,9.94,0,1,1,10.38-9.89A10,10,0,0,1,322.54,275.16Z" />
                <path id="_Path_19" data-name="&lt;Path&gt;" class="cls-1"
                    d="M325.48,287.86c-.12,5.57-4.74,9.79-10.57,9.68a10,10,0,0,1-10-10.23c.12-5.57,4.74-9.79,10.57-9.68A10,10,0,0,1,325.48,287.86Z" />
                <path id="_Path_20" data-name="&lt;Path&gt;" class="cls-1"
                    d="M284.83,292.69A10,10,0,0,1,295,302.81c0,5.74-4.73,10.07-10.71,9.91a10,10,0,1,1,.55-20Z" />
                <path id="_Path_21" data-name="&lt;Path&gt;" class="cls-1"
                    d="M211.43,251.36a10.32,10.32,0,1,1-10.3-9.92A10,10,0,0,1,211.43,251.36Z" />
                <path id="_Path_22" data-name="&lt;Path&gt;" class="cls-1"
                    d="M279.3,199.43A10.29,10.29,0,1,1,269,189.54,10,10,0,0,1,279.3,199.43Z" />
                <path id="_Path_23" data-name="&lt;Path&gt;" class="cls-1"
                    d="M241.38,236.91a10.39,10.39,0,1,1-10.28-10A10.09,10.09,0,0,1,241.38,236.91Z" />
                <path id="_Path_24" data-name="&lt;Path&gt;" class="cls-1"
                    d="M292,270.3a10.06,10.06,0,1,1-10.24,10A10.1,10.1,0,0,1,292,270.3Z" />
                <path id="_Path_25" data-name="&lt;Path&gt;" class="cls-1"
                    d="M317.36,236.46a10.32,10.32,0,0,1-20.63-.47c.14-5.55,4.74-9.77,10.55-9.67A10,10,0,0,1,317.36,236.46Z" />
                <path id="_Path_26" data-name="&lt;Path&gt;" class="cls-1"
                    d="M295,229.08A10.39,10.39,0,1,1,284.81,219,10.1,10.1,0,0,1,295,229.08Z" />
                <path id="_Path_27" data-name="&lt;Path&gt;" class="cls-1"
                    d="M218.9,229.69a10.32,10.32,0,1,1-10.28-9.94A10,10,0,0,1,218.9,229.69Z" />
                <path id="_Path_28" data-name="&lt;Path&gt;" class="cls-1"
                    d="M216.77,291.07a10.06,10.06,0,1,1,10.35-9.93A10.09,10.09,0,0,1,216.77,291.07Z" />
                <path id="_Path_29" data-name="&lt;Path&gt;" class="cls-1"
                    d="M307.62,300a9.91,9.91,0,1,1-10.13,10.09A10,10,0,0,1,307.62,300Z" />
                <path id="_Path_30" data-name="&lt;Path&gt;" class="cls-1"
                    d="M256.17,193a10.24,10.24,0,1,1-10.22-10A10,10,0,0,1,256.17,193Z" />
                <path id="_Path_31" data-name="&lt;Path&gt;" class="cls-1"
                    d="M201.73,334.91A9.86,9.86,0,1,1,212,325.2,10.06,10.06,0,0,1,201.73,334.91Z" />
                <path id="_Path_32" data-name="&lt;Path&gt;" class="cls-1"
                    d="M310.43,331.74a10.19,10.19,0,1,1-10-10A10.06,10.06,0,0,1,310.43,331.74Z" />
                <path id="_Path_33" data-name="&lt;Path&gt;" class="cls-1"
                    d="M224,322.42a9.87,9.87,0,1,1-10,9.94A10,10,0,0,1,224,322.42Z" />
                <path id="_Path_34" data-name="&lt;Path&gt;" class="cls-1"
                    d="M340.35,243.78a10.22,10.22,0,1,1-9.8-10.12A10,10,0,0,1,340.35,243.78Z" />
                <path id="_Path_35" data-name="&lt;Path&gt;" class="cls-1"
                    d="M223.39,175.84a9.85,9.85,0,1,1-10,9.9A10.07,10.07,0,0,1,223.39,175.84Z" />
                <path id="_Path_36" data-name="&lt;Path&gt;" class="cls-1"
                    d="M178.08,235a9.87,9.87,0,1,1-10.24,9.73A10,10,0,0,1,178.08,235Z" />
                <path id="_Path_37" data-name="&lt;Path&gt;" class="cls-1"
                    d="M160.38,266.58a10.18,10.18,0,1,1,10.12,9.83A10.05,10.05,0,0,1,160.38,266.58Z" />
                <path id="_Path_38" data-name="&lt;Path&gt;" class="cls-1"
                    d="M186.05,306a9.89,9.89,0,1,1,10.34-9.6A10,10,0,0,1,186.05,306Z" />
                <path id="_Path_39" data-name="&lt;Path&gt;" class="cls-1"
                    d="M314.63,204.07a9.89,9.89,0,1,1-10.33,9.61A10,10,0,0,1,314.63,204.07Z" />
                <path id="_Path_40" data-name="&lt;Path&gt;" class="cls-1"
                    d="M185.39,212.64a9.87,9.87,0,1,1-10.09,9.88A10,10,0,0,1,185.39,212.64Z" />
                <path id="_Path_41" data-name="&lt;Path&gt;" class="cls-1"
                    d="M257.48,339.64a10.2,10.2,0,1,1-10-10A10,10,0,0,1,257.48,339.64Z" />
                <path id="_Path_42" data-name="&lt;Path&gt;" class="cls-1"
                    d="M280.53,346.68a10.16,10.16,0,1,1-10.23-9.76A10.07,10.07,0,0,1,280.53,346.68Z" />
                <path id="_Path_43" data-name="&lt;Path&gt;" class="cls-1"
                    d="M338.13,285a9.84,9.84,0,1,1-10,10A10.09,10.09,0,0,1,338.13,285Z" />
                <path id="_Path_44" data-name="&lt;Path&gt;" class="cls-1"
                    d="M276.5,168a9.83,9.83,0,1,1-10.17,9.82A10.08,10.08,0,0,1,276.5,168Z" />
                <path id="_Path_45" data-name="&lt;Path&gt;" class="cls-1"
                    d="M192.89,190.35a9.81,9.81,0,1,1-10.05,9.88A10.1,10.1,0,0,1,192.89,190.35Z" />
                <path id="_Path_46" data-name="&lt;Path&gt;" class="cls-1"
                    d="M298.8,175.23a9.81,9.81,0,1,1-10,9.9A10.09,10.09,0,0,1,298.8,175.23Z" />
                <path id="_Path_47" data-name="&lt;Path&gt;" class="cls-1"
                    d="M355.88,272.36a10.14,10.14,0,1,1-10.24-9.7A10.08,10.08,0,0,1,355.88,272.36Z" />
                <path id="_Path_48" data-name="&lt;Path&gt;" class="cls-1"
                    d="M347.74,221.45a10.14,10.14,0,1,1-9.86-10.07A10.13,10.13,0,0,1,347.74,221.45Z" />
                <path id="_Path_49" data-name="&lt;Path&gt;" class="cls-1"
                    d="M173.16,288.91a10.08,10.08,0,1,1-9.9-9.76A10.1,10.1,0,0,1,173.16,288.91Z" />
                <path id="_Path_50" data-name="&lt;Path&gt;" class="cls-1"
                    d="M332.06,192.27a10.08,10.08,0,1,1-9.9-9.76A10.1,10.1,0,0,1,332.06,192.27Z" />
                <path id="_Path_51" data-name="&lt;Path&gt;" class="cls-1"
                    d="M340.92,317.43a10.14,10.14,0,0,1-10.46,9.52c-5.52-.23-10-4.95-9.74-10.21A10.15,10.15,0,0,1,331,307.38C336.51,307.5,341.1,312.15,340.92,317.43Z" />
                <path id="_Path_52" data-name="&lt;Path&gt;" class="cls-1"
                    d="M178.71,308.07c5.49,0,10.19,4.62,10.08,9.92a10.1,10.1,0,0,1-10.07,9.59c-5.49,0-10.19-4.62-10.08-9.92A10.1,10.1,0,0,1,178.71,308.07Z" />
                <path id="_Path_53" data-name="&lt;Path&gt;" class="cls-1"
                    d="M352.66,260.53a9.76,9.76,0,1,1,10-9.71A10.09,10.09,0,0,1,352.66,260.53Z" />
                <path id="_Path_54" data-name="&lt;Path&gt;" class="cls-1"
                    d="M263.51,170.56a10.11,10.11,0,1,1-10.2-9.78A10.11,10.11,0,0,1,263.51,170.56Z" />
                <path id="_Path_55" data-name="&lt;Path&gt;" class="cls-1"
                    d="M173,215.2a10,10,0,1,1-10-9.57A9.92,9.92,0,0,1,173,215.2Z" />
                <path id="_Path_56" data-name="&lt;Path&gt;" class="cls-1"
                    d="M231,153.7a9.64,9.64,0,1,1-9.94,9.65A9.93,9.93,0,0,1,231,153.7Z" />
                <path id="_Path_57" data-name="&lt;Path&gt;" class="cls-1"
                    d="M333.3,338.8a10,10,0,1,1-10-9.57A9.92,9.92,0,0,1,333.3,338.8Z" />
                <path id="_Path_58" data-name="&lt;Path&gt;" class="cls-1"
                    d="M200.53,188.1a9.64,9.64,0,1,1,9.86-9.72A9.93,9.93,0,0,1,200.53,188.1Z" />
                <path id="_Path_59" data-name="&lt;Path&gt;" class="cls-1"
                    d="M165.57,237.7A10,10,0,1,1,155.7,228,9.93,9.93,0,0,1,165.57,237.7Z" />
                <path id="_Path_60" data-name="&lt;Path&gt;" class="cls-1"
                    d="M292.79,363.66a9.68,9.68,0,1,1,10-9.6A10,10,0,0,1,292.79,363.66Z" />
                <path id="_Path_61" data-name="&lt;Path&gt;" class="cls-1"
                    d="M216.82,345a9.64,9.64,0,1,1-10,9.55A9.92,9.92,0,0,1,216.82,345Z" />
                <path id="_Path_62" data-name="&lt;Path&gt;" class="cls-1"
                    d="M239.81,352.23a9.64,9.64,0,1,1-9.94,9.65A9.93,9.93,0,0,1,239.81,352.23Z" />
                <path id="_Path_63" data-name="&lt;Path&gt;" class="cls-1"
                    d="M204.16,347.27a9.84,9.84,0,1,1-10.06-9.38A9.64,9.64,0,0,1,204.16,347.27Z" />
                <path id="_Path_64" data-name="&lt;Path&gt;" class="cls-1"
                    d="M148.41,249.8a9.52,9.52,0,1,1-10.09,9.34A9.63,9.63,0,0,1,148.41,249.8Z" />
                <path id="_Path_65" data-name="&lt;Path&gt;" class="cls-1"
                    d="M306.47,172a9.36,9.36,0,1,1,9.57-9.38A9.37,9.37,0,0,1,306.47,172Z" />
                <path id="_Path_66" data-name="&lt;Path&gt;" class="cls-1"
                    d="M370.41,301.93a9.72,9.72,0,1,1-9.74-9.29A9.4,9.4,0,0,1,370.41,301.93Z" />
                <path id="_Path_67" data-name="&lt;Path&gt;" class="cls-1"
                    d="M368.26,289.06a9.36,9.36,0,1,1,9.57-9.38A9.37,9.37,0,0,1,368.26,289.06Z" />
                <path id="_Path_68" data-name="&lt;Path&gt;" class="cls-1"
                    d="M155.55,301.19a9.41,9.41,0,1,1-9.64,9.39A9.42,9.42,0,0,1,155.55,301.19Z" />
                <path id="_Path_69" data-name="&lt;Path&gt;" class="cls-1"
                    d="M170.58,183.52a9.41,9.41,0,1,1-9.73,9.3A9.42,9.42,0,0,1,170.58,183.52Z" />
                <path id="_Path_70" data-name="&lt;Path&gt;" class="cls-1"
                    d="M284,164.81a9.36,9.36,0,1,1,9.67-9.27A9.36,9.36,0,0,1,284,164.81Z" />
                <path id="_Path_71" data-name="&lt;Path&gt;" class="cls-1"
                    d="M345,208.95a9.46,9.46,0,1,1,9.88-9.18A9.5,9.5,0,0,1,345,208.95Z" />
                <path id="_Path_72" data-name="&lt;Path&gt;" class="cls-1"
                    d="M360.13,237.87a9.46,9.46,0,1,1,9.65-9.4A9.52,9.52,0,0,1,360.13,237.87Z" />
                <path id="_Path_73" data-name="&lt;Path&gt;" class="cls-1"
                    d="M262.78,378.55a9.46,9.46,0,1,1,9.89-9.16A9.5,9.5,0,0,1,262.78,378.55Z" />
                <path id="_Path_74" data-name="&lt;Path&gt;" class="cls-1"
                    d="M270.47,148.09a9.61,9.61,0,1,1-9.82-9.17A9.31,9.31,0,0,1,270.47,148.09Z" />
                <path id="_Path_75" data-name="&lt;Path&gt;" class="cls-1"
                    d="M140.71,291a9.3,9.3,0,1,1,9.57-9.41A9.32,9.32,0,0,1,140.71,291Z" />
                <path id="_Path_76" data-name="&lt;Path&gt;" class="cls-1"
                    d="M353.14,315.07a9.33,9.33,0,1,1-9.55,9.41A9.34,9.34,0,0,1,353.14,315.07Z" />
                <path id="_Path_77" data-name="&lt;Path&gt;" class="cls-1"
                    d="M171.25,330.88a9.3,9.3,0,1,1-9.62,9.36A9.32,9.32,0,0,1,171.25,330.88Z" />
                <path id="_Path_78" data-name="&lt;Path&gt;" class="cls-1"
                    d="M217.48,156.21a9.58,9.58,0,1,1-9.55-9.37A9.33,9.33,0,0,1,217.48,156.21Z" />
                <path id="_Path_79" data-name="&lt;Path&gt;" class="cls-1"
                    d="M385.21,258.28a9.59,9.59,0,1,1-9.37-9.55A9.36,9.36,0,0,1,385.21,258.28Z" />
                <path id="_Path_80" data-name="&lt;Path&gt;" class="cls-1"
                    d="M339,170a9.58,9.58,0,1,1-9.52-9.4A9.33,9.33,0,0,1,339,170Z" />
                <path id="_Path_81" data-name="&lt;Path&gt;" class="cls-1"
                    d="M316.13,351.95a9.27,9.27,0,1,1-9.82,9.11A9.31,9.31,0,0,1,316.13,351.95Z" />
                <path id="_Path_82" data-name="&lt;Path&gt;" class="cls-1"
                    d="M177.36,180.47a9.25,9.25,0,1,1,9.54-9.09A9.33,9.33,0,0,1,177.36,180.47Z" />
                <path id="_Path_83" data-name="&lt;Path&gt;" class="cls-1"
                    d="M285.26,385.58a9.25,9.25,0,1,1,9.61-9A9.33,9.33,0,0,1,285.26,385.58Z" />
                <path id="_Path_84" data-name="&lt;Path&gt;" class="cls-1"
                    d="M367.43,197.53A9.2,9.2,0,1,1,358,206.7,9.38,9.38,0,0,1,367.43,197.53Z" />
                <path id="_Path_85" data-name="&lt;Path&gt;" class="cls-1"
                    d="M247.95,140.88a9.49,9.49,0,1,1-9.6-9.07A9.4,9.4,0,0,1,247.95,140.88Z" />
                <path id="_Path_86" data-name="&lt;Path&gt;" class="cls-1"
                    d="M355.26,346.36a9.51,9.51,0,1,1-9.14-9.47A9.4,9.4,0,0,1,355.26,346.36Z" />
                <path id="_Path_87" data-name="&lt;Path&gt;" class="cls-1"
                    d="M209.2,367.15a9.19,9.19,0,1,1-9.42,9.25A9.41,9.41,0,0,1,209.2,367.15Z" />
                <path id="_Path_88" data-name="&lt;Path&gt;" class="cls-1"
                    d="M158.26,333a9.44,9.44,0,1,1-9.48-9.17A9.42,9.42,0,0,1,158.26,333Z" />
                <path id="_Path_89" data-name="&lt;Path&gt;" class="cls-1"
                    d="M132.68,221.23a9.17,9.17,0,1,1-9.61,9.1A9.41,9.41,0,0,1,132.68,221.23Z" />
                <path id="_Path_90" data-name="&lt;Path&gt;" class="cls-1"
                    d="M125.06,261.19a9.11,9.11,0,1,1,9.4-8.94A9.42,9.42,0,0,1,125.06,261.19Z" />
                <path id="_Path_91" data-name="&lt;Path&gt;" class="cls-1"
                    d="M352.71,168a9.14,9.14,0,1,1-9.6,9.06A9.41,9.41,0,0,1,352.71,168Z" />
                <path id="_Path_92" data-name="&lt;Path&gt;" class="cls-1"
                    d="M140,217.2a9.16,9.16,0,1,1,9.47-9.24A9.41,9.41,0,0,1,140,217.2Z" />
                <path id="_Path_93" data-name="&lt;Path&gt;" class="cls-1"
                    d="M392.54,235.51a9.44,9.44,0,1,1-9.66-9A9.4,9.4,0,0,1,392.54,235.51Z" />
                <path id="_Path_94" data-name="&lt;Path&gt;" class="cls-1"
                    d="M142.65,303.49a9.44,9.44,0,1,1-9.38-9.26A9.43,9.43,0,0,1,142.65,303.49Z" />
                <path id="_Path_95" data-name="&lt;Path&gt;" class="cls-1"
                    d="M186.86,360a9.11,9.11,0,1,1-9.41,8.94A9.42,9.42,0,0,1,186.86,360Z" />
                <path id="_Path_96" data-name="&lt;Path&gt;" class="cls-1"
                    d="M232.52,374.4a9.17,9.17,0,1,1-9.63,9.08A9.4,9.4,0,0,1,232.52,374.4Z" />
                <path id="_Path_97" data-name="&lt;Path&gt;" class="cls-1"
                    d="M255.44,381.73a9.07,9.07,0,1,1-9.37,9A9.39,9.39,0,0,1,255.44,381.73Z" />
                <path id="_Path_98" data-name="&lt;Path&gt;" class="cls-1"
                    d="M147.56,194.72a9,9,0,1,1,9.24-9.11A9.36,9.36,0,0,1,147.56,194.72Z" />
                <path id="_Path_99" data-name="&lt;Path&gt;" class="cls-1"
                    d="M317.68,383.54a9.28,9.28,0,1,1-9.31-9A9.27,9.27,0,0,1,317.68,383.54Z" />
                <path id="_Path_100" data-name="&lt;Path&gt;" class="cls-1"
                    d="M313.89,149.91a8.92,8.92,0,1,1,9.16-9.06A9.14,9.14,0,0,1,313.89,149.91Z" />
                <path id="_Path_101" data-name="&lt;Path&gt;" class="cls-1"
                    d="M393,309.27a9.22,9.22,0,1,1-9.31-8.92A9.14,9.14,0,0,1,393,309.27Z" />
                <path id="_Path_102" data-name="&lt;Path&gt;" class="cls-1"
                    d="M163.83,353.67a8.86,8.86,0,1,1-9.21,8.63A9,9,0,0,1,163.83,353.67Z" />
                <path id="_Path_103" data-name="&lt;Path&gt;" class="cls-1"
                    d="M338.21,377.37a8.93,8.93,0,1,1,9.29-8.94A9.13,9.13,0,0,1,338.21,377.37Z" />
                <path id="_Path_104" data-name="&lt;Path&gt;" class="cls-1"
                    d="M184.83,157.8a8.93,8.93,0,1,1,9.21-9A9.14,9.14,0,0,1,184.83,157.8Z" />
                <path id="_Path_105" data-name="&lt;Path&gt;" class="cls-1"
                    d="M224.52,133.59a9.15,9.15,0,1,1-9.14-8.69A9,9,0,0,1,224.52,133.59Z" />
                <path id="_Path_106" data-name="&lt;Path&gt;" class="cls-1"
                    d="M391.1,278.07a8.86,8.86,0,1,1-9,8.84A9,9,0,0,1,391.1,278.07Z" />
                <path id="_Path_107" data-name="&lt;Path&gt;" class="cls-1"
                    d="M291.45,142.68a8.93,8.93,0,1,1,9.19-9A9.14,9.14,0,0,1,291.45,142.68Z" />
                <path id="_Path_108" data-name="&lt;Path&gt;" class="cls-1"
                    d="M277.42,126.54a9.08,9.08,0,1,1-9-8.8A8.84,8.84,0,0,1,277.42,126.54Z" />
                <path id="_Path_109" data-name="&lt;Path&gt;" class="cls-1"
                    d="M376.18,322.84a8.79,8.79,0,1,1-8.94,8.83A8.86,8.86,0,0,1,376.18,322.84Z" />
                <path id="_Path_110" data-name="&lt;Path&gt;" class="cls-1"
                    d="M117.76,265.65a8.79,8.79,0,1,1-9.24,8.55A8.83,8.83,0,0,1,117.76,265.65Z" />
                <path id="_Path_111" data-name="&lt;Path&gt;" class="cls-1"
                    d="M146,163.95a9,9,0,1,1,8.93,8.74A8.69,8.69,0,0,1,146,163.95Z" />
                <path id="_Path_112" data-name="&lt;Path&gt;" class="cls-1"
                    d="M398.69,273.93a8.7,8.7,0,1,1,9-8.66A8.68,8.68,0,0,1,398.69,273.93Z" />
                <path id="_Path_113" data-name="&lt;Path&gt;" class="cls-1"
                    d="M277.7,406.72a8.7,8.7,0,1,1,9.13-8.55A8.68,8.68,0,0,1,277.7,406.72Z" />
                <path id="_Path_114" data-name="&lt;Path&gt;" class="cls-1"
                    d="M399.51,213.25a8.95,8.95,0,1,1-9.08-8.6A8.65,8.65,0,0,1,399.51,213.25Z" />
                <path id="_Path_115" data-name="&lt;Path&gt;" class="cls-1"
                    d="M374.86,175.72a8.66,8.66,0,1,1-8.85,8.82A8.65,8.65,0,0,1,374.86,175.72Z" />
                <path id="_Path_116" data-name="&lt;Path&gt;" class="cls-1"
                    d="M336.87,138.91A8.66,8.66,0,1,1,328,147.7,8.65,8.65,0,0,1,336.87,138.91Z" />
                <path id="_Path_117" data-name="&lt;Path&gt;" class="cls-1"
                    d="M368.77,344.75a8.58,8.58,0,1,1-8.78,8.56A8.66,8.66,0,0,1,368.77,344.75Z" />
                <path id="_Path_118" data-name="&lt;Path&gt;" class="cls-1"
                    d="M141.52,363.83a8.54,8.54,0,1,1,8.65-8.69A8.73,8.73,0,0,1,141.52,363.83Z" />
                <path id="_Path_119" data-name="&lt;Path&gt;" class="cls-1"
                    d="M125.79,317.12a8.6,8.6,0,1,1-8.93,8.39A8.64,8.64,0,0,1,125.79,317.12Z" />
                <path id="_Path_120" data-name="&lt;Path&gt;" class="cls-1"
                    d="M246,110.72a8.58,8.58,0,1,1-8.91,8.44A8.66,8.66,0,0,1,246,110.72Z" />
                <path id="_Path_121" data-name="&lt;Path&gt;" class="cls-1"
                    d="M118.94,296a8.82,8.82,0,1,1-9-8.37A8.7,8.7,0,0,1,118.94,296Z" />
                <path id="_Path_122" data-name="&lt;Path&gt;" class="cls-1"
                    d="M415,242.81a8.8,8.8,0,1,1-9-8.43A8.74,8.74,0,0,1,415,242.81Z" />
                <path id="_Path_123" data-name="&lt;Path&gt;" class="cls-1"
                    d="M211.26,398.83a8.8,8.8,0,1,1-8.72-8.65A8.76,8.76,0,0,1,211.26,398.83Z" />
                <path id="_Path_124" data-name="&lt;Path&gt;" class="cls-1"
                    d="M192.13,135a8.45,8.45,0,1,1,8.88-8.21A8.77,8.77,0,0,1,192.13,135Z" />
                <path id="_Path_125" data-name="&lt;Path&gt;" class="cls-1"
                    d="M233.64,406a8.76,8.76,0,1,1-8.53-8.54A8.78,8.78,0,0,1,233.64,406Z" />
                <path id="_Path_126" data-name="&lt;Path&gt;" class="cls-1"
                    d="M116.94,192.33a8.48,8.48,0,1,1-8.78,8.29A8.76,8.76,0,0,1,116.94,192.33Z" />
                <path id="_Path_127" data-name="&lt;Path&gt;" class="cls-1"
                    d="M109.44,214.68a8.48,8.48,0,1,1-8.75,8.32A8.75,8.75,0,0,1,109.44,214.68Z" />
                <path id="_Path_128" data-name="&lt;Path&gt;" class="cls-1"
                    d="M360,146.31a8.48,8.48,0,1,1-8.76,8.31A8.75,8.75,0,0,1,360,146.31Z" />
                <path id="_Path_129" data-name="&lt;Path&gt;" class="cls-1"
                    d="M339.57,390.17a8.76,8.76,0,1,1-8.55-8.51A8.77,8.77,0,0,1,339.57,390.17Z" />
                <path id="_Path_130" data-name="&lt;Path&gt;" class="cls-1"
                    d="M110.66,244.82a8.69,8.69,0,1,1-8.63-8.38A8.74,8.74,0,0,1,110.66,244.82Z" />
                <path id="_Path_131" data-name="&lt;Path&gt;" class="cls-1"
                    d="M162.25,150a8.37,8.37,0,1,1,8.8-8.21A8.67,8.67,0,0,1,162.25,150Z" />
                <path id="_Path_132" data-name="&lt;Path&gt;" class="cls-1"
                    d="M188.07,391.41a8.69,8.69,0,1,1-8.65-8.36A8.74,8.74,0,0,1,188.07,391.41Z" />
                <path id="_Path_133" data-name="&lt;Path&gt;" class="cls-1"
                    d="M309.62,405.42a8.76,8.76,0,0,1-8.77,8.25c-4.76-.06-8.83-4.19-8.6-8.73a8.7,8.7,0,0,1,17.37.49Z" />
                <path id="_Path_134" data-name="&lt;Path&gt;" class="cls-1"
                    d="M248,404.84a8.31,8.31,0,1,1-8.56,8.41A8.56,8.56,0,0,1,248,404.84Z" />
                <path id="_Path_135" data-name="&lt;Path&gt;" class="cls-1"
                    d="M124.85,170.23a8.33,8.33,0,0,1,8,8.84,8.42,8.42,0,0,1-8.94,7.61,8.33,8.33,0,0,1-8-8.84A8.42,8.42,0,0,1,124.85,170.23Z" />
                <path id="_Path_136" data-name="&lt;Path&gt;" class="cls-1"
                    d="M361.25,367.43a8.25,8.25,0,1,1-8.4,8.2A8.44,8.44,0,0,1,361.25,367.43Z" />
                <path id="_Path_137" data-name="&lt;Path&gt;" class="cls-1"
                    d="M231.36,112.07a8.52,8.52,0,1,1-8.35-8.25A8.44,8.44,0,0,1,231.36,112.07Z" />
                <path id="_Path_138" data-name="&lt;Path&gt;" class="cls-1"
                    d="M103.5,267.27a8.33,8.33,0,1,1-8.34-8.12A8,8,0,0,1,103.5,267.27Z" />
                <path id="_Path_139" data-name="&lt;Path&gt;" class="cls-1"
                    d="M406.11,324.62a8.11,8.11,0,1,1,8.45-8A8.11,8.11,0,0,1,406.11,324.62Z" />
                <path id="_Path_140" data-name="&lt;Path&gt;" class="cls-1"
                    d="M406.47,191.68a8.44,8.44,0,1,1-8.28-8.23A8.23,8.23,0,0,1,406.47,191.68Z" />
                <path id="_Path_141" data-name="&lt;Path&gt;" class="cls-1"
                    d="M422,294.23a8.33,8.33,0,1,1-8.33-8.13A8,8,0,0,1,422,294.23Z" />
                <path id="_Path_142" data-name="&lt;Path&gt;" class="cls-1"
                    d="M156.43,376.17a8.06,8.06,0,1,1-8.45,8A8,8,0,0,1,156.43,376.17Z" />
                <path id="_Path_143" data-name="&lt;Path&gt;" class="cls-1"
                    d="M298.93,103.35a8.06,8.06,0,1,1-8.35,8.1A8,8,0,0,1,298.93,103.35Z" />
                <path id="_Path_144" data-name="&lt;Path&gt;" class="cls-1"
                    d="M110.86,318.54a8.22,8.22,0,1,1-8.06-8A8,8,0,0,1,110.86,318.54Z" />
                <path id="_Path_145" data-name="&lt;Path&gt;" class="cls-1"
                    d="M118.11,356a8,8,0,1,1,8.37-7.71A8,8,0,0,1,118.11,356Z" />
                <path id="_Path_146" data-name="&lt;Path&gt;" class="cls-1"
                    d="M390.66,162a8.24,8.24,0,1,1-8-8A8,8,0,0,1,390.66,162Z" />
                <path id="_Path_147" data-name="&lt;Path&gt;" class="cls-1"
                    d="M131.88,148.85a7.92,7.92,0,1,1-8.21,7.81A8,8,0,0,1,131.88,148.85Z" />
                <path id="_Path_148" data-name="&lt;Path&gt;" class="cls-1"
                    d="M321.28,126.65a8,8,0,1,1,8.31-8.06A8,8,0,0,1,321.28,126.65Z" />
                <path id="_Path_149" data-name="&lt;Path&gt;" class="cls-1"
                    d="M284,104.33a8.22,8.22,0,1,1-8-8.1A8,8,0,0,1,284,104.33Z" />
                <path id="_Path_150" data-name="&lt;Path&gt;" class="cls-1"
                    d="M429.31,272.56a8.19,8.19,0,1,1-8-8A8,8,0,0,1,429.31,272.56Z" />
                <path id="_Path_151" data-name="&lt;Path&gt;" class="cls-1"
                    d="M278.59,420.24a8.22,8.22,0,1,1-8.26-7.81A8,8,0,0,1,278.59,420.24Z" />
                <path id="_Path_152" data-name="&lt;Path&gt;" class="cls-1"
                    d="M407.61,338.18a8.22,8.22,0,1,1-8.15-7.92A8,8,0,0,1,407.61,338.18Z" />
                <path id="_Path_153" data-name="&lt;Path&gt;" class="cls-1"
                    d="M421.9,220.56a8.24,8.24,0,1,1-8-8A8,8,0,0,1,421.9,220.56Z" />
                <ellipse id="_Path_154" data-name="&lt;Path&gt;" class="cls-1" cx="344.4"
                    cy="125.87" rx="7.9" ry="8.16"
                    transform="translate(215.96 469.31) rotate(-89.57)" />
                <path id="_Path_155" data-name="&lt;Path&gt;" class="cls-1"
                    d="M133.77,384.77a7.78,7.78,0,1,1,8.15-7.59A8.08,8.08,0,0,1,133.77,384.77Z" />
                <path id="_Path_156" data-name="&lt;Path&gt;" class="cls-1"
                    d="M400,360.66a8,8,0,1,1-7.84-7.89A8.09,8.09,0,0,1,400,360.66Z" />
                <path id="_Path_157" data-name="&lt;Path&gt;" class="cls-1"
                    d="M332.06,412.75a8.12,8.12,0,0,1-8.22,7.52c-4.41-.12-8.13-4-7.84-8.2a8,8,0,0,1,16.06.68Z" />
                <path id="_Path_158" data-name="&lt;Path&gt;" class="cls-1"
                    d="M260.76,97a8,8,0,1,1-7.86-7.87A8.08,8.08,0,0,1,260.76,97Z" />
                <path id="_Path_159" data-name="&lt;Path&gt;" class="cls-1"
                    d="M169.76,112.17a7.78,7.78,0,1,1-7.92,7.82A8.11,8.11,0,0,1,169.76,112.17Z" />
                <path id="_Path_160" data-name="&lt;Path&gt;" class="cls-1"
                    d="M95.71,289.59a8,8,0,1,1-8-7.77A8,8,0,0,1,95.71,289.59Z" />
                <path id="_Path_161" data-name="&lt;Path&gt;" class="cls-1"
                    d="M353.74,405.11a7.74,7.74,0,1,1,8.15-7.58A8,8,0,0,1,353.74,405.11Z" />
                <path id="_Path_162" data-name="&lt;Path&gt;" class="cls-1"
                    d="M207.69,104.69a7.94,7.94,0,1,1-8.16-7.55A7.94,7.94,0,0,1,207.69,104.69Z" />
                <path id="_Path_163" data-name="&lt;Path&gt;" class="cls-1"
                    d="M375.27,133.1a7.8,7.8,0,1,1-7.71-7.54A7.64,7.64,0,0,1,375.27,133.1Z" />
                <path id="_Path_164" data-name="&lt;Path&gt;" class="cls-1"
                    d="M428.64,242.5a7.62,7.62,0,1,1-7.91,7.41A7.8,7.8,0,0,1,428.64,242.5Z" />
                <path id="_Path_165" data-name="&lt;Path&gt;" class="cls-1"
                    d="M301.12,427.47a7.66,7.66,0,1,1-7.87-7.27A7.39,7.39,0,0,1,301.12,427.47Z" />
                <path id="_Path_166" data-name="&lt;Path&gt;" class="cls-1"
                    d="M94.69,216.05a7.66,7.66,0,1,1-7.61-7.53A7.42,7.42,0,0,1,94.69,216.05Z" />
                <path id="_Path_167" data-name="&lt;Path&gt;" class="cls-1"
                    d="M195.16,428.44a7.41,7.41,0,1,1,7.49-7.64A7.4,7.4,0,0,1,195.16,428.44Z" />
                <path id="_Path_168" data-name="&lt;Path&gt;" class="cls-1"
                    d="M139.43,127a7.41,7.41,0,1,1-7.76,7.39A7.39,7.39,0,0,1,139.43,127Z" />
                <path id="_Path_169" data-name="&lt;Path&gt;" class="cls-1"
                    d="M171.89,406.52a7.29,7.29,0,1,1-7.5,7.23A7.32,7.32,0,0,1,171.89,406.52Z" />
                <path id="_Path_170" data-name="&lt;Path&gt;" class="cls-1"
                    d="M428.69,198.74a7.57,7.57,0,1,1-7.57-7.23A7.3,7.3,0,0,1,428.69,198.74Z" />
                <path id="_Path_171" data-name="&lt;Path&gt;" class="cls-1"
                    d="M384.36,390.16A7.26,7.26,0,1,1,392,383,7.32,7.32,0,0,1,384.36,390.16Z" />
                <path id="_Path_172" data-name="&lt;Path&gt;" class="cls-1"
                    d="M102.11,193.52a7.6,7.6,0,1,1-7.49-7.3A7.34,7.34,0,0,1,102.11,193.52Z" />
                <path id="_Path_173" data-name="&lt;Path&gt;" class="cls-1"
                    d="M87.09,237.7a7.53,7.53,0,1,1-7.37-7.36A7.31,7.31,0,0,1,87.09,237.7Z" />
                <path id="_Path_174" data-name="&lt;Path&gt;" class="cls-1"
                    d="M405.58,161.94a7.32,7.32,0,1,1-7.64,7.17A7.31,7.31,0,0,1,405.58,161.94Z" />
                <path id="_Path_175" data-name="&lt;Path&gt;" class="cls-1"
                    d="M217.33,435.63a7.36,7.36,0,1,1,7.68-7.11A7.34,7.34,0,0,1,217.33,435.63Z" />
                <path id="_Path_176" data-name="&lt;Path&gt;" class="cls-1"
                    d="M237.78,89.75a7.47,7.47,0,1,1-7.51-7.26A7.35,7.35,0,0,1,237.78,89.75Z" />
                <path id="_Path_177" data-name="&lt;Path&gt;" class="cls-1"
                    d="M95.34,333.61a7.23,7.23,0,1,1-7.62,7.16A7.34,7.34,0,0,1,95.34,333.61Z" />
                <path id="_Path_178" data-name="&lt;Path&gt;" class="cls-1"
                    d="M109.44,172a7.48,7.48,0,1,1-7.42-7.35A7.36,7.36,0,0,1,109.44,172Z" />
                <path id="_Path_179" data-name="&lt;Path&gt;" class="cls-1"
                    d="M240.34,442.73a7.23,7.23,0,1,1,7.63-7.15A7.34,7.34,0,0,1,240.34,442.73Z" />
                <path id="_Path_180" data-name="&lt;Path&gt;" class="cls-1"
                    d="M80.3,318.35a7.1,7.1,0,1,1,7.28-7.22A7.4,7.4,0,0,1,80.3,318.35Z" />
                <path id="_Path_181" data-name="&lt;Path&gt;" class="cls-1"
                    d="M389.79,133.24a7.1,7.1,0,1,1-7.22,7.28A7.4,7.4,0,0,1,389.79,133.24Z" />
                <path id="_Path_182" data-name="&lt;Path&gt;" class="cls-1"
                    d="M118.13,369.92a7.34,7.34,0,1,1-7.25-7.25A7.42,7.42,0,0,1,118.13,369.92Z" />
                <path id="_Path_183" data-name="&lt;Path&gt;" class="cls-1"
                    d="M428.74,227.51a7.43,7.43,0,0,1,7.67-6.83c4,.22,7.24,3.74,7,7.5a7.33,7.33,0,0,1-14.64-.67Z" />
                <path id="_Path_184" data-name="&lt;Path&gt;" class="cls-1"
                    d="M72.09,267a7,7,0,1,1,7.28-6.87A7.3,7.3,0,0,1,72.09,267Z" />
                <path id="_Path_185" data-name="&lt;Path&gt;" class="cls-1"
                    d="M148.93,413.61a7,7,0,1,1,7.18-7A7.31,7.31,0,0,1,148.93,413.61Z" />
                <ellipse id="_Path_186" data-name="&lt;Path&gt;" class="cls-1" cx="306.37"
                    cy="89.05" rx="6.89" ry="7.12"
                    transform="translate(213.91 394.41) rotate(-89.36)" />
                <path id="_Path_187" data-name="&lt;Path&gt;" class="cls-1"
                    d="M436.88,294.42a7,7,0,1,1-7.33,6.76A7.19,7.19,0,0,1,436.88,294.42Z" />
                <path id="_Path_188" data-name="&lt;Path&gt;" class="cls-1"
                    d="M436.48,323.67a7.21,7.21,0,1,1-7.19-6.9A7.19,7.19,0,0,1,436.48,323.67Z" />
                <path id="_Path_189" data-name="&lt;Path&gt;" class="cls-1"
                    d="M335.9,96.2a7.12,7.12,0,1,1-7.21-6.8A7,7,0,0,1,335.9,96.2Z" />
                <path id="_Path_190" data-name="&lt;Path&gt;" class="cls-1"
                    d="M146.87,106.07a6.65,6.65,0,1,1-6.94,6.5A6.61,6.61,0,0,1,146.87,106.07Z" />
                <path id="_Path_191" data-name="&lt;Path&gt;" class="cls-1"
                    d="M451.08,279.7A6.88,6.88,0,1,1,444.3,273,6.61,6.61,0,0,1,451.08,279.7Z" />
                <path id="_Path_192" data-name="&lt;Path&gt;" class="cls-1"
                    d="M116.48,149.38a7,7,0,1,1-7.27-6.65A6.82,6.82,0,0,1,116.48,149.38Z" />
                <path id="_Path_193" data-name="&lt;Path&gt;" class="cls-1"
                    d="M290.18,82.3a6.92,6.92,0,1,1-6.32-7.15A6.62,6.62,0,0,1,290.18,82.3Z" />
                <path id="_Path_194" data-name="&lt;Path&gt;" class="cls-1"
                    d="M346.57,412.92a6.81,6.81,0,1,1-7.16,6.76A6.82,6.82,0,0,1,346.57,412.92Z" />
                <path id="_Path_195" data-name="&lt;Path&gt;" class="cls-1"
                    d="M358.7,103.7a6.84,6.84,0,1,1-6.64-6.8A6.66,6.66,0,0,1,358.7,103.7Z" />
                <path id="_Path_196" data-name="&lt;Path&gt;" class="cls-1"
                    d="M414.78,345.59a7,7,0,1,1,7.27,6.65A6.82,6.82,0,0,1,414.78,345.59Z" />
                <path id="_Path_197" data-name="&lt;Path&gt;" class="cls-1"
                    d="M184.31,97.48a7,7,0,1,1-6.92-6.62A6.7,6.7,0,0,1,184.31,97.48Z" />
                <path id="_Path_198" data-name="&lt;Path&gt;" class="cls-1"
                    d="M323.42,435a6.88,6.88,0,1,1-6.65-6.78A6.63,6.63,0,0,1,323.42,435Z" />
                <path id="_Path_199" data-name="&lt;Path&gt;" class="cls-1"
                    d="M262.75,435.27a6.81,6.81,0,1,1-6.87,7A6.84,6.84,0,0,1,262.75,435.27Z" />
                <path id="_Path_200" data-name="&lt;Path&gt;" class="cls-1"
                    d="M377.09,398a6.59,6.59,0,1,1-6.9,6.57A6.66,6.66,0,0,1,377.09,398Z" />
                <path id="_Path_201" data-name="&lt;Path&gt;" class="cls-1"
                    d="M207.18,75.92a6.57,6.57,0,1,1-6.73,6.44A6.72,6.72,0,0,1,207.18,75.92Z" />
                <path id="_Path_202" data-name="&lt;Path&gt;" class="cls-1"
                    d="M71.33,282.47a6.71,6.71,0,1,1-6.56-6.63A6.78,6.78,0,0,1,71.33,282.47Z" />
                <path id="_Path_203" data-name="&lt;Path&gt;" class="cls-1"
                    d="M133.16,399.24a6.75,6.75,0,1,1-6.76-6.43A6.75,6.75,0,0,1,133.16,399.24Z" />
                <path id="_Path_204" data-name="&lt;Path&gt;" class="cls-1"
                    d="M414.3,361.3a6.49,6.49,0,1,1-6.66,6.53A6.76,6.76,0,0,1,414.3,361.3Z" />
                <path id="_Path_205" data-name="&lt;Path&gt;" class="cls-1"
                    d="M266.85,74.63a6.66,6.66,0,1,1-6.7-6.48A6.74,6.74,0,0,1,266.85,74.63Z" />
                <path id="_Path_206" data-name="&lt;Path&gt;" class="cls-1"
                    d="M428.18,170a6.45,6.45,0,1,1-6.92,6.27A6.72,6.72,0,0,1,428.18,170Z" />
                <path id="_Path_207" data-name="&lt;Path&gt;" class="cls-1"
                    d="M380.69,110.83a6.42,6.42,0,1,1-6.33-6.3A6.27,6.27,0,0,1,380.69,110.83Z" />
                <path id="_Path_208" data-name="&lt;Path&gt;" class="cls-1"
                    d="M458.1,257.43a6.42,6.42,0,1,1-6.33-6.3A6.27,6.27,0,0,1,458.1,257.43Z" />
                <path id="_Path_209" data-name="&lt;Path&gt;" class="cls-1"
                    d="M286.08,443.09a6.22,6.22,0,1,1-6.51,6.13A6.26,6.26,0,0,1,286.08,443.09Z" />
                <path id="_Path_210" data-name="&lt;Path&gt;" class="cls-1"
                    d="M412.92,141.43a6.13,6.13,0,1,1-6.27,6A6.11,6.11,0,0,1,412.92,141.43Z" />
                <path id="_Path_211" data-name="&lt;Path&gt;" class="cls-1"
                    d="M123.25,127.08a6.33,6.33,0,1,1-6.27-6A6.09,6.09,0,0,1,123.25,127.08Z" />
                <path id="_Path_212" data-name="&lt;Path&gt;" class="cls-1"
                    d="M449.87,206a6.33,6.33,0,1,1-6.21-6.09A6.1,6.1,0,0,1,449.87,206Z" />
                <path id="_Path_213" data-name="&lt;Path&gt;" class="cls-1"
                    d="M93.93,362.57a6.22,6.22,0,1,1-6.17-6.05A6,6,0,0,1,93.93,362.57Z" />
                <path id="_Path_214" data-name="&lt;Path&gt;" class="cls-1"
                    d="M79,333.76a6.22,6.22,0,1,1-6-6.17A6,6,0,0,1,79,333.76Z" />
                <path id="_Path_215" data-name="&lt;Path&gt;" class="cls-1"
                    d="M406.75,384.27a5.88,5.88,0,1,1-5.95,6A6.08,6.08,0,0,1,406.75,384.27Z" />
                <path id="_Path_216" data-name="&lt;Path&gt;" class="cls-1"
                    d="M237.64,73.89a5.88,5.88,0,1,1,6.21-5.73A6.06,6.06,0,0,1,237.64,73.89Z" />
                <path id="_Path_217" data-name="&lt;Path&gt;" class="cls-1"
                    d="M77.52,186.48a6.11,6.11,0,1,1-5.88-6A6.06,6.06,0,0,1,77.52,186.48Z" />
                <path id="_Path_218" data-name="&lt;Path&gt;" class="cls-1"
                    d="M193.7,442.68a6.17,6.17,0,1,1-6.31-5.92A6,6,0,0,1,193.7,442.68Z" />
                <path id="_Path_219" data-name="&lt;Path&gt;" class="cls-1"
                    d="M203.81,449.7a6.14,6.14,0,1,1,5.69,6.19A6,6,0,0,1,203.81,449.7Z" />
                <path id="_Path_220" data-name="&lt;Path&gt;" class="cls-1"
                    d="M70.05,208.61a6.11,6.11,0,1,1-6.11-5.82A6,6,0,0,1,70.05,208.61Z" />
                <path id="_Path_221" data-name="&lt;Path&gt;" class="cls-1"
                    d="M164.43,441.33a5.83,5.83,0,1,1,6-5.9A6.06,6.06,0,0,1,164.43,441.33Z" />
                <path id="_Path_222" data-name="&lt;Path&gt;" class="cls-1"
                    d="M238.92,457.06a5.9,5.9,0,1,1-5.94-5.57A5.94,5.94,0,0,1,238.92,457.06Z" />
                <path id="_Path_223" data-name="&lt;Path&gt;" class="cls-1"
                    d="M56.39,224.62a5.78,5.78,0,1,1-5.88,5.69A6,6,0,0,1,56.39,224.62Z" />
                <path id="_Path_224" data-name="&lt;Path&gt;" class="cls-1"
                    d="M73.09,164.57a5.8,5.8,0,1,1,5.71,5.7A5.75,5.75,0,0,1,73.09,164.57Z" />
                <path id="_Path_225" data-name="&lt;Path&gt;" class="cls-1"
                    d="M339.05,436.46a5.61,5.61,0,1,1-5.88,5.52A5.73,5.73,0,0,1,339.05,436.46Z" />
                <path id="_Path_226" data-name="&lt;Path&gt;" class="cls-1"
                    d="M63,304.1a5.8,5.8,0,1,1-5.71-5.69A5.75,5.75,0,0,1,63,304.1Z" />
                <path id="_Path_227" data-name="&lt;Path&gt;" class="cls-1"
                    d="M103.42,397.72a5.61,5.61,0,1,1,5.71-5.69A5.75,5.75,0,0,1,103.42,397.72Z" />
                <path id="_Path_228" data-name="&lt;Path&gt;" class="cls-1"
                    d="M403,117.83a5.61,5.61,0,1,1-5.68-5.27A5.39,5.39,0,0,1,403,117.83Z" />
                <path id="_Path_229" data-name="&lt;Path&gt;" class="cls-1"
                    d="M464.76,235.06a5.61,5.61,0,1,1-5.45-5.5A5.4,5.4,0,0,1,464.76,235.06Z" />
                <path id="_Path_230" data-name="&lt;Path&gt;" class="cls-1"
                    d="M375.13,427.06a5.61,5.61,0,1,1-5.41-5.53A5.4,5.4,0,0,1,375.13,427.06Z" />
                <path id="_Path_231" data-name="&lt;Path&gt;" class="cls-1"
                    d="M154.19,84.87a5.51,5.51,0,1,1-5.62,5.4A5.54,5.54,0,0,1,154.19,84.87Z" />
                <path id="_Path_232" data-name="&lt;Path&gt;" class="cls-1"
                    d="M184.8,69.88a5.37,5.37,0,1,1-5.52,5.38A5.32,5.32,0,0,1,184.8,69.88Z" />
                <path id="_Path_233" data-name="&lt;Path&gt;" class="cls-1"
                    d="M54.46,252.59A5.46,5.46,0,1,1,49,247.47,5.31,5.31,0,0,1,54.46,252.59Z" />
                <path id="_Path_234" data-name="&lt;Path&gt;" class="cls-1"
                    d="M141.46,433.58a5.32,5.32,0,1,1,5.4-5.49A5.31,5.31,0,0,1,141.46,433.58Z" />
                <path id="_Path_235" data-name="&lt;Path&gt;" class="cls-1"
                    d="M313.78,72.51a5.15,5.15,0,1,1,5.38-4.93A5.4,5.4,0,0,1,313.78,72.51Z" />
                <path id="_Path_236" data-name="&lt;Path&gt;" class="cls-1"
                    d="M256.11,459.28a5.15,5.15,0,1,1-5.3,5A5.4,5.4,0,0,1,256.11,459.28Z" />
                <path id="_Path_237" data-name="&lt;Path&gt;" class="cls-1"
                    d="M314.46,456.63a5.38,5.38,0,1,1-5.28-5.3A5.42,5.42,0,0,1,314.46,456.63Z" />
                <path id="_Path_238" data-name="&lt;Path&gt;" class="cls-1"
                    d="M123.69,110.64a5.15,5.15,0,1,1,5.33-5A5.4,5.4,0,0,1,123.69,110.64Z" />
                <path id="_Path_239" data-name="&lt;Path&gt;" class="cls-1"
                    d="M457.68,330.94a5.32,5.32,0,1,1-5.19-5.11A5.41,5.41,0,0,1,457.68,330.94Z" />
                <path id="_Path_240" data-name="&lt;Path&gt;" class="cls-1"
                    d="M341.49,74.56a5.25,5.25,0,1,1-5.19-5A5.32,5.32,0,0,1,341.49,74.56Z" />
                <path id="_Path_241" data-name="&lt;Path&gt;" class="cls-1"
                    d="M86.32,137.23a5.08,5.08,0,1,1-5.21,5A5.34,5.34,0,0,1,86.32,137.23Z" />
                <path id="_Path_242" data-name="&lt;Path&gt;" class="cls-1"
                    d="M460,313.7a5.08,5.08,0,1,1,5.09-5.15A5.36,5.36,0,0,1,460,313.7Z" />
                <path id="_Path_243" data-name="&lt;Path&gt;" class="cls-1"
                    d="M450.85,178.86A4.87,4.87,0,1,1,446,183.7,4.89,4.89,0,0,1,450.85,178.86Z" />
                <path id="_Path_244" data-name="&lt;Path&gt;" class="cls-1"
                    d="M449.92,352.56a5,5,0,1,1-5-4.75A4.86,4.86,0,0,1,449.92,352.56Z" />
                <path id="_Path_245" data-name="&lt;Path&gt;" class="cls-1"
                    d="M435.11,159.65a4.87,4.87,0,1,1,5.28-4.43A4.86,4.86,0,0,1,435.11,159.65Z" />
                <path id="_Path_246" data-name="&lt;Path&gt;" class="cls-1"
                    d="M214.57,56a4.78,4.78,0,1,1-4.8,4.81A4.71,4.71,0,0,1,214.57,56Z" />
                <path id="_Path_247" data-name="&lt;Path&gt;" class="cls-1"
                    d="M290.79,64.9a4.77,4.77,0,1,1,4.89-4.73A4.7,4.7,0,0,1,290.79,64.9Z" />
                <path id="_Path_248" data-name="&lt;Path&gt;" class="cls-1"
                    d="M399.23,416.69a4.87,4.87,0,1,1,5.18-4.54A4.86,4.86,0,0,1,399.23,416.69Z" />
                <path id="_Path_249" data-name="&lt;Path&gt;" class="cls-1"
                    d="M467,290.92a4.66,4.66,0,1,1,5.06-4.23A4.7,4.7,0,0,1,467,290.92Z" />
                <path id="_Path_250" data-name="&lt;Path&gt;" class="cls-1"
                    d="M359.35,86.47a4.65,4.65,0,1,1,4.78-4.5A4.66,4.66,0,0,1,359.35,86.47Z" />
                <path id="_Path_251" data-name="&lt;Path&gt;" class="cls-1"
                    d="M70.07,355.38a4.77,4.77,0,1,1-4.59-4.69A4.7,4.7,0,0,1,70.07,355.38Z" />
                <path id="_Path_252" data-name="&lt;Path&gt;" class="cls-1"
                    d="M123.67,421.06a4.72,4.72,0,1,1-4.69-4.59A4.74,4.74,0,0,1,123.67,421.06Z" />
                <path id="_Path_253" data-name="&lt;Path&gt;" class="cls-1"
                    d="M41.4,270.59a4.51,4.51,0,1,1-4.52,4.48A4.74,4.74,0,0,1,41.4,270.59Z" />
                <path id="_Path_254" data-name="&lt;Path&gt;" class="cls-1"
                    d="M441.9,375.15a4.5,4.5,0,0,1-4.7,4.21,4.38,4.38,0,0,1-4.23-4.63,4.26,4.26,0,0,1,4.5-4A4.38,4.38,0,0,1,441.9,375.15Z" />
                <path id="_Path_255" data-name="&lt;Path&gt;" class="cls-1"
                    d="M263.18,53.06a4.47,4.47,0,0,1,4.4-4.49,4.39,4.39,0,0,1,4.53,4.34,4.25,4.25,0,0,1-4.21,4.31A4.42,4.42,0,0,1,263.18,53.06Z" />
                <path id="_Path_256" data-name="&lt;Path&gt;" class="cls-1"
                    d="M466.47,217.51c-2.64-.31-4.12-1.7-4.16-4.29a4.1,4.1,0,0,1,4.64-4.09c2.66.27,4.09,1.85,4,4.4S469.09,217.38,466.47,217.51Z" />
                <path id="_Path_257" data-name="&lt;Path&gt;" class="cls-1"
                    d="M80.51,380.69a4,4,0,0,1,4,4.12,4.09,4.09,0,0,1-4.49,4.25c-2.66-.19-4.09-1.69-4.14-4.26C75.89,382.45,77.83,380.68,80.51,380.69Z" />
                <path id="_Path_258" data-name="&lt;Path&gt;" class="cls-1"
                    d="M54,326.48c-.3,2.56-1.73,4-4.4,4.06a4.08,4.08,0,0,1-4.26-4.46,4,4,0,0,1,4.52-3.86C52.57,322.33,53.88,324,54,326.48Z" />
                <path id="_Path_259" data-name="&lt;Path&gt;" class="cls-1"
                    d="M420.43,121c2.62.2,4.18,1.52,4.33,4.11a4.09,4.09,0,0,1-4.45,4.28c-2.66-.17-4.18-1.66-4.15-4.23S417.79,121.23,420.43,121Z" />
                <path id="_Path_260" data-name="&lt;Path&gt;" class="cls-1"
                    d="M381.77,93.07a3.94,3.94,0,0,1-4.17-4.16c.15-2.45,1.58-3.79,4.11-3.87a3.94,3.94,0,0,1,4.18,4.14A4,4,0,0,1,381.77,93.07Z" />
                <path id="_Path_261" data-name="&lt;Path&gt;" class="cls-1"
                    d="M94,115.94c2.41.34,3.88,1.59,3.93,4a3.92,3.92,0,0,1-4.37,3.91c-2.49-.26-3.89-1.72-3.77-4.14S91.48,116.13,94,115.94Z" />
                <path id="_Path_262" data-name="&lt;Path&gt;" class="cls-1"
                    d="M474.93,268.59c-2.5-.18-4-1.36-4.24-3.8a3.89,3.89,0,0,1,4.12-4.15c2.51.11,4,1.48,4,3.91S477.34,268.24,474.93,268.59Z" />
                <path id="_Path_263" data-name="&lt;Path&gt;" class="cls-1"
                    d="M282.72,471.85a4.18,4.18,0,0,1-8.34-.33,4,4,0,0,1,4.47-3.86C281.38,467.89,282.58,469.39,282.72,471.85Z" />
                <path id="_Path_264" data-name="&lt;Path&gt;" class="cls-1"
                    d="M366.48,450.16c-1.5,1-2.93,2.56-4.53,2.77-2.24.29-3.79-1.44-3.73-3.7s1.66-3.93,3.89-3.54c1.6.28,2.95,1.92,4.41,3Z" />
                <path id="_Path_265" data-name="&lt;Path&gt;" class="cls-1"
                    d="M166.06,68.75c-1.48,1-3,2.74-4.41,2.67s-3.21-2-3.5-3.37a3,3,0,0,1,3.66-3.54c1.51.23,2.81,1.77,4.2,2.72Z" />
                <path id="_Path_266" data-name="&lt;Path&gt;" class="cls-1"
                    d="M335.78,464.69c-1.52.9-3.12,2.61-4.53,2.47s-3.11-2.13-3.34-3.52a3,3,0,0,1,3.82-3.37c1.5.3,2.72,1.9,4.07,2.92Q335.79,463.94,335.78,464.69Z" />
                <path id="_Path_267" data-name="&lt;Path&gt;" class="cls-1"
                    d="M132,87.07c-3.07-.69-4.7-1.92-4.17-4a5.18,5.18,0,0,1,3.35-3.13,2.74,2.74,0,0,1,3.37,3.35C134.3,84.63,132.89,85.8,132,87.07Z" />
                <path id="_Path_268" data-name="&lt;Path&gt;" class="cls-1"
                    d="M430.91,393.47c.85,1.29,2.21,2.5,2.43,3.88.34,2.17-1.22,3.44-3.51,3.37s-3.72-1.52-3.24-3.63c.31-1.36,1.79-2.47,2.75-3.69Z" />
                <path id="_Path_269" data-name="&lt;Path&gt;" class="cls-1"
                    d="M184.13,465.79c-1.38.89-2.79,2.52-4.12,2.46s-3-1.81-3.29-3.1c-.5-2.1,1.14-3.68,3.38-3.34,1.42.22,2.67,1.55,4,2.38Q184.12,465,184.13,465.79Z" />
                <path id="_Path_270" data-name="&lt;Path&gt;" class="cls-1"
                    d="M395.91,434.9c-1.31.87-2.52,2.23-3.94,2.48-2.06.36-3.4-1.06-3.44-3.13s1.24-3.55,3.31-3.26c1.44.2,2.71,1.52,4.05,2.35Q395.91,434.12,395.91,434.9Z" />
                <path id="_Path_271" data-name="&lt;Path&gt;" class="cls-1"
                    d="M35,293.05c.83,1.3,2.47,2.75,2.26,3.87a4.74,4.74,0,0,1-3.43,2.9c-.89.1-2.83-1.93-2.86-3s1.58-2.51,2.48-3.76Z" />
                <path id="_Path_272" data-name="&lt;Path&gt;" class="cls-1"
                    d="M99.77,415.12c-1.3.87-2.7,2.52-3.87,2.38a4.68,4.68,0,0,1-3.16-3.16c-.15-.86,1.84-2.86,3-2.93s2.68,1.41,4,2.22Q99.75,414.37,99.77,415.12Z" />
                <path id="_Path_273" data-name="&lt;Path&gt;" class="cls-1"
                    d="M193.13,49.81c.84,1.29,2.5,2.72,2.3,3.84a4.73,4.73,0,0,1-3.4,2.93c-.89.11-2.86-1.91-2.9-3s1.56-2.53,2.45-3.8Z" />
                <path id="_Path_274" data-name="&lt;Path&gt;" class="cls-1"
                    d="M49.08,175.35c.87,1.27,2.56,2.66,2.39,3.79a4.71,4.71,0,0,1-3.31,3c-.89.13-2.91-1.83-3-2.93s1.49-2.56,2.34-3.85Z" />
                <path id="_Path_275" data-name="&lt;Path&gt;" class="cls-1"
                    d="M249.19,46.6c-1.36.79-2.65,2.09-4.09,2.26-2.08.25-3.32-1.26-3.24-3.33s1.46-3.47,3.51-3.06c1.42.28,2.6,1.67,3.89,2.57Z" />
                <path id="_Path_276" data-name="&lt;Path&gt;" class="cls-1"
                    d="M40.65,205.29c-.84-1.3-2.2-2.52-2.41-3.91-.3-2,1.23-3.24,3.37-3.2s3.61,1.34,3.23,3.33c-.26,1.38-1.67,2.55-2.57,3.81Z" />
                <path id="_Path_277" data-name="&lt;Path&gt;" class="cls-1"
                    d="M206.46,473c-1.31.87-2.52,2.23-3.94,2.49-2.06.37-3.4-1.05-3.44-3.13s1.23-3.55,3.31-3.26c1.43.2,2.7,1.52,4,2.33Z" />
                <path id="_Path_278" data-name="&lt;Path&gt;" class="cls-1"
                    d="M157.15,462.35c-1.6-2-3.4-3.3-3.23-4.27.22-1.27,2-2.28,3.12-3.4,1.08,1,2.88,2,3,3.17S158.59,460.25,157.15,462.35Z" />
                <path id="_Path_279" data-name="&lt;Path&gt;" class="cls-1"
                    d="M34.27,219.32c1.43,2.11,3.11,3.53,2.87,4.5-.32,1.25-2.18,2.13-3.37,3.17-1-1.13-2.72-2.23-2.77-3.39S32.66,221.31,34.27,219.32Z" />
                <path id="_Path_280" data-name="&lt;Path&gt;" class="cls-1"
                    d="M485.89,242.06c-1.82,1.45-3,3.13-4,3-1.26-.16-2.33-1.75-3.48-2.72,1.07-1.06,2-2.73,3.25-3C482.61,239.17,484,240.76,485.89,242.06Z" />
                <path id="_Path_281" data-name="&lt;Path&gt;" class="cls-1"
                    d="M59.9,157.37C58,158.69,56.81,160.15,56,160c-1.14-.23-2-1.73-3-2.68,1-.87,1.85-2.33,2.89-2.43S58,156.1,59.9,157.37Z" />
                <path id="_Path_282" data-name="&lt;Path&gt;" class="cls-1"
                    d="M225.39,483.72c-1.32-2-2.75-3.28-2.59-4.26s1.89-2.6,2.87-2.56,2.56,1.72,2.65,2.78S226.88,481.79,225.39,483.72Z" />
                <path id="_Path_283" data-name="&lt;Path&gt;" class="cls-1"
                    d="M458.3,166.2c-1.32-2-2.75-3.28-2.59-4.26s1.89-2.6,2.87-2.56,2.56,1.72,2.65,2.78S459.79,164.27,458.3,166.2Z" />
                <path id="_Path_284" data-name="&lt;Path&gt;" class="cls-1"
                    d="M409.14,95.81c-2.12,1.27-3.4,2.65-4.41,2.49s-2.68-1.84-2.64-2.79S403.89,93,405,93,407.16,94.37,409.14,95.81Z" />
                <path id="_Path_285" data-name="&lt;Path&gt;" class="cls-1"
                    d="M101.15,102.15c-1.24-1.91-2.56-3.05-2.41-4s1.71-1.72,2.66-2.57c.88.92,2.37,1.78,2.45,2.76S102.53,100.34,101.15,102.15Z" />
                <path id="_Path_286" data-name="&lt;Path&gt;" class="cls-1"
                    d="M134.11,454.28c-1.34-1.6-2.83-2.64-2.69-3.41.18-1,1.61-1.89,2.5-2.82.88.84,2.33,1.6,2.46,2.53S135.24,452.54,134.11,454.28Z" />
                <path id="_Path_287" data-name="&lt;Path&gt;" class="cls-1"
                    d="M446.65,132.25c-1.67,1.29-2.74,2.73-3.53,2.6-1.08-.18-2-1.56-2.92-2.42.86-.85,1.65-2.26,2.61-2.39S444.85,131.14,446.65,132.25Z" />
                <path id="_Path_288" data-name="&lt;Path&gt;" class="cls-1"
                    d="M26.8,249.19c-1.34-1.61-2.82-2.65-2.68-3.42.19-1.05,1.61-1.89,2.5-2.82.88.84,2.34,1.6,2.46,2.53S27.95,247.44,26.8,249.19Z" />
                <path id="_Path_289" data-name="&lt;Path&gt;" class="cls-1"
                    d="M477.88,190.88c-1.69,1.23-2.69,2.53-3.62,2.48s-1.88-1.4-2.82-2.18c.89-.93,1.64-2.37,2.71-2.63C474.93,188.36,476.11,189.71,477.88,190.88Z" />
                <path id="_Path_290" data-name="&lt;Path&gt;" class="cls-1"
                    d="M305.64,479c-2,1.22-3.12,2.52-4.06,2.38s-1.8-1.64-2.69-2.54c.93-.86,1.81-2.32,2.82-2.41S303.74,477.67,305.64,479Z" />
                <path id="_Path_291" data-name="&lt;Path&gt;" class="cls-1"
                    d="M58,374.55c1,1.42,1.91,2.25,2,3.17.07.62-1,1.37-1.64,2.06A13.94,13.94,0,0,1,56,377.1C55.8,376.79,56.93,375.83,58,374.55Z" />
                <path id="_Path_292" data-name="&lt;Path&gt;" class="cls-1"
                    d="M42.26,345c1,1.29,2.05,2.1,2.1,3,0,.7-1.17,1.46-1.83,2.2a16.08,16.08,0,0,1-2.18-2.89C40.21,347,41.27,346.19,42.26,345Z" />
            </g>
            <path id="_Path_293" data-name="&lt;Path&gt;" class="cls-1"
                d="M205.17,374.3h0c41.47,0,80.56-8.78,100.31-17.93,1.75,12.29,2,43.3-31.79,70.59a4.25,4.25,0,0,0-1,5.47,4.57,4.57,0,0,0,5.37,2c.65-.22,25.25-8.71,55.5-28.6l.2-.13.29-.19.29-.19.29-.19.29-.19.3-.19.29-.19.29-.19.29-.19.3-.19.28-.18.3-.19.29-.18.3-.19.29-.19.28-.18.3-.19.29-.18.3-.19.29-.19.28-.18.29-.19.3-.19.29-.19.29-.19L341,401l.28-.18.31-.2.29-.19.29-.19.29-.18.29-.19.3-.19.29-.19.29-.19.29-.18.29-.19.3-.19.25-.16C395.16,365.62,461.72,301,459.34,190.1c-2-94.82-114-151.47-221.1-151.47-43.47,0-91.11,9.94-128.59,33.9l-.29.19-.29.19-.3.19-.29.19-.29.19-.28.18-.3.19-.29.19-.29.19-.29.19-.29.19-.29.19-.3.19-.29.19-.29.19-.29.19-.29.18-.3.19-.29.19-.29.19-.3.19-.29.19-.3.19-.29.19-.29.19-.29.19-.29.19-.29.18-.29.19-.29.19-.29.19-.29.19-.29.18-.29.19-.29.19-.29.19-.29.19-.28.18-.3.19-.29.19c-37.5,23.87-64.89,61.72-67.82,117.63C27.24,253.43,40.78,297,70.42,327.19,108.64,366.13,164.8,374.3,205.17,374.3Z" />
            <path id="_Path_294" data-name="&lt;Path&gt;" class="cls-2"
                d="M217.13,357.9h0c46.92,0,87.42-11.43,101.19-19.55a4.61,4.61,0,0,1,4-.34,4.39,4.39,0,0,1,2.68,2.83c.5,1.63,10.09,35.12-16.94,68.6,44.72-21.87,145.21-85.93,142.34-219.16-1.92-89.49-109.37-143-212.13-143-82.87,0-181.61,37.48-187.16,143.1C48.29,243.69,61,285.1,88.88,313.5,124.91,350.2,178.51,357.9,217.13,357.9Z" />
            <path id="_Compound_Path_" data-name="&lt;Compound Path&gt;" class="cls-1"
                d="M217.13,366.58h0c41.47,0,80.56-8.78,100.31-17.93,1.75,12.29,2,43.3-31.79,70.59a4.25,4.25,0,0,0-1,5.47,4.57,4.57,0,0,0,5.36,2c1.73-.58,173.15-59.8,169.35-236.58-2-94.82-114-151.47-221.1-151.47C151.44,38.63,48,78.26,42.13,190c-2.93,55.75,10.61,99.32,40.25,129.51C120.6,358.41,176.75,366.58,217.13,366.58Zm-166-176.17C56.63,84.78,155.38,47.31,238.24,47.31c102.76,0,210.21,53.48,212.13,143,2.87,133.23-97.62,197.3-142.34,219.16,27-33.47,17.43-67,16.94-68.6a4.39,4.39,0,0,0-2.68-2.83,4.61,4.61,0,0,0-4,.34c-13.78,8.12-54.27,19.55-101.19,19.55h0c-38.62,0-92.23-7.7-128.26-44.4C61,285.1,48.29,243.69,51.08,190.41Z" />
            <path id="_Path_295" data-name="&lt;Path&gt;" class="cls-3"
                d="M449.81,213.09c-1.78,2.1-3.52,4.22-5.4,6.25-50.47,54.07-130.71,71.38-205.92,74.41-47.63,1.92-97.22-1.16-139.32-22.81A141.19,141.19,0,0,1,52.4,232.16C56.6,265.74,68.78,293,88.88,313.5c36,36.7,89.63,44.4,128.26,44.4h0c46.92,0,87.42-11.43,101.19-19.55a4.61,4.61,0,0,1,4-.34,4.39,4.39,0,0,1,2.68,2.83c.5,1.63,10.09,35.12-16.94,68.6C350.12,388.87,441.56,330.9,449.81,213.09Z" />
        </g>
    </g>
</svg>