<svg xmlns="http://www.w3.org/2000/svg" viewBox="0 0 512 512">
    <defs>
        <style>.cls-1{fill:#56e52e;stroke:#060207;stroke-miterlimit:10;stroke-width:8px;}</style>
    </defs>
    <title>description_4</title>
    <g id="OBJECTS">
        <g id="_Group_" data-name="&lt;Group&gt;">
            <path id="_Path_" data-name="&lt;Path&gt;" class="cls-1"
                d="M130.88,410.12c-8.17,6.9-10.12,20.42-4.35,30.2s17.09,12.1,25.27,5.2,10.12-20.42,4.35-30.2S139.06,403.22,130.88,410.12Z" />
            <path id="_Path_2" data-name="&lt;Path&gt;" class="cls-1"
                d="M167.72,447.12c-5.18,4.37-6.41,12.93-2.75,19.12s10.82,7.66,16,3.29,6.41-12.93,2.75-19.12S172.9,442.74,167.72,447.12Z" />
            <path id="_Path_3" data-name="&lt;Path&gt;" class="cls-1"
                d="M477.78,198.54,425.77,69c-2.56-6.37-7.28-10.29-12.4-10.29H213.89A11.39,11.39,0,0,0,206.22,62a11.4,11.4,0,0,0-7.66-3.24h-104c-5.12,0-9.84,3.92-12.4,10.29l-52,129.52a28.55,28.55,0,0,0,0,20.59l52,129.52c2.56,6.37,7.28,10.29,12.4,10.29h23.75c1.92,22.3,17.68,39.7,36.85,39.7s34.93-17.4,36.84-39.7h6.58a11.41,11.41,0,0,0,7.66-3.24,11.4,11.4,0,0,0,7.66,3.24H413.37c5.11,0,9.84-3.93,12.4-10.29l52-129.52A28.59,28.59,0,0,0,477.78,198.54Z" />
        </g>
    </g>
</svg>