<svg xmlns="http://www.w3.org/2000/svg" viewBox="0 0 512 512">
    <defs>
        <style>
            .cls-1{fill:#c62c76;}.cls-1,.cls-2{stroke:#fffdfe;stroke-miterlimit:10;stroke-width:10px;}.cls-2{fill:#f399c1;}
        </style>
    </defs>
    <title>description_27</title>
    <g id="OBJECTS">
        <path id="_Path_" data-name="&lt;Path&gt;" class="cls-1"
            d="M258.74,55.1s13.06,54.11,65.8,43.81C349,94.13,372.52,74.6,411.66,84c33.37,10.76,51,35.07,51.2,76.54,0,0,41,24.17,39.07,85.69s-41,85.69-41,85.69,0,103.26-111.34,68.11c-52.74-18.67-71.3-17.57-91.81,34.06,0,0-18.31-53.14-60.31-44.35-42,11-78.38,40-117.44,7,0,0-28.32-19.77-26.37-65.91-54.7-33-51.77-149.4,1-171.37,0,0,.49-79.64,69.35-80.19,30.27-.55,56.16,22,83.5,18.12S251.9,72.68,258.74,55.1Z" />
        <path id="_Path_2" data-name="&lt;Path&gt;" class="cls-2"
            d="M260.63,70.72s12.45,48.15,62.74,39c23.35-4.25,45.75-21.63,83.07-13.24,31.82,9.58,48.59,31.21,48.82,68.11,0,0,39.11,21.51,37.25,76.25s-39.11,76.25-39.11,76.25,0,91.89-106.17,60.61C297,361.07,279.26,362,259.7,408c0,0-17.46-47.29-57.51-39.47-40,9.78-74.73,35.56-112,6.23,0,0-27-17.6-25.14-58.66-52.15-29.33-49.36-133,.93-152.51,0,0,.47-70.88,66.12-71.36,28.87-.49,53.55,19.55,79.62,16.13S254.11,86.36,260.63,70.72Z" />
    </g>
</svg>