<svg xmlns="http://www.w3.org/2000/svg" viewBox="0 0 512 512">
    <defs>
        <style>.cls-1{fill:#00beac;}.cls-2{fill:#fdfdfd;opacity:0.3;}</style>
    </defs>
    <title>description_23</title>
    <g id="OBJECTS">
        <g id="_Group_" data-name="&lt;Group&gt;">
            <g id="_Group_2" data-name="&lt;Group&gt;">
                <path id="_Path_" data-name="&lt;Path&gt;" class="cls-1"
                    d="M465.28,194.49a104.29,104.29,0,0,0-2.7-17.53,97.85,97.85,0,0,0-5.26-15.79c-4.86-11.18-13.17-21.61-24-30.16A82.4,82.4,0,0,0,416,120.61a63.28,63.28,0,0,0-18.82-5.23,49,49,0,0,0-5.53-.32A46.44,46.44,0,0,0,378.33,117a45,45,0,0,0-13.64,6.89,7.61,7.61,0,0,0,.48-1.29,35.19,35.19,0,0,0,1.17-5.85,37.77,37.77,0,0,0,.07-8.71,40,40,0,0,0-5.24-15.76,54.25,54.25,0,0,0-10.93-13.16,81.6,81.6,0,0,0-14.8-10.4,106.5,106.5,0,0,0-16.85-7.45,104.39,104.39,0,0,0-17-4.32,78.34,78.34,0,0,0-12.7-1.11q-1.48,0-3,.07a84.34,84.34,0,0,0-17,2.66c-21.53,5.51-45.1,19.61-46.68,42.64a10.81,10.81,0,0,0-2.13-1.06,14.6,14.6,0,0,0-5-1,15.31,15.31,0,0,0-4.54.7,17.89,17.89,0,0,0-4.56,2.2,23.1,23.1,0,0,0-6.9,7.33,21.15,21.15,0,0,0-2.67,6.72,40.84,40.84,0,0,0-8.34-5,54.93,54.93,0,0,0-11.77-3.71A66.83,66.83,0,0,0,163,106.07c-2.32,0-4.69.11-7.26.36-13.34,1.3-27,6.28-39.51,14.4a99.08,99.08,0,0,0-16.56,13.55A89.73,89.73,0,0,0,86.77,151a73.74,73.74,0,0,0-8,18.68A69.76,69.76,0,0,0,76.45,188a71.06,71.06,0,0,0,1.95,16.16,59.06,59.06,0,0,0,5.95,15.34A45.93,45.93,0,0,0,94.58,232a42,42,0,0,0,6.81,4.67c.84.46,1.7.9,2.57,1.29a49.75,49.75,0,0,0-17.85,7.29,57.34,57.34,0,0,0-13,11.42,49.19,49.19,0,0,0-8,13.36,51.12,51.12,0,0,0-3.44,14.67,62.61,62.61,0,0,0,5,29.54,73.05,73.05,0,0,0,17.75,25.16A61.65,61.65,0,0,0,111.15,354a52.48,52.48,0,0,0,12.65,1.53q1.42,0,2.84-.08A55.18,55.18,0,0,0,142.91,352c.9-.35,1.8-.7,2.68-1.08a5,5,0,0,0-.18,1,13,13,0,0,0,.28,3.91,14.8,14.8,0,0,0,3.39,6.56,15.19,15.19,0,0,0,6.13,4.19,13.75,13.75,0,0,0,3.87.78c.29,0,.57,0,.85,0s.79,0,1.18-.05a3.88,3.88,0,0,0,.42,0,75.55,75.55,0,0,0,0,10.88,54.35,54.35,0,0,0,1.73,9.8,59,59,0,0,0,8.2,17.61,67.05,67.05,0,0,0,13.34,14.31,75.77,75.77,0,0,0,36.29,15.82,69,69,0,0,0,10.05.74,67.74,67.74,0,0,0,10-.74,72.92,72.92,0,0,0,19-5.78,87.4,87.4,0,0,0,18.18-11.09c8.47-6.65,22.84-20.74,24-40.39l.6,0q1.52,0,3,.06a70.68,70.68,0,0,1,16.62,3.06A85.72,85.72,0,0,1,341,390.2h0l.07,0A105.57,105.57,0,0,1,361.44,407h0a110.87,110.87,0,0,1,16.87,23.42,85.21,85.21,0,0,1,7.81,20.13h0a53.65,53.65,0,0,1,1.19,13.57h0a54.26,54.26,0,0,1-1.53,10l-.61,1.58a1.53,1.53,0,0,0,1.28,2.43,1.67,1.67,0,0,0,.8-.2,25.27,25.27,0,0,0,4.54-3.22,28,28,0,0,0,3.95-4.47,41,41,0,0,0,3-4.73c1-1.69,1.85-3.41,2.69-5.16a94,94,0,0,0,7.09-21.13c3-14.08,3.07-29.28.26-45.19A133.7,133.7,0,0,0,400,364.74a123.41,123.41,0,0,0-13.13-23.52,16.27,16.27,0,0,0,2.45.15h.77a47.19,47.19,0,0,0,6.71-.72c2-.33,4-.77,6-1.22s4-1,5.69-1.47a60.18,60.18,0,0,0,19.31-9.88A54,54,0,0,0,442,311.92a46.55,46.55,0,0,0,3.8-8.42,53.88,53.88,0,0,0,1.64-6.44A86,86,0,0,0,448.93,284a72.2,72.2,0,0,0-.74-14.29,36.28,36.28,0,0,0-3.92-12.07,18.73,18.73,0,0,0-5.4-6.19,40.93,40.93,0,0,0,12.26-8.63,46.76,46.76,0,0,0,9.17-13.9,62.52,62.52,0,0,0,4.47-16.61A86.94,86.94,0,0,0,465.28,194.49Z" />
                <path id="_Path_2" data-name="&lt;Path&gt;" class="cls-1"
                    d="M56.34,215a20.22,20.22,0,0,0-4,.39,17.88,17.88,0,0,0-5.93,2.39,16.78,16.78,0,0,0-5,4.91,17.71,17.71,0,0,0-1.62,3.23,19.4,19.4,0,0,0-1.13,4.78A16.81,16.81,0,0,0,39,236.2c0,.24.11.47.17.71a16.68,16.68,0,0,0,1.4,4.22A15.08,15.08,0,0,0,47.36,248,12.91,12.91,0,0,0,52,249.31a12.37,12.37,0,0,0,1.29.07,14.75,14.75,0,0,0,3.7-.49A16.86,16.86,0,0,0,61.34,247a21,21,0,0,0,4.13-3.31A23.11,23.11,0,0,0,70.81,235a17.76,17.76,0,0,0,.92-7.78,12.88,12.88,0,0,0-2.2-5.91,13.77,13.77,0,0,0-4.67-4.18A17.39,17.39,0,0,0,56.34,215" />
                <path id="_Path_3" data-name="&lt;Path&gt;" class="cls-1"
                    d="M19.59,169.74h-.16a7.11,7.11,0,0,0-2.52.53,8.13,8.13,0,0,0-2.11,1.28,8.86,8.86,0,0,0-1.37,1.51,13,13,0,0,0-1.65,2.26A15.47,15.47,0,0,0,10,181.87a18.36,18.36,0,0,0,.82,6.86,13.32,13.32,0,0,0,3.29,5.59,8.69,8.69,0,0,0,5.7,2.48h.38a10.51,10.51,0,0,0,3-.48,10.82,10.82,0,0,0,6.06-4.82,14.08,14.08,0,0,0,1.61-3.85,17.17,17.17,0,0,0,.53-3.93,16.79,16.79,0,0,0-.46-4.27,13.63,13.63,0,0,0-2.17-4.9A11.49,11.49,0,0,0,24.55,171a11.08,11.08,0,0,0-5-1.3" />
                <path id="_Path_4" data-name="&lt;Path&gt;" class="cls-1"
                    d="M54.41,159.06a5.83,5.83,0,0,0-1,.11,7.2,7.2,0,0,0-2.68,1.08,9.64,9.64,0,0,0-2,1.67,8.37,8.37,0,0,0-1.12,1.58,10.26,10.26,0,0,0-1.21,4.12,7.23,7.23,0,0,0,.92,4.22,4.63,4.63,0,0,0,1,1.18,7.31,7.31,0,0,0,1.45,1.54,6,6,0,0,0,2.38,1.19,5.2,5.2,0,0,0,1.15.13,5.36,5.36,0,0,0,1.79-.31,7.41,7.41,0,0,0,2.7-1.78A11.56,11.56,0,0,0,59,172.36a11.29,11.29,0,0,0,1.44-2.52A8.85,8.85,0,0,0,61.1,165a7.7,7.7,0,0,0-.65-2.1,8,8,0,0,0-1.37-2,6.52,6.52,0,0,0-1.63-1.2,5.93,5.93,0,0,0-1.93-.61,8.92,8.92,0,0,0-1.1-.07" />
                <path id="_Path_5" data-name="&lt;Path&gt;" class="cls-1"
                    d="M493,204.86a11.68,11.68,0,0,0-1.55.11,11.22,11.22,0,0,0-4.11,1.47,8.64,8.64,0,0,0-1,.65c-.37.19-.74.4-1.09.63a14.52,14.52,0,0,0-4.37,4.52,18.23,18.23,0,0,0-2.36,5.89,20.77,20.77,0,0,0-.42,6.39c.23,2.66,1.23,7.56,5.26,10.48a10.59,10.59,0,0,0,6.29,1.93,14,14,0,0,0,6.26-1.51,13.65,13.65,0,0,0,2.82-2,17.28,17.28,0,0,0,2.53-2.92,20.83,20.83,0,0,0,3.12-7c1.37-5.41.52-10.75-2.28-14.27a12,12,0,0,0-2.52-2.33,11.76,11.76,0,0,0-3.72-1.65,10.63,10.63,0,0,0-2.87-.38" />
                <path id="_Path_6" data-name="&lt;Path&gt;" class="cls-1"
                    d="M486,168.15h-.26a5.55,5.55,0,0,0-4.67,2.65,7.92,7.92,0,0,0-1.06,2.59,10.13,10.13,0,0,0-.18,3.31,11.42,11.42,0,0,0,1.47,4.6,14.82,14.82,0,0,0,.93,1.84,10.11,10.11,0,0,0,2.73,3,7,7,0,0,0,3.32,1.32,6.29,6.29,0,0,0,.72,0,6.83,6.83,0,0,0,1.13-.1,8.42,8.42,0,0,0,2.19-.74,6.38,6.38,0,0,0,2.85-2.79,8.28,8.28,0,0,0,.82-4.29,13.59,13.59,0,0,0-3.26-8,9.15,9.15,0,0,0-1.47-1.3,13.88,13.88,0,0,0-1.71-1.11,8.39,8.39,0,0,0-3.53-1Z" />
                <path id="_Path_7" data-name="&lt;Path&gt;" class="cls-1"
                    d="M308.57,404.8h-.26a9.14,9.14,0,0,0-3.81,1.11c-.29.17-.58.34-.86.54l-.68.22a6.43,6.43,0,0,0-1.94,1.22,8,8,0,0,0-1.58,1.93,11.83,11.83,0,0,0-1.52,4.78,12.8,12.8,0,0,0-.09,1.94v.57h0a1.62,1.62,0,0,0,.14.65,11.55,11.55,0,0,0,.3,1.65,8.29,8.29,0,0,0,2.14,3.94,5.81,5.81,0,0,0,1.89,1.19,4.37,4.37,0,0,0,1.69.3c.24,0,.47,0,.7,0a9.68,9.68,0,0,0,5-2.51,21.41,21.41,0,0,0,2.75-2.89,18.78,18.78,0,0,0,1.55-2.09,11.24,11.24,0,0,0,1.19-2.76,8.14,8.14,0,0,0-1-6.89,6.57,6.57,0,0,0-5.6-2.87" />
                <path id="_Path_8" data-name="&lt;Path&gt;" class="cls-1"
                    d="M289.21,421.18a7.8,7.8,0,0,0-1.28.12,7.19,7.19,0,0,0-2,.69,8.1,8.1,0,0,0-2.28,1.06,7.83,7.83,0,0,0-1.86,1.8,6.12,6.12,0,0,0-1,2,6.47,6.47,0,0,0,.23,4.27,5.63,5.63,0,0,0,1.06,1.65,4.9,4.9,0,0,0,1.95,1.26,4,4,0,0,0,1.53.26c.24,0,.48,0,.71,0a6.72,6.72,0,0,0,2.32-.73,11.11,11.11,0,0,0,2.55-1.85,9.49,9.49,0,0,0,2.71-4.14,5.08,5.08,0,0,0-.18-3.52,4.7,4.7,0,0,0-2.24-2.3,5,5,0,0,0-1.72-.5,4.64,4.64,0,0,0-.57,0" />
                <path id="_Path_9" data-name="&lt;Path&gt;" class="cls-1"
                    d="M304.45,429.87a4.77,4.77,0,0,0-2.81,1.09,6.69,6.69,0,0,0-2.62,5.57,1.62,1.62,0,0,0,.21.73,3.46,3.46,0,0,0,1.7,2.17,5,5,0,0,0,2.48.59,6.62,6.62,0,0,0,.85-.05,7.11,7.11,0,0,0,1.69-.39,6.88,6.88,0,0,0,1.8-1,4.31,4.31,0,0,0,1.55-3.28,4.86,4.86,0,0,0-.4-1.94,5.81,5.81,0,0,0-1.95-2.65,4.17,4.17,0,0,0-2.52-.8" />
                <path id="_Compound_Path_" data-name="&lt;Compound Path&gt;" class="cls-1"
                    d="M149.26,387.67a1.57,1.57,0,0,0-1.36,1.74c1.5,12.89,7.27,25.06,15.35,35.22a89,89,0,0,0,14.86,14.46,78.52,78.52,0,0,0,18,10.68,67.59,67.59,0,0,0,24.63,5.48,58.81,58.81,0,0,0,12.87-1.05,51.81,51.81,0,0,0,12.87-4.37,4.75,4.75,0,0,0,2.47-2.46,4.37,4.37,0,0,0,0-3.35,4.54,4.54,0,0,0-5.9-2.42,58,58,0,0,1-9.53,3.63,55.28,55.28,0,0,1-12.76,1.66,66.9,66.9,0,0,1-15.31-2,83.15,83.15,0,0,1-18.59-7.64,88.23,88.23,0,0,1-8.31-5.39,79.6,79.6,0,0,1-20.72-23l.25.45a58.41,58.41,0,0,1-5.83-13.73c0,.13.07.26.1.39a48.41,48.41,0,0,1-1.32-7,1.56,1.56,0,0,0-1.56-1.34l-.21,0m37.93,49.73.36.21-.36-.21m46.17,7.85-.5.14.5-.14" />
                <path id="_Compound_Path_2" data-name="&lt;Compound Path&gt;" class="cls-1"
                    d="M134.15,377.5a60.68,60.68,0,0,0,.64,23,45.62,45.62,0,0,0,1.67,5.32,40.25,40.25,0,0,0,2.33,5.12,42.65,42.65,0,0,0,3.15,4.87,37.55,37.55,0,0,0,4.23,4.8,2.65,2.65,0,0,0,1.7.85,2.53,2.53,0,0,0,1.83-.59,2.44,2.44,0,0,0,.88-1.68,2.32,2.32,0,0,0-.6-1.81,46.32,46.32,0,0,1-7.33-8.37l.07.11a47.72,47.72,0,0,1-2.62-4.52,42.86,42.86,0,0,1-2.29-5.56,45.9,45.9,0,0,1-2.07-11.12c0,.11,0,.21,0,.32a52.57,52.57,0,0,1,.52-10.56,1.05,1.05,0,0,0-1-1.13h-.09a1.07,1.07,0,0,0-1.05,1M137.81,399c0,.07,0,.13.06.2l-.06-.2m4.91,10.09.22.34-.22-.34" />
                <path id="_Compound_Path_3" data-name="&lt;Compound Path&gt;" class="cls-1"
                    d="M296.34,39.79a51.65,51.65,0,0,0-16,3.19,1.22,1.22,0,0,0-.59,1.62,1.27,1.27,0,0,0,1.66.58c.58-.21,1.15-.41,1.74-.6l-.23.07a46.25,46.25,0,0,1,11-1.94h0a57.15,57.15,0,0,1,13.6.94,71.5,71.5,0,0,1,9.69,2.73,96.9,96.9,0,0,1,9.45,3.88,102.41,102.41,0,0,1,21.21,14l-.09-.08.1.08.67.58-.57-.48a87.1,87.1,0,0,1,14.42,16.06,54.27,54.27,0,0,1,5.93,11.91,4.37,4.37,0,0,0,2.65,2.33,4.62,4.62,0,0,0,3.44-.2,4.56,4.56,0,0,0,2.36-2.61c.09-.37.16-.74.24-1.12a4.56,4.56,0,0,0-.43-2.26,56.1,56.1,0,0,0-9.44-16.27A64.47,64.47,0,0,0,360.39,65a101.32,101.32,0,0,0-8.34-6.93,97.86,97.86,0,0,0-18.49-10.67,89.66,89.66,0,0,0-19.92-6.25A80.87,80.87,0,0,0,299,39.73q-1.33,0-2.67.05m11.3,3.9.18,0-.18,0m40.26,20.64-.11-.09h0l.11.1" />
                <path id="_Compound_Path_4" data-name="&lt;Compound Path&gt;" class="cls-1"
                    d="M379.62,73.47a1,1,0,0,0,.1,1.46c.55.54,1.1,1.09,1.62,1.66l-.09-.1.13.14.06.06,0,0a37.06,37.06,0,0,1,5,7.24A52.34,52.34,0,0,1,390.93,97c.33,1.76.58,3.53.76,5.32a2.15,2.15,0,0,0,4.3-.28,35.73,35.73,0,0,0-1.42-8.26,37,37,0,0,0-3.24-7.61,44.13,44.13,0,0,0-4.71-6.83,68.77,68.77,0,0,0-5.51-6,1,1,0,0,0-.67-.25,1.09,1.09,0,0,0-.82.36m1.78,3.19,0,0,0,0,.06.07" />
                <path id="_Compound_Path_5" data-name="&lt;Compound Path&gt;" class="cls-2"
                    d="M76.79,287.56c-.22,7.49,1,15,4.76,21.61a49.65,49.65,0,0,0,6.91,9.15A44.24,44.24,0,0,0,98,326.43a58.82,58.82,0,0,0,24.07,8.08,48.27,48.27,0,0,0,6.78.06,34.48,34.48,0,0,0,5.82-.77,38.78,38.78,0,0,0,7.05-2.21,31.82,31.82,0,0,0,6.38-3.78,7.48,7.48,0,0,0,2.24-8.84c-1.6-3.63-6.31-5.72-10-3.92a67.12,67.12,0,0,1-9.27,3.66,52.37,52.37,0,0,1-10.61,1.56,50,50,0,0,1-10.14-1,67.26,67.26,0,0,1-13.16-5.19,35,35,0,0,1-6.54-4.63A42.25,42.25,0,0,1,84.4,302a34.65,34.65,0,0,1-3.25-7.21,25.46,25.46,0,0,1-.87-6.1c0-.24,0-.47,0-.71A1.77,1.77,0,0,0,78.73,286h-.17a1.75,1.75,0,0,0-1.78,1.54M90.11,309l.42.38-.42-.38" />
                <path id="_Path_10" data-name="&lt;Path&gt;" class="cls-2"
                    d="M88.71,264.65c-4,7.57-3.91,16.67-1.15,24.62a29.1,29.1,0,0,0,3,6,25.18,25.18,0,0,0,3.9,4.9,29.22,29.22,0,0,0,2.91,2.52,25.55,25.55,0,0,0,3.31,1.91,16.36,16.36,0,0,0,6.63,1.65,4.35,4.35,0,0,0,3-.86,4,4,0,0,0,.64-5.7l-.8-.76a4.17,4.17,0,0,0-2-.74,26.73,26.73,0,0,1-4.66-1.75,25.16,25.16,0,0,1-4.24-3,29.64,29.64,0,0,1-4.3-5.36,34.65,34.65,0,0,1-3.44-7.79,28,28,0,0,1-.95-6.09,22.36,22.36,0,0,1,.41-4.81,17.33,17.33,0,0,1,1.33-3.4,1.91,1.91,0,0,0-1.12-2.48,2,2,0,0,0-.69-.13,2.13,2.13,0,0,0-1.83,1.24" />
                <path id="_Compound_Path_6" data-name="&lt;Compound Path&gt;" class="cls-2"
                    d="M441.44,177a1.63,1.63,0,0,0-.9,2.13A28,28,0,0,1,443,185s0-.07,0-.11l0,.11.09.33c0-.08-.05-.17-.07-.25a43.59,43.59,0,0,1,1.21,10.73c0-.21,0-.44,0-.65A67.1,67.1,0,0,1,442,211.89a57.07,57.07,0,0,1-5.54,12.62,60.15,60.15,0,0,1-8.69,10.82,37.53,37.53,0,0,1-5.88,4.4,30.93,30.93,0,0,1-5.88,2.46,5.92,5.92,0,0,0-3.29,7.77,6,6,0,0,0,3.19,3.21l1.56.42a6.25,6.25,0,0,0,3.15-.39c7.15-2.12,13.14-6.95,17.62-12.75a43.28,43.28,0,0,0,3.22-5.14,47.68,47.68,0,0,0,2.45-5.09,71.6,71.6,0,0,0,3.46-11.3c3.11-13.54,3.33-28.59-3.71-41.05a1.81,1.81,0,0,0-1.54-1,1.69,1.69,0,0,0-.62.12m.65,34.42-.13.44.13-.44m-.16.55-.08.31.08-.31M436.71,224l-.16.25.16-.25m-.37.6-.23.39.23-.39m-8,10.11-.38.35.38-.35M443,185.12l0-.07h0l0,.08" />
                <path id="_Compound_Path_7" data-name="&lt;Compound Path&gt;" class="cls-2"
                    d="M420.84,154.7a1.87,1.87,0,0,0-.37,2.62,33,33,0,0,1,2.21,3.18,33.37,33.37,0,0,1,3.07,7.58,43,43,0,0,1,1.17,9.7,60,60,0,0,1-.45,6.39,44.6,44.6,0,0,1-1.27,6.15,57.57,57.57,0,0,1-5.63,12.78c-.61,1-1.25,1.93-1.88,2.89a5.47,5.47,0,0,0-1.11,3.93,5.23,5.23,0,0,0,2,3.45,5.44,5.44,0,0,0,7.51-.87,42.49,42.49,0,0,0,4.17-7,47.28,47.28,0,0,0,2.7-7.7,50.07,50.07,0,0,0,1.46-15.12,44,44,0,0,0-3.25-14.45,52.46,52.46,0,0,0-7.65-13.13,2,2,0,0,0-1.54-.73,1.88,1.88,0,0,0-1.13.37m4.77,12.82.06.21c0-.07,0-.14-.06-.21" />
                <path id="_Path_11" data-name="&lt;Path&gt;" class="cls-2"
                    d="M266.88,71.54a44.58,44.58,0,0,0-9.07,2.59,45.2,45.2,0,0,0-8.06,4.43,43.33,43.33,0,0,0-11.44,11.25,40.08,40.08,0,0,0-6.41,14.6c-.29,1.36,1.08,2.65,2.36,2.75a2.62,2.62,0,0,0,2.77-2.27.46.46,0,0,1,0,.06,24.63,24.63,0,0,1,1.81-5,24.17,24.17,0,0,1,3-4A32.45,32.45,0,0,1,247,91.73a47.93,47.93,0,0,1,9.56-4.31,70.44,70.44,0,0,1,15.81-2.85,58.42,58.42,0,0,1,9.28.48,6.57,6.57,0,0,0,6.71-4.19,6.45,6.45,0,0,0-3.88-8.29A35.55,35.55,0,0,0,276.21,71q-1.1-.07-2.21-.07a45.52,45.52,0,0,0-7.12.6" />
            </g>
        </g>
    </g>
</svg>