<svg xmlns="http://www.w3.org/2000/svg" viewBox="0 0 512 512">
    <defs>
        <style>
            .cls-1{fill:#211c1d;}.cls-2{fill:#ff9d00;}.cls-3{fill:#fff;}.cls-4{fill:#191919;opacity:0.2;}
        </style>
    </defs>
    <title>description_26</title>
    <g id="OBJECTS">
        <g id="_Group_" data-name="&lt;Group&gt;">
            <g id="_Group_2" data-name="&lt;Group&gt;">
                <path id="_Path_" data-name="&lt;Path&gt;" class="cls-1"
                    d="M249.29,275.85a9.62,9.62,0,1,1,9.46-9.62A9.53,9.53,0,0,1,249.29,275.85Z" />
                <path id="_Path_2" data-name="&lt;Path&gt;" class="cls-1"
                    d="M256.46,236a9.62,9.62,0,1,1-10,9A9.51,9.51,0,0,1,256.46,236Z" />
                <path id="_Path_3" data-name="&lt;Path&gt;" class="cls-1"
                    d="M228.13,269a9.62,9.62,0,1,1,10-9.09A9.52,9.52,0,0,1,228.13,269Z" />
                <path id="_Path_4" data-name="&lt;Path&gt;" class="cls-1"
                    d="M277.4,262.08a9.62,9.62,0,1,1,9.5-9.58A9.53,9.53,0,0,1,277.4,262.08Z" />
                <path id="_Path_5" data-name="&lt;Path&gt;" class="cls-1"
                    d="M242.39,297.14a9.62,9.62,0,1,1,9.48-9.6A9.53,9.53,0,0,1,242.39,297.14Z" />
                <path id="_Path_6" data-name="&lt;Path&gt;" class="cls-1"
                    d="M280,273.48a9.61,9.61,0,1,1-9.08-10A9.52,9.52,0,0,1,280,273.48Z" />
                <path id="_Path_7" data-name="&lt;Path&gt;" class="cls-1"
                    d="M287.36,321.83a9.45,9.45,0,1,1-9.65-9.34A9.34,9.34,0,0,1,287.36,321.83Z" />
                <path id="_Path_8" data-name="&lt;Path&gt;" class="cls-1"
                    d="M263.57,304a9.58,9.58,0,1,1,9.52-9.47A9.45,9.45,0,0,1,263.57,304Z" />
                <path id="_Path_9" data-name="&lt;Path&gt;" class="cls-1"
                    d="M251.17,217.43a9.53,9.53,0,1,1-9.42-9.58A9.39,9.39,0,0,1,251.17,217.43Z" />
                <path id="_Path_10" data-name="&lt;Path&gt;" class="cls-1"
                    d="M256.55,324.58a9.51,9.51,0,1,1,9.6-9.33A9.35,9.35,0,0,1,256.55,324.58Z" />
                <path id="_Path_11" data-name="&lt;Path&gt;" class="cls-1"
                    d="M272.47,224.19A9.57,9.57,0,1,1,263,214.7,9.45,9.45,0,0,1,272.47,224.19Z" />
                <path id="_Path_12" data-name="&lt;Path&gt;" class="cls-1"
                    d="M235.49,318.32a9.51,9.51,0,1,1,9.39-9.54A9.36,9.36,0,0,1,235.49,318.32Z" />
                <path id="_Path_13" data-name="&lt;Path&gt;" class="cls-1"
                    d="M307.5,259.34a9.57,9.57,0,1,1-9.42-9.57A9.45,9.45,0,0,1,307.5,259.34Z" />
                <path id="_Path_14" data-name="&lt;Path&gt;" class="cls-1"
                    d="M230.44,210.63A9.45,9.45,0,1,1,221,201,9.34,9.34,0,0,1,230.44,210.63Z" />
                <path id="_Path_15" data-name="&lt;Path&gt;" class="cls-1"
                    d="M200.37,264.26a9.48,9.48,0,1,1-9.5,9.46A9.34,9.34,0,0,1,200.37,264.26Z" />
                <path id="_Path_16" data-name="&lt;Path&gt;" class="cls-1"
                    d="M300.5,209.92a9.45,9.45,0,1,1-9.48-9.5A9.34,9.34,0,0,1,300.5,209.92Z" />
                <path id="_Path_17" data-name="&lt;Path&gt;" class="cls-1"
                    d="M224.21,301.82a9.47,9.47,0,1,1-9.58-9.38A9.34,9.34,0,0,1,224.21,301.82Z" />
                <path id="_Path_18" data-name="&lt;Path&gt;" class="cls-1"
                    d="M319.09,275.06a9.46,9.46,0,1,1,9.56-9.42A9.34,9.34,0,0,1,319.09,275.06Z" />
                <path id="_Path_19" data-name="&lt;Path&gt;" class="cls-1"
                    d="M321.79,287.16a9.48,9.48,0,1,1-9.21-9.75A9.35,9.35,0,0,1,321.79,287.16Z" />
                <path id="_Path_20" data-name="&lt;Path&gt;" class="cls-1"
                    d="M284.35,291.75a9.54,9.54,0,1,1-9.71,9.29A9.4,9.4,0,0,1,284.35,291.75Z" />
                <path id="_Path_21" data-name="&lt;Path&gt;" class="cls-1"
                    d="M216.73,252.39a9.5,9.5,0,1,1-9.49-9.45A9.36,9.36,0,0,1,216.73,252.39Z" />
                <path id="_Path_22" data-name="&lt;Path&gt;" class="cls-1"
                    d="M279.26,202.93a9.47,9.47,0,1,1-9.53-9.42A9.34,9.34,0,0,1,279.26,202.93Z" />
                <path id="_Path_23" data-name="&lt;Path&gt;" class="cls-1"
                    d="M244.32,238.63a9.57,9.57,0,1,1-9.47-9.53A9.45,9.45,0,0,1,244.32,238.63Z" />
                <path id="_Path_24" data-name="&lt;Path&gt;" class="cls-1"
                    d="M290.92,270.43a9.58,9.58,0,1,1-9.44,9.56A9.45,9.45,0,0,1,290.92,270.43Z" />
                <path id="_Path_25" data-name="&lt;Path&gt;" class="cls-1"
                    d="M314.32,238.2a9.5,9.5,0,1,1-9.28-9.65A9.36,9.36,0,0,1,314.32,238.2Z" />
                <path id="_Path_26" data-name="&lt;Path&gt;" class="cls-1"
                    d="M293.74,231.17a9.57,9.57,0,1,1-9.41-9.58A9.45,9.45,0,0,1,293.74,231.17Z" />
                <path id="_Path_27" data-name="&lt;Path&gt;" class="cls-1"
                    d="M223.61,231.75a9.5,9.5,0,1,1-9.47-9.46A9.35,9.35,0,0,1,223.61,231.75Z" />
                <path id="_Path_28" data-name="&lt;Path&gt;" class="cls-1"
                    d="M221.65,290.21a9.58,9.58,0,1,1,9.53-9.46A9.45,9.45,0,0,1,221.65,290.21Z" />
                <path id="_Path_29" data-name="&lt;Path&gt;" class="cls-1"
                    d="M305.34,298.75a9.44,9.44,0,1,1-9.33,9.61A9.34,9.34,0,0,1,305.34,298.75Z" />
                <path id="_Path_30" data-name="&lt;Path&gt;" class="cls-1"
                    d="M257.94,196.82a9.43,9.43,0,1,1-9.42-9.52A9.34,9.34,0,0,1,257.94,196.82Z" />
                <path id="_Path_31" data-name="&lt;Path&gt;" class="cls-1"
                    d="M207.8,332a9.38,9.38,0,1,1,9.43-9.25A9.42,9.42,0,0,1,207.8,332Z" />
                <path id="_Path_32" data-name="&lt;Path&gt;" class="cls-1"
                    d="M307.93,328.94a9.38,9.38,0,1,1-9.2-9.48A9.41,9.41,0,0,1,307.93,328.94Z" />
                <path id="_Path_33" data-name="&lt;Path&gt;" class="cls-1"
                    d="M228.35,320.07a9.4,9.4,0,1,1-9.24,9.47A9.38,9.38,0,0,1,228.35,320.07Z" />
                <path id="_Path_34" data-name="&lt;Path&gt;" class="cls-1"
                    d="M335.49,245.17a9.41,9.41,0,1,1-9-9.64A9.36,9.36,0,0,1,335.49,245.17Z" />
                <path id="_Path_35" data-name="&lt;Path&gt;" class="cls-1"
                    d="M227.75,180.46a9.38,9.38,0,1,1-9.25,9.43A9.42,9.42,0,0,1,227.75,180.46Z" />
                <path id="_Path_36" data-name="&lt;Path&gt;" class="cls-1"
                    d="M186,236.8a9.4,9.4,0,1,1-9.44,9.27A9.36,9.36,0,0,1,186,236.8Z" />
                <path id="_Path_37" data-name="&lt;Path&gt;" class="cls-1"
                    d="M169.7,266.88a9.37,9.37,0,1,1,9.32,9.36A9.42,9.42,0,0,1,169.7,266.88Z" />
                <path id="_Path_38" data-name="&lt;Path&gt;" class="cls-1"
                    d="M193.35,304.45a9.42,9.42,0,1,1,9.52-9.14A9.35,9.35,0,0,1,193.35,304.45Z" />
                <path id="_Path_39" data-name="&lt;Path&gt;" class="cls-1"
                    d="M311.8,207.35a9.42,9.42,0,1,1-9.51,9.15A9.35,9.35,0,0,1,311.8,207.35Z" />
                <path id="_Path_40" data-name="&lt;Path&gt;" class="cls-1"
                    d="M192.75,215.51a9.4,9.4,0,1,1-9.29,9.41A9.38,9.38,0,0,1,192.75,215.51Z" />
                <path id="_Path_41" data-name="&lt;Path&gt;" class="cls-1"
                    d="M259.15,336.47A9.39,9.39,0,1,1,250,327,9.38,9.38,0,0,1,259.15,336.47Z" />
                <path id="_Path_42" data-name="&lt;Path&gt;" class="cls-1"
                    d="M280.39,343.18a9.35,9.35,0,1,1-9.42-9.29A9.44,9.44,0,0,1,280.39,343.18Z" />
                <path id="_Path_43" data-name="&lt;Path&gt;" class="cls-1"
                    d="M333.45,284.42a9.36,9.36,0,1,1-9.21,9.5A9.44,9.44,0,0,1,333.45,284.42Z" />
                <path id="_Path_44" data-name="&lt;Path&gt;" class="cls-1"
                    d="M276.68,173a9.36,9.36,0,1,1-9.36,9.35A9.44,9.44,0,0,1,276.68,173Z" />
                <path id="_Path_45" data-name="&lt;Path&gt;" class="cls-1"
                    d="M199.65,194.28a9.34,9.34,0,1,1-9.26,9.41A9.45,9.45,0,0,1,199.65,194.28Z" />
                <path id="_Path_46" data-name="&lt;Path&gt;" class="cls-1"
                    d="M297.22,179.88a9.34,9.34,0,1,1-9.24,9.43A9.44,9.44,0,0,1,297.22,179.88Z" />
                <path id="_Path_47" data-name="&lt;Path&gt;" class="cls-1"
                    d="M349.8,272.39a9.33,9.33,0,1,1-9.43-9.24A9.45,9.45,0,0,1,349.8,272.39Z" />
                <path id="_Path_48" data-name="&lt;Path&gt;" class="cls-1"
                    d="M342.3,223.91a9.33,9.33,0,1,1-9.08-9.59A9.46,9.46,0,0,1,342.3,223.91Z" />
                <path id="_Path_49" data-name="&lt;Path&gt;" class="cls-1"
                    d="M181.48,288.15a9.28,9.28,0,1,1-9.12-9.29A9.45,9.45,0,0,1,181.48,288.15Z" />
                <path id="_Path_50" data-name="&lt;Path&gt;" class="cls-1"
                    d="M327.86,196.11a9.28,9.28,0,1,1-9.12-9.29A9.45,9.45,0,0,1,327.86,196.11Z" />
                <path id="_Path_51" data-name="&lt;Path&gt;" class="cls-1"
                    d="M336,315.32a9.31,9.31,0,1,1-9.14-9.57A9.47,9.47,0,0,1,336,315.32Z" />
                <path id="_Path_52" data-name="&lt;Path&gt;" class="cls-1"
                    d="M186.58,306.41a9.29,9.29,0,1,1-9.28,9.13A9.45,9.45,0,0,1,186.58,306.41Z" />
                <path id="_Path_53" data-name="&lt;Path&gt;" class="cls-1"
                    d="M346.84,261.12a9.29,9.29,0,1,1,9.17-9.24A9.45,9.45,0,0,1,346.84,261.12Z" />
                <path id="_Path_54" data-name="&lt;Path&gt;" class="cls-1"
                    d="M264.71,175.43a9.31,9.31,0,1,1-9.4-9.31A9.46,9.46,0,0,1,264.71,175.43Z" />
                <path id="_Path_55" data-name="&lt;Path&gt;" class="cls-1"
                    d="M181.37,218a9.17,9.17,0,1,1-9.24-9.11A9.29,9.29,0,0,1,181.37,218Z" />
                <path id="_Path_56" data-name="&lt;Path&gt;" class="cls-1"
                    d="M234.74,159.38a9.18,9.18,0,1,1-9.16,9.19A9.29,9.29,0,0,1,234.74,159.38Z" />
                <path id="_Path_57" data-name="&lt;Path&gt;" class="cls-1"
                    d="M329,335.67a9.17,9.17,0,1,1-9.23-9.11A9.29,9.29,0,0,1,329,335.67Z" />
                <path id="_Path_58" data-name="&lt;Path&gt;" class="cls-1"
                    d="M206.69,192.13a9.18,9.18,0,1,1,9.09-9.26A9.29,9.29,0,0,1,206.69,192.13Z" />
                <path id="_Path_59" data-name="&lt;Path&gt;" class="cls-1"
                    d="M174.49,239.38a9.17,9.17,0,1,1-9.1-9.25A9.29,9.29,0,0,1,174.49,239.38Z" />
                <path id="_Path_60" data-name="&lt;Path&gt;" class="cls-1"
                    d="M291.68,359.35a9.22,9.22,0,1,1,9.21-9.14A9.37,9.37,0,0,1,291.68,359.35Z" />
                <path id="_Path_61" data-name="&lt;Path&gt;" class="cls-1"
                    d="M221.7,341.58a9.18,9.18,0,1,1-9.25,9.1A9.29,9.29,0,0,1,221.7,341.58Z" />
                <path id="_Path_62" data-name="&lt;Path&gt;" class="cls-1"
                    d="M242.87,348.47a9.18,9.18,0,1,1-9.16,9.19A9.29,9.29,0,0,1,242.87,348.47Z" />
                <path id="_Path_63" data-name="&lt;Path&gt;" class="cls-1"
                    d="M210,343.74a9.06,9.06,0,1,1-9.27-8.93A9,9,0,0,1,210,343.74Z" />
                <path id="_Path_64" data-name="&lt;Path&gt;" class="cls-1"
                    d="M158.68,250.91a9.06,9.06,0,1,1-9.3,8.9A9,9,0,0,1,158.68,250.91Z" />
                <path id="_Path_65" data-name="&lt;Path&gt;" class="cls-1"
                    d="M304.28,176.84a8.92,8.92,0,1,1,8.81-8.93A8.76,8.76,0,0,1,304.28,176.84Z" />
                <path id="_Path_66" data-name="&lt;Path&gt;" class="cls-1"
                    d="M363.18,300.56a8.95,8.95,0,1,1-9-8.85A8.82,8.82,0,0,1,363.18,300.56Z" />
                <path id="_Path_67" data-name="&lt;Path&gt;" class="cls-1"
                    d="M361.21,288.29a8.92,8.92,0,1,1,8.81-8.93A8.76,8.76,0,0,1,361.21,288.29Z" />
                <path id="_Path_68" data-name="&lt;Path&gt;" class="cls-1"
                    d="M165.25,299.85a9,9,0,1,1-8.88,8.95A8.81,8.81,0,0,1,165.25,299.85Z" />
                <path id="_Path_69" data-name="&lt;Path&gt;" class="cls-1"
                    d="M179.1,187.77a9,9,0,1,1-9,8.86A8.81,8.81,0,0,1,179.1,187.77Z" />
                <path id="_Path_70" data-name="&lt;Path&gt;" class="cls-1"
                    d="M283.54,170a8.92,8.92,0,1,1,8.91-8.83A8.76,8.76,0,0,1,283.54,170Z" />
                <path id="_Path_71" data-name="&lt;Path&gt;" class="cls-1"
                    d="M339.74,212a9,9,0,1,1,9.1-8.74A8.91,8.91,0,0,1,339.74,212Z" />
                <path id="_Path_72" data-name="&lt;Path&gt;" class="cls-1"
                    d="M353.72,239.54a9,9,0,1,1,8.89-9A8.9,8.9,0,0,1,353.72,239.54Z" />
                <path id="_Path_73" data-name="&lt;Path&gt;" class="cls-1"
                    d="M264,373.54a9,9,0,1,1,9.11-8.73A8.91,8.91,0,0,1,264,373.54Z" />
                <path id="_Path_74" data-name="&lt;Path&gt;" class="cls-1"
                    d="M271.12,154a8.85,8.85,0,1,1-9-8.73A8.72,8.72,0,0,1,271.12,154Z" />
                <path id="_Path_75" data-name="&lt;Path&gt;" class="cls-1"
                    d="M151.58,290.11a8.85,8.85,0,1,1,8.82-9A8.73,8.73,0,0,1,151.58,290.11Z" />
                <path id="_Path_76" data-name="&lt;Path&gt;" class="cls-1"
                    d="M347.27,313.07a8.88,8.88,0,1,1-8.8,9A8.74,8.74,0,0,1,347.27,313.07Z" />
                <path id="_Path_77" data-name="&lt;Path&gt;" class="cls-1"
                    d="M179.72,328.13a8.85,8.85,0,1,1-8.86,8.92A8.73,8.73,0,0,1,179.72,328.13Z" />
                <path id="_Path_78" data-name="&lt;Path&gt;" class="cls-1"
                    d="M222.3,161.76a8.82,8.82,0,1,1-8.8-8.93A8.72,8.72,0,0,1,222.3,161.76Z" />
                <path id="_Path_79" data-name="&lt;Path&gt;" class="cls-1"
                    d="M376.81,259a8.82,8.82,0,1,1-8.63-9.09A8.74,8.74,0,0,1,376.81,259Z" />
                <path id="_Path_80" data-name="&lt;Path&gt;" class="cls-1"
                    d="M334.28,174.94a8.82,8.82,0,1,1-8.77-9A8.73,8.73,0,0,1,334.28,174.94Z" />
                <path id="_Path_81" data-name="&lt;Path&gt;" class="cls-1"
                    d="M313.18,348.19a8.83,8.83,0,1,1-9,8.68A8.74,8.74,0,0,1,313.18,348.19Z" />
                <path id="_Path_82" data-name="&lt;Path&gt;" class="cls-1"
                    d="M185.34,184.87a8.8,8.8,0,1,1,8.79-8.66A8.74,8.74,0,0,1,185.34,184.87Z" />
                <path id="_Path_83" data-name="&lt;Path&gt;" class="cls-1"
                    d="M284.74,380.23a8.81,8.81,0,1,1,8.85-8.6A8.74,8.74,0,0,1,284.74,380.23Z" />
                <path id="_Path_84" data-name="&lt;Path&gt;" class="cls-1"
                    d="M360.44,201.12a8.76,8.76,0,1,1-8.71,8.73A8.78,8.78,0,0,1,360.44,201.12Z" />
                <path id="_Path_85" data-name="&lt;Path&gt;" class="cls-1"
                    d="M250.37,147.16a8.74,8.74,0,1,1-8.84-8.64A8.81,8.81,0,0,1,250.37,147.16Z" />
                <path id="_Path_86" data-name="&lt;Path&gt;" class="cls-1"
                    d="M349.22,342.87a8.76,8.76,0,1,1-8.42-9A8.78,8.78,0,0,1,349.22,342.87Z" />
                <path id="_Path_87" data-name="&lt;Path&gt;" class="cls-1"
                    d="M214.68,362.67a8.75,8.75,0,1,1-8.68,8.81A8.81,8.81,0,0,1,214.68,362.67Z" />
                <path id="_Path_88" data-name="&lt;Path&gt;" class="cls-1"
                    d="M167.75,330.13A8.69,8.69,0,1,1,159,321.4,8.81,8.81,0,0,1,167.75,330.13Z" />
                <path id="_Path_89" data-name="&lt;Path&gt;" class="cls-1"
                    d="M144.19,223.69a8.73,8.73,0,1,1-8.86,8.66A8.82,8.82,0,0,1,144.19,223.69Z" />
                <path id="_Path_90" data-name="&lt;Path&gt;" class="cls-1"
                    d="M137.17,261.75a8.67,8.67,0,1,1,8.66-8.52A8.83,8.83,0,0,1,137.17,261.75Z" />
                <path id="_Path_91" data-name="&lt;Path&gt;" class="cls-1"
                    d="M346.88,173a8.7,8.7,0,1,1-8.84,8.63A8.82,8.82,0,0,1,346.88,173Z" />
                <path id="_Path_92" data-name="&lt;Path&gt;" class="cls-1"
                    d="M150.92,219.86a8.73,8.73,0,1,1,8.72-8.8A8.81,8.81,0,0,1,150.92,219.86Z" />
                <path id="_Path_93" data-name="&lt;Path&gt;" class="cls-1"
                    d="M383.57,237.3a8.69,8.69,0,1,1-8.9-8.57A8.81,8.81,0,0,1,383.57,237.3Z" />
                <path id="_Path_94" data-name="&lt;Path&gt;" class="cls-1"
                    d="M153.36,302a8.69,8.69,0,1,1-8.64-8.82A8.82,8.82,0,0,1,153.36,302Z" />
                <path id="_Path_95" data-name="&lt;Path&gt;" class="cls-1"
                    d="M194.1,355.86a8.67,8.67,0,1,1-8.67,8.51A8.83,8.83,0,0,1,194.1,355.86Z" />
                <path id="_Path_96" data-name="&lt;Path&gt;" class="cls-1"
                    d="M236.16,369.58a8.73,8.73,0,1,1-8.87,8.65A8.82,8.82,0,0,1,236.16,369.58Z" />
                <path id="_Path_97" data-name="&lt;Path&gt;" class="cls-1"
                    d="M257.28,376.56a8.64,8.64,0,1,1-8.63,8.56A8.79,8.79,0,0,1,257.28,376.56Z" />
                <path id="_Path_98" data-name="&lt;Path&gt;" class="cls-1"
                    d="M157.89,198.44a8.6,8.6,0,1,1,8.51-8.68A8.76,8.76,0,0,1,157.89,198.44Z" />
                <path id="_Path_99" data-name="&lt;Path&gt;" class="cls-1"
                    d="M314.61,378.28a8.55,8.55,0,1,1-8.57-8.53A8.68,8.68,0,0,1,314.61,378.28Z" />
                <path id="_Path_100" data-name="&lt;Path&gt;" class="cls-1"
                    d="M311.12,155.76a8.5,8.5,0,1,1,8.44-8.62A8.55,8.55,0,0,1,311.12,155.76Z" />
                <path id="_Path_101" data-name="&lt;Path&gt;" class="cls-1"
                    d="M384,307.55a8.49,8.49,0,1,1-8.57-8.49A8.56,8.56,0,0,1,384,307.55Z" />
                <path id="_Path_102" data-name="&lt;Path&gt;" class="cls-1"
                    d="M172.88,349.84a8.43,8.43,0,1,1-8.48,8.22A8.41,8.41,0,0,1,172.88,349.84Z" />
                <path id="_Path_103" data-name="&lt;Path&gt;" class="cls-1"
                    d="M333.53,372.41a8.5,8.5,0,1,1,8.55-8.51A8.55,8.55,0,0,1,333.53,372.41Z" />
                <path id="_Path_104" data-name="&lt;Path&gt;" class="cls-1"
                    d="M192.22,163.28a8.5,8.5,0,1,1,8.48-8.58A8.56,8.56,0,0,1,192.22,163.28Z" />
                <path id="_Path_105" data-name="&lt;Path&gt;" class="cls-1"
                    d="M228.79,140.22a8.43,8.43,0,1,1-8.42-8.28A8.41,8.41,0,0,1,228.79,140.22Z" />
                <path id="_Path_106" data-name="&lt;Path&gt;" class="cls-1"
                    d="M382.24,277.83a8.43,8.43,0,1,1-8.28,8.42A8.41,8.41,0,0,1,382.24,277.83Z" />
                <path id="_Path_107" data-name="&lt;Path&gt;" class="cls-1"
                    d="M290.45,148.88a8.5,8.5,0,1,1,8.47-8.6A8.56,8.56,0,0,1,290.45,148.88Z" />
                <path id="_Path_108" data-name="&lt;Path&gt;" class="cls-1"
                    d="M277.52,133.5a8.36,8.36,0,1,1-8.27-8.38A8.27,8.27,0,0,1,277.52,133.5Z" />
                <path id="_Path_109" data-name="&lt;Path&gt;" class="cls-1"
                    d="M368.5,320.48a8.37,8.37,0,1,1-8.24,8.41A8.28,8.28,0,0,1,368.5,320.48Z" />
                <path id="_Path_110" data-name="&lt;Path&gt;" class="cls-1"
                    d="M130.44,266a8.37,8.37,0,1,1-8.51,8.14A8.28,8.28,0,0,1,130.44,266Z" />
                <path id="_Path_111" data-name="&lt;Path&gt;" class="cls-1"
                    d="M156.42,169.13a8.27,8.27,0,1,1,8.22,8.33A8.13,8.13,0,0,1,156.42,169.13Z" />
                <path id="_Path_112" data-name="&lt;Path&gt;" class="cls-1"
                    d="M389.23,273.88a8.28,8.28,0,1,1,8.3-8.25A8.13,8.13,0,0,1,389.23,273.88Z" />
                <path id="_Path_113" data-name="&lt;Path&gt;" class="cls-1"
                    d="M277.78,400.36a8.28,8.28,0,1,1,8.41-8.14A8.14,8.14,0,0,1,277.78,400.36Z" />
                <path id="_Path_114" data-name="&lt;Path&gt;" class="cls-1"
                    d="M390,216.09a8.24,8.24,0,1,1-8.36-8.19A8.1,8.1,0,0,1,390,216.09Z" />
                <path id="_Path_115" data-name="&lt;Path&gt;" class="cls-1"
                    d="M367.29,180.35a8.24,8.24,0,1,1-8.16,8.4A8.1,8.1,0,0,1,367.29,180.35Z" />
                <path id="_Path_116" data-name="&lt;Path&gt;" class="cls-1"
                    d="M332.29,145.28a8.24,8.24,0,1,1-8.19,8.37A8.1,8.1,0,0,1,332.29,145.28Z" />
                <path id="_Path_117" data-name="&lt;Path&gt;" class="cls-1"
                    d="M361.67,341.34a8.17,8.17,0,1,1-8.09,8.16A8.1,8.1,0,0,1,361.67,341.34Z" />
                <path id="_Path_118" data-name="&lt;Path&gt;" class="cls-1"
                    d="M152.33,359.51a8.13,8.13,0,1,1,8-8.28A8.16,8.16,0,0,1,152.33,359.51Z" />
                <path id="_Path_119" data-name="&lt;Path&gt;" class="cls-1"
                    d="M137.83,315a8.19,8.19,0,1,1-8.22,8A8.1,8.1,0,0,1,137.83,315Z" />
                <path id="_Path_120" data-name="&lt;Path&gt;" class="cls-1"
                    d="M248.57,118.44a8.17,8.17,0,1,1-8.21,8A8.1,8.1,0,0,1,248.57,118.44Z" />
                <path id="_Path_121" data-name="&lt;Path&gt;" class="cls-1"
                    d="M131.52,294.88a8.12,8.12,0,1,1-8.27-8A8.16,8.16,0,0,1,131.52,294.88Z" />
                <path id="_Path_122" data-name="&lt;Path&gt;" class="cls-1"
                    d="M404.24,244.24a8.1,8.1,0,1,1-8.25-8A8.18,8.18,0,0,1,404.24,244.24Z" />
                <path id="_Path_123" data-name="&lt;Path&gt;" class="cls-1"
                    d="M216.57,392.85a8.1,8.1,0,1,1-8-8.24A8.19,8.19,0,0,1,216.57,392.85Z" />
                <path id="_Path_124" data-name="&lt;Path&gt;" class="cls-1"
                    d="M199,141.54a8,8,0,1,1,8.18-7.82A8.22,8.22,0,0,1,199,141.54Z" />
                <path id="_Path_125" data-name="&lt;Path&gt;" class="cls-1"
                    d="M237.19,399.65a8.07,8.07,0,1,1-7.86-8.13A8.21,8.21,0,0,1,237.19,399.65Z" />
                <path id="_Path_126" data-name="&lt;Path&gt;" class="cls-1"
                    d="M129.68,196.17a8.08,8.08,0,1,1-8.09,7.9A8.21,8.21,0,0,1,129.68,196.17Z" />
                <path id="_Path_127" data-name="&lt;Path&gt;" class="cls-1"
                    d="M122.78,217.46a8.08,8.08,0,1,1-8.06,7.92A8.2,8.2,0,0,1,122.78,217.46Z" />
                <path id="_Path_128" data-name="&lt;Path&gt;" class="cls-1"
                    d="M353.61,152.34a8.08,8.08,0,1,1-8.07,7.92A8.2,8.2,0,0,1,353.61,152.34Z" />
                <path id="_Path_129" data-name="&lt;Path&gt;" class="cls-1"
                    d="M334.78,384.6a8.07,8.07,0,1,1-7.88-8.11A8.21,8.21,0,0,1,334.78,384.6Z" />
                <path id="_Path_130" data-name="&lt;Path&gt;" class="cls-1"
                    d="M123.9,246.17a8,8,0,1,1-8-8A8.19,8.19,0,0,1,123.9,246.17Z" />
                <path id="_Path_131" data-name="&lt;Path&gt;" class="cls-1"
                    d="M171.42,155.86a8,8,0,1,1,8.11-7.82A8.12,8.12,0,0,1,171.42,155.86Z" />
                <path id="_Path_132" data-name="&lt;Path&gt;" class="cls-1"
                    d="M195.21,385.78a8,8,0,1,1-8-8A8.19,8.19,0,0,1,195.21,385.78Z" />
                <path id="_Path_133" data-name="&lt;Path&gt;" class="cls-1"
                    d="M307.19,399.12a8,8,0,1,1-7.77-8.16A8.19,8.19,0,0,1,307.19,399.12Z" />
                <path id="_Path_134" data-name="&lt;Path&gt;" class="cls-1"
                    d="M250.37,398.57a7.92,7.92,0,1,1-7.89,8A8,8,0,0,1,250.37,398.57Z" />
                <path id="_Path_135" data-name="&lt;Path&gt;" class="cls-1"
                    d="M137,175.12a7.85,7.85,0,1,1-8.24,7.25A7.84,7.84,0,0,1,137,175.12Z" />
                <path id="_Path_136" data-name="&lt;Path&gt;" class="cls-1"
                    d="M354.75,362.94a7.85,7.85,0,1,1-7.74,7.81A7.9,7.9,0,0,1,354.75,362.94Z" />
                <path id="_Path_137" data-name="&lt;Path&gt;" class="cls-1"
                    d="M235.09,119.72a7.85,7.85,0,1,1-7.69-7.86A7.9,7.9,0,0,1,235.09,119.72Z" />
                <path id="_Path_138" data-name="&lt;Path&gt;" class="cls-1"
                    d="M117.31,267.54a7.66,7.66,0,1,1-7.68-7.73A7.52,7.52,0,0,1,117.31,267.54Z" />
                <path id="_Path_139" data-name="&lt;Path&gt;" class="cls-1"
                    d="M396.08,322.16a7.72,7.72,0,1,1,7.78-7.65A7.6,7.6,0,0,1,396.08,322.16Z" />
                <path id="_Path_140" data-name="&lt;Path&gt;" class="cls-1"
                    d="M396.41,195.54a7.77,7.77,0,1,1-7.62-7.84A7.7,7.7,0,0,1,396.41,195.54Z" />
                <path id="_Path_141" data-name="&lt;Path&gt;" class="cls-1"
                    d="M410.69,293.23a7.66,7.66,0,1,1-7.67-7.74A7.52,7.52,0,0,1,410.69,293.23Z" />
                <path id="_Path_142" data-name="&lt;Path&gt;" class="cls-1"
                    d="M166.07,371.26a7.67,7.67,0,1,1-7.79,7.62A7.52,7.52,0,0,1,166.07,371.26Z" />
                <path id="_Path_143" data-name="&lt;Path&gt;" class="cls-1"
                    d="M297.34,111.42a7.67,7.67,0,1,1-7.69,7.72A7.52,7.52,0,0,1,297.34,111.42Z" />
                <path id="_Path_144" data-name="&lt;Path&gt;" class="cls-1"
                    d="M124.08,316.38a7.56,7.56,0,1,1-7.43-7.62A7.47,7.47,0,0,1,124.08,316.38Z" />
                <path id="_Path_145" data-name="&lt;Path&gt;" class="cls-1"
                    d="M130.76,352.06a7.57,7.57,0,1,1,7.71-7.34A7.47,7.47,0,0,1,130.76,352.06Z" />
                <path id="_Path_146" data-name="&lt;Path&gt;" class="cls-1"
                    d="M381.84,167.32a7.59,7.59,0,1,1-7.41-7.62A7.46,7.46,0,0,1,381.84,167.32Z" />
                <path id="_Path_147" data-name="&lt;Path&gt;" class="cls-1"
                    d="M143.45,154.75a7.54,7.54,0,1,1-7.56,7.44A7.48,7.48,0,0,1,143.45,154.75Z" />
                <path id="_Path_148" data-name="&lt;Path&gt;" class="cls-1"
                    d="M317.92,133.61a7.63,7.63,0,1,1,7.65-7.68A7.48,7.48,0,0,1,317.92,133.61Z" />
                <path id="_Path_149" data-name="&lt;Path&gt;" class="cls-1"
                    d="M283.6,112.35a7.56,7.56,0,1,1-7.33-7.72A7.47,7.47,0,0,1,283.6,112.35Z" />
                <path id="_Path_150" data-name="&lt;Path&gt;" class="cls-1"
                    d="M417.44,272.58a7.54,7.54,0,1,1-7.37-7.63A7.48,7.48,0,0,1,417.44,272.58Z" />
                <path id="_Path_151" data-name="&lt;Path&gt;" class="cls-1"
                    d="M278.6,413.24A7.56,7.56,0,1,1,271,405.8,7.47,7.47,0,0,1,278.6,413.24Z" />
                <path id="_Path_152" data-name="&lt;Path&gt;" class="cls-1"
                    d="M397.45,335.08a7.56,7.56,0,1,1-7.5-7.55A7.47,7.47,0,0,1,397.45,335.08Z" />
                <path id="_Path_153" data-name="&lt;Path&gt;" class="cls-1"
                    d="M410.61,223.05a7.59,7.59,0,1,1-7.41-7.62A7.46,7.46,0,0,1,410.61,223.05Z" />
                <ellipse id="_Path_154" data-name="&lt;Path&gt;" class="cls-1" cx="339.22"
                    cy="132.86" rx="7.52" ry="7.51"
                    transform="translate(203.9 471.11) rotate(-89.59)" />
                <path id="_Path_155" data-name="&lt;Path&gt;" class="cls-1"
                    d="M145.19,379.46a7.41,7.41,0,1,1,7.51-7.23A7.57,7.57,0,0,1,145.19,379.46Z" />
                <path id="_Path_156" data-name="&lt;Path&gt;" class="cls-1"
                    d="M390.41,356.49a7.41,7.41,0,1,1-7.23-7.51A7.57,7.57,0,0,1,390.41,356.49Z" />
                <path id="_Path_157" data-name="&lt;Path&gt;" class="cls-1"
                    d="M327.86,406.1a7.41,7.41,0,1,1-7.08-7.65A7.58,7.58,0,0,1,327.86,406.1Z" />
                <path id="_Path_158" data-name="&lt;Path&gt;" class="cls-1"
                    d="M262.17,105.4a7.41,7.41,0,1,1-7.24-7.49A7.56,7.56,0,0,1,262.17,105.4Z" />
                <path id="_Path_159" data-name="&lt;Path&gt;" class="cls-1"
                    d="M178.34,119.82a7.41,7.41,0,1,1-7.29,7.44A7.58,7.58,0,0,1,178.34,119.82Z" />
                <path id="_Path_160" data-name="&lt;Path&gt;" class="cls-1"
                    d="M110.12,288.81a7.36,7.36,0,1,1-7.33-7.4A7.51,7.51,0,0,1,110.12,288.81Z" />
                <path id="_Path_161" data-name="&lt;Path&gt;" class="cls-1"
                    d="M347.83,398.82a7.37,7.37,0,1,1,7.51-7.22A7.53,7.53,0,0,1,347.83,398.82Z" />
                <path id="_Path_162" data-name="&lt;Path&gt;" class="cls-1"
                    d="M213.29,112.7a7.31,7.31,0,1,1-7.52-7.19A7.44,7.44,0,0,1,213.29,112.7Z" />
                <path id="_Path_163" data-name="&lt;Path&gt;" class="cls-1"
                    d="M367.66,139.75a7.18,7.18,0,1,1-7.1-7.18A7.16,7.16,0,0,1,367.66,139.75Z" />
                <path id="_Path_164" data-name="&lt;Path&gt;" class="cls-1"
                    d="M416.83,243.95a7.26,7.26,0,1,1-7.29,7.06A7.31,7.31,0,0,1,416.83,243.95Z" />
                <path id="_Path_165" data-name="&lt;Path&gt;" class="cls-1"
                    d="M299.35,420.13a7,7,0,1,1-7.25-6.93A6.92,6.92,0,0,1,299.35,420.13Z" />
                <path id="_Path_166" data-name="&lt;Path&gt;" class="cls-1"
                    d="M109.18,218.76a7.05,7.05,0,1,1-7-7.17A6.93,6.93,0,0,1,109.18,218.76Z" />
                <path id="_Path_167" data-name="&lt;Path&gt;" class="cls-1"
                    d="M201.74,421.05a7.05,7.05,0,1,1,6.9-7.28A6.92,6.92,0,0,1,201.74,421.05Z" />
                <path id="_Path_168" data-name="&lt;Path&gt;" class="cls-1"
                    d="M150.4,134a7.06,7.06,0,1,1-7.14,7A6.93,6.93,0,0,1,150.4,134Z" />
                <path id="_Path_169" data-name="&lt;Path&gt;" class="cls-1"
                    d="M180.31,400.17a6.94,6.94,0,1,1-6.91,6.88A6.85,6.85,0,0,1,180.31,400.17Z" />
                <path id="_Path_170" data-name="&lt;Path&gt;" class="cls-1"
                    d="M416.87,202.28a7,7,0,1,1-7-6.88A6.85,6.85,0,0,1,416.87,202.28Z" />
                <path id="_Path_171" data-name="&lt;Path&gt;" class="cls-1"
                    d="M376,384.59a6.91,6.91,0,1,1,7-6.82A6.86,6.86,0,0,1,376,384.59Z" />
                <path id="_Path_172" data-name="&lt;Path&gt;" class="cls-1"
                    d="M116,197.3a7,7,0,1,1-6.9-7A6.87,6.87,0,0,1,116,197.3Z" />
                <path id="_Path_173" data-name="&lt;Path&gt;" class="cls-1"
                    d="M102.19,239.38a6.94,6.94,0,1,1-6.79-7A6.85,6.85,0,0,1,102.19,239.38Z" />
                <path id="_Path_174" data-name="&lt;Path&gt;" class="cls-1"
                    d="M395.59,167.22a7,7,0,1,1-7,6.82A6.85,6.85,0,0,1,395.59,167.22Z" />
                <path id="_Path_175" data-name="&lt;Path&gt;" class="cls-1"
                    d="M222.16,427.89a7,7,0,1,1,7.08-6.77A6.88,6.88,0,0,1,222.16,427.89Z" />
                <path id="_Path_176" data-name="&lt;Path&gt;" class="cls-1"
                    d="M241,98.46a6.88,6.88,0,1,1-6.92-6.92A6.87,6.87,0,0,1,241,98.46Z" />
                <path id="_Path_177" data-name="&lt;Path&gt;" class="cls-1"
                    d="M109.78,330.73a6.89,6.89,0,1,1-7,6.82A6.88,6.88,0,0,1,109.78,330.73Z" />
                <path id="_Path_178" data-name="&lt;Path&gt;" class="cls-1"
                    d="M122.78,176.81a6.88,6.88,0,1,1-6.84-7A6.88,6.88,0,0,1,122.78,176.81Z" />
                <path id="_Path_179" data-name="&lt;Path&gt;" class="cls-1"
                    d="M243.36,434.66a6.89,6.89,0,1,1,7-6.81A6.89,6.89,0,0,1,243.36,434.66Z" />
                <path id="_Path_180" data-name="&lt;Path&gt;" class="cls-1"
                    d="M95.93,316.19a6.76,6.76,0,1,1,6.7-6.88A6.93,6.93,0,0,1,95.93,316.19Z" />
                <path id="_Path_181" data-name="&lt;Path&gt;" class="cls-1"
                    d="M381,139.88a6.76,6.76,0,1,1-6.65,6.93A6.92,6.92,0,0,1,381,139.88Z" />
                <path id="_Path_182" data-name="&lt;Path&gt;" class="cls-1"
                    d="M130.78,365.31a6.75,6.75,0,1,1-6.68-6.9A6.93,6.93,0,0,1,130.78,365.31Z" />
                <path id="_Path_183" data-name="&lt;Path&gt;" class="cls-1"
                    d="M416.92,229.67a6.75,6.75,0,1,1,6.59,7A6.94,6.94,0,0,1,416.92,229.67Z" />
                <path id="_Path_184" data-name="&lt;Path&gt;" class="cls-1"
                    d="M88.37,267.3a6.71,6.71,0,1,1,6.71-6.54A6.84,6.84,0,0,1,88.37,267.3Z" />
                <path id="_Path_185" data-name="&lt;Path&gt;" class="cls-1"
                    d="M159.15,406.93a6.71,6.71,0,1,1,6.61-6.64A6.84,6.84,0,0,1,159.15,406.93Z" />
                <ellipse id="_Path_186" data-name="&lt;Path&gt;" class="cls-1" cx="304.19" cy="97.8"
                    rx="6.56" ry="6.56" transform="translate(202.89 400.84) rotate(-89.34)" />
                <path id="_Path_187" data-name="&lt;Path&gt;" class="cls-1"
                    d="M424.41,293.4a6.64,6.64,0,1,1-6.75,6.44A6.74,6.74,0,0,1,424.41,293.4Z" />
                <path id="_Path_188" data-name="&lt;Path&gt;" class="cls-1"
                    d="M424,321.26a6.63,6.63,0,1,1-6.62-6.57A6.74,6.74,0,0,1,424,321.26Z" />
                <path id="_Path_189" data-name="&lt;Path&gt;" class="cls-1"
                    d="M331.39,104.6a6.56,6.56,0,1,1-6.64-6.48A6.57,6.57,0,0,1,331.39,104.6Z" />
                <path id="_Path_190" data-name="&lt;Path&gt;" class="cls-1"
                    d="M157.25,114a6.34,6.34,0,1,1-6.4,6.19A6.19,6.19,0,0,1,157.25,114Z" />
                <path id="_Path_191" data-name="&lt;Path&gt;" class="cls-1"
                    d="M437.5,279.38a6.33,6.33,0,1,1-6.25-6.33A6.19,6.19,0,0,1,437.5,279.38Z" />
                <path id="_Path_192" data-name="&lt;Path&gt;" class="cls-1"
                    d="M129.26,155.26a6.48,6.48,0,1,1-6.7-6.34A6.4,6.4,0,0,1,129.26,155.26Z" />
                <path id="_Path_193" data-name="&lt;Path&gt;" class="cls-1"
                    d="M289.27,91.37a6.37,6.37,0,1,1-5.82-6.81A6.23,6.23,0,0,1,289.27,91.37Z" />
                <path id="_Path_194" data-name="&lt;Path&gt;" class="cls-1"
                    d="M341.22,406.26a6.49,6.49,0,1,1-6.6,6.44A6.4,6.4,0,0,1,341.22,406.26Z" />
                <path id="_Path_195" data-name="&lt;Path&gt;" class="cls-1"
                    d="M352.4,111.75a6.3,6.3,0,1,1-6.12-6.48A6.22,6.22,0,0,1,352.4,111.75Z" />
                <path id="_Path_196" data-name="&lt;Path&gt;" class="cls-1"
                    d="M404.06,342.14a6.48,6.48,0,1,1,6.7,6.34A6.4,6.4,0,0,1,404.06,342.14Z" />
                <path id="_Path_197" data-name="&lt;Path&gt;" class="cls-1"
                    d="M191.75,105.83a6.42,6.42,0,1,1-6.37-6.31A6.28,6.28,0,0,1,191.75,105.83Z" />
                <path id="_Path_198" data-name="&lt;Path&gt;" class="cls-1"
                    d="M319.9,427.27a6.33,6.33,0,1,1-6.13-6.46A6.2,6.2,0,0,1,319.9,427.27Z" />
                <path id="_Path_199" data-name="&lt;Path&gt;" class="cls-1"
                    d="M264,427.55a6.48,6.48,0,1,1-6.33,6.71A6.4,6.4,0,0,1,264,427.55Z" />
                <path id="_Path_200" data-name="&lt;Path&gt;" class="cls-1"
                    d="M369.34,392.07a6.28,6.28,0,1,1-6.36,6.26A6.24,6.24,0,0,1,369.34,392.07Z" />
                <path id="_Path_201" data-name="&lt;Path&gt;" class="cls-1"
                    d="M212.82,85.29a6.25,6.25,0,1,1-6.2,6.13A6.29,6.29,0,0,1,212.82,85.29Z" />
                <path id="_Path_202" data-name="&lt;Path&gt;" class="cls-1"
                    d="M87.67,282a6.18,6.18,0,1,1-6-6.31A6.33,6.33,0,0,1,87.67,282Z" />
                <path id="_Path_203" data-name="&lt;Path&gt;" class="cls-1"
                    d="M144.63,393.24a6.21,6.21,0,1,1-6.23-6.12A6.33,6.33,0,0,1,144.63,393.24Z" />
                <path id="_Path_204" data-name="&lt;Path&gt;" class="cls-1"
                    d="M403.61,357.1a6.18,6.18,0,1,1-6.14,6.22A6.33,6.33,0,0,1,403.61,357.1Z" />
                <path id="_Path_205" data-name="&lt;Path&gt;" class="cls-1"
                    d="M267.78,84.06a6.13,6.13,0,1,1-6.17-6.17A6.31,6.31,0,0,1,267.78,84.06Z" />
                <path id="_Path_206" data-name="&lt;Path&gt;" class="cls-1"
                    d="M416.4,174.94a6.14,6.14,0,1,1-6.37,6A6.31,6.31,0,0,1,416.4,174.94Z" />
                <path id="_Path_207" data-name="&lt;Path&gt;" class="cls-1"
                    d="M372.66,118.54a5.91,5.91,0,1,1-5.83-6A5.87,5.87,0,0,1,372.66,118.54Z" />
                <path id="_Path_208" data-name="&lt;Path&gt;" class="cls-1"
                    d="M444,258.17a5.91,5.91,0,1,1-5.83-6A5.87,5.87,0,0,1,444,258.17Z" />
                <path id="_Path_209" data-name="&lt;Path&gt;" class="cls-1"
                    d="M285.5,435a5.92,5.92,0,1,1-6,5.84A5.87,5.87,0,0,1,285.5,435Z" />
                <path id="_Path_210" data-name="&lt;Path&gt;" class="cls-1"
                    d="M402.34,147.69a5.84,5.84,0,1,1-5.77,5.74A5.71,5.71,0,0,1,402.34,147.69Z" />
                <path id="_Path_211" data-name="&lt;Path&gt;" class="cls-1"
                    d="M135.49,134a5.83,5.83,0,1,1-5.77-5.74A5.72,5.72,0,0,1,135.49,134Z" />
                <path id="_Path_212" data-name="&lt;Path&gt;" class="cls-1"
                    d="M436.38,209.21a5.83,5.83,0,1,1-5.72-5.8A5.71,5.71,0,0,1,436.38,209.21Z" />
                <path id="_Path_213" data-name="&lt;Path&gt;" class="cls-1"
                    d="M108.48,358.31a5.72,5.72,0,1,1-5.69-5.76A5.61,5.61,0,0,1,108.48,358.31Z" />
                <path id="_Path_214" data-name="&lt;Path&gt;" class="cls-1"
                    d="M94.72,330.87A5.72,5.72,0,1,1,89.15,325,5.62,5.62,0,0,1,94.72,330.87Z" />
                <path id="_Path_215" data-name="&lt;Path&gt;" class="cls-1"
                    d="M396.66,379a5.59,5.59,0,1,1-5.48,5.7A5.68,5.68,0,0,1,396.66,379Z" />
                <path id="_Path_216" data-name="&lt;Path&gt;" class="cls-1"
                    d="M240.88,83.36a5.59,5.59,0,1,1,5.72-5.46A5.68,5.68,0,0,1,240.88,83.36Z" />
                <path id="_Path_217" data-name="&lt;Path&gt;" class="cls-1"
                    d="M93.37,190.6A5.62,5.62,0,1,1,88,184.84,5.67,5.67,0,0,1,93.37,190.6Z" />
                <path id="_Path_218" data-name="&lt;Path&gt;" class="cls-1"
                    d="M200.4,434.61a5.68,5.68,0,1,1-5.81-5.64A5.59,5.59,0,0,1,200.4,434.61Z" />
                <path id="_Path_219" data-name="&lt;Path&gt;" class="cls-1"
                    d="M209.71,441.3a5.65,5.65,0,1,1,5.25,5.89A5.64,5.64,0,0,1,209.71,441.3Z" />
                <path id="_Path_220" data-name="&lt;Path&gt;" class="cls-1"
                    d="M86.49,211.67a5.62,5.62,0,1,1-5.63-5.54A5.67,5.67,0,0,1,86.49,211.67Z" />
                <path id="_Path_221" data-name="&lt;Path&gt;" class="cls-1"
                    d="M173.43,433.32a5.55,5.55,0,1,1,5.56-5.61A5.68,5.68,0,0,1,173.43,433.32Z" />
                <path id="_Path_222" data-name="&lt;Path&gt;" class="cls-1"
                    d="M242.06,448.31a5.43,5.43,0,1,1-5.47-5.31A5.57,5.57,0,0,1,242.06,448.31Z" />
                <path id="_Path_223" data-name="&lt;Path&gt;" class="cls-1"
                    d="M73.91,226.92a5.5,5.5,0,1,1-5.41,5.42A5.66,5.66,0,0,1,73.91,226.92Z" />
                <path id="_Path_224" data-name="&lt;Path&gt;" class="cls-1"
                    d="M89.29,169.72a5.34,5.34,0,1,1,5.26,5.42A5.37,5.37,0,0,1,89.29,169.72Z" />
                <path id="_Path_225" data-name="&lt;Path&gt;" class="cls-1"
                    d="M334.3,428.69a5.34,5.34,0,1,1-5.42,5.26A5.37,5.37,0,0,1,334.3,428.69Z" />
                <path id="_Path_226" data-name="&lt;Path&gt;" class="cls-1"
                    d="M80,302.62a5.34,5.34,0,1,1-5.26-5.42A5.37,5.37,0,0,1,80,302.62Z" />
                <path id="_Path_227" data-name="&lt;Path&gt;" class="cls-1"
                    d="M117.23,391.79a5.34,5.34,0,1,1,5.26-5.42A5.37,5.37,0,0,1,117.23,391.79Z" />
                <path id="_Path_228" data-name="&lt;Path&gt;" class="cls-1"
                    d="M393.18,125.21a5.16,5.16,0,1,1-5.23-5A5.06,5.06,0,0,1,393.18,125.21Z" />
                <path id="_Path_229" data-name="&lt;Path&gt;" class="cls-1"
                    d="M450.1,236.87a5.17,5.17,0,1,1-5-5.23A5.05,5.05,0,0,1,450.1,236.87Z" />
                <path id="_Path_230" data-name="&lt;Path&gt;" class="cls-1"
                    d="M367.53,419.74a5.17,5.17,0,1,1-5-5.27A5.05,5.05,0,0,1,367.53,419.74Z" />
                <path id="_Path_231" data-name="&lt;Path&gt;" class="cls-1"
                    d="M164,93.81A5.24,5.24,0,1,1,158.83,99,5.18,5.18,0,0,1,164,93.81Z" />
                <path id="_Path_232" data-name="&lt;Path&gt;" class="cls-1"
                    d="M192.2,79.54a5.11,5.11,0,1,1-5.09,5.13A5,5,0,0,1,192.2,79.54Z" />
                <path id="_Path_233" data-name="&lt;Path&gt;" class="cls-1"
                    d="M72.13,253.56a5,5,0,1,1-5-4.88A5,5,0,0,1,72.13,253.56Z" />
                <path id="_Path_234" data-name="&lt;Path&gt;" class="cls-1"
                    d="M152.27,425.95a5.06,5.06,0,1,1,5-5.23A5,5,0,0,1,152.27,425.95Z" />
                <path id="_Path_235" data-name="&lt;Path&gt;" class="cls-1"
                    d="M311,82a4.9,4.9,0,1,1,5-4.69A5.07,5.07,0,0,1,311,82Z" />
                <path id="_Path_236" data-name="&lt;Path&gt;" class="cls-1"
                    d="M257.89,450.42a4.9,4.9,0,1,1-4.89,4.76A5.06,5.06,0,0,1,257.89,450.42Z" />
                <path id="_Path_237" data-name="&lt;Path&gt;" class="cls-1"
                    d="M311.64,447.9a5,5,0,1,1-4.86-5A5.07,5.07,0,0,1,311.64,447.9Z" />
                <path id="_Path_238" data-name="&lt;Path&gt;" class="cls-1"
                    d="M135.9,118.36a4.9,4.9,0,1,1,4.91-4.73A5.06,5.06,0,0,1,135.9,118.36Z" />
                <path id="_Path_239" data-name="&lt;Path&gt;" class="cls-1"
                    d="M443.58,328.18a4.9,4.9,0,1,1-4.78-4.87A5.06,5.06,0,0,1,443.58,328.18Z" />
                <path id="_Path_240" data-name="&lt;Path&gt;" class="cls-1"
                    d="M336.54,84a4.83,4.83,0,1,1-4.79-4.8A5,5,0,0,1,336.54,84Z" />
                <path id="_Path_241" data-name="&lt;Path&gt;" class="cls-1"
                    d="M101.48,143.68a4.84,4.84,0,1,1-4.8,4.79A5,5,0,0,1,101.48,143.68Z" />
                <path id="_Path_242" data-name="&lt;Path&gt;" class="cls-1"
                    d="M445.71,311.77a4.84,4.84,0,1,1,4.69-4.9A5,5,0,0,1,445.71,311.77Z" />
                <path id="_Path_243" data-name="&lt;Path&gt;" class="cls-1"
                    d="M437.29,183.33A4.63,4.63,0,1,1,432.8,188,4.56,4.56,0,0,1,437.29,183.33Z" />
                <path id="_Path_244" data-name="&lt;Path&gt;" class="cls-1"
                    d="M436.43,348.78a4.63,4.63,0,1,1-4.57-4.53A4.56,4.56,0,0,1,436.43,348.78Z" />
                <path id="_Path_245" data-name="&lt;Path&gt;" class="cls-1"
                    d="M422.78,165a4.64,4.64,0,1,1,4.86-4.22A4.56,4.56,0,0,1,422.78,165Z" />
                <path id="_Path_246" data-name="&lt;Path&gt;" class="cls-1"
                    d="M219.62,66.33a4.55,4.55,0,1,1-4.42,4.58A4.4,4.4,0,0,1,219.62,66.33Z" />
                <path id="_Path_247" data-name="&lt;Path&gt;" class="cls-1"
                    d="M289.84,74.79a4.54,4.54,0,1,1,4.5-4.5A4.4,4.4,0,0,1,289.84,74.79Z" />
                <path id="_Path_248" data-name="&lt;Path&gt;" class="cls-1"
                    d="M389.74,409.86a4.63,4.63,0,1,1,4.77-4.32A4.57,4.57,0,0,1,389.74,409.86Z" />
                <path id="_Path_249" data-name="&lt;Path&gt;" class="cls-1"
                    d="M452.2,290.07a4.44,4.44,0,1,1,4.66-4A4.37,4.37,0,0,1,452.2,290.07Z" />
                <path id="_Path_250" data-name="&lt;Path&gt;" class="cls-1"
                    d="M353,95.34a4.43,4.43,0,1,1,4.41-4.29A4.36,4.36,0,0,1,353,95.34Z" />
                <path id="_Path_251" data-name="&lt;Path&gt;" class="cls-1"
                    d="M86.5,351.47A4.39,4.39,0,1,1,82.28,347,4.39,4.39,0,0,1,86.5,351.47Z" />
                <path id="_Path_252" data-name="&lt;Path&gt;" class="cls-1"
                    d="M135.88,414a4.34,4.34,0,1,1-4.32-4.37A4.44,4.44,0,0,1,135.88,414Z" />
                <path id="_Path_253" data-name="&lt;Path&gt;" class="cls-1"
                    d="M60.1,270.7A4.3,4.3,0,1,1,55.93,275,4.43,4.43,0,0,1,60.1,270.7Z" />
                <path id="_Path_254" data-name="&lt;Path&gt;" class="cls-1"
                    d="M429,370.29a4.2,4.2,0,0,1-4.33,4,4.12,4.12,0,0,1-3.9-4.41,4,4,0,0,1,4.14-3.83A4.11,4.11,0,0,1,429,370.29Z" />
                <path id="_Path_255" data-name="&lt;Path&gt;" class="cls-1"
                    d="M264.41,63.52a4.2,4.2,0,0,1,4.05-4.28,4.11,4.11,0,0,1,4.18,4.13,4,4,0,0,1-3.88,4.1A4.12,4.12,0,0,1,264.41,63.52Z" />
                <path id="_Path_256" data-name="&lt;Path&gt;" class="cls-1"
                    d="M451.68,220.15c-2.43-.29-3.8-1.62-3.83-4.08a3.83,3.83,0,0,1,4.28-3.89,3.69,3.69,0,0,1,3.65,4.19C455.65,218.83,454.09,220,451.68,220.15Z" />
                <path id="_Path_257" data-name="&lt;Path&gt;" class="cls-1"
                    d="M96.12,375.57a3.76,3.76,0,0,1,3.73,3.92,3.83,3.83,0,0,1-4.13,4,3.74,3.74,0,0,1-3.81-4.06A3.92,3.92,0,0,1,96.12,375.57Z" />
                <path id="_Path_258" data-name="&lt;Path&gt;" class="cls-1"
                    d="M71.74,323.94c-.28,2.44-1.59,3.81-4.05,3.87a3.83,3.83,0,0,1-3.92-4.25,3.69,3.69,0,0,1,4.17-3.68C70.39,320,71.6,321.53,71.74,323.94Z" />
                <path id="_Path_259" data-name="&lt;Path&gt;" class="cls-1"
                    d="M409.26,128.23c2.42.2,3.85,1.45,4,3.91a3.83,3.83,0,0,1-4.1,4.08c-2.45-.16-3.85-1.58-3.83-4S406.83,128.45,409.26,128.23Z" />
                <path id="_Path_260" data-name="&lt;Path&gt;" class="cls-1"
                    d="M373.65,101.63a3.69,3.69,0,0,1-3.84-4A3.55,3.55,0,0,1,373.6,94a3.69,3.69,0,0,1,3.85,3.95A3.73,3.73,0,0,1,373.65,101.63Z" />
                <path id="_Path_261" data-name="&lt;Path&gt;" class="cls-1"
                    d="M108.54,123.41c2.22.32,3.57,1.51,3.62,3.85a3.66,3.66,0,0,1-4,3.72,3.51,3.51,0,0,1-3.48-3.95C104.76,124.71,106.23,123.59,108.54,123.41Z" />
                <path id="_Path_262" data-name="&lt;Path&gt;" class="cls-1"
                    d="M459.47,268.8c-2.3-.17-3.71-1.3-3.91-3.62a3.65,3.65,0,0,1,3.79-4,3.5,3.5,0,0,1,3.71,3.72C463.11,267.28,461.69,268.47,459.47,268.8Z" />
                <path id="_Path_263" data-name="&lt;Path&gt;" class="cls-1"
                    d="M282.4,462.39c-.29,2.22-1.48,3.57-3.84,3.63a3.82,3.82,0,1,1,.27-7.63C281.17,458.62,282.27,460.05,282.4,462.39Z" />
                <path id="_Path_264" data-name="&lt;Path&gt;" class="cls-1"
                    d="M359.56,441.73c-1.39.93-2.69,2.44-4.18,2.64-2.07.27-3.49-1.37-3.44-3.53s1.53-3.74,3.59-3.37c1.47.26,2.72,1.83,4.06,2.82Z" />
                <path id="_Path_265" data-name="&lt;Path&gt;" class="cls-1"
                    d="M174.93,78.46c-1.36.92-2.76,2.61-4.06,2.54s-3-1.9-3.23-3.21A2.82,2.82,0,0,1,171,74.43c1.39.22,2.59,1.69,3.87,2.6Z" />
                <path id="_Path_266" data-name="&lt;Path&gt;" class="cls-1"
                    d="M331.28,455.57c-1.4.86-2.87,2.48-4.17,2.36s-2.87-2-3.08-3.35a2.82,2.82,0,0,1,3.52-3.21c1.38.29,2.51,1.81,3.75,2.78Q331.29,454.86,331.28,455.57Z" />
                <path id="_Path_267" data-name="&lt;Path&gt;" class="cls-1"
                    d="M143.55,95.91c-2.83-.66-4.33-1.83-3.84-3.84a4.84,4.84,0,0,1,3.09-3,2.57,2.57,0,0,1,3.11,3.19C145.67,93.59,144.38,94.71,143.55,95.91Z" />
                <path id="_Path_268" data-name="&lt;Path&gt;" class="cls-1"
                    d="M418.91,387.75c.78,1.23,2,2.38,2.24,3.7.31,2.07-1.12,3.28-3.24,3.21s-3.43-1.45-3-3.45c.29-1.3,1.65-2.35,2.54-3.51Z" />
                <path id="_Path_269" data-name="&lt;Path&gt;" class="cls-1"
                    d="M191.58,456.62c-1.27.85-2.57,2.4-3.79,2.34s-2.75-1.73-3-2.95a2.57,2.57,0,0,1,3.12-3.18c1.31.21,2.46,1.47,3.68,2.27Z" />
                <path id="_Path_270" data-name="&lt;Path&gt;" class="cls-1"
                    d="M386.68,427.2c-1.2.83-2.32,2.13-3.63,2.36-1.89.35-3.13-1-3.17-3s1.14-3.38,3-3.1c1.32.19,2.49,1.45,3.73,2.23Q386.67,426.46,386.68,427.2Z" />
                <path id="_Path_271" data-name="&lt;Path&gt;" class="cls-1"
                    d="M54.15,292.1c.76,1.24,2.28,2.62,2.08,3.68a4.41,4.41,0,0,1-3.16,2.76c-.82.1-2.61-1.84-2.64-2.9s1.46-2.39,2.29-3.58Z" />
                <path id="_Path_272" data-name="&lt;Path&gt;" class="cls-1"
                    d="M113.86,408.36c-1.2.83-2.49,2.41-3.57,2.27a4.39,4.39,0,0,1-2.91-3c-.14-.82,1.7-2.72,2.74-2.79s2.47,1.34,3.71,2.11Q113.85,407.65,113.86,408.36Z" />
                <path id="_Path_273" data-name="&lt;Path&gt;" class="cls-1"
                    d="M199.87,60.42c.77,1.23,2.3,2.59,2.12,3.66a4.41,4.41,0,0,1-3.13,2.79c-.82.1-2.64-1.81-2.67-2.87s1.44-2.41,2.26-3.62Z" />
                <path id="_Path_274" data-name="&lt;Path&gt;" class="cls-1"
                    d="M67.17,180c.8,1.21,2.36,2.53,2.21,3.61a4.4,4.4,0,0,1-3.05,2.87c-.82.12-2.68-1.74-2.74-2.79s1.37-2.44,2.16-3.67Z" />
                <path id="_Path_275" data-name="&lt;Path&gt;" class="cls-1"
                    d="M251.51,57.37c-1.25.76-2.44,2-3.77,2.15-1.92.24-3.06-1.2-3-3.17s1.35-3.3,3.23-2.92c1.31.27,2.39,1.59,3.58,2.45Z" />
                <path id="_Path_276" data-name="&lt;Path&gt;" class="cls-1"
                    d="M59.4,208.51c-.78-1.24-2-2.4-2.22-3.72-.28-1.91,1.13-3.09,3.1-3s3.33,1.28,3,3.17c-.24,1.31-1.54,2.43-2.37,3.63Z" />
                <path id="_Path_277" data-name="&lt;Path&gt;" class="cls-1"
                    d="M212.15,463.51c-1.2.83-2.32,2.13-3.63,2.37-1.89.35-3.13-1-3.17-3s1.14-3.38,3-3.11c1.32.19,2.49,1.44,3.72,2.22Q212.14,462.76,212.15,463.51Z" />
                <path id="_Path_278" data-name="&lt;Path&gt;" class="cls-1"
                    d="M166.72,453.35c-1.48-1.9-3.13-3.14-3-4.07.2-1.21,1.85-2.17,2.87-3.24,1,1,2.65,1.92,2.78,3S168.05,451.35,166.72,453.35Z" />
                <path id="_Path_279" data-name="&lt;Path&gt;" class="cls-1"
                    d="M53.53,221.88c1.31,2,2.87,3.37,2.64,4.28-.29,1.19-2,2-3.11,3-.91-1.07-2.51-2.12-2.55-3.23S52,223.76,53.53,221.88Z" />
                <path id="_Path_280" data-name="&lt;Path&gt;" class="cls-1"
                    d="M469.56,243.54c-1.68,1.38-2.79,3-3.69,2.86-1.16-.15-2.14-1.67-3.2-2.6,1-1,1.85-2.6,3-2.84C466.54,240.78,467.78,242.29,469.56,243.54Z" />
                <path id="_Path_281" data-name="&lt;Path&gt;" class="cls-1"
                    d="M77.14,162.87c-1.74,1.26-2.85,2.65-3.63,2.49-1.05-.22-1.85-1.65-2.75-2.55.88-.83,1.7-2.22,2.66-2.32S75.37,161.66,77.14,162.87Z" />
                <path id="_Path_282" data-name="&lt;Path&gt;" class="cls-1"
                    d="M229.59,473.7c-1.22-1.95-2.53-3.12-2.38-4.06s1.74-2.48,2.65-2.44,2.36,1.64,2.44,2.65S231,471.86,229.59,473.7Z" />
                <path id="_Path_283" data-name="&lt;Path&gt;" class="cls-1"
                    d="M444.15,171.28c-1.22-1.95-2.53-3.12-2.38-4.06s1.74-2.48,2.65-2.44,2.36,1.64,2.44,2.65S445.52,169.44,444.15,171.28Z" />
                <path id="_Path_284" data-name="&lt;Path&gt;" class="cls-1"
                    d="M398.86,104.24c-1.95,1.21-3.13,2.52-4.06,2.37s-2.47-1.75-2.43-2.66,1.65-2.36,2.66-2.43S397,102.86,398.86,104.24Z" />
                <path id="_Path_285" data-name="&lt;Path&gt;" class="cls-1"
                    d="M115.14,110.28c-1.14-1.82-2.36-2.91-2.22-3.78s1.58-1.64,2.45-2.45c.81.87,2.18,1.7,2.26,2.63S116.41,108.55,115.14,110.28Z" />
                <path id="_Path_286" data-name="&lt;Path&gt;" class="cls-1"
                    d="M145.5,445.66c-1.23-1.53-2.61-2.52-2.48-3.25.17-1,1.48-1.8,2.31-2.68.81.8,2.15,1.52,2.27,2.41S146.55,444,145.5,445.66Z" />
                <path id="_Path_287" data-name="&lt;Path&gt;" class="cls-1"
                    d="M433.42,138.94c-1.54,1.23-2.53,2.6-3.25,2.47-1-.17-1.8-1.48-2.69-2.31.8-.81,1.52-2.16,2.41-2.27S431.76,137.88,433.42,138.94Z" />
                <path id="_Path_288" data-name="&lt;Path&gt;" class="cls-1"
                    d="M46.65,250.32c-1.23-1.54-2.6-2.53-2.47-3.26.17-1,1.48-1.8,2.31-2.69.81.8,2.15,1.52,2.27,2.41S47.7,248.66,46.65,250.32Z" />
                <path id="_Path_289" data-name="&lt;Path&gt;" class="cls-1"
                    d="M462.18,194.78c-1.56,1.17-2.48,2.41-3.33,2.36s-1.73-1.33-2.59-2.07c.82-.89,1.52-2.26,2.5-2.51C459.47,192.38,460.56,193.67,462.18,194.78Z" />
                <path id="_Path_290" data-name="&lt;Path&gt;" class="cls-1"
                    d="M303.52,469.18c-1.8,1.17-2.87,2.4-3.74,2.27s-1.66-1.56-2.48-2.42c.86-.82,1.66-2.2,2.59-2.29S301.77,467.94,303.52,469.18Z" />
                <path id="_Path_291" data-name="&lt;Path&gt;" class="cls-1"
                    d="M75.37,369.72c.89,1.35,1.76,2.15,1.86,3,.06.59-1,1.31-1.51,2a13.13,13.13,0,0,1-2.21-2.56C73.36,371.85,74.4,370.94,75.37,369.72Z" />
                <path id="_Path_292" data-name="&lt;Path&gt;" class="cls-1"
                    d="M60.89,341.62c.89,1.22,1.89,2,1.93,2.83,0,.67-1.08,1.39-1.68,2.1a15.31,15.31,0,0,1-2-2.75C59,343.51,60,342.71,60.89,341.62Z" />
            </g>
            <path id="_Path_293" data-name="&lt;Path&gt;" class="cls-1"
                d="M411.23,105.33a133.71,133.71,0,0,0-34.6,4.79c3.31-18,6.25-64-44.54-82a87.45,87.45,0,0,0-29.36-5.18C280,22.9,261,32,247.25,41.53l-.26.17-.27.18-.27.18-.27.18-.27.18-.26.17-.28.18-.27.18-.27.18-.27.18-.27.18-.27.18-.27.18-.27.18-.27.18-.27.18-.26.17-.27.18-.27.18-.27.18-.27.18-.26.17-.27.18-.27.18-.27.18-.27.18-.27.18-.26.18-.27.18-.27.18-.27.18-.27.18-.26.18-.27.18-.27.18-.27.18-.27.18-.26.17-.28.19-.27.18a127.81,127.81,0,0,0-13.44,10.72A123.68,123.68,0,0,0,165.71,45a109.71,109.71,0,0,0-60.32,18.07l-.26.18-.27.18-.27.18-.27.18L104,64l-.26.17-.28.18-.27.18-.27.18-.27.18-.27.18-.27.18-.27.18-.27.18-.27.18-.27.18-.26.18-.27.18-.27.18-.27.18-.27.18-.26.18-.27.18-.27.18-.27.18-.27.18-.27.18-.26.18-.27.18-.27.18-.27.18-.27.18-.26.18-.27.18-.27.18-.27.18-.27.18-.26.17-.28.18-.27.18A139,139,0,0,0,63.91,97.58C49.43,114.69,43.5,132.94,46.3,151.82c4.93,33.22,35.31,58.45,47,67C77.59,232.88,24.57,286,52.4,340.46,65.3,365.72,87.65,379.07,117,379.07c19.42,0,36.54-5.74,43.56-8.46,7.64,11.42,38,49.15,106,49.15,18.67,0,34.38-4.09,46.89-12.17l.27-.18.26-.18.27-.18.27-.18.27-.18.27-.18.27-.18.27-.18.27-.18.27-.18.27-.18.27-.18.27-.18.27-.18.27-.18.27-.18.27-.18.27-.18.27-.18.27-.18.27-.18.27-.18.27-.18.27-.18.27-.18.27-.18.27-.18.27-.18.27-.18.27-.18.27-.18.27-.18.27-.18.26-.18.27-.18.27-.18.27-.18.27-.18.27-.18.27-.18A64.4,64.4,0,0,0,335.76,391c13.18-13.53,18.1-30.32,19.95-41.68,4.57.29,9,.48,13.18.48h0c20.2,0,36.19-3.41,47.85-10.14.1-.05.17-.12.27-.18l.27-.18.27-.18.27-.18.27-.18.27-.18.27-.18.27-.18.27-.18.27-.18.27-.18.27-.18.27-.18.27-.18.27-.18.27-.18.27-.18.27-.18.27-.18.27-.18.27-.18.27-.18.27-.18.27-.18.27-.18.27-.18.27-.18.27-.18.27-.18.27-.18c.1-.05.17-.12.27-.18l.27-.18.27-.18.27-.18c.1-.05.17-.12.27-.18s.17-.12.27-.18l.27-.18.27-.18.27-.18c.1-.05.17-.12.27-.18a44.39,44.39,0,0,0,16.3-15.46c13.9-22.75,2.79-53-1.64-63.16,14.11-9.51,69.14-51.29,40.52-107.34C468.89,119.59,444.18,105.33,411.23,105.33Z" />
            <path id="_Path_294" data-name="&lt;Path&gt;" class="cls-1"
                d="M407.94,359.23a63.86,63.86,0,0,0-32,8.63l-.27.18-.27.18-.27.18-.27.18-.27.18-.27.18-.27.18-.27.18-.27.18-.27.18-.27.18-.27.18-.27.18-.27.18-.27.18-.27.18-.27.18-.27.18-.27.18-.27.18-.27.18-.27.18-.27.18-.27.18-.27.18-.27.18-.27.18-.27.18-.27.18-.27.18-.27.18-.27.18-.27.18-.27.18-.27.18-.27.18-.27.18-.27.18-.27.18-.27.18a39.06,39.06,0,0,0-7.64,5.85c-6.61,6.64-10,16.33-9.28,26.56s5.41,19.36,12.89,25a38.61,38.61,0,0,0,23.58,7.62h0a50,50,0,0,0,15-2.38,55.8,55.8,0,0,0,11.83-5.34l.27-.18.26-.18.27-.18.27-.18.27-.18.27-.18.27-.18.27-.18.27-.18.27-.18.27-.18.27-.18.27-.18.27-.18.27-.18.27-.18.27-.18.27-.18.27-.18.27-.18.27-.18.27-.18.27-.18.27-.18.27-.18.27-.18.27-.18.27-.18.27-.18.27-.18.27-.18.27-.18.27-.18.27-.18.27-.18.27-.18.27-.18.27-.18.27-.18.27-.18c10.77-6.36,18.87-16,21.41-26.25,1.88-7.56,1.76-19-9.51-30.42C428.29,362.44,419.18,359.23,407.94,359.23Z" />
            <path id="_Path_295" data-name="&lt;Path&gt;" class="cls-1"
                d="M435.76,443.35a27.81,27.81,0,0,0-10.5,4.68l-.27.18-.27.18-.27.18-.27.18-.27.18-.27.18-.27.18-.27.18-.27.18-.27.18-.27.18-.27.18-.27.18-.27.18-.27.18-.27.18-.27.18-.27.18-.27.18-.27.18-.27.18-.27.18-.27.18-.27.18-.27.18-.27.18-.27.18-.27.18-.27.18-.27.18-.27.18-.27.18-.27.18-.27.18-.27.18-.27.18-.27.18-.27.18-.27.18-.27.18c-5.1,3.62-8.53,8.72-8.74,13.85-.18,4.27,1.66,12.08,15.93,16.39a37.42,37.42,0,0,0,10.79,1.64h0c5.93,0,11.07-1.55,14.71-4.27l.27-.18.27-.18.27-.18.27-.18.27-.18.27-.18.27-.18.27-.18.27-.18.27-.18.27-.18.27-.18.27-.18.27-.18.27-.18.27-.18.27-.18.27-.18.27-.18.27-.18.27-.18.27-.18.27-.18.27-.18.27-.18.27-.18.27-.18.27-.18.27-.18.27-.18.27-.18.27-.18.27-.18.27-.18.27-.18.27-.18.27-.18.27-.18.27-.18.27-.18a14.14,14.14,0,0,0,5-6.16c1.48-3.67,2.46-11.28-7.62-21C450.32,443.62,443.21,441.75,435.76,443.35Z" />
            <path id="_Path_296" data-name="&lt;Path&gt;" class="cls-2"
                d="M475.31,150.34c-12.46-24.38-34-36.74-64.08-36.74a125.05,125.05,0,0,0-38.81,6.48,4.13,4.13,0,0,1-5.37-5.14c.76-2.41,18.12-59.19-37.73-79.06a79.14,79.14,0,0,0-26.59-4.71c-43,0-72.84,37-73.13,37.42a4.12,4.12,0,0,1-5.39,1,115.33,115.33,0,0,0-58.5-16.28c-32.29,0-60.72,14.24-84.48,42.31-12.87,15.21-18.17,31.24-15.74,47.65,5.42,36.67,47.36,64.19,47.78,64.47a4.14,4.14,0,0,1,.31,6.72c-.72.57-72,57.77-42.81,114.93C82.33,352,101.6,363.45,128,363.45c23.08,0,43.32-9,43.52-9.11a4.08,4.08,0,0,1,1.69-.37,4.15,4.15,0,0,1,3.63,2.14c1.08,2,27.39,48,100.73,48,22.43,0,40-6.33,52.18-18.82C349,365.68,348.55,337,348.55,336.71a4.15,4.15,0,0,1,1.36-3.16,4.21,4.21,0,0,1,3.26-1,227.93,227.93,0,0,0,26.74,1.73h0c29,0,48.12-7.22,56.83-21.47,14.19-23.21-3.36-58.14-3.53-58.49a4.14,4.14,0,0,1,1.59-5.45C437.65,247.14,504.28,207,475.31,150.34Z" />
            <path id="_Compound_Path_" data-name="&lt;Compound Path&gt;" class="cls-1"
                d="M411.23,105.33a133.71,133.71,0,0,0-34.6,4.79c3.31-18,6.25-64-44.54-82a87.45,87.45,0,0,0-29.36-5.18c-40.3,0-69.07,28.62-77.27,37.8A124.2,124.2,0,0,0,165.71,45C131.37,45,100,60.64,74.92,90.24c-14.48,17.11-20.41,35.36-17.61,54.24,4.93,33.22,35.31,58.45,47,67-15.69,14-68.71,67.13-40.88,121.61,12.91,25.26,35.26,38.61,64.64,38.61,19.43,0,36.54-5.74,43.56-8.46,7.64,11.42,38,49.15,106,49.15,24.78,0,44.34-7.19,58.15-21.37,16.9-17.35,20.25-40.1,20.9-49.83a227.38,227.38,0,0,0,23.24,1.29h0c32.07,0,53.56-8.55,63.88-25.42,13.9-22.75,2.79-53-1.64-63.16,14.11-9.51,69.14-51.29,40.52-107.34C468.89,119.59,444.18,105.33,411.23,105.33ZM434.8,248.82a4.14,4.14,0,0,0-1.59,5.45c.18.35,17.73,35.27,3.53,58.49C428,327,408.92,334.23,379.92,334.23h0a227.93,227.93,0,0,1-26.74-1.73,4.21,4.21,0,0,0-3.26,1,4.15,4.15,0,0,0-1.36,3.16c0,.29.44,29-18.75,48.62-12.19,12.49-29.74,18.82-52.18,18.82-73.33,0-99.65-46.07-100.73-48a4.15,4.15,0,0,0-3.63-2.14,4.08,4.08,0,0,0-1.69.37c-.2.09-20.44,9.11-43.52,9.11-26.45,0-45.72-11.48-57.28-34.11C41.57,272.19,112.86,215,113.58,214.41a4.14,4.14,0,0,0-.31-6.72c-.42-.27-42.36-27.79-47.78-64.47-2.43-16.41,2.87-32.44,15.74-47.65C105,67.5,133.41,53.27,165.71,53.27a115.33,115.33,0,0,1,58.5,16.28,4.12,4.12,0,0,0,5.39-1c.3-.38,30.1-37.42,73.13-37.42a79.14,79.14,0,0,1,26.59,4.71c55.85,19.87,38.49,76.66,37.73,79.06a4.13,4.13,0,0,0,5.37,5.14,125.05,125.05,0,0,1,38.81-6.48c30.07,0,51.63,12.36,64.08,36.74C504.28,207,437.65,247.14,434.8,248.82Z" />
            <path id="_Path_297" data-name="&lt;Path&gt;" class="cls-3"
                d="M407.94,367.5c-12.55,0-26.63,5-33.48,11.87-4.93,5-7.44,12.3-6.89,20.15s4.06,14.79,9.63,19a30.49,30.49,0,0,0,18.6,5.94,41.71,41.71,0,0,0,12.53-2C422,418.15,433,407.9,435.76,396.95c2-8-.49-15.62-7.38-22.62C424.06,369.92,416.8,367.5,407.94,367.5Z" />
            <path id="_Compound_Path_2" data-name="&lt;Compound Path&gt;" class="cls-1"
                d="M407.94,359.23c-15,0-30.81,5.75-39.33,14.3-6.61,6.64-10,16.33-9.28,26.56s5.41,19.36,12.89,25a38.61,38.61,0,0,0,23.58,7.62h0a50,50,0,0,0,15-2.38c16.33-5.15,29.58-17.77,33-31.41,1.88-7.56,1.76-19-9.51-30.42C428.29,362.44,419.18,359.23,407.94,359.23Zm27.82,37.72C433,407.9,422,418.15,408.33,422.47a41.71,41.71,0,0,1-12.53,2,30.49,30.49,0,0,1-18.6-5.94c-5.57-4.22-9.08-11.15-9.63-19s2-15.2,6.89-20.15c6.85-6.88,20.93-11.87,33.48-11.87,8.85,0,16.11,2.42,20.44,6.83C435.27,381.33,437.76,388.94,435.76,396.95Z" />
            <path id="_Path_298" data-name="&lt;Path&gt;" class="cls-3"
                d="M440.94,451.06a16.89,16.89,0,0,0-3.47.37C431,452.81,425.22,457.77,425,462c-.13,3.2,3.53,6.16,10.06,8.13a29.27,29.27,0,0,0,8.41,1.29h0c5.82,0,10.56-2,11.78-5.08s-.88-7.32-5.68-12A12,12,0,0,0,440.94,451.06Z" />
            <path id="_Compound_Path_3" data-name="&lt;Compound Path&gt;" class="cls-1"
                d="M435.76,443.35c-10.3,2.2-18.63,10.26-19,18.36-.18,4.27,1.66,12.08,15.93,16.39a37.4,37.4,0,0,0,10.79,1.64h0c9.44,0,16.9-3.93,19.45-10.25,1.48-3.67,2.46-11.28-7.62-21C450.32,443.62,443.21,441.75,435.76,443.35Zm19.54,23c-1.22,3-6,5.08-11.78,5.08h0a29.27,29.27,0,0,1-8.41-1.29c-6.53-2-10.19-4.93-10.06-8.13.18-4.27,6-9.23,12.43-10.61a16.89,16.89,0,0,1,3.47-.37,12,12,0,0,1,8.67,3.37C454.43,459.07,456.5,463.43,455.3,466.39Z" />
            <path id="_Path_299" data-name="&lt;Path&gt;" class="cls-4"
                d="M436.53,313a170,170,0,0,1-74.8-8.26c-18.22-6.4-37.24-18.49-40.39-37.56-19.49,16.48-43.19,29.58-68.69,30.43s-52.55-13.09-61.27-37.09C169.1,279,138,289.49,110.73,279.92c-13.27-4.65-24.4-15.13-30.84-27.6-13.7,21.32-23.35,49.16-9.12,77C82.33,352,101.6,363.45,128,363.45c23.08,0,43.32-9,43.52-9.11a4.08,4.08,0,0,1,1.69-.37,4.15,4.15,0,0,1,3.63,2.14c1.08,2,27.39,48,100.73,48,22.43,0,40-6.33,52.18-18.82C349,365.68,348.55,337,348.55,336.71a4.15,4.15,0,0,1,1.36-3.16,4.21,4.21,0,0,1,3.26-1,227.93,227.93,0,0,0,26.74,1.73h0C408.72,334.23,427.74,327.08,436.53,313Z" />
            <path id="_Path_300" data-name="&lt;Path&gt;" class="cls-1"
                d="M490.95,126.21c-7.58-18-27.57-31.2-46.16-35.17-4-.85-5.63,5-1.68,6.1A64.83,64.83,0,0,1,468.45,111c6.6,5.67,11.36,13,17.54,19C488.74,132.74,492.27,129.35,490.95,126.21Z" />
            <path id="_Path_301" data-name="&lt;Path&gt;" class="cls-1"
                d="M492.56,102.79c-1.11-4.43-4.47-7.06-8.19-9.42-3.43-2.16-7.74-4.31-11.75-4.89-2.5-.36-5.1,2.63-2.74,4.72,2.68,2.37,6,3.74,9,5.66s5.21,4.86,7.86,7.34A3.52,3.52,0,0,0,492.56,102.79Z" />
            <path id="_Path_302" data-name="&lt;Path&gt;" class="cls-1"
                d="M50.1,353c-5.05-6.64-11-12.09-14.8-19.68-4.43-8.95-4.38-19.54-4.16-29.27.09-3.88-5.41-3.64-5.86,0-2.56,20.59.13,42.43,19.11,54.66C47.74,360.9,52.69,356.42,50.1,353Z" />
            <path id="_Path_303" data-name="&lt;Path&gt;" class="cls-1"
                d="M29.07,357.8c-5.5-4-10.5-9-11.72-15.9-.54-3.08-5.31-2.26-5.32.72a25.57,25.57,0,0,0,3.65,13.08c2.54,4.4,6,6.86,10.61,8.71C30.39,366,32.1,360,29.07,357.8Z" />
        </g>
    </g>
</svg>