<svg xmlns="http://www.w3.org/2000/svg" viewBox="0 0 512 512">
    <defs>
        <style>.cls-1{fill:#ffc91f;}</style>
    </defs>
    <title>description_16</title>
    <g id="OBJECTS">
        <g id="_Group_" data-name="&lt;Group&gt;">
            <g id="_Group_2" data-name="&lt;Group&gt;">
                <g id="_Group_3" data-name="&lt;Group&gt;">
                    <path id="_Compound_Path_" data-name="&lt;Compound Path&gt;"
                        d="M109.4,248.49a13.82,13.82,0,0,1-5-9.18,47.18,47.18,0,0,1-2.92,3.77c-3.25,3.37-8,2.76-10.53-1.27-2.42-3.86-1.91-9.51,1.14-12.6,3.29-3.33,7.82-2.68,10.47,1.59a42.3,42.3,0,0,1,2,4.19,43.33,43.33,0,0,1,2.93-4.13,35.06,35.06,0,0,1,3.65-3.1,47.42,47.42,0,0,1-2.7-4.26,11.31,11.31,0,0,1,1-11.76c2.54-3.29,6.78-4,9.91-1.5a14,14,0,0,1,2.22,2.62c.56.75,1,1.6,1.64,2.57,1.06-1.23,1.88-2.27,2.79-3.19s1.67-1.45,2.46-2.14c.43-1.46-.66-1.85-1.05-2.66s-.83-1.36-1.14-2.11a11.83,11.83,0,0,1,.47-10.31c1.71-3.28,4.41-4.86,7.46-4.71,1.41.07,2.91,1.2,4.13,2.27a30.24,30.24,0,0,1,3.33,4.17l5.14-4.88-3.88-7.73a39,39,0,0,1-3,3.62c-3.4,3.17-8,2.23-10.44-2a10.54,10.54,0,0,1,1.45-12.55c3.21-3.15,8-2.41,10.51,1.72a44,44,0,0,1,2,4.26c6.59-8.86,10.78-8.94,16.54-.23l5.39-4.86a53.94,53.94,0,0,1-2.51-4.83c-1.69-4.21-1.48-6.27.76-10,2.36-3.9,5.92-5.3,9.58-3.56a10,10,0,0,1,3,2.4,24.14,24.14,0,0,1,2.09,3.15l5.65-5.47c-4.24-7.12-4.11-13,.51-16.7,4.16-3.34,8.73-1.22,12.34,5.92a36.36,36.36,0,0,1,3.34-3.74,35.36,35.36,0,0,1,4.26-2.73,29.49,29.49,0,0,1-2.64-2.81c-2.81-3.86-2.51-9.85.59-13.12s7.91-2.83,10.54,1.24c2.73,4.22,1.94,10.27-1.8,13.37a21.5,21.5,0,0,1-3.09,1.78,32.82,32.82,0,0,1,3.33,3.56,50.2,50.2,0,0,1,2.74,5,39.31,39.31,0,0,1,2.87-3.17c3.47-3.09,8-2.4,10.65,1.54a11.14,11.14,0,0,1-.56,13.24,22.84,22.84,0,0,1-2.48,2.39l4.39,7.27,2-1.9c3.79-3.63,9-2.28,11.49,1.78a11.83,11.83,0,0,1-1,13.81c-.36.45-.83.75-1.21,1.18a6.33,6.33,0,0,0-.62.84l3.61,6.6,6.26-4.41c-.53-.65-1.1-1.3-1.62-2a17.78,17.78,0,0,1-2-2.9c-2.1-4.5-1.12-9.23,2.42-12.13,3.28-2.68,7.78-1.67,10.09,2.27s1.8,9.47-1.33,12.59a32.4,32.4,0,0,1-3.68,2.75,30.39,30.39,0,0,1,3.36,3.82,39.58,39.58,0,0,1,2.28,5c1.57.37,1.66-1.7,2.49-2.57,2.44-2.56,5.1-3.52,8.1-2,5.25,2.72,6.25,11.29,1.82,15.69a24.14,24.14,0,0,1-3.51,2.48c-.15,1.46.92,1.57,1.52,2.22,5,5.34,5,11.33,0,16.76a6.8,6.8,0,0,1-2.05,1l4.57,7.84c6.12-5.49,10.84-5.44,13.8.14,2.87,5.42,1.33,10.7-4.42,15.12l5,9a42.79,42.79,0,0,1,2.91-3.35,6.16,6.16,0,0,1,8.23-.39c2.56,2,3.67,5,3.31,8.72s-2,6.28-4.85,7.53-6,.19-7.91-2.72c-.85-1.26-1.48-2.75-2.31-4.33a47.07,47.07,0,0,1-3.22,4.2,29.21,29.21,0,0,1-3.46,2.72c4.89,6.77,5.24,13,1,17s-8.42,2.56-12.69-4.52l-5.75,5.49a38.43,38.43,0,0,1,2.21,3.9c2.23,5.17,1.8,9-1.87,13.07-3.07,3.37-7.7,3-10.77-.58a35.89,35.89,0,0,1-2.24-3.25l-5,5.16,3.35,7.65c1.28-1.53,2.4-3.37,3.86-4.5,4.4-3.37,10.14,0,11,6.3.57,4.09-1.2,8.31-4.22,10-3.25,1.83-7.11.61-9.15-3a45.88,45.88,0,0,1-2-4.76c-1.74,4-4.12,6.52-7.93,7.58,1.27,1.44,2.19,2.32,2.95,3.38a11.19,11.19,0,0,1,1.15,10.68c-1.38,3.32-4.84,5.42-7.81,4.76s-5.52-3.79-6.11-7.71a9.6,9.6,0,0,1,2.64-8.47,32.12,32.12,0,0,1,3.7-2.86c-1-1.1-1.89-2-2.66-2.95s-1.56-2.24-2.23-3.22l-5.14,5c4.1,7.88,4.07,12.28-.22,16.52s-8.17,3.1-13-3.81l-5.64,5.46c4.1,6.44,4.24,11.84,0,15.91s-8.71,2.27-13.18-5.5c-1.88,2.87-3.86,5.56-7.64,5.87,1.31,1.52,2.31,2.5,3.12,3.67,2.78,4,2.37,9.85-.84,13.08s-8.11,2.44-10.54-1.6a10.25,10.25,0,0,1,1.7-12.9,37,37,0,0,1,3.51-2.47,13.57,13.57,0,0,1-5.82-7.47c-1.25-.73-1.39.49-1.87.93s-1,1.19-1.55,1.66c-2.65,2.2-5.45,2.5-8.27.62s-4.13-5.06-4.13-8.94a10.14,10.14,0,0,1,2.54-6.75c.85-1,1.8-1.83,2.75-2.78l-4.39-6.75-6.95,5a37.92,37.92,0,0,1,3.17,3.67,10.45,10.45,0,0,1,.58,10.14c-1.6,3.21-4,4.6-7,4.31s-5.47-3.05-6.22-6.66a10,10,0,0,1,2.86-9.54,30.69,30.69,0,0,1,3.55-2.29c-7.52-8.2-7.66-13-.59-20.75l-3.91-6.25-6.49,4.73c3.37,3.4,6.19,7.11,4,12.88-1.48,4-4.74,6-8,5.38s-5.71-3.7-6.12-7.57c-.65-6.05,2.16-9.28,6.82-11.34-3.15-2.53-5.58-5.1-5.9-10a49.07,49.07,0,0,1-3.76,4.58c-3,2.76-7.35,2.09-9.81-1.31a11,11,0,0,1-.38-11.74c2.27-3.69,6.58-4.87,9.67-2.32a17.35,17.35,0,0,1,3,4.2,17.94,17.94,0,0,1,1.13,2.69l5.16-6.77-4.76-5.5c.16-.12-.63.52-1.42,1.14-6,4.63-11.68,1.42-13.11-7.14-.48-2.91.53-5,1.71-7a26.81,26.81,0,0,1,3.58-4.06l-4.33-7.26c-5.64,5.67-10.17,5.8-13.42.48S103.19,254,109.4,248.49Zm148.14-33.8c1.12-1.15,2-2.05,2.92-3s2.71-.53,3.14-2.52a35.78,35.78,0,0,1-2.94-3.54,36.23,36.23,0,0,1-2-4.15l-4.28,5.42Zm17.8,37.77-4.56-6.28-4,5,3.21,5.16Zm-7.66,25.82,5.6-4.88-4.56-5.2-4,4.17ZM122.45,223.79,117,228.56,121.3,234l4.12-4.37Zm90.72-69.36-4.25,5.49,3.37,5,4.86-3.7Zm-13.7,4L196,152l-5,5.35,3.74,4.7Zm-76.08,92.45-3.31-5.14-5.27,3.78,4.52,6.36Zm57.89,91.22-3.5-5a23.05,23.05,0,0,0-2.35,1.92c-.7.75-2,.58-2.18,2.24l3.75,6.33Zm13.7-2.57-4.08,4.14,3.09,6.5,5.18-5.47ZM176.38,179.39l4.19-2.93-3.09-5.76-4.33,4.58Zm-33,32.31-2.63-5.1-4.62,4.19c1.05,1.41,1.82,2.53,2.67,3.53a4.69,4.69,0,0,0,1.39.8Zm20,103.26c-1.54,1.13-3.22,1.57-3.77,3.24l2.84,5.95c1.32-1.64,2.29-2.79,3.2-4a4.33,4.33,0,0,0,.28-1.37ZM134.4,268.54c-1.36,2.31-3.38,2.37-4.12,4.48l3.52,5,3.39-4Zm112.45,22,2.65,5,4.52-4.53-3.44-4.18ZM256.39,224l-3.48,4.46,2.89,4.45,4.16-3.18Zm-29-45.66-3.53,4.41,3.05,4.4,4.28-3.18ZM213.77,322.65l-4.25,3,3.13,5.64L217,327Zm-65.1-30.52-3.58,3.28c.95,1.69,1.7,3.08,2.51,4.41.17.28.6.31,1,.5l3.3-4Zm96.63-85.36-3.23-5.32-3.59,4.1,3,4.29Zm-86.2-18-4.29,4.45,3.53,4,3.37-3.43Zm69.13,119.43,2.8,4.65c1.36-1.17,2.5-2.09,3.58-3.11.2-.19.18-.74.31-1.33l-3.17-4ZM191.05,177c.62,2.2,1.23,3.5,2.7,2.83.67-.3,1.16-1.19,1.86-2l-2.23-3.07Zm8.08,147.37c-2-2.87-2-2.87-4.35-.41l1.59,3.26Zm-20,.23a16.27,16.27,0,0,0,1.73-2.6,2.49,2.49,0,0,0-.39-1.66c-.26-.45-.82-1-1.14-1a12.36,12.36,0,0,0-2.5,1.38Zm-41.35-71c-1.63-3.64-1.63-3.64-4.29-.68l2.4,3Zm116.63,16.91a19.42,19.42,0,0,0-1.59-2c-.2-.2-.65-.12-1,0a2.48,2.48,0,0,0-.95,3.84C251.71,273.37,252.31,273.11,254.46,270.54Zm-.64-18.61c1-1.07,2.29-1.79,2.3-2.51a4,4,0,0,0-1.65-2.64c-.31-.22-1.78.89-1.8,1.45C252.63,249.27,253.27,250.34,253.82,251.93Zm-95.29-38.11c-.89-1-1.46-2.15-1.95-2.1-.65.07-1.37,1-1.8,1.71s.7,2.17,1.41,2A10,10,0,0,0,158.52,213.82Zm54.79-32.72-2.4-3.52a22.73,22.73,0,0,0-1.64,2,1.84,1.84,0,0,0-.12,1.15,2.14,2.14,0,0,0,.53,1c.37.37.9.94,1.24.84A11.88,11.88,0,0,0,213.31,181.1Zm19.9,109.47c1.35,0,2.45-1.47,2.1-2.41a2.43,2.43,0,0,0-1.37-1.44c-.91-.19-1.73.56-1.69,1.7A5.85,5.85,0,0,0,233.22,290.57Zm-70.7,7.55a18.28,18.28,0,0,0,1.84,2.59c.52.49,1.83-.47,1.92-1.35.13-1.17-.34-2.19-1.22-2.32C164.41,296.94,163.69,297.59,162.51,298.12Zm-26.78-66.95c1.86,2.81,2.11,2.95,3.24,1.93s1.09-1.38-.55-4.35ZM177,195.67c-.93-.89-1.57-2-2.12-1.89s-1.34,1.06-1.65,1.87.8,2.15,1.52,1.85A11.62,11.62,0,0,0,177,195.67Zm-24.71,80.49c-.91-.9-1.44-1.75-2.08-1.93-.38-.11-1.42,1-1.36,1.26.18.88.63,2,1.21,2.29S151.3,276.94,152.31,276.16Zm65.23,30.1c-1.13-.77-1.76-1.5-2.4-1.53-.45,0-1.08.85-1.34,1.5s.82,2.28,1.43,2A13.91,13.91,0,0,0,217.54,306.26ZM240,224.06c-1.25.51-2.12,1.29-1.28,3.08a1.3,1.3,0,0,0,2.42.17C242,225.63,241,224.8,240,224.06Zm-14.67-23.4c-.65,1.27-1.43,2.13-1.34,2.8a2.7,2.7,0,0,0,1.65,1.69c.74.25,1.67-1.15,1.36-1.92A16.76,16.76,0,0,0,225.29,200.66Z" />
                    <path id="_Path_" data-name="&lt;Path&gt;"
                        d="M155,153.56c4.15.81,6.91,5.64,6.14,10.71-.7,4.57-4.74,8.37-8.28,7.79-3.85-.63-6.91-5.79-6.36-10.72C147.11,156.12,150.82,152.73,155,153.56Z" />
                    <path id="_Path_2" data-name="&lt;Path&gt;"
                        d="M116.27,280.14c-.45,5-3.75,8.38-7.76,7.89-4.19-.52-7.13-5.07-6.55-10.12.54-4.7,4.28-8.24,8.08-7.66S116.71,275.3,116.27,280.14Z" />
                    <path id="_Path_3" data-name="&lt;Path&gt;"
                        d="M225,358.49c-.51,4.86-4.05,8.34-7.92,7.78s-7-5.63-6.36-10.44,4.33-8,8.25-7.27S225.54,353.46,225,358.49Z" />
                    <path id="_Path_4" data-name="&lt;Path&gt;"
                        d="M280.26,305.13c-.51,4.76-4.12,8.18-8,7.6s-6.75-4.74-6.32-9.68c.45-5.16,4.2-8.8,8.24-8C277.95,295.77,280.77,300.43,280.26,305.13Z" />
                    <path id="_Path_5" data-name="&lt;Path&gt;"
                        d="M165.1,143.66c.51-5,3.9-8.25,7.94-7.66s6.76,4.78,6.36,9.71-4.56,9-8.28,8.24S164.61,148.39,165.1,143.66Z" />
                    <path id="_Path_6" data-name="&lt;Path&gt;"
                        d="M116.15,206.94c-4-.66-6.64-4.89-6.14-9.85s3.93-8.35,7.87-7.86,7.32,5.62,6.47,10.31C123.4,204.86,119.91,207.66,116.15,206.94Z" />
                    <path id="_Path_7" data-name="&lt;Path&gt;"
                        d="M288.2,223.91c-.44,4.86-3.93,8.3-7.89,7.78s-6.84-4.61-6.5-9.52c.36-5.1,4.09-8.84,8.15-8.17C285.79,214.61,288.63,219.13,288.2,223.91Z" />
                    <path id="_Path_8" data-name="&lt;Path&gt;"
                        d="M244.87,156.1c-.59,4.72-4.41,8.33-8.09,7.65s-6.63-5.46-6.19-10.12c.48-5.05,4.3-8.52,8.45-7.67S245.5,151.07,244.87,156.1Z" />
                    <path id="_Path_9" data-name="&lt;Path&gt;"
                        d="M288.63,244.59c.45-4.54,4-8,7.6-7.41s6.38,4.94,5.94,9.47-3.92,7.91-7.61,7.37S288.18,249.17,288.63,244.59Z" />
                    <path id="_Path_10" data-name="&lt;Path&gt;"
                        d="M230.21,132.83c-.37,4.53-3.83,8-7.51,7.57s-6.45-4.8-6.1-9.33,3.86-8,7.52-7.55S230.59,128.25,230.21,132.83Z" />
                    <path id="_Path_11" data-name="&lt;Path&gt;"
                        d="M99.39,207.68c3.94.52,6.5,4.46,6,9.27s-3.8,8-7.62,7.32c-3.56-.62-6.13-4.56-5.85-9C92.25,210.56,95.57,207.17,99.39,207.68Z" />
                    <path id="_Path_12" data-name="&lt;Path&gt;"
                        d="M198.68,383.5c-3.75-.6-6.33-4.92-5.76-9.65.54-4.46,3.7-7.59,7.29-7.22s6.5,4.77,6.08,9.4S202.43,384.1,198.68,383.5Z" />
                    <path id="_Path_13" data-name="&lt;Path&gt;"
                        d="M197.27,127.88c-.42,4.81-3.7,8-7.53,7.42s-6.46-5-5.92-9.52c.52-4.36,3.77-7.51,7.35-7.1C195.06,119.13,197.69,123.08,197.27,127.88Z" />
                    <path id="_Path_14" data-name="&lt;Path&gt;"
                        d="M173.43,371.54c-.61,4.59-4.24,7.75-7.93,6.9s-6.11-5.23-5.37-10c.71-4.47,3.89-7.23,7.58-6.57S174.05,366.82,173.43,371.54Z" />
                    <path id="_Path_15" data-name="&lt;Path&gt;"
                        d="M298.06,287.57c-.62,4.65-4.23,7.77-7.94,6.85s-5.89-4.94-5.38-9.4c.53-4.69,4-8,7.71-7.28S298.69,282.91,298.06,287.57Z" />
                    <path id="_Path_16" data-name="&lt;Path&gt;"
                        d="M94.05,264.84c-3.77-.49-6.51-4.75-6-9.41.45-4.44,3.63-7.64,7.22-7.26,3.89.4,6.64,4.34,6.34,9.07S97.81,265.33,94.05,264.84Z" />
                    <path id="_Path_17" data-name="&lt;Path&gt;"
                        d="M269.26,171.71c3.82.5,6.49,4.67,6,9.34-.49,4.36-3.77,7.56-7.3,7.12-3.77-.47-6.44-4.72-5.92-9.4C262.51,174.25,265.62,171.23,269.26,171.71Z" />
                    <path id="_Path_18" data-name="&lt;Path&gt;"
                        d="M128.11,323.24c-.47,4.56-3.49,7.6-7.15,7.18s-6.53-4.64-6-9.28,4.08-7.93,7.75-7.15S128.58,318.73,128.11,323.24Z" />
                    <path id="_Path_19" data-name="&lt;Path&gt;"
                        d="M251.56,350.22c-3.71-.8-6.18-5.34-5.41-9.91s4-7.14,7.65-6.4,6,4.83,5.57,9.18C258.88,347.62,255.18,351,251.56,350.22Z" />
                    <path id="_Path_20" data-name="&lt;Path&gt;"
                        d="M138.36,151.9c3.73.61,6.38,5,5.73,9.61-.61,4.37-3.91,7.38-7.47,6.84-3.77-.57-6.28-4.84-5.65-9.61C131.56,154.25,134.74,151.3,138.36,151.9Z" />
                    <path id="_Path_21" data-name="&lt;Path&gt;"
                        d="M112.67,176.56c.59-4.49,3.74-7.31,7.4-6.65s6.05,4.65,5.6,9c-.47,4.56-4.18,7.9-7.78,7S112.08,181,112.67,176.56Z" />
                    <path id="_Path_22" data-name="&lt;Path&gt;"
                        d="M283.84,194.63c3.65.6,6.07,4.41,5.65,8.91-.43,4.67-3.95,8-7.63,7.14-3.49-.77-6-5-5.42-9.3S280.24,194,283.84,194.63Z" />
                    <path id="_Path_23" data-name="&lt;Path&gt;"
                        d="M108.2,291.51c3.62.7,6,4.63,5.47,9.09s-3.76,7.53-7.29,7c-3.7-.55-6.36-5-5.7-9.58C101.32,293.64,104.57,290.81,108.2,291.51Z" />
                    <path id="_Path_24" data-name="&lt;Path&gt;"
                        d="M253.38,165.2c-3.63-.58-6.07-4.42-5.65-8.93s3.51-7.69,7.07-7.3,6.51,4.89,6,9.38C260.27,162.63,256.89,165.76,253.38,165.2Z" />
                    <path id="_Path_25" data-name="&lt;Path&gt;"
                        d="M233.33,367.87c-3.55-.66-6-4.7-5.49-9.15s3.67-7.56,7.23-7c3.72.54,6.46,5,5.8,9.5C240.21,365.48,236.8,368.52,233.33,367.87Z" />
                    <path id="_Path_26" data-name="&lt;Path&gt;"
                        d="M270.41,332.33c-3.54-.43-6.18-4.32-5.95-8.75s3.35-7.71,6.95-7.41c3.94.33,6.57,4.2,6.1,9C277.07,329.65,274,332.76,270.41,332.33Z" />
                    <path id="_Path_27" data-name="&lt;Path&gt;"
                        d="M142.43,346c-.46,4.48-3.57,7.5-7.19,7s-6.12-4.25-5.75-8.77c.39-4.8,3.7-8.07,7.45-7.36C140.46,337.49,142.88,341.54,142.43,346Z" />
                    <path id="_Path_28" data-name="&lt;Path&gt;"
                        d="M155.06,150.28c-3.71-.58-6.09-4.26-5.69-8.8.42-4.75,3.82-8,7.52-7.28,3.54.73,5.88,4.74,5.38,9.22S158.75,150.86,155.06,150.28Z" />
                    <path id="_Path_29" data-name="&lt;Path&gt;"
                        d="M156.52,368.44c-.35,4.26-3.27,7.33-6.68,7s-6.22-4.58-5.73-8.88c.46-4,3.71-7.14,7-6.67S156.87,364.22,156.52,368.44Z" />
                    <path id="_Path_30" data-name="&lt;Path&gt;"
                        d="M99.2,203.19c-3.3-1.07-5.39-5.3-4.58-9.29s4.33-6.82,7.44-5.91c3.43,1,5.76,5.76,4.78,9.76S102.47,204.26,99.2,203.19Z" />
                    <path id="_Path_31" data-name="&lt;Path&gt;"
                        d="M180.44,125.65c-.47,4.07-3.67,7.12-7,6.65-3.53-.51-6-4.67-5.33-9.13.6-4.26,3.62-6.9,7.1-6.21S180.92,121.51,180.44,125.65Z" />
                    <path id="_Path_32" data-name="&lt;Path&gt;"
                        d="M296.34,233c-3.42-.7-5.57-4.41-5.05-8.74s3.43-7.07,6.9-6.5,6,4.71,5.34,9.1C302.88,231,299.74,233.66,296.34,233Z" />
                    <path id="_Path_33" data-name="&lt;Path&gt;"
                        d="M222.15,378.33c-.32,4.17-3.32,7.31-6.7,7s-6.23-4.53-5.76-8.84c.46-4.14,3.55-7.06,7-6.57S222.48,374,222.15,378.33Z" />
                    <path id="_Path_34" data-name="&lt;Path&gt;"
                        d="M98.94,278c-.57,4.21-3.7,7-7.1,6.35s-5.77-4.6-5.32-8.69c.47-4.26,4.11-7.52,7.46-6.67S99.5,273.89,98.94,278Z" />
                    <path id="_Path_35" data-name="&lt;Path&gt;"
                        d="M288.45,314.08c-3.37-.66-5.63-4.47-5.15-8.72s3.42-7.11,6.88-6.57c3.63.56,6.1,4.66,5.44,9C295,311.9,291.77,314.73,288.45,314.08Z" />
                    <path id="_Path_36" data-name="&lt;Path&gt;"
                        d="M238.61,142.06c-3.36-.82-5.49-4.7-4.92-8.94.6-4.49,3.86-7.14,7.55-6.15,3.33.89,5.36,4.87,4.65,9.11S241.94,142.88,238.61,142.06Z" />
                    <path id="_Path_37" data-name="&lt;Path&gt;"
                        d="M180.44,400.43c-3.44-.51-5.82-4.22-5.42-8.45s3.51-7.19,6.87-6.71,5.81,4.37,5.42,8.51S183.86,400.94,180.44,400.43Z" />
                    <path id="_Path_38" data-name="&lt;Path&gt;"
                        d="M310.77,260.9c3.43.68,5.57,4.41,5,8.73-.54,4.15-3.76,7-7,6.31s-5.64-4.88-5.08-8.84C304.24,262.95,307.37,260.22,310.77,260.9Z" />
                    <path id="_Path_39" data-name="&lt;Path&gt;"
                        d="M74.33,232.9c.41-4.33,3.29-7.17,6.75-6.65s5.82,4.23,5.45,8.39-3.54,7.19-6.84,6.74S73.93,237.1,74.33,232.9Z" />
                    <path id="_Path_40" data-name="&lt;Path&gt;"
                        d="M208.32,116.7c-3.52-.5-5.82-4.06-5.4-8.37s3.46-7.27,6.8-6.8,5.8,4.48,5.46,8.54S211.76,117.19,208.32,116.7Z" />
                    <path id="_Path_41" data-name="&lt;Path&gt;"
                        d="M269.64,337c3.1.35,5.6,4.07,5.36,8s-3.06,7-6.28,6.83-6-4.1-5.61-8.28C263.47,339.77,266.54,336.7,269.64,337Z" />
                    <path id="_Path_42" data-name="&lt;Path&gt;"
                        d="M138.9,147.21c-3.16-.37-5.61-4-5.39-7.92.23-4.11,3.49-7.38,6.79-6.82,3.09.53,5.47,4.35,5.11,8.23S142.06,147.58,138.9,147.21Z" />
                    <path id="_Path_43" data-name="&lt;Path&gt;"
                        d="M125.5,343.44c-.4,3.85-3.44,6.83-6.58,6.42s-5.55-4.11-5.3-8c.26-4.13,3.53-7.3,6.86-6.65C123.65,335.77,125.91,339.5,125.5,343.44Z" />
                    <path id="_Path_44" data-name="&lt;Path&gt;"
                        d="M99.3,318.93c.35-4,3.2-6.89,6.42-6.61s5.89,4.5,5.37,8.54-3.53,6.72-6.68,6.18S98.94,322.93,99.3,318.93Z" />
                    <path id="_Path_45" data-name="&lt;Path&gt;"
                        d="M127,158.45c-.36,4-3.19,6.86-6.43,6.5-3.42-.39-5.9-4.3-5.37-8.45.5-3.87,3.6-6.75,6.69-6.22S127.35,154.51,127,158.45Z" />
                    <path id="_Path_46" data-name="&lt;Path&gt;"
                        d="M251.71,355c3.19.7,5.32,4.39,4.83,8.37-.52,4.21-3.72,6.92-7.14,6-3.13-.81-5.22-4.73-4.58-8.59S248.55,354.31,251.71,355Z" />
                    <path id="_Path_47" data-name="&lt;Path&gt;"
                        d="M290.8,183.18c-.38,4.06-3.16,6.89-6.37,6.51-3.44-.41-5.8-4.21-5.26-8.47.5-3.95,3.49-6.78,6.62-6.25S291.18,179.19,290.8,183.18Z" />
                    <path id="_Path_48" data-name="&lt;Path&gt;"
                        d="M276.45,160.65c-.45,4-3.33,6.68-6.57,6.19s-5.56-4-5.26-7.92c.31-4.15,3.5-7.15,6.9-6.49C274.73,153.05,276.91,156.68,276.45,160.65Z" />
                    <path id="_Path_49" data-name="&lt;Path&gt;"
                        d="M255,143.75c-3-.7-5-4.25-4.56-8,.52-4,3.65-6.64,6.83-5.85,3,.74,5,4.32,4.53,8.06C261.35,142,258.37,144.52,255,143.75Z" />
                    <path id="_Path_50" data-name="&lt;Path&gt;"
                        d="M305,205.86c-.38,4.1-3.3,6.92-6.51,6.28-3-.59-5.12-4.09-4.78-7.84.36-4,3.41-6.9,6.57-6.28C303.25,198.61,305.32,202,305,205.86Z" />
                    <path id="_Path_51" data-name="&lt;Path&gt;"
                        d="M88,214.5c-.45,3.9-3,6.37-6.18,5.95s-5.6-4.05-5.11-8c.45-3.69,3.27-6.39,6.26-6C86.21,206.84,88.44,210.41,88,214.5Z" />
                    <path id="_Path_52" data-name="&lt;Path&gt;"
                        d="M77.89,261c-3.36-.42-5.62-3.9-5.17-8,.42-3.75,3.16-6.43,6.21-6.07,3.24.39,5.63,4.07,5.2,8C83.71,258.67,80.92,261.36,77.89,261Z" />
                    <path id="_Path_53" data-name="&lt;Path&gt;"
                        d="M191.9,394.62c.36-4,3.36-7,6.52-6.37,3,.56,5.1,4,4.77,7.83-.36,4.15-3.2,6.92-6.48,6.31C193.68,401.83,191.56,398.41,191.9,394.62Z" />
                    <path id="_Path_54" data-name="&lt;Path&gt;"
                        d="M307,295.53c-3.16-.53-5.21-3.69-4.91-7.56.32-4.06,3.22-7,6.42-6.44s5.37,4.28,4.82,8.31C312.84,293.67,310.19,296.06,307,295.53Z" />
                    <path id="_Path_55" data-name="&lt;Path&gt;"
                        d="M231,112.47c-.39,4.1-3.36,7-6.52,6.31-3-.62-5.1-4.17-4.77-7.9.35-4,3.43-6.88,6.59-6.26C229.31,105.21,231.36,108.65,231,112.47Z" />
                    <path id="_Path_56" data-name="&lt;Path&gt;"
                        d="M293,327.81c-.5,3.81-3.21,6.34-6.29,5.87-3.23-.49-5.54-4.29-5-8.19.52-3.63,3.41-6.33,6.36-5.93C291.24,320,293.54,323.85,293,327.81Z" />
                    <path id="_Path_57" data-name="&lt;Path&gt;"
                        d="M311,255c-3.14-.55-5.19-3.75-4.88-7.62s3.36-6.95,6.52-6.35,5.41,4.54,4.82,8.4C316.86,253.11,314.06,255.53,311,255Z" />
                    <path id="_Path_58" data-name="&lt;Path&gt;"
                        d="M159.14,389.24c.51-3.81,3.21-6.28,6.32-5.79,3.31.52,5.46,4.1,4.9,8.18-.5,3.72-3.33,6.34-6.33,5.87C160.82,397,158.6,393.26,159.14,389.24Z" />
                    <path id="_Path_59" data-name="&lt;Path&gt;"
                        d="M102.18,182.47c-3.1-.39-5.3-3.58-5.1-7.41.22-4.2,2.9-7.06,6.23-6.62s5.57,4,5.11,8C108,180.19,105.22,182.84,102.18,182.47Z" />
                    <path id="_Path_60" data-name="&lt;Path&gt;"
                        d="M85.27,295.18c.81-3.9,4-6,7.25-4.87,2.93,1,4.54,4.7,3.76,8.54-.74,3.64-3.75,5.93-6.72,5.1C86.39,303.07,84.45,299.11,85.27,295.18Z" />
                    <path id="_Path_61" data-name="&lt;Path&gt;"
                        d="M238,381.06c-.42,3.78-3.12,6.39-6.19,6-3.32-.41-5.52-3.9-5-8,.45-3.89,3-6.4,6.15-6C236.21,373.49,238.42,377,238,381.06Z" />
                    <path id="_Path_62" data-name="&lt;Path&gt;"
                        d="M193.51,99.79c3.09.61,5.09,3.9,4.71,7.77-.4,4.07-3.32,6.8-6.57,6.14-3-.61-5.12-4.08-4.74-7.82C187.32,101.82,190.22,99.14,193.51,99.79Z" />
                    <path id="_Path_63" data-name="&lt;Path&gt;"
                        d="M133.27,372.15c-3.19-.51-5.22-3.64-4.92-7.54.32-4.12,3.17-7,6.39-6.45s5.49,4.4,4.93,8.27C139.13,370.15,136.34,372.64,133.27,372.15Z" />
                    <path id="_Path_64" data-name="&lt;Path&gt;"
                        d="M163.45,123c-.42,3.86-3,6.39-6.18,6-3.32-.45-5.62-4-5.13-8,.46-3.66,3.27-6.4,6.26-6.1C161.55,115.23,163.9,119,163.45,123Z" />
                    <path id="_Path_65" data-name="&lt;Path&gt;"
                        d="M89.61,194.36c-.5,3.43-3.29,5.95-6,5.43s-4.87-4-4.53-7.38c.36-3.67,3.42-6.4,6.36-5.66S90.11,190.91,89.61,194.36Z" />
                    <path id="_Path_66" data-name="&lt;Path&gt;"
                        d="M149,381.34c2.76.43,4.91,3.81,4.63,7.27-.3,3.67-3.33,6.52-6.23,5.86-2.73-.62-4.77-4.15-4.35-7.53S146.34,380.92,149,381.34Z" />
                    <path id="_Path_67" data-name="&lt;Path&gt;"
                        d="M176.73,97.72c2.82.32,5,3.5,4.81,7-.19,3.68-3.12,6.62-6.08,6.08-2.8-.51-4.86-3.85-4.53-7.33S173.86,97.39,176.73,97.72Z" />
                    <path id="_Path_68" data-name="&lt;Path&gt;"
                        d="M219.24,398.8c-.4,3.41-3.16,6-5.93,5.59-3-.44-5.18-4.16-4.59-7.81.56-3.48,3.3-5.8,6.12-5.21S219.65,395.34,219.24,398.8Z" />
                    <path id="_Path_69" data-name="&lt;Path&gt;"
                        d="M75.56,280.8c-2.78-.58-4.81-4-4.43-7.42.4-3.68,3.51-6.41,6.38-5.61s4.62,4.21,4.1,7.7S78.34,281.38,75.56,280.8Z" />
                    <path id="_Path_70" data-name="&lt;Path&gt;"
                        d="M102.7,346.42c-3-.4-5-3.23-4.71-6.91.27-3.93,2.87-6.52,6-6,2.91.53,4.78,3.59,4.42,7.23S105.68,346.82,102.7,346.42Z" />
                    <path id="_Path_71" data-name="&lt;Path&gt;"
                        d="M308.59,226.63c.51-3.57,3-5.75,6-5.16s4.76,3.65,4.35,7.28-3.32,6.32-6.31,5.52C309.86,233.53,308.08,230.18,308.59,226.63Z" />
                    <path id="_Path_72" data-name="&lt;Path&gt;"
                        d="M267.81,358.28c2.92.52,4.79,3.56,4.44,7.22s-2.77,6-5.71,5.64c-3.11-.42-5.25-3.84-4.72-7.56C262.32,360.1,264.95,357.78,267.81,358.28Z" />
                    <path id="_Path_73" data-name="&lt;Path&gt;"
                        d="M122.17,143.73c-2.94-.64-4.7-3.7-4.23-7.38s3-6,5.85-5.51c3,.49,5,4,4.45,7.81C127.68,142.22,125.11,144.37,122.17,143.73Z" />
                    <path id="_Path_74" data-name="&lt;Path&gt;"
                        d="M311.08,309.61c-.3,3.44-2.93,6.13-5.73,5.85-3-.31-5.27-3.83-4.8-7.57.44-3.52,3.07-5.94,5.94-5.45S311.38,306.09,311.08,309.61Z" />
                    <path id="_Path_75" data-name="&lt;Path&gt;"
                        d="M242.31,107.72c2.92.39,5,3.39,4.78,6.94-.22,3.74-3,6.52-6.05,6s-4.8-3.65-4.45-7.25S239.38,107.33,242.31,107.72Z" />
                    <path id="_Path_76" data-name="&lt;Path&gt;"
                        d="M292.11,163.11c-.46,3.63-2.92,5.87-5.89,5.35s-4.86-3.53-4.54-7.13,3.25-6.39,6.23-5.71S292.57,159.53,292.11,163.11Z" />
                    <path id="_Path_77" data-name="&lt;Path&gt;"
                        d="M290.47,348.07c-.5,3.55-3.1,5.81-6,5.19s-4.68-4-4.17-7.45,3.1-5.76,6-5.14S291,344.38,290.47,348.07Z" />
                    <path id="_Path_78" data-name="&lt;Path&gt;"
                        d="M122.63,363.87c-.49,3.58-3.08,5.83-6,5.19s-4.72-4-4.21-7.45,3.17-5.75,6-5.15S123.14,360.17,122.63,363.87Z" />
                    <path id="_Path_79" data-name="&lt;Path&gt;"
                        d="M140.59,125.87c-2.9-.61-4.67-3.74-4.17-7.39s3.06-5.83,6-5.21,4.73,4,4.24,7.43S143.45,126.46,140.59,125.87Z" />
                    <path id="_Path_80" data-name="&lt;Path&gt;"
                        d="M88,323.52c-2.93-.56-4.72-3.63-4.24-7.3s3.13-6,5.88-5.4,4.73,4.07,4.31,7.44S90.92,324.08,88,323.52Z" />
                    <path id="_Path_81" data-name="&lt;Path&gt;"
                        d="M248.24,388.81c-2.92-.36-5-3.4-4.77-6.91.24-3.35,2.94-6.16,5.68-5.89s4.93,3.51,4.7,7S251.14,389.17,248.24,388.81Z" />
                    <path id="_Path_82" data-name="&lt;Path&gt;"
                        d="M306.46,185.7c-.39,3.55-3,6-5.83,5.49s-4.87-3.8-4.5-7.24,3.07-5.92,5.89-5.44S306.85,182.12,306.46,185.7Z" />
                    <path id="_Path_83" data-name="&lt;Path&gt;"
                        d="M109.82,155.93c-.36,3.6-2.87,6.07-5.73,5.64s-4.88-3.7-4.54-7.17,3-6.06,5.79-5.65S110.17,152.36,109.82,155.93Z" />
                    <path id="_Path_84" data-name="&lt;Path&gt;"
                        d="M277.61,140.59c-.52,3.5-3.23,5.78-6.06,5.09s-4.6-4-4.05-7.57,3.4-5.86,6.07-5.16S278.13,137.07,277.61,140.59Z" />
                    <path id="_Path_85" data-name="&lt;Path&gt;"
                        d="M63.48,237.47c-2.61-.33-4.65-3.42-4.41-6.69s2.51-5.85,5.23-5.64c2.9.22,5.07,3.45,4.69,7C68.64,235.3,66.08,237.8,63.48,237.47Z" />
                    <path id="_Path_86" data-name="&lt;Path&gt;"
                        d="M179.65,406.92c2.72.29,4.9,3.73,4.51,7.11-.37,3.2-2.82,5.58-5.43,5.28s-4.65-3.11-4.52-6.41C174.35,409.38,176.86,406.62,179.65,406.92Z" />
                    <path id="_Path_87" data-name="&lt;Path&gt;"
                        d="M331.05,271.39c-.27,3.43-2.5,5.77-5.24,5.51-2.93-.27-5-3.44-4.61-7,.39-3.33,2.77-5.54,5.52-5.13S331.33,268,331.05,271.39Z" />
                    <path id="_Path_88" data-name="&lt;Path&gt;"
                        d="M215.85,89.78c-.37,3.45-2.63,5.64-5.42,5.24s-4.65-3.27-4.39-6.61c.27-3.57,3-6.17,5.76-5.59S216.22,86.36,215.85,89.78Z" />
                    <path id="_Path_89" data-name="&lt;Path&gt;"
                        d="M164.6,102.53c-.34,3.36-2.72,5.71-5.38,5.3s-4.48-3.45-4.13-6.79,2.73-5.71,5.37-5.29S164.93,99.18,164.6,102.53Z" />
                    <path id="_Path_90" data-name="&lt;Path&gt;"
                        d="M316.42,201.62c2.67.47,4.48,3.49,4.08,6.82s-2.88,5.65-5.49,5.16-4.44-3.6-4-6.91S313.7,201.13,316.42,201.62Z" />
                    <path id="_Path_91" data-name="&lt;Path&gt;"
                        d="M308.72,329.72c-.22,3.19-2.73,5.68-5.37,5.35s-4.68-3.23-4.4-6.52,2.63-5.7,5.33-5.38S308.94,326.46,308.72,329.72Z" />
                    <path id="_Path_92" data-name="&lt;Path&gt;"
                        d="M257.64,122.51c-2.77-.4-4.61-3.2-4.3-6.56s2.64-5.64,5.35-5.27,4.63,3.32,4.33,6.6S260.37,122.91,257.64,122.51Z" />
                    <path id="_Path_93" data-name="&lt;Path&gt;"
                        d="M85.84,178.86c-2.74-.39-4.56-3.21-4.24-6.59s2.59-5.65,5.31-5.24,4.57,3.24,4.27,6.58S88.55,179.25,85.84,178.86Z" />
                    <path id="_Path_94" data-name="&lt;Path&gt;"
                        d="M127.29,384.39c.48-3.35,2.88-5.42,5.58-4.82s4.33,3.55,3.85,7-2.9,5.44-5.59,4.83S126.8,387.8,127.29,384.39Z" />
                    <path id="_Path_95" data-name="&lt;Path&gt;"
                        d="M229.38,406.13c-2.73-.63-4.31-3.53-3.79-7s2.85-5.31,5.64-4.69,4.32,3.63,3.81,7S232.13,406.76,229.38,406.13Z" />
                    <path id="_Path_96" data-name="&lt;Path&gt;"
                        d="M199.2,87.28c-.33,3-2.66,5.28-5.13,4.93S189.77,89.14,190,86c.25-3.48,2.59-5.73,5.37-5.16C197.87,81.34,199.54,84.16,199.2,87.28Z" />
                    <path id="_Path_97" data-name="&lt;Path&gt;"
                        d="M73.61,300.35c-2.77-.57-4.36-3.38-3.88-6.84s2.75-5.42,5.53-4.84,4.36,3.48,3.91,6.88S76.39,300.93,73.61,300.35Z" />
                    <path id="_Path_98" data-name="&lt;Path&gt;"
                        d="M328.71,291.91c-.37,3.17-2.56,5.26-5.1,4.88s-4.31-3.08-4.06-6.22c.27-3.41,2.69-5.72,5.4-5.16C327.46,285.94,329.08,288.74,328.71,291.91Z" />
                    <path id="_Path_99" data-name="&lt;Path&gt;"
                        d="M289.62,136.24c2.58.47,4.27,3.18,4,6.33-.3,3-2.67,5.35-5.09,5.08s-4.62-3.66-4.15-6.82S287,135.76,289.62,136.24Z" />
                    <path id="_Path_100" data-name="&lt;Path&gt;"
                        d="M86.29,343.3c-2.42-.33-4.32-3.2-4.13-6.25s2.38-5.4,4.92-5.19c2.79.23,4.75,3.15,4.37,6.51C91.11,341.38,88.75,343.63,86.29,343.3Z" />
                    <path id="_Path_101" data-name="&lt;Path&gt;"
                        d="M308,165.21c-.25,3-2.61,5.37-5.05,5.14s-4.38-3-4.2-6.1c.19-3.44,2.59-5.94,5.25-5.47C306.38,159.21,308.24,162.2,308,165.21Z" />
                    <path id="_Path_102" data-name="&lt;Path&gt;"
                        d="M96.71,359.26c.43-3.12,2.69-5.12,5.24-4.63s4.23,3.39,3.92,6.4c-.34,3.21-3.1,5.65-5.6,4.94S96.28,362.4,96.71,359.26Z" />
                    <path id="_Path_103" data-name="&lt;Path&gt;"
                        d="M129.6,118.1c-.42,3.1-2.73,5.24-5.19,4.79s-4.26-3.47-4-6.41c.28-3.27,2.85-5.54,5.56-4.92S130,114.85,129.6,118.1Z" />
                    <path id="_Path_104" data-name="&lt;Path&gt;"
                        d="M284.22,361.4c2.36.51,4.16,3.57,3.87,6.56-.33,3.28-2.93,5.5-5.63,4.79-2.53-.66-4-3.46-3.52-6.67S281.82,360.88,284.22,361.4Z" />
                    <path id="_Path_105" data-name="&lt;Path&gt;"
                        d="M163.6,405.11c2.57.56,4.11,3.26,3.69,6.5s-2.68,5.26-5.16,4.85-4.52-3.82-4-7S161,404.55,163.6,405.11Z" />
                    <path id="_Path_106" data-name="&lt;Path&gt;"
                        d="M196.19,409.8c2.43.39,4.2,3.27,3.94,6.4s-2.37,5.38-4.95,5.1-4.74-3.45-4.26-6.64C191.37,411.72,193.86,409.42,196.19,409.8Z" />
                    <path id="_Path_107" data-name="&lt;Path&gt;"
                        d="M66.66,252.41c-.37,3.09-2.61,5.14-5.18,4.75s-4.29-3-4-6.2,2.91-5.8,5.44-5.17C65.25,246.38,67,249.47,66.66,252.41Z" />
                    <path id="_Path_108" data-name="&lt;Path&gt;"
                        d="M70.51,211.82c-.37,3.23-2.48,5.23-5.09,4.82s-4.33-3.13-4.08-6.21c.26-3.23,2.94-5.77,5.47-5.19S70.88,208.64,70.51,211.82Z" />
                    <path id="_Path_109" data-name="&lt;Path&gt;"
                        d="M227.8,85.64c2.48.26,4.38,3,4.21,6.13-.19,3.38-2.67,5.93-5.3,5.45-2.43-.44-4.21-3.35-3.93-6.45S225.31,85.38,227.8,85.64Z" />
                    <path id="_Path_110" data-name="&lt;Path&gt;"
                        d="M269.67,385.6c-.28,3.12-2.48,5.42-5,5.21s-4.61-3.4-4.19-6.73c.39-3.09,2.71-5.25,5.18-4.84S269.95,382.5,269.67,385.6Z" />
                    <path id="_Path_111" data-name="&lt;Path&gt;"
                        d="M111.3,135.73c-.36,3.1-2.64,5.28-5.13,4.89s-4.33-3.18-4.13-6.24c.23-3.31,2.74-5.68,5.45-5.11C110,129.79,111.67,132.6,111.3,135.73Z" />
                    <path id="_Path_112" data-name="&lt;Path&gt;"
                        d="M327.41,256.21c-2.52-.49-4.21-3.29-3.87-6.41s2.6-5.29,5.09-5c2.71.37,4.61,3.51,4.11,6.79C332.25,254.7,329.93,256.7,327.41,256.21Z" />
                    <path id="_Path_113" data-name="&lt;Path&gt;"
                        d="M72.95,309.24c2.44.34,4.19,3.21,3.85,6.33-.3,2.82-2.33,4.91-4.62,4.76s-4.39-3-4.21-6S70.58,308.91,72.95,309.24Z" />
                    <path id="_Path_114" data-name="&lt;Path&gt;"
                        d="M251.06,403.74c-.42,3-2.91,5.14-5.26,4.49-2.17-.59-3.81-3.4-3.57-6.1.27-3,2.63-5.2,5.1-4.76S251.49,400.64,251.06,403.74Z" />
                    <path id="_Path_115" data-name="&lt;Path&gt;"
                        d="M275,113.59c2.46.33,4.2,3.17,3.84,6.28-.33,2.85-2.31,4.91-4.61,4.8s-4.39-3.06-4.19-6S272.6,113.27,275,113.59Z" />
                    <path id="_Path_116" data-name="&lt;Path&gt;"
                        d="M316.9,192.65c-2.47-.54-4.08-3.52-3.54-6.53.5-2.73,2.73-4.69,4.94-4.33,2.39.39,4.23,3.45,3.84,6.38S319.42,193.2,316.9,192.65Z" />
                    <path id="_Path_117" data-name="&lt;Path&gt;"
                        d="M177.72,89.37c-2.41-.32-4.24-3.33-3.82-6.29.38-2.69,2.62-4.79,4.8-4.49,2.37.32,4.25,3.42,3.83,6.32C182.14,87.64,180,89.67,177.72,89.37Z" />
                    <path id="_Path_118" data-name="&lt;Path&gt;"
                        d="M120.07,383.69c-.28,3-2.57,5.12-5.11,4.66-2.32-.42-3.93-2.87-3.78-5.72.17-3.07,2.4-5.4,4.87-5.1S120.34,380.68,120.07,383.69Z" />
                    <path id="_Path_119" data-name="&lt;Path&gt;"
                        d="M142.94,104.71c-2.46-.37-4.26-3.25-3.9-6.22s2.67-5,5.19-4.49c2.31.49,3.87,3,3.66,5.82C147.66,102.89,145.44,105.09,142.94,104.71Z" />
                    <path id="_Path_120" data-name="&lt;Path&gt;"
                        d="M89,147.17c2.41.42,4.14,3.39,3.73,6.42s-2.72,5.11-5.2,4.51c-2.29-.55-3.77-3.08-3.5-6C84.3,149,86.53,146.74,89,147.17Z" />
                    <path id="_Path_121" data-name="&lt;Path&gt;"
                        d="M150.66,409.2c-.42,2.75-2.63,4.76-4.83,4.4-2.36-.39-4.19-3.52-3.73-6.4.42-2.66,2.72-4.74,4.87-4.41C149.36,403.17,151.12,406.22,150.66,409.2Z" />
                    <path id="_Path_122" data-name="&lt;Path&gt;"
                        d="M321.48,316.75c-2.37-.48-4.07-3.62-3.54-6.54.49-2.73,2.76-4.7,4.91-4.26,2.39.49,4.07,3.59,3.55,6.54C325.93,315.19,323.63,317.18,321.48,316.75Z" />
                    <path id="_Path_123" data-name="&lt;Path&gt;"
                        d="M244.11,88.65c2.37.27,4.13,2.7,4,5.56-.11,3-2.47,5.41-5,5-2.3-.4-4-3-3.73-5.87S241.77,88.38,244.11,88.65Z" />
                    <path id="_Path_124" data-name="&lt;Path&gt;"
                        d="M330.54,224.86c2.25.25,4,2.89,3.85,5.77-.18,3.18-2.48,5.53-4.92,5-2.26-.45-3.86-3.15-3.57-6S328.26,224.61,330.54,224.86Z" />
                    <path id="_Path_125" data-name="&lt;Path&gt;"
                        d="M306.09,350.44c-.47,3.09-2.79,5-5.28,4.31-2.26-.62-3.68-3.21-3.35-6.1.35-3.09,2.67-5.27,5.07-4.76S306.56,347.39,306.09,350.44Z" />
                    <path id="_Path_126" data-name="&lt;Path&gt;"
                        d="M211.58,423.46c-2.31-.23-4-2.75-3.88-5.67s2.07-5.16,4.4-5.09c2.49.07,4.43,2.9,4.14,6C216,421.6,213.91,423.69,211.58,423.46Z" />
                    <path id="_Path_127" data-name="&lt;Path&gt;"
                        d="M59.25,277.06c-2.3-.52-3.86-3.21-3.5-6.08.39-3.12,2.83-5.12,5.33-4.38,2.26.68,3.72,3.55,3.22,6.34S61.56,277.58,59.25,277.06Z" />
                    <path id="_Path_128" data-name="&lt;Path&gt;"
                        d="M67.24,196c-2.31-.5-3.91-3.22-3.56-6s2.52-4.85,4.82-4.5c2.49.38,4.32,3.46,3.79,6.41C71.8,194.65,69.52,196.5,67.24,196Z" />
                    <path id="_Path_129" data-name="&lt;Path&gt;"
                        d="M285.54,387.94c-.21,2.76-2.42,5-4.63,4.63-2-.31-3.67-2.76-3.6-5.28.08-2.89,2.07-5.09,4.39-4.86S285.76,385,285.54,387.94Z" />
                    <path id="_Path_130" data-name="&lt;Path&gt;"
                        d="M108.35,119.74c-2.31-.24-4-2.8-3.65-5.72.27-2.64,2.06-4.59,4.18-4.54s4.1,2.72,4,5.48S110.6,120,108.35,119.74Z" />
                    <path id="_Path_131" data-name="&lt;Path&gt;"
                        d="M294.94,122c-.15,2.59-2.1,4.65-4.23,4.47-2.3-.2-3.85-2.27-3.76-5,.1-3,2.17-5.24,4.45-4.89C293.4,116.84,295.09,119.44,294.94,122Z" />
                    <path id="_Path_132" data-name="&lt;Path&gt;"
                        d="M309.34,145c-.34,2.9-2.43,4.78-4.75,4.28-2.11-.46-3.55-2.78-3.37-5.42.2-2.91,2.21-5,4.54-4.63S309.68,142.13,309.34,145Z" />
                    <path id="_Path_133" data-name="&lt;Path&gt;"
                        d="M80.72,357.34c.18-2.71,2.39-5,4.59-4.71s3.87,3,3.57,5.84-2.07,4.52-4.22,4.35C82.31,362.62,80.53,360.15,80.72,357.34Z" />
                    <path id="_Path_134" data-name="&lt;Path&gt;"
                        d="M323.56,167.93c-.37,2.63-2.4,4.47-4.48,4.07s-3.64-3-3.42-5.53c.25-2.83,2.52-4.81,4.85-4.23C322.68,162.76,323.95,165.14,323.56,167.93Z" />
                    <path id="_Path_135" data-name="&lt;Path&gt;"
                        d="M134,406.22c-.18,2.52-2.16,4.63-4.25,4.52s-3.79-2.52-3.7-5.13c.11-3.07,2-5.1,4.45-4.73C132.7,401.22,134.21,403.53,134,406.22Z" />
                    <path id="_Path_136" data-name="&lt;Path&gt;"
                        d="M98.66,385.42C96.51,385,95,382.64,95.27,380c.26-2.85,2.58-5,4.79-4.38s3.42,3.1,3.05,5.77S100.85,385.81,98.66,385.42Z" />
                    <path id="_Path_137" data-name="&lt;Path&gt;"
                        d="M165.69,82.26c-.31,2.7-2.23,4.57-4.35,4.26s-3.7-2.86-3.53-5.41c.19-2.88,2.4-5,4.72-4.45S166,79.44,165.69,82.26Z" />
                    <path id="_Path_138" data-name="&lt;Path&gt;"
                        d="M74.43,335.8c-.32,2.63-2.27,4.47-4.42,4.17-2.38-.34-4-3-3.48-5.91.44-2.64,2.4-4.23,4.62-3.76S74.75,333.15,74.43,335.8Z" />
                    <path id="_Path_139" data-name="&lt;Path&gt;"
                        d="M303.69,370.4c-.31,2.68-2.24,4.57-4.36,4.26s-4-3.4-3.5-6,2.54-4.22,4.67-3.77S304,367.58,303.69,370.4Z" />
                    <path id="_Path_140" data-name="&lt;Path&gt;"
                        d="M73.86,171.34c-.36,2.66-2.35,4.49-4.46,4.11S65.75,172.5,66,170c.24-2.86,2.49-4.87,4.81-4.3C72.94,166.19,74.24,168.58,73.86,171.34Z" />
                    <path id="_Path_141" data-name="&lt;Path&gt;"
                        d="M267,406.19c-.42,2.6-2.48,4.39-4.58,4-2.34-.46-3.76-3.22-3.19-6.17.5-2.57,2.68-4.25,4.72-3.64S267.43,403.68,267,406.19Z" />
                    <path id="_Path_142" data-name="&lt;Path&gt;"
                        d="M232.34,421.17c-.25,2.58-2.21,4.49-4.37,4.25s-3.77-2.46-3.61-5.17c.17-3,2.25-5,4.59-4.58C231,416.09,232.59,418.6,232.34,421.17Z" />
                    <path id="_Path_143" data-name="&lt;Path&gt;"
                        d="M324.16,332.34c-.31,2.58-2.29,4.43-4.43,4.13-2.4-.34-3.95-3-3.45-5.88.45-2.64,2.41-4.25,4.6-3.77S324.46,329.74,324.16,332.34Z" />
                    <path id="_Path_144" data-name="&lt;Path&gt;"
                        d="M89.94,137.41c-2.12-.27-3.72-2.64-3.58-5.3s1.91-4.7,4.12-4.56c2.39.15,4.17,2.72,3.85,5.56C94,135.7,92,137.68,89.94,137.41Z" />
                    <path id="_Path_145" data-name="&lt;Path&gt;"
                        d="M336.07,210.84c-.35,2.61-2.31,4.4-4.47,4.07-2.39-.37-3.86-3-3.34-6,.47-2.68,2.37-4.21,4.61-3.69S336.42,208.22,336.07,210.84Z" />
                    <path id="_Path_146" data-name="&lt;Path&gt;"
                        d="M62,292.6c-.23,2.61-2.15,4.63-4.25,4.49s-4-3-3.59-5.85,2.21-4.38,4.46-4S62.26,289.85,62,292.6Z" />
                    <path id="_Path_147" data-name="&lt;Path&gt;"
                        d="M264.05,97.24c-.37,2.6-2.4,4.45-4.48,4.08-2.28-.4-3.8-3.25-3.26-6.12.5-2.68,2.42-4.15,4.67-3.6S264.44,94.52,264.05,97.24Z" />
                    <path id="_Path_148" data-name="&lt;Path&gt;"
                        d="M126.41,101.66c-2.22-.47-3.55-2.75-3.23-5.51.31-2.6,2.32-4.6,4.36-4.33,2.19.29,3.89,3.28,3.45,6S128.63,102.13,126.41,101.66Z" />
                    <path id="_Path_149" data-name="&lt;Path&gt;"
                        d="M181,434c-.25,2.51-2.43,4.53-4.43,4.11s-3.57-3.19-3.17-5.63c.36-2.2,2.33-4,4.15-3.86C179.53,428.82,181.25,431.5,181,434Z" />
                    <path id="_Path_150" data-name="&lt;Path&gt;"
                        d="M51.45,229.26c-.18,2.49-2.33,4.62-4.31,4.29-1.82-.3-3.35-2.57-3.32-4.9,0-2.51,2-4.76,4.07-4.66S51.63,226.75,51.45,229.26Z" />
                    <path id="_Path_151" data-name="&lt;Path&gt;"
                        d="M280.13,99.16c-.17,2.55-1.73,4.3-3.75,4.19-2.21-.12-3.78-2.44-3.48-5.15.28-2.49,2-4.1,4-3.82S280.29,96.62,280.13,99.16Z" />
                    <path id="_Path_152" data-name="&lt;Path&gt;"
                        d="M333.47,194.16c-2-.42-3.28-2.53-3-5s2-4.13,4-3.88c2.2.29,3.61,2.7,3.17,5.44C337.25,193.18,335.55,194.59,333.47,194.16Z" />
                    <path id="_Path_153" data-name="&lt;Path&gt;"
                        d="M216.73,69.24c-.27,2.66-2.18,4.47-4.31,4.09s-3.54-2.86-3.17-5.46c.34-2.39,2-4,4-3.79C215.46,64.31,217,66.6,216.73,69.24Z" />
                    <path id="_Path_154" data-name="&lt;Path&gt;"
                        d="M245.2,418.62c2,.34,3.38,2.48,3.14,4.95s-2,4.24-3.93,4.06c-2.11-.19-3.74-2.78-3.38-5.37C241.38,419.87,243.19,418.28,245.2,418.62Z" />
                    <path id="_Path_155" data-name="&lt;Path&gt;"
                        d="M71.48,154.65c-2-.35-3.41-2.57-3.15-5s2.08-4.27,3.94-4.11c2,.17,3.72,2.87,3.38,5.42C75.34,153.33,73.44,155,71.48,154.65Z" />
                    <path id="_Path_156" data-name="&lt;Path&gt;"
                        d="M149.11,79.52c-.2,2.4-1.94,4.27-3.88,4.17-2.1-.11-3.68-2.67-3.33-5.37.31-2.44,2.15-4.16,4.06-3.82S149.31,77.1,149.11,79.52Z" />
                    <path id="_Path_157" data-name="&lt;Path&gt;"
                        d="M346.25,273.92c-.28,2.63-2.21,4.4-4.34,4s-3.46-2.82-3-5.5c.37-2.42,2-4,4-3.71C345.06,269,346.54,271.28,346.25,273.92Z" />
                    <path id="_Path_158" data-name="&lt;Path&gt;"
                        d="M117.25,403.61c-.17,2.53-1.77,4.3-3.8,4.18s-3.54-2.17-3.5-4.59c0-2.63,2-4.83,4.11-4.56C115.89,398.88,117.4,401.23,117.25,403.61Z" />
                    <path id="_Path_159" data-name="&lt;Path&gt;"
                        d="M56.49,307.74c1.88.26,3.33,2.5,3.18,4.93s-1.75,4.27-3.79,4.1c-2.25-.18-3.81-2.52-3.46-5.17C52.74,309.24,54.6,307.48,56.49,307.74Z" />
                    <path id="_Path_160" data-name="&lt;Path&gt;"
                        d="M317.76,356.36c-2-.28-3.43-2.42-3.26-4.86s1.88-4.3,3.84-4.13c2.19.18,3.87,2.65,3.54,5.2C321.59,354.88,319.68,356.63,317.76,356.36Z" />
                    <path id="_Path_161" data-name="&lt;Path&gt;"
                        d="M298.06,385.46c1.89.13,3.42,2.3,3.31,4.73s-1.75,4.26-3.77,4.07-3.46-2.13-3.31-4.64S296.13,385.33,298.06,385.46Z" />
                    <path id="_Path_162" data-name="&lt;Path&gt;"
                        d="M196.32,70.61c-2-.2-3.39-2.24-3.21-4.75s1.78-4.27,3.79-4,3.44,2.36,3.3,4.75S198.23,70.8,196.32,70.61Z" />
                    <path id="_Path_163" data-name="&lt;Path&gt;"
                        d="M228.89,75.57c-1.92-.32-3.27-2.58-3-5s2-4.12,4-3.78,3.31,2.66,3.05,5S230.77,75.88,228.89,75.57Z" />
                    <path id="_Path_164" data-name="&lt;Path&gt;"
                        d="M348.12,253.45c-.15,2.28-2,4.22-3.9,4.05s-3.37-2.36-3.2-4.8,1.76-4.25,3.79-4S348.27,251.09,348.12,253.45Z" />
                    <path id="_Path_165" data-name="&lt;Path&gt;"
                        d="M282.94,408.17c-.2,2.53-1.84,4.15-3.89,3.84s-3.41-2.44-3.17-4.81,2.12-4.22,4-4S283.13,405.81,282.94,408.17Z" />
                    <path id="_Path_166" data-name="&lt;Path&gt;"
                        d="M67.77,359.64c-2-.48-3.12-2.7-2.71-5.21s2.18-4,4.16-3.43,3.21,3,2.81,5.23S69.67,360.11,67.77,359.64Z" />
                    <path id="_Path_167" data-name="&lt;Path&gt;"
                        d="M53.13,209c-.23,2.44-2,4.21-3.92,3.92S45.83,210.35,46,208s2.07-4.17,4-3.89S53.36,206.58,53.13,209Z" />
                    <path id="_Path_168" data-name="&lt;Path&gt;"
                        d="M340.08,298c-1.87-.28-3.32-2.62-3.1-5s2-4.13,4-3.82,3.36,2.43,3.11,4.88S342,298.31,340.08,298Z" />
                    <path id="_Path_169" data-name="&lt;Path&gt;"
                        d="M49.21,249.87c-.35,2.28-2.32,4-4.18,3.57s-3.18-2.72-2.82-5.16,2.26-4.06,4.11-3.61S49.55,247.63,49.21,249.87Z" />
                    <path id="_Path_170" data-name="&lt;Path&gt;"
                        d="M161.48,426.7c2,.44,3.19,2.68,2.79,5.15-.36,2.31-2.42,4-4.2,3.52s-3.19-3.07-2.84-5.27S159.48,426.25,161.48,426.7Z" />
                    <path id="_Path_171" data-name="&lt;Path&gt;"
                        d="M86.43,378.73c-.29,2.33-2.2,4.1-4.07,3.78s-3.24-2.65-3-5.06,2-4.06,4-3.68S86.72,376.34,86.43,378.73Z" />
                    <path id="_Path_172" data-name="&lt;Path&gt;"
                        d="M111.26,90c1.93.36,3.27,2.64,3,5s-2.13,4-4.08,3.69-3.27-2.64-3-5.05S109.32,89.65,111.26,90Z" />
                    <path id="_Path_173" data-name="&lt;Path&gt;"
                        d="M91.89,116.49c-2-.33-3.38-2.56-3.14-4.89s2.13-4.15,4-3.89,3.29,2.51,3.06,5S93.9,116.83,91.89,116.49Z" />
                    <path id="_Path_174" data-name="&lt;Path&gt;"
                        d="M307.67,119.64c2,.26,3.34,2.44,3.12,4.89s-2,4.19-3.91,3.9-3.38-2.56-3.17-4.88S305.77,119.39,307.67,119.64Z" />
                    <path id="_Path_175" data-name="&lt;Path&gt;"
                        d="M197.1,436.45c-.26,2.46-2,4.08-4,3.73s-3.36-2.56-3.06-4.93,2.19-4.13,4-3.82S197.35,434.1,197.1,436.45Z" />
                    <path id="_Path_176" data-name="&lt;Path&gt;"
                        d="M321.17,151c-2-.35-3.28-2.44-2.95-5,.31-2.36,2.23-4.16,4-3.77s3.26,2.86,3,5.1S323.15,151.37,321.17,151Z" />
                    <path id="_Path_177" data-name="&lt;Path&gt;"
                        d="M132.46,77.12c-.19,2-1.89,3.73-3.55,3.66-1.88-.09-3.43-2.37-3.19-4.7.22-2.15,1.75-3.72,3.52-3.61S132.68,74.79,132.46,77.12Z" />
                    <path id="_Path_178" data-name="&lt;Path&gt;"
                        d="M339.42,170.15c-.25,2.06-1.93,3.7-3.62,3.54-1.91-.18-3.34-2.45-3-4.83.27-2.09,1.9-3.72,3.59-3.58S339.7,167.87,339.42,170.15Z" />
                    <path id="_Path_179" data-name="&lt;Path&gt;"
                        d="M144.78,424.27c1.71.22,3,2.25,2.91,4.48s-1.62,4-3.39,3.93-3.47-2.42-3.17-4.82C141.4,425.69,143.06,424.05,144.78,424.27Z" />
                    <path id="_Path_180" data-name="&lt;Path&gt;"
                        d="M341.8,314.59c-.31,2.09-2,3.64-3.67,3.4-1.83-.26-3.3-2.75-2.94-5s2-3.58,3.72-3.34C340.86,310,342.17,312.17,341.8,314.59Z" />
                    <path id="_Path_181" data-name="&lt;Path&gt;"
                        d="M316.39,367.94c1.86.12,3.42,2.46,3.18,4.76-.22,2-1.92,3.76-3.57,3.67-1.84-.1-3.38-2.45-3.14-4.78C313.07,369.51,314.69,367.83,316.39,367.94Z" />
                    <path id="_Path_182" data-name="&lt;Path&gt;"
                        d="M51,192.25c-1.77-.42-3-2.49-2.67-4.66S50.2,184,52,184.27c2,.33,3.38,2.71,2.9,5C54.5,191.37,52.75,192.68,51,192.25Z" />
                    <path id="_Path_183" data-name="&lt;Path&gt;"
                        d="M179.58,67.84c-1.77-.43-2.93-2.48-2.67-4.71.29-2.43,2.32-4.1,4.17-3.44,1.7.6,2.76,2.85,2.36,5S181.34,68.26,179.58,67.84Z" />
                    <path id="_Path_184" data-name="&lt;Path&gt;"
                        d="M349.75,233.32c-.23,2.19-1.83,3.82-3.59,3.65-1.92-.19-3.29-2.56-2.89-5,.36-2.22,2-3.64,3.78-3.26S350,231.07,349.75,233.32Z" />
                    <path id="_Path_185" data-name="&lt;Path&gt;"
                        d="M100.56,401.58c-.33,2.15-2,3.59-3.81,3.25s-3.06-2.43-2.87-4.53c.22-2.39,2.13-4,4.13-3.47C99.81,397.32,100.9,399.34,100.56,401.58Z" />
                    <path id="_Path_186" data-name="&lt;Path&gt;"
                        d="M296.24,101.78c-.18,2.14-1.71,3.76-3.47,3.68s-3.48-2.37-3.26-4.63c.19-2,1.83-3.74,3.51-3.64C295,97.3,296.45,99.35,296.24,101.78Z" />
                    <path id="_Path_187" data-name="&lt;Path&gt;"
                        d="M213.15,439.1c-.31,2.28-1.87,3.69-3.69,3.36s-3-2.28-2.77-4.55,2.22-4.24,4-3.7S213.45,436.88,213.15,439.1Z" />
                    <path id="_Path_188" data-name="&lt;Path&gt;"
                        d="M43.42,273.38c-1.9-.2-3.18-1.94-3.1-4.21s1.52-4,3.35-3.9c2.05.05,3.59,2.13,3.38,4.56C46.86,272,45.22,273.57,43.42,273.38Z" />
                    <path id="_Path_189" data-name="&lt;Path&gt;"
                        d="M53.77,336.69c-1.84-.22-3.09-2.05-3-4.34.15-2.55,1.92-4.33,3.86-3.89,1.73.39,2.92,2.47,2.69,4.67S55.58,336.91,53.77,336.69Z" />
                    <path id="_Path_190" data-name="&lt;Path&gt;"
                        d="M245.49,77.69c-1.87-.2-3.16-2-3.09-4.22.07-2.46,1.85-4.25,3.85-3.88,1.75.32,3,2.37,2.83,4.52S247.27,77.89,245.49,77.69Z" />
                    <path id="_Path_191" data-name="&lt;Path&gt;"
                        d="M66.82,371.62c1.64.2,3,2.42,2.75,4.53-.21,1.85-1.68,3.4-3.2,3.37s-3.17-2.13-3.06-4.21S65.15,371.42,66.82,371.62Z" />
                    <path id="_Path_192" data-name="&lt;Path&gt;"
                        d="M77.21,130.57c-.28,2.33-1.69,3.68-3.58,3.43s-3.29-2.44-2.87-4.94c.36-2.14,2-3.51,3.83-3.1S77.48,128.28,77.21,130.57Z" />
                    <path id="_Path_193" data-name="&lt;Path&gt;"
                        d="M44.82,290c-.16,2.13-1.83,3.77-3.56,3.47-1.53-.26-2.76-2-2.75-3.91,0-2.1,1.62-3.91,3.34-3.76C43.73,285.93,45,287.71,44.82,290Z" />
                    <path id="_Path_194" data-name="&lt;Path&gt;"
                        d="M262.72,72.33c1.76.42,2.81,2.5,2.38,4.72-.37,1.94-1.84,3.22-3.38,3s-3-2.52-2.77-4.53S261,71.92,262.72,72.33Z" />
                    <path id="_Path_195" data-name="&lt;Path&gt;"
                        d="M324.19,122.79c1.79.37,2.93,2.41,2.55,4.55s-2.19,3.5-3.84,3c-1.47-.45-2.47-2.33-2.28-4.27C320.84,123.81,322.36,122.41,324.19,122.79Z" />
                    <path id="_Path_196" data-name="&lt;Path&gt;"
                        d="M94.13,95.87c-1.66-.1-3.06-2.19-2.91-4.34.14-1.94,1.48-3.44,3.07-3.42A3.59,3.59,0,0,1,97.52,92C97.47,94.08,95.79,96,94.13,95.87Z" />
                    <path id="_Path_197" data-name="&lt;Path&gt;"
                        d="M299,410.8c-.28,2.08-2.09,3.68-3.72,3.29s-2.78-2.55-2.42-4.75c.32-1.93,1.75-3.19,3.35-3C297.95,406.64,299.25,408.7,299,410.8Z" />
                    <path id="_Path_198" data-name="&lt;Path&gt;"
                        d="M166.87,61.7c-.21,2.26-1.76,3.76-3.52,3.39s-2.94-2.42-2.61-4.55,1.63-3.21,3.28-3.06C165.88,57.66,167.08,59.43,166.87,61.7Z" />
                    <path id="_Path_199" data-name="&lt;Path&gt;"
                        d="M264.32,426c-.24,2.3-1.66,3.7-3.54,3.48s-3.11-2-3-4.23c.14-2.54,1.83-4.19,3.84-3.76C263.5,421.91,264.57,423.71,264.32,426Z" />
                    <path id="_Path_200" data-name="&lt;Path&gt;"
                        d="M54.22,164.24c1.72.4,2.78,2.51,2.36,4.7-.37,1.95-1.77,3.13-3.38,2.85-1.78-.31-3-2.29-2.7-4.42S52.47,163.83,54.22,164.24Z" />
                    <path id="_Path_201" data-name="&lt;Path&gt;"
                        d="M348,216.26c-1.79-.36-2.88-2.38-2.49-4.6.34-1.93,1.81-3.31,3.32-3.11s3,2.38,2.86,4.45S349.71,216.62,348,216.26Z" />
                    <path id="_Path_202" data-name="&lt;Path&gt;"
                        d="M226.86,436.94c1.72.39,2.85,2.52,2.48,4.69s-2.2,3.55-3.82,3-2.51-2.44-2.31-4.33C223.46,438.19,225.21,436.57,226.86,436.94Z" />
                    <path id="_Path_203" data-name="&lt;Path&gt;"
                        d="M336.39,337.85c-1.87-.15-3.11-1.94-2.91-4.17s1.8-3.79,3.5-3.49c1.49.26,2.67,2,2.68,3.92C339.67,336.3,338.19,338,336.39,337.85Z" />
                    <path id="_Path_204" data-name="&lt;Path&gt;"
                        d="M58.51,148.07c-.14,2-1.57,3.47-3.17,3.3s-2.8-2-2.67-4,1.65-3.48,3.19-3.32S58.65,146.11,58.51,148.07Z" />
                    <path id="_Path_205" data-name="&lt;Path&gt;"
                        d="M112.52,77.85c-1.58-.15-2.89-1.86-2.9-3.78,0-2.17,1.65-3.9,3.48-3.62,1.59.25,2.74,2,2.56,4S114.12,78,112.52,77.85Z" />
                    <path id="_Path_206" data-name="&lt;Path&gt;"
                        d="M128.49,422.25c1.78.33,3,2.35,2.6,4.5s-2.15,3.59-3.76,3.13c-1.44-.41-2.49-2.32-2.34-4.23C125.17,423.38,126.67,421.92,128.49,422.25Z" />
                    <path id="_Path_207" data-name="&lt;Path&gt;"
                        d="M81.25,394.53c1.7.3,3,2.61,2.62,4.66a3.06,3.06,0,0,1-3.55,2.7c-1.64-.39-2.61-2.13-2.33-4.19S79.7,394.26,81.25,394.53Z" />
                    <path id="_Path_208" data-name="&lt;Path&gt;"
                        d="M280.5,428.22c-.11,2.11-1.78,3.8-3.47,3.51-1.53-.25-2.65-2-2.55-3.95s1.34-3.52,2.91-3.51C279.23,424.3,280.61,426.05,280.5,428.22Z" />
                    <path id="_Path_209" data-name="&lt;Path&gt;"
                        d="M76.58,106.1A3.76,3.76,0,0,1,79,110.3c-.31,2.16-2.19,3.65-3.85,3.05-1.5-.54-2.41-2.55-2-4.52S74.92,105.68,76.58,106.1Z" />
                    <path id="_Path_210" data-name="&lt;Path&gt;"
                        d="M337.44,354.56c-.09,2.06-1.4,3.47-3.08,3.32a3.43,3.43,0,0,1-2.76-3.79c.11-1.86,1.61-3.49,3.14-3.43S337.53,352.62,337.44,354.56Z" />
                    <path id="_Path_211" data-name="&lt;Path&gt;"
                        d="M313.81,396.12c-1.52-.24-2.73-2-2.65-3.91.09-2.11,1.76-3.85,3.44-3.58s3,2.57,2.61,4.55C316.89,395,315.3,396.35,313.81,396.12Z" />
                    <path id="_Path_212" data-name="&lt;Path&gt;"
                        d="M55,353.49c-.28,2-1.79,3.39-3.31,3.15-1.7-.27-3-2.63-2.59-4.69a3,3,0,0,1,3.57-2.66C54.37,349.69,55.32,351.4,55,353.49Z" />
                    <path id="_Path_213" data-name="&lt;Path&gt;"
                        d="M111.92,419.95c1.57.18,2.82,2,2.69,3.91s-1.68,3.46-3.2,3.33-2.76-2-2.63-4S110.27,419.76,111.92,419.95Z" />
                    <path id="_Path_214" data-name="&lt;Path&gt;"
                        d="M150.3,59.41c-.28,2-1.75,3.29-3.37,2.94s-2.68-2.33-2.39-4.2,1.93-3.3,3.43-3S150.58,57.42,150.3,59.41Z" />
                    <path id="_Path_215" data-name="&lt;Path&gt;"
                        d="M245.58,444c-.29,2-1.78,3.2-3.43,2.81a3.55,3.55,0,0,1-2.33-4.19c.31-1.89,2-3.31,3.43-2.92S245.86,442.12,245.58,444Z" />
                    <path id="_Path_216" data-name="&lt;Path&gt;"
                        d="M312.28,104.41c-.29,1.92-1.81,3.29-3.37,3-1.8-.27-2.95-2.41-2.5-4.64.39-2,1.94-3.14,3.53-2.7S312.56,102.54,312.28,104.41Z" />
                    <path id="_Path_217" data-name="&lt;Path&gt;"
                        d="M40.17,306.28c1.54.31,2.7,2.29,2.45,4.16s-1.86,3.33-3.37,3-2.63-2.13-2.37-4.18S38.55,305.95,40.17,306.28Z" />
                    <path id="_Path_218" data-name="&lt;Path&gt;"
                        d="M337.53,153c-1.54-.35-2.66-2.25-2.47-4.18.22-2.21,2-3.64,3.75-3.09,1.6.5,2.52,2.35,2.17,4.38S339.08,153.32,337.53,153Z" />
                    <path id="_Path_219" data-name="&lt;Path&gt;"
                        d="M278.63,75c1.68.12,2.81,1.66,2.72,3.7s-1.3,3.48-3,3.36a3.31,3.31,0,0,1-2.78-3.68C275.69,76.39,277,74.9,278.63,75Z" />
                    <path id="_Path_220" data-name="&lt;Path&gt;"
                        d="M98,421.28c-.11,1.92-1.65,3.47-3.13,3.15a3.48,3.48,0,0,1-2.29-3.57c.07-1.86,1.64-3.42,3.14-3.14C97,418,98.06,419.64,98,421.28Z" />
                    <path id="_Path_221" data-name="&lt;Path&gt;"
                        d="M350.24,195.74c-1.66-.17-2.74-1.75-2.58-3.8s1.45-3.48,3-3.32,2.7,1.89,2.57,3.86S351.89,195.92,350.24,195.74Z" />
                    <path id="_Path_222" data-name="&lt;Path&gt;"
                        d="M130.53,59.6c-1.35-.32-2.34-2.05-2.16-3.76a2.83,2.83,0,0,1,3-2.73c1.66.23,2.78,2.17,2.35,4.07C133.3,58.89,131.94,59.94,130.53,59.6Z" />
                    <path id="_Path_223" data-name="&lt;Path&gt;"
                        d="M294.08,427.15c1.43.15,2.48,1.64,2.45,3.45s-1.27,3.17-2.69,3.12a3.22,3.22,0,0,1-2.73-3.77A3,3,0,0,1,294.08,427.15Z" />
                    <path id="_Path_224" data-name="&lt;Path&gt;"
                        d="M261.79,446.19c-.17,1.61-1.48,3-2.8,3s-2.8-2-2.64-3.84c.14-1.56,1.52-3,2.81-3C260.64,442.39,262,444.35,261.79,446.19Z" />
                    <path id="_Path_225" data-name="&lt;Path&gt;"
                        d="M58.15,124.18a3.51,3.51,0,0,1,2.13,3.7c-.2,1.88-1.84,3.37-3.26,3s-2.5-2.61-2.05-4.34C55.37,125,56.9,123.84,58.15,124.18Z" />
                    <path id="_Path_226" data-name="&lt;Path&gt;"
                        d="M78.06,86c1.37,0,2.53,1.57,2.55,3.34,0,2-1.47,3.65-3,3.41-1.4-.22-2.41-1.85-2.26-3.64S76.63,86,78.06,86Z" />
                    <path id="_Path_227" data-name="&lt;Path&gt;"
                        d="M342.61,130a2.61,2.61,0,0,1-3.27,2.12,3.48,3.48,0,0,1-1.95-3.89c.4-2,2-3,3.61-2.34A3.61,3.61,0,0,1,342.61,130Z" />
                    <path id="_Path_228" data-name="&lt;Path&gt;"
                        d="M326.29,103c1.36.4,2.17,2.05,1.92,3.91s-1.6,3-3,2.71c-1.56-.31-2.63-2.42-2.16-4.3C323.5,103.59,324.93,102.56,326.29,103Z" />
                    <path id="_Path_229" data-name="&lt;Path&gt;"
                        d="M37.21,333.47c-1.49-.39-2.6-2.58-2.17-4.27s1.89-2.73,3.14-2.44c1.48.35,2.57,2.5,2.17,4.27C40,332.56,38.42,333.79,37.21,333.47Z" />
                    <path id="_Path_230" data-name="&lt;Path&gt;"
                        d="M295.1,77.84a3,3,0,0,1,2.43,3.34c-.12,2.07-1.51,3.49-3.09,3.18-1.36-.27-2.29-1.87-2.15-3.68S293.65,77.67,295.1,77.84Z" />
                    <path id="_Path_231" data-name="&lt;Path&gt;"
                        d="M359.2,272.62a3.13,3.13,0,0,1,2.27,3.55c-.18,1.64-1.56,3-2.88,2.87s-2.34-1.87-2.2-3.62S357.77,272.37,359.2,272.62Z" />
                    <path id="_Path_232" data-name="&lt;Path&gt;"
                        d="M312.8,409.52c1.39.34,2.24,2,2,3.76s-1.55,2.91-3,2.63c-1.63-.32-2.61-2.21-2.17-4.16A2.6,2.6,0,0,1,312.8,409.52Z" />
                    <path id="_Path_233" data-name="&lt;Path&gt;"
                        d="M215.13,45.32a3,3,0,0,1,2.43,3.34c-.14,1.71-1.41,3.08-2.77,3s-2.48-1.7-2.42-3.44A2.81,2.81,0,0,1,215.13,45.32Z" />
                    <path id="_Path_234" data-name="&lt;Path&gt;"
                        d="M52.73,373.72a2.74,2.74,0,0,1-3,2.6,3.14,3.14,0,0,1-2.23-3.56c.22-2.07,1.7-3.37,3.26-2.87A3.37,3.37,0,0,1,52.73,373.72Z" />
                    <path id="_Path_235" data-name="&lt;Path&gt;"
                        d="M335.22,374.74c-.08,1.78-1.17,3.13-2.59,3.19-1.6.07-2.84-1.63-2.67-3.69.14-1.75,1.4-3,2.81-2.85A3.05,3.05,0,0,1,335.22,374.74Z" />
                    <path id="_Path_236" data-name="&lt;Path&gt;"
                        d="M175.7,450.54a3.41,3.41,0,0,1,2.06,3.77c-.31,1.65-1.73,2.84-3.06,2.56s-2.26-2.08-2-3.8S174.37,450.18,175.7,450.54Z" />
                    <path id="_Path_237" data-name="&lt;Path&gt;"
                        d="M352.86,168.78a3.22,3.22,0,0,1,2.26,3.56c-.19,2-1.67,3.27-3.29,2.82-1.38-.38-2.2-2-1.94-3.81S351.42,168.48,352.86,168.78Z" />
                    <path id="_Path_238" data-name="&lt;Path&gt;"
                        d="M201.08,46.33c-.17,1.66-1.55,2.94-2.91,2.68s-2.26-2-2-3.71a2.57,2.57,0,0,1,2.55-2.41C200.16,43,201.25,44.65,201.08,46.33Z" />
                    <path id="_Path_239" data-name="&lt;Path&gt;"
                        d="M93.71,71.37c.17-1.83,1.33-3.13,2.71-3,1.62.11,2.79,1.88,2.55,3.86a2.79,2.79,0,0,1-3,2.67A3.08,3.08,0,0,1,93.71,71.37Z" />
                    <path id="_Path_240" data-name="&lt;Path&gt;"
                        d="M64.91,392.63a3.18,3.18,0,0,1,2.23,3.58c-.15,1.76-1.37,3-2.8,2.87-1.68-.16-2.77-1.91-2.44-3.9C62.19,393.43,63.45,392.36,64.91,392.63Z" />
                    <path id="_Path_241" data-name="&lt;Path&gt;"
                        d="M310.87,86.55c-1.38-.27-2.3-2-2-3.68a2.59,2.59,0,0,1,2.56-2.37,3,3,0,0,1,2.33,3.38C313.59,85.57,312.25,86.82,310.87,86.55Z" />
                    <path id="_Path_242" data-name="&lt;Path&gt;"
                        d="M330.67,391.91a2.79,2.79,0,0,1,2.34,3.28c-.16,1.67-1.54,3-2.82,2.77a3.24,3.24,0,0,1-2.1-3.06A2.66,2.66,0,0,1,330.67,391.91Z" />
                    <path id="_Path_243" data-name="&lt;Path&gt;"
                        d="M35.67,206.18c-.09,1.78-1.29,3.16-2.62,3s-2.41-1.86-2.29-3.48a2.66,2.66,0,0,1,2.41-2.57C34.7,203.11,35.76,204.41,35.67,206.18Z" />
                    <path id="_Path_244" data-name="&lt;Path&gt;"
                        d="M31.45,223.21a3,3,0,0,1,2.36,3.39c-.17,1.8-1.38,3.12-2.74,3s-2.46-1.77-2.39-3.47A2.86,2.86,0,0,1,31.45,223.21Z" />
                    <path id="_Path_245" data-name="&lt;Path&gt;"
                        d="M31.76,247.08c-.26,1.72-1.73,2.91-3.08,2.49a3.2,3.2,0,0,1-1.76-3.42c.19-1.84,1.49-2.88,3-2.4A3,3,0,0,1,31.76,247.08Z" />
                    <path id="_Path_246" data-name="&lt;Path&gt;"
                        d="M359.34,296.35c-.15,1.64-1.52,3-2.81,2.75s-2.31-2-2.06-3.64a2.53,2.53,0,0,1,2.53-2.38A2.82,2.82,0,0,1,359.34,296.35Z" />
                    <path id="_Path_247" data-name="&lt;Path&gt;"
                        d="M29.68,267.12a2.78,2.78,0,0,1-2.46,2.67c-1.39,0-2.47-1.72-2.21-3.48.24-1.57,1.32-2.52,2.61-2.29A2.9,2.9,0,0,1,29.68,267.12Z" />
                    <path id="_Path_248" data-name="&lt;Path&gt;"
                        d="M360.91,252.57a2.86,2.86,0,0,1,2.46,3.3,2.89,2.89,0,0,1-2.5,2.68c-1.37.06-2.53-1.58-2.38-3.37C358.6,253.58,359.61,252.49,360.91,252.57Z" />
                    <path id="_Path_249" data-name="&lt;Path&gt;"
                        d="M233.8,51c-.08,1.77-1.38,3.13-2.79,2.91-1.17-.18-2.1-1.59-2.05-3.12s1-2.84,2.22-2.88A2.77,2.77,0,0,1,233.8,51Z" />
                    <path id="_Path_250" data-name="&lt;Path&gt;"
                        d="M38.18,350.8a2.58,2.58,0,0,1-2.53,2.51c-1.52-.07-2.54-1.56-2.3-3.37.2-1.55,1.29-2.68,2.48-2.59C37.27,347.45,38.35,349,38.18,350.8Z" />
                    <path id="_Path_251" data-name="&lt;Path&gt;"
                        d="M278,448.57a2.66,2.66,0,0,1-2.87,2.6,2.72,2.72,0,0,1-2-3c.08-1.81,1.25-3.2,2.57-3.06S278.08,446.92,278,448.57Z" />
                    <path id="_Path_252" data-name="&lt;Path&gt;"
                        d="M78.56,421.69c-1.29-.25-2.31-2-2.11-3.63a2.54,2.54,0,0,1,3-2.37,2.79,2.79,0,0,1,1.85,3.15C81.13,420.58,79.83,421.93,78.56,421.69Z" />
                    <path id="_Path_253" data-name="&lt;Path&gt;"
                        d="M194,456.94a2.45,2.45,0,0,1-3.17,2,2.91,2.91,0,0,1-1.62-3.34c.26-1.69,1.71-2.92,2.92-2.5A3.47,3.47,0,0,1,194,456.94Z" />
                    <path id="_Path_254" data-name="&lt;Path&gt;"
                        d="M354.22,154.8c-1.31-.11-2.37-1.81-2.19-3.51a2.64,2.64,0,0,1,2.4-2.59,2.83,2.83,0,0,1,2.49,3.15C356.84,153.52,355.56,154.92,354.22,154.8Z" />
                    <path id="_Path_255" data-name="&lt;Path&gt;"
                        d="M156.44,450.74a2.45,2.45,0,0,1,2.42-2.49,2.76,2.76,0,0,1,2.43,3.18c-.14,1.66-1.47,3.07-2.75,2.92S156.26,452.43,156.44,450.74Z" />
                    <path id="_Path_256" data-name="&lt;Path&gt;"
                        d="M115.1,50.81c1.32.29,2.33,2.09,2.06,3.66a2.6,2.6,0,0,1-3.06,2.35,3,3,0,0,1-1.79-3.27C112.47,51.77,113.75,50.51,115.1,50.81Z" />
                    <path id="_Path_257" data-name="&lt;Path&gt;"
                        d="M60.11,104.36A2.8,2.8,0,0,1,62,107.61c-.19,1.76-1.59,3-2.95,2.58a3.27,3.27,0,0,1-1.94-3.32A2.58,2.58,0,0,1,60.11,104.36Z" />
                    <path id="_Path_258" data-name="&lt;Path&gt;"
                        d="M365.15,235.38c-.09,1.63-1,2.75-2.28,2.74-1.46,0-2.52-1.55-2.31-3.34a2.4,2.4,0,0,1,2.53-2.38A2.61,2.61,0,0,1,365.15,235.38Z" />
                    <path id="_Path_259" data-name="&lt;Path&gt;"
                        d="M35.16,188.76c-1.16,0-2.22-1.4-2.27-2.9a2.67,2.67,0,0,1,2.19-2.92,2.69,2.69,0,0,1,2.55,3.14A2.8,2.8,0,0,1,35.16,188.76Z" />
                    <path id="_Path_260" data-name="&lt;Path&gt;"
                        d="M357.21,316.56c-.12,1.58-1.15,2.68-2.4,2.58a2.83,2.83,0,0,1-2.25-3.43,2.5,2.5,0,0,1,2.67-2.24A2.67,2.67,0,0,1,357.21,316.56Z" />
                    <path id="_Path_261" data-name="&lt;Path&gt;"
                        d="M207.85,461.52c-1.31-.06-2.23-1.26-2.2-2.87a2.86,2.86,0,0,1,2.17-3c1.31-.16,2.62,1.55,2.51,3.29A2.66,2.66,0,0,1,207.85,461.52Z" />
                    <path id="_Path_262" data-name="&lt;Path&gt;"
                        d="M248.23,50.53a3,3,0,0,1,1.8,3.29c-.21,1.77-1.58,2.78-3,2.23a2.87,2.87,0,0,1-1.47-3.46C245.85,51.09,247,50.2,248.23,50.53Z" />
                    <path id="_Path_263" data-name="&lt;Path&gt;"
                        d="M184.48,43.72a2.31,2.31,0,1,1-4.53-.17c0-1.83,1.24-3.23,2.59-3C183.66,40.77,184.57,42.25,184.48,43.72Z" />
                    <path id="_Path_264" data-name="&lt;Path&gt;"
                        d="M144.73,449.38a2.56,2.56,0,0,1-2.7,2.26c-1.38-.27-2.21-2.1-1.75-3.87.39-1.5,1.63-2.32,2.82-1.86A3.18,3.18,0,0,1,144.73,449.38Z" />
                    <path id="_Path_265" data-name="&lt;Path&gt;"
                        d="M226.56,461.27c-.08,1.47-1.23,2.75-2.4,2.65s-2.14-1.5-2-3,1.17-2.73,2.37-2.64S226.64,459.77,226.56,461.27Z" />
                    <path id="_Path_266" data-name="&lt;Path&gt;"
                        d="M27.6,287.28a2.51,2.51,0,0,1-2.42,2.57A2.7,2.7,0,0,1,23,286.92a2.51,2.51,0,0,1,2.42-2.56A2.75,2.75,0,0,1,27.6,287.28Z" />
                    <path id="_Path_267" data-name="&lt;Path&gt;"
                        d="M264,58.63a2.56,2.56,0,0,1-2-2.93,2.49,2.49,0,0,1,2.3-2.63c1.14,0,2.12,1.45,2,2.94S265.13,58.73,264,58.63Z" />
                    <path id="_Path_268" data-name="&lt;Path&gt;"
                        d="M128.22,446.43c-.07,1.54-1.11,2.73-2.3,2.63a2.89,2.89,0,0,1,.27-5.6C127.32,443.5,128.29,444.92,128.22,446.43Z" />
                    <path id="_Path_269" data-name="&lt;Path&gt;"
                        d="M39.44,166.08a2.39,2.39,0,0,1-2.65,2.19A2.85,2.85,0,0,1,35,165c.26-1.54,1.38-2.46,2.63-2.17A2.81,2.81,0,0,1,39.44,166.08Z" />
                    <path id="_Path_270" data-name="&lt;Path&gt;"
                        d="M367.05,215.26a2.29,2.29,0,0,1-2.44,2.39,2.71,2.71,0,0,1-2-3,2.39,2.39,0,0,1,2.46-2.39C366.38,212.46,367.16,213.67,367.05,215.26Z" />
                    <path id="_Path_271" data-name="&lt;Path&gt;"
                        d="M151.37,39.72c-.54.33-1.34,1.17-2.17,1.24-1.27.11-2.07-1.52-1.75-3.05.28-1.31,1.19-2.09,2.26-1.93C151,36.17,151.75,37.58,151.37,39.72Z" />
                    <path id="_Path_272" data-name="&lt;Path&gt;"
                        d="M168,41c0,1.58-1,2.75-2.29,2.67s-2.14-1.37-2-3a2.37,2.37,0,0,1,2-2.38A2.46,2.46,0,0,1,168,41Z" />
                    <path id="_Path_273" data-name="&lt;Path&gt;"
                        d="M25.46,307.83a2.14,2.14,0,0,1-2.6,2,2.44,2.44,0,0,1-1.65-2.65c.09-1.51,1.22-2.67,2.37-2.46A2.71,2.71,0,0,1,25.46,307.83Z" />
                    <path id="_Path_274" data-name="&lt;Path&gt;"
                        d="M366.56,197.26a2.7,2.7,0,0,1-1.84-3.09c.28-1.45,1.51-2.41,2.64-2a2.62,2.62,0,0,1,1.62,2.74A2.33,2.33,0,0,1,366.56,197.26Z" />
                    <path id="_Path_275" data-name="&lt;Path&gt;"
                        d="M280.64,55.59c1.09,0,2.06,1.59,1.9,3.05-.11,1.1-1.16,2.34-2,2.38-1.11,0-2.2-1.36-2.16-2.79A2.48,2.48,0,0,1,280.64,55.59Z" />
                    <path id="_Path_276" data-name="&lt;Path&gt;"
                        d="M355.06,336.72c-.08,1.58-1.12,2.63-2.41,2.42a2.43,2.43,0,0,1-1.9-2.49c0-1.54,1-2.84,2.2-2.79S355.14,335.12,355.06,336.72Z" />
                    <path id="_Path_277" data-name="&lt;Path&gt;"
                        d="M109.42,446.37c-1.25-.2-2-1.59-1.77-3.17a2,2,0,0,1,2.26-1.89,2.32,2.32,0,0,1,1.84,2.5C111.71,445.4,110.65,446.57,109.42,446.37Z" />
                    <path id="_Path_278" data-name="&lt;Path&gt;"
                        d="M241.11,466.1a2.49,2.49,0,0,1-2.47-3c.25-1.37,1-2.17,2.12-2.2a2.26,2.26,0,0,1,1.88,3A6.91,6.91,0,0,1,241.11,466.1Z" />
                    <path id="_Path_279" data-name="&lt;Path&gt;"
                        d="M351.72,354.35a7.93,7.93,0,0,1,1.19,2.54,2,2,0,0,1-2.31,2.42,2.41,2.41,0,0,1-1.77-2.59A2.31,2.31,0,0,1,351.72,354.35Z" />
                    <path id="_Path_280" data-name="&lt;Path&gt;"
                        d="M38.68,147.77a7,7,0,0,1-1.47-2.32,2.36,2.36,0,0,1,2.09-2.84c1.23,0,2.1,1.36,1.95,3A2.2,2.2,0,0,1,38.68,147.77Z" />
                    <path id="_Path_281" data-name="&lt;Path&gt;"
                        d="M17,201.39c.53,1,1.13,1.58,1.1,2.14A2.41,2.41,0,0,1,17,205.18c-.68.37-1.73-.91-1.47-1.78A8.47,8.47,0,0,1,17,201.39Z" />
                    <path id="_Path_282" data-name="&lt;Path&gt;"
                        d="M175.21,473.93c-1,.77-1.51,1.52-2,1.45a2.08,2.08,0,0,1-1.24-1.47c-.15-.89.45-1.63,1.23-1.45C173.77,472.59,174.24,473.19,175.21,473.93Z" />
                    <path id="_Path_283" data-name="&lt;Path&gt;"
                        d="M191.45,477.15a7.25,7.25,0,0,1-2.2.69,1.22,1.22,0,0,1-.85-1.81c.25-.57,1.06-1.17,1.51-1.07S190.71,476,191.45,477.15Z" />
                    <path id="_Path_284" data-name="&lt;Path&gt;"
                        d="M375.45,257.7c.95-.61,1.55-1.32,2-1.18s.76,1.09,1.12,1.69c-.49.43-1,1.17-1.47,1.18S376.22,258.54,375.45,257.7Z" />
                    <path id="_Path_285" data-name="&lt;Path&gt;"
                        d="M12.61,246.53c-.45-1.22-1-2-.87-2.57s.88-1,1.37-1.44c.37.63,1,1.27,1,1.87S13.38,245.52,12.61,246.53Z" />
                    <path id="_Path_286" data-name="&lt;Path&gt;"
                        d="M377,279.39c-1.13.07-1.81.33-2.34.1a1.32,1.32,0,0,1-.42-2,1.6,1.6,0,0,1,1.68-.45C376.32,277.24,376.48,278.22,377,279.39Z" />
                    <path id="_Path_287" data-name="&lt;Path&gt;"
                        d="M16.56,224.28c-.79.55-1.27,1.14-1.8,1.2-.79.09-1.43-1.3-1-2.15a1.74,1.74,0,0,1,1.49-.92C15.7,222.52,16,223.42,16.56,224.28Z" />
                    <path id="_Path_288" data-name="&lt;Path&gt;"
                        d="M157,469.36a8.22,8.22,0,0,1,1.13,2.17c.13,1-1,2-1.63,1.47a2.58,2.58,0,0,1-.87-1.83C155.67,470.63,156.37,470.15,157,469.36Z" />
                    <path id="_Path_289" data-name="&lt;Path&gt;"
                        d="M201.18,23.52c.3,1.17.73,2,.58,2.49a2,2,0,0,1-1.36,1.27c-.78.1-1.44-1.39-1-2.18C199.72,24.55,200.33,24.25,201.18,23.52Z" />
                    <path id="_Path_290" data-name="&lt;Path&gt;"
                        d="M373.32,300.6a8.44,8.44,0,0,1-1.34-2c-.25-.85.83-2.12,1.48-1.72a2.55,2.55,0,0,1,1,1.72C374.53,299.15,373.88,299.73,373.32,300.6Z" />
                    <path id="_Path_291" data-name="&lt;Path&gt;"
                        d="M218.73,28.45c-.9.64-1.53,1.43-1.94,1.29S216,28.59,215.63,28c.5-.46,1-1.26,1.51-1.27S218,27.6,218.73,28.45Z" />
                    <path id="_Path_292" data-name="&lt;Path&gt;"
                        d="M235.09,31.26c-1,.41-1.7,1-2.08.75s-.62-1.18-.91-1.82c.52-.34,1.08-1,1.56-.91S234.39,30.24,235.09,31.26Z" />
                </g>
                <g id="_Group_4" data-name="&lt;Group&gt;">
                    <path id="_Compound_Path_2" data-name="&lt;Compound Path&gt;"
                        d="M434,240.34c17.25,7.91,30,22.44,40.25,40.59a156.45,156.45,0,0,1,18.61,51.79,186.34,186.34,0,0,1,1.77,45.33c-1.14,14.67-4.52,28.63-8.56,42.39a13.45,13.45,0,0,1-1.21,3.09c-.77,1.29-1.89,2-3.25,1.69a3.93,3.93,0,0,1-2.79-3.46,10.31,10.31,0,0,1,0-2.85c2.49-23-1.72-44.31-10.27-64.56a153.36,153.36,0,0,0-18.39-32.49,78.23,78.23,0,0,0-7.87-8.95,25.39,25.39,0,0,0-12.09-6.46,19.39,19.39,0,0,0-.64,3.22c-.27,10.65-2.32,20.92-4.21,31.23A79,79,0,0,1,419.53,359a31.13,31.13,0,0,1-12.31,14.42,101.6,101.6,0,0,1-20,9.21,278.8,278.8,0,0,1-40.95,10.54c-17.66,3.15-35.37,5.62-53.18,7.1q-19.27,1.6-38.52,3.41c-14.38,1.34-28.76,2.79-43.14,4.16-9.28.88-18.56,1.66-27.84,2.56-9.89,1-19.78,2-29.68,3-4.95.5-9.89,1.05-14.85,1.37-10.53.68-21.07,1.39-31.61,1.76a126,126,0,0,1-32-2.65,57,57,0,0,1-8.55-2.69c-12.74-5-21.42-15.8-27.16-30.43-4.38-11.16-6.78-23.06-8.27-35.3C28.6,321.86,28.4,298,29,274.17a168.52,168.52,0,0,1,5.33-38,91.78,91.78,0,0,1,17.84-36,94.68,94.68,0,0,1,25.4-22.08,191.73,191.73,0,0,1,35.39-15.78,434.73,434.73,0,0,1,58.69-15.17c18.09-3.41,36.16-7,54.29-9.93,15.52-2.54,31.12-4.4,46.69-6.42a568.09,568.09,0,0,1,57.11-4.44q17-.47,34,.33c11.15.53,22.29,1.84,33.13,5.49a62.77,62.77,0,0,1,17.61,8.86c13,9.63,21.72,26.85,23.31,45.54.64,7.55,0,15-.56,22.43-.79,9.95-1.67,19.88-3.33,29.68A7.42,7.42,0,0,0,434,240.34Zm-2,7.55a16.85,16.85,0,0,1-1.61,1.33c-2.15,1.35-3.63.58-4.15-2.27a19.84,19.84,0,0,1-.34-4.57c.25-4.6.62-9.19,1-13.78.78-9.56,1.71-19.11,2.34-28.69a75.55,75.55,0,0,0-.14-12.65c-1.56-15.06-7.19-27.24-17.41-35.89a50.81,50.81,0,0,0-15.64-8.71c-10-3.7-20.37-5-30.75-5.74a335.33,335.33,0,0,0-50.7.22c-13.62,1-27.24,2.2-40.84,3.63-10,1.06-20.06,2.54-30.06,4.06-13.08,2-26.16,4-39.2,6.37-12.58,2.27-25.11,4.93-37.65,7.49a435.14,435.14,0,0,0-49.1,12.93c-12.61,4.15-25,9.07-36.81,16a86.41,86.41,0,0,0-23.82,20.86,78,78,0,0,0-14.34,28.68,136.34,136.34,0,0,0-4.88,29.29c-.39,8.25-.56,16.52-.67,24.78a419.38,419.38,0,0,0,2.66,54.65,127.61,127.61,0,0,0,6.65,29.33c5.18,14,13.39,23.87,25.69,27.85a38.86,38.86,0,0,0,5.44,1.52,141,141,0,0,0,34.81,1.92c3.25-.27,6.51-.46,9.76-.73,10.22-.85,20.44-1.59,30.64-2.61,12.06-1.21,24.09-2.79,36.15-4,18.24-1.83,36.5-3.48,54.75-5.2,14.85-1.39,29.69-2.82,44.55-4.13,15.63-1.37,31.22-3.24,46.76-5.7a316,316,0,0,0,47.08-10.75,111.93,111.93,0,0,0,21.5-9.22A23.22,23.22,0,0,0,413.4,353a68,68,0,0,0,5.28-16.57c1.94-11.44,4.78-22.71,4.44-34.62-.08-2.76,1.74-4.47,4.06-4.31a8.17,8.17,0,0,1,1.83.38c8.89,2.73,17,7.35,23.52,15.51a152.51,152.51,0,0,1,31.83,71.08c.34,2,.67,4,1.19,7.15a33.84,33.84,0,0,0,1.2-4,168.25,168.25,0,0,0-.86-54.43c-4.69-25.17-14.51-46.92-29-65.35A68.74,68.74,0,0,0,432,247.89Z" />
                    <path id="_Path_293" data-name="&lt;Path&gt;" class="cls-1"
                        d="M432,247.89a68.74,68.74,0,0,1,24.82,19.94c14.52,18.43,24.34,40.18,29,65.35a168.25,168.25,0,0,1,.86,54.43,33.84,33.84,0,0,1-1.2,4c-.52-3.12-.85-5.14-1.19-7.15a152.51,152.51,0,0,0-31.83-71.08c-6.55-8.16-14.63-12.78-23.52-15.51a8.17,8.17,0,0,0-1.83-.38c-2.32-.15-4.14,1.55-4.06,4.31.34,11.91-2.51,23.18-4.44,34.62A68,68,0,0,1,413.4,353a23.22,23.22,0,0,1-9.7,11.17,111.93,111.93,0,0,1-21.5,9.22,316,316,0,0,1-47.08,10.75c-15.54,2.46-31.13,4.33-46.76,5.7-14.85,1.3-29.7,2.73-44.55,4.13-18.25,1.71-36.5,3.37-54.75,5.2-12.06,1.21-24.09,2.79-36.15,4-10.2,1-20.43,1.76-30.64,2.61-3.25.27-6.51.46-9.76.73a141,141,0,0,1-34.81-1.92,38.86,38.86,0,0,1-5.44-1.52c-12.3-4-20.51-13.82-25.69-27.85a127.61,127.61,0,0,1-6.65-29.33,419.38,419.38,0,0,1-2.66-54.65c.11-8.26.28-16.53.67-24.78a136.34,136.34,0,0,1,4.88-29.29,78,78,0,0,1,14.34-28.68A86.41,86.41,0,0,1,81,187.62c11.82-6.92,24.2-11.84,36.81-16a435.14,435.14,0,0,1,49.1-12.93c12.54-2.56,25.08-5.22,37.65-7.49,13-2.35,26.12-4.38,39.2-6.37,10-1.52,20-3,30.06-4.06,13.6-1.44,27.22-2.59,40.84-3.63a335.33,335.33,0,0,1,50.7-.22c10.38.78,20.72,2,30.75,5.74a50.81,50.81,0,0,1,15.64,8.71c10.22,8.65,15.85,20.83,17.41,35.89a75.55,75.55,0,0,1,.14,12.65c-.63,9.58-1.56,19.13-2.34,28.69-.38,4.59-.74,9.18-1,13.78a19.84,19.84,0,0,0,.34,4.57c.52,2.86,2,3.62,4.15,2.27A16.85,16.85,0,0,0,432,247.89Z" />
                </g>
            </g>
        </g>
    </g>
</svg>