<svg xmlns="http://www.w3.org/2000/svg" xmlns:xlink="http://www.w3.org/1999/xlink"
    viewBox="0 0 512 512">
    <defs>
        <style>
            .cls-1{fill:url(#Degradado_sin_nombre_3);}.cls-2{fill:url(#Degradado_sin_nombre_5);}
        </style>
        <linearGradient id="Degradado_sin_nombre_3" x1="256" y1="54.17" x2="256" y2="644.28"
            gradientUnits="userSpaceOnUse">
            <stop offset="0" stop-color="#ff1c3d" />
            <stop offset="1" stop-color="#d41128" />
        </linearGradient>
        <linearGradient id="Degradado_sin_nombre_5" x1="354.42" y1="435.3" x2="314.44" y2="361.05"
            gradientUnits="userSpaceOnUse">
            <stop offset="0" stop-color="#7b0612" />
            <stop offset="0.99" stop-color="#d9122a" />
        </linearGradient>
    </defs>
    <title>description_30</title>
    <g id="OBJECTS">
        <g id="_Group_" data-name="&lt;Group&gt;">
            <path id="_Path_" data-name="&lt;Path&gt;" class="cls-1"
                d="M463,334.46c2.29-2.87,3.51-6.4,6-9.11,0,0,.07,0,.1-.07a228.63,228.63,0,0,0,10.45-79.71C474.3,129,380.26,34.7,264.93,30.16c-127.69-5-232.77,98.12-232.77,226.06,0,117.23,88.23,213.59,201.23,225a26.78,26.78,0,0,0,16.92-3.87c36.55-22.81,185-121.8,212.6-142.75A1.89,1.89,0,0,1,463,334.46Z" />
            <g id="_Group_2" data-name="&lt;Group&gt;">
                <path id="_Path_2" data-name="&lt;Path&gt;" class="cls-2"
                    d="M469.81,323.18c-4.22,7.2-12.51,8.09-19.56,8a191.62,191.62,0,0,0-23.88,1.07,220.73,220.73,0,0,0-90.25,30.33,226.47,226.47,0,0,0-88.3,98.1c-1.75,3.75-7.14,8.82-11.36,11.31-17.84,10.52-27.28,4.8-36.25,3.38,23.66,8.67,39,6.42,39,6.42,23.12-1.44,83.53-35.26,132.57-69a611.33,611.33,0,0,0,82-67.76,100,100,0,0,0,7.29-7.28A50.56,50.56,0,0,0,469.81,323.18Z" />
            </g>
        </g>
    </g>
</svg>