<svg xmlns="http://www.w3.org/2000/svg" viewBox="0 0 512 512">
    <defs>
        <style>.cls-1{fill:#ff5667;}.cls-2{fill:#fdfdfd;opacity:0.3;}</style>
    </defs>
    <title>description_22</title>
    <g id="DESIGNED_BY_FREEPIK" data-name="DESIGNED BY FREEPIK">
        <g id="_Group_" data-name="&lt;Group&gt;">
            <g id="_Group_2" data-name="&lt;Group&gt;">
                <path id="_Path_" data-name="&lt;Path&gt;" class="cls-1"
                    d="M471.38,209.21a140.66,140.66,0,0,0-15.58-50.32,129.79,129.79,0,0,0-31.11-38.67,110.45,110.45,0,0,0-41.3-22,112.45,112.45,0,0,0-30.09-4c-3.84,0-7.78.19-11.72.58a111.27,111.27,0,0,0-40.9,12.13,102.35,102.35,0,0,0-29.37,23A104.63,104.63,0,0,0,259.65,146,107.73,107.73,0,0,0,252,161.9c-1.51-3.48-3.39-7.58-5.51-11.66a148.7,148.7,0,0,0-8-13.27,252.1,252.1,0,0,0-16.4-22.07A163.83,163.83,0,0,0,203.62,96,108.82,108.82,0,0,0,182.8,81.84,81,81,0,0,0,159.52,74a73.64,73.64,0,0,0-12.45-1.06A78.21,78.21,0,0,0,134.22,74a75.8,75.8,0,0,0-23.08,8.1,99.91,99.91,0,0,0-20.26,14.8,148.45,148.45,0,0,0-17.76,19.93A170.75,170.75,0,0,0,57.3,141.78a152,152,0,0,0-10.68,27,150.32,150.32,0,0,0-5.19,27.6,163.89,163.89,0,0,0,4.41,55.14,193.27,193.27,0,0,0,21.31,51.67A216,216,0,0,0,83.1,326.59a235.16,235.16,0,0,0,20.06,22.29c16.45,16.24,34.32,29.82,48.06,39.83,6.84,5,13.73,9.88,20.64,14.75l2.67,1.89c6,4.22,12.15,8.59,18,13.36,7.5,6.15,14.74,13,21.74,19.64,5.58,5.28,11.34,10.74,17.2,15.81a1.28,1.28,0,0,0,.84.31,1.74,1.74,0,0,0,1.47-.95,67.09,67.09,0,0,1,3.73-6.18A100,100,0,0,1,255.89,428l-.31.17c4.2-3.39,8.86-6.85,14.19-10.44a61.06,61.06,0,0,1,8.37,6.45,73.13,73.13,0,0,1,11,13,66.79,66.79,0,0,1,6.49,12.88,53.89,53.89,0,0,1,2.51,10.52,43.43,43.43,0,0,1,0,9.32,41.13,41.13,0,0,1-1.78,7.8,45.14,45.14,0,0,1-3,6.5,2.28,2.28,0,0,0,.26,2.41,1.57,1.57,0,0,0,1.19.57,1.62,1.62,0,0,0,1.17-.57,63.65,63.65,0,0,0,13.18-18.36,79.1,79.1,0,0,0,7-23,91.75,91.75,0,0,0,1-11.7,89.55,89.55,0,0,0-.71-12.28,78.23,78.23,0,0,0-6.09-22l1.93-1.64a59,59,0,0,1,13.6-7.73s.2-.11.19-.13.14-.1.13-.1h0c5.63-2.26,11.58-4.17,17.34-6,1.83-.59,3.67-1.17,5.49-1.78,3.94-1.3,7.23-2.46,10.5-3.87,2.93-1.24,6-2.72,10.05-4.79a219.55,219.55,0,0,0,40.12-26.52,195.93,195.93,0,0,0,34.62-37A153,153,0,0,0,467,263.23a136.9,136.9,0,0,0,4.86-26.33A142.63,142.63,0,0,0,471.38,209.21Z" />
                <path id="_Path_2" data-name="&lt;Path&gt;" class="cls-1"
                    d="M83.27,61.91a90.15,90.15,0,0,0-10.22,3.72,66,66,0,0,0-10,5.62,79.45,79.45,0,0,0-18.3,16.88,107.6,107.6,0,0,0-13.9,22.78A92.74,92.74,0,0,0,26,124.11,82.75,82.75,0,0,0,23.41,138a79,79,0,0,0-.1,13.58,60.67,60.67,0,0,0,.75,6.25A70.84,70.84,0,0,0,26,165.37a5.49,5.49,0,0,0,1.62,2.26,4.12,4.12,0,0,0,3.56.91,4.82,4.82,0,0,0,3.08-2.35,6.44,6.44,0,0,0,.76-4.26c-.52-2.19-.86-4.48-1.19-6.73s-.53-4.28-.67-6.44a84.47,84.47,0,0,1,1.08-16.55A106.46,106.46,0,0,1,40.77,110,104.78,104.78,0,0,1,52.71,90a88.6,88.6,0,0,1,16.2-16.62c-.17.11-.32.23-.49.35a55.34,55.34,0,0,1,12.65-7.46c.9-.33,1.81-.63,2.71-.91a1.75,1.75,0,0,0,1.16-2,1.61,1.61,0,0,0-1.41-1.43,1.1,1.1,0,0,0-.27,0" />
                <path id="_Compound_Path_" data-name="&lt;Compound Path&gt;" class="cls-1"
                    d="M64.74,37.93a61.63,61.63,0,0,0-6.56,2.66A29.65,29.65,0,0,0,55,42.24a35.69,35.69,0,0,0-3,2.1,49.76,49.76,0,0,0-6,5.18A53.48,53.48,0,0,0,40.82,56,45.41,45.41,0,0,0,37,62.51c-.65,1.35-1.22,2.75-1.76,4.18a22.27,22.27,0,0,0-1,3.89l0,.12v0l-.12.7c0-.23.08-.46.11-.68a5.52,5.52,0,0,0-.15,2.4,5,5,0,0,0,1.68,3.08,3.55,3.55,0,0,0,3,.77,3.9,3.9,0,0,0,2.59-2c1.41-3.16,2.78-6.34,4.41-9.36a70.76,70.76,0,0,1,5.82-9.05A69.45,69.45,0,0,1,57,50.28,67.18,67.18,0,0,1,62.76,45,26.77,26.77,0,0,1,69,41.54,22.82,22.82,0,0,1,75,40.12h0c.78,0,1.56,0,2.34,0a1.77,1.77,0,0,0,1.75-1.78,1.86,1.86,0,0,0-1.49-2.07c-.84-.07-1.68-.1-2.51-.1a32.49,32.49,0,0,0-10.34,1.71m10.1,2.2h0M63.2,44.63l-.38.3.38-.3m-29,26.12h0l0-.16v-.07l0,.23m0-.23c0-.11,0-.22.06-.33,0,.11,0,.22-.06.33" />
                <path id="_Compound_Path_2" data-name="&lt;Compound Path&gt;" class="cls-1"
                    d="M489.13,245.38c-2.44.15-4.67,2.82-4.4,5.83.06.64,0,1.28,0,1.93s0,1.29,0,1.94c0,1.46.09,2.93.1,4.41q.06,3.84-.14,7.66A116.13,116.13,0,0,1,468.88,319c-1.84,3.08-3.81,6-5.88,8.92a75,75,0,0,1-6.65,8.07,52.31,52.31,0,0,1-10.67,8.31l.12-.06-.14.07-.21.12.14-.08c-1.07.56-2.15,1.07-3.26,1.54a2,2,0,0,0-1,2.31,1.52,1.52,0,0,0,1.94,1.19,84.77,84.77,0,0,0,9.68-4.86,73.54,73.54,0,0,0,9.18-6.59,78.59,78.59,0,0,0,16.35-18.31,108.48,108.48,0,0,0,11.62-23.92,118.51,118.51,0,0,0,3.78-13.58,95.12,95.12,0,0,0,1.72-13.87,72.3,72.3,0,0,0-.05-9c-.11-1.84-.38-3.65-.66-5.45-.11-.79-.27-1.58-.43-2.36s-.47-1.51-.64-2.26a4.8,4.8,0,0,0-4.44-3.85h-.24M469.31,318.3l-.39.65.39-.65m-13,17.74-.34.34.34-.34m-10.75,8.35.07,0h0l-.09.05" />
                <path id="_Compound_Path_3" data-name="&lt;Compound Path&gt;" class="cls-1"
                    d="M487.91,325.82c-2.07,4.37-4.1,8.74-6.44,12.91-2.33,3.91-4.85,7.69-7.48,11.31a92.26,92.26,0,0,1-8.89,10.72,50.27,50.27,0,0,1-10,7.57l.37-.2a29.6,29.6,0,0,1-7.24,3l.06,0-1,.21a1.34,1.34,0,0,0-1.1,1.44c0,.7.59,1.43,1.22,1.32a61.93,61.93,0,0,0,14.65-4.54,67.27,67.27,0,0,0,14-8.86,57.31,57.31,0,0,0,11.76-13.54,61.49,61.49,0,0,0,8-17.9,6.23,6.23,0,0,0-.13-2.61,5,5,0,0,0-2.12-3,3.65,3.65,0,0,0-1.92-.56,4.44,4.44,0,0,0-3.86,2.76M481.32,339l-.18.32Zm-15.7,21.27-.51.5.51-.5M448.16,371.1l-.18,0,.18,0" />
                <path id="_Compound_Path_4" data-name="&lt;Compound Path&gt;" class="cls-2"
                    d="M121.32,98.67a167.89,167.89,0,0,0-18.58,12.44,103.55,103.55,0,0,0-16,15.73,127.58,127.58,0,0,0-13,19.54A154.13,154.13,0,0,0,64,167.47,130.47,130.47,0,0,0,68.87,269a89.27,89.27,0,0,0,9.69,15.51,9.81,9.81,0,0,0,13.4,2,13.32,13.32,0,0,0,5.18-8.2c.64-3.07.41-7.19-1.19-9.86-2.9-4.85-5.73-9.8-8.34-14.89a128.54,128.54,0,0,1-6-13.71,136,136,0,0,1-5.78-25.16c-.5-4.64-.75-9.28-.79-14,0-5,0-10,.43-15,.51-4.67,1.27-9.27,2.09-13.89a108.14,108.14,0,0,1,3.71-14.44,130.42,130.42,0,0,1,12.33-25.25,115.06,115.06,0,0,1,17-20.91A74.18,74.18,0,0,1,123,102.06a2.21,2.21,0,0,0,.6-2.69,1.55,1.55,0,0,0-1.4-.95,1.73,1.73,0,0,0-.87.25M111,110.87l-.19.18.19-.18M94.26,131.2l-.4.64Z" />
                <path id="_Path_3" data-name="&lt;Path&gt;" class="cls-2"
                    d="M90.68,305.59c0,7.23,5.08,13.28,11.15,13.28s11.15-6,11.15-13.28-5.08-13.28-11.15-13.28-11.15,6-11.15,13.28" />
            </g>
        </g>
    </g>
</svg>