<svg xmlns="http://www.w3.org/2000/svg" viewBox="0 0 512 512">
    <defs>
        <style>.cls-1{fill:#99ffce;}</style>
    </defs>
    <title>description_12</title>
    <g id="OBJECTS">
        <g id="_Group_" data-name="&lt;Group&gt;">
            <g id="_Group_2" data-name="&lt;Group&gt;">
                <path id="_Compound_Path_" data-name="&lt;Compound Path&gt;"
                    d="M139.77,255.66c-5.13,13.2-11.32,24.56-17.14,36.45q-20.34,41.54-40.48,83.38c-8.82,18.23-17.5,36.67-26.41,54.76-3.83,7.77-8,15-12.17,22.27a20.5,20.5,0,0,1-4.28,5.33c-2.77,2.39-5.58-.92-5.29-6.28A60.07,60.07,0,0,1,35.46,442c2.54-11.45,5.18-22.83,7.79-34.23,10-43.46,19.93-86.91,30.55-129.91,2.26-9.16,4.61-18.26,6.83-27.46.48-2,1.46-3.94.82-6.8a11.07,11.07,0,0,0-1.62.16,294.15,294.15,0,0,1-41.43,7c-5.16.46-10.31,1.27-15.47,1.81a44.84,44.84,0,0,1-6.2.14,5.8,5.8,0,0,1-2.61-.79c-1.71-1-2.52-3.74-1.85-6.66A73.93,73.93,0,0,1,14.59,237c3.65-10.22,7.19-20.57,11.12-30.46C39,173.06,52.51,139.81,65.83,106.33c4.77-12,9.22-24.36,13.82-36.56,3.24-8.59,1.87-8.46,8.76-8.4q25.26.24,50.52.92,45,1.21,90,2.68,57.38,1.86,114.77,3.91,30.57,1,61.15,2.09,44.75,1.59,89.51,3.25a10.08,10.08,0,0,1,1.77.09c2.85.61,4.68,5.27,3.84,10a48.89,48.89,0,0,1-1.77,7c-3.13,9.26-6,18.84-9.59,27.56q-22.31,54.4-45,108.32c-2.68,6.41-5.68,12.44-8.64,18.48-3.86,7.86-3.91,7.82-9.78,7.9-39.59.53-79.18,1.14-118.78,1.56q-67.37.71-134.73,1.12c-10,.06-20.08-.55-30.13-.83A13.23,13.23,0,0,0,139.77,255.66Zm291-14c.4-1,.91-2.21,1.4-3.46,6.63-16.92,13.14-34,19.92-50.73,10.1-24.9,20.41-49.53,30.59-74.33,3-7.29,5.83-14.77,8.7-22.22.53-1.39.86-3,1.34-4.75-.7-.41-1.1-.84-1.49-.85Q288.47,79.36,85.71,70.77c-.55,1.81-1,3.37-1.49,4.91-2.27,7.16-4.44,14.44-6.87,21.43-2.52,7.22-5.26,14.2-8,21.2-15.92,40.93-32,81.71-49.54,120.6a4.92,4.92,0,0,0-.72,3.82,10,10,0,0,0,2.35.18c3.68-.52,7.35-1.2,11-1.72,4.86-.69,9.72-1.22,14.58-1.92,6.62-1,13.28-1.54,19.85-3.14,6.73-1.63,13.57,0,20.24-2.74,1.35-.56,2.59,2,2.3,4.37a44.18,44.18,0,0,1-.82,4.36c-3.93,17.36-7.78,34.78-11.84,52.05Q61,361.29,45.14,428.29c-.54,2.3-1,4.66-1.86,8.72,1.54-2.32,2.34-3.28,3-4.51,2.84-5.56,5.68-11.1,8.42-16.8Q83.1,356.39,111.52,297c7.18-14.93,14.55-29.6,21.78-44.45,2.31-4.75,4.88-8.1,8.75-6.86a7.7,7.7,0,0,0,2.65-.13c9.89-.4,19.79-1,29.68-1.17q34.35-.69,68.69-1.09,90.63-.94,181.27-1.72C426.26,241.6,428.18,241.62,430.72,241.62Z" />
                <path id="_Path_" data-name="&lt;Path&gt;" class="cls-1"
                    d="M430.72,241.62c-2.55,0-4.46,0-6.38,0q-90.63.85-181.27,1.72-34.35.36-68.69,1.09c-9.9.2-19.79.76-29.68,1.17a7.7,7.7,0,0,1-2.65.13c-3.87-1.24-6.43,2.11-8.75,6.86-7.24,14.85-14.6,29.52-21.78,44.45Q83,356.29,54.65,415.7c-2.74,5.7-5.58,11.25-8.42,16.8-.63,1.23-1.42,2.19-3,4.51.86-4.06,1.32-6.42,1.86-8.72Q61,361.24,76.79,294.19c4.06-17.27,7.9-34.69,11.84-52.05a44.18,44.18,0,0,0,.82-4.36c.29-2.39-.94-4.94-2.3-4.37-6.66,2.79-13.51,1.1-20.24,2.74-6.57,1.6-13.23,2.18-19.85,3.14-4.86.7-9.72,1.23-14.58,1.92-3.68.52-7.35,1.19-11,1.72a10,10,0,0,1-2.35-.18,4.92,4.92,0,0,1,.72-3.82C37.41,200,53.45,159.24,69.37,118.31c2.72-7,5.46-14,8-21.2,2.44-7,4.6-14.27,6.87-21.43.49-1.54.95-3.1,1.49-4.91q202.8,8.57,405.47,14.51c.39,0,.79.43,1.49.85-.48,1.74-.81,3.37-1.34,4.75-2.87,7.44-5.71,14.92-8.7,22.22-10.17,24.8-20.49,49.43-30.59,74.33-6.79,16.73-13.29,33.81-19.92,50.73C431.63,239.41,431.12,240.63,430.72,241.62Z" />
            </g>
        </g>
    </g>
</svg>