<svg xmlns="http://www.w3.org/2000/svg" viewBox="0 0 512 512">
    <defs>
        <style>.cls-1{fill:#ffd047;}.cls-2{fill:#fdfdfd;opacity:0.3;}</style>
    </defs>
    <title>description_21</title>
    <g id="DESIGNED_BY_FREEPIK" data-name="DESIGNED BY FREEPIK">
        <g id="_Group_" data-name="&lt;Group&gt;">
            <g id="_Group_2" data-name="&lt;Group&gt;">
                <path id="_Path_" data-name="&lt;Path&gt;" class="cls-1"
                    d="M457.46,229.08a12.33,12.33,0,0,0-3.68-4.57,25.47,25.47,0,0,0-5.82-3.44,54.68,54.68,0,0,0-7.11-2.55,116.27,116.27,0,0,0-14.44-3c-7.25-1.12-13.28-1.82-19-2.19-1.42-.09-2.84-.17-4.25-.21,4.56-4.36,9-9,13.06-13.69s7.94-9.66,11.55-14.36a64.65,64.65,0,0,0,8.1-12.83,19.56,19.56,0,0,0,1.76-6.77,10.69,10.69,0,0,0-.29-3,9.09,9.09,0,0,0-1.22-2.79c-1.47-2.24-4-4-7.49-5.18a31.61,31.61,0,0,0-5.48-1.28,54,54,0,0,0-6.22-.57c-1,0-2.08-.07-3.12-.07-3.24,0-6.79.19-10.85.56-4.35.41-9,1-14.1,1.92-5.7,1-11.2,2.11-16.35,3.39.95-3.5,1.93-7,2.91-10.51.82-2.94,1.65-5.89,2.44-8.85,1-3.71,1.87-7.34,2.6-10.79.54-2.55,1-5.27,1.51-8.31a48,48,0,0,0,.56-13.12,17.2,17.2,0,0,0-1.84-6,11.06,11.06,0,0,0-4.26-4.38,13.73,13.73,0,0,0-3.22-1.24,24.32,24.32,0,0,0-4.34-.69c-.68,0-1.35-.07-2-.07a40.24,40.24,0,0,0-7,.68,61.17,61.17,0,0,0-9.17,2.49,89.48,89.48,0,0,0-8.72,3.56c-2.37,1.09-4.91,2.38-7.78,3.95-3.24,1.76-6.45,3.62-9.54,5.51a182.5,182.5,0,0,0-18.2,12.78c-1.6,1.29-3,2.5-4.38,3.72-1,.87-1.89,1.75-2.82,2.63a198.14,198.14,0,0,0-23.47-31.83,190.18,190.18,0,0,0-14.7-14.7c-2.46-2.2-5-4.35-7.64-6.39A33.12,33.12,0,0,0,245.64,72a15.26,15.26,0,0,0-5.78-1.17c-.49,0-1,0-1.46.07a14.9,14.9,0,0,0-6.94,2.9,25.56,25.56,0,0,0-3.25,2.87,49.8,49.8,0,0,0-3.42,4q-3.19,4-6.2,8.46a145.67,145.67,0,0,0-10.45,18.19c-1.46,3-2.83,6.15-4.08,9.33A83.3,83.3,0,0,0,200.83,127c-.17.67-.34,1.34-.5,2a161,161,0,0,0-19.9-8c-3.16-1.05-6.59-2.11-10.8-3.31-1.34-.38-2.67-.74-4-1.11-1.65-.45-3.3-.9-4.95-1.38l-1-.28a115.69,115.69,0,0,0-15-3.59,41.69,41.69,0,0,0-6.19-.48c-.68,0-1.34,0-2,.05a21.29,21.29,0,0,0-7.42,1.72,16.13,16.13,0,0,0-5.82,4.4,20,20,0,0,0-3.4,5.92c-2,5.24-2.13,10.94-2.06,14.77a102.91,102.91,0,0,0,1.77,15.72c.42,2.35.89,4.7,1.36,7l.48,2.44c.36,1.84.72,3.68,1.12,5.51a167.72,167.72,0,0,0,4.55,16.91c.88,2.7,1.89,5.49,3.08,8.51.89,2.23,1.86,4.42,2.83,6.62l.33.74c-7,.8-13.49,2.51-21.32,4.67-2.47.67-5,1.35-7.44,2-2.31.58-4.62,1.18-6.91,1.82a93.45,93.45,0,0,0-14.88,5.26,36.56,36.56,0,0,0-6.2,3.64A16.64,16.64,0,0,0,72.32,223a10.48,10.48,0,0,0-1,2.1,11.16,11.16,0,0,0-.55,2.37,12.9,12.9,0,0,0,.31,4.7,22,22,0,0,0,1.86,4.94,36.76,36.76,0,0,0,3.11,5,72.31,72.31,0,0,0,9,10,132.42,132.42,0,0,0,10.82,9.14c3.15,2.4,6.4,4.7,9.66,6.84,1.67,1.09,3.67,2.37,5.76,3.55l-1.6,1c-1.18.78-2.36,1.57-3.53,2.36-3.37,2.29-6.42,4.44-9.32,6.57-3.73,2.74-7.08,5.38-10.22,8a101.53,101.53,0,0,0-9.27,8.82A40.29,40.29,0,0,0,71,307.36a13.77,13.77,0,0,0-1.7,8.33,9.86,9.86,0,0,0,1.55,3.84,14.74,14.74,0,0,0,3.9,3.69A35.75,35.75,0,0,0,81.77,327,62.82,62.82,0,0,0,90,329.68a185.27,185.27,0,0,0,19.47,3.62l1.2.18,3.43.54c2.54.41,5.16.83,7.77,1.12,3.81.44,8,.7,12.79.79-.6,2.48-1.2,5-1.8,7.51-2.37,9.91-4.83,20.15-5.6,30.47a73.62,73.62,0,0,0-.13,9.71c.08,1.41.23,2.89.46,4.52a24.61,24.61,0,0,0,.66,3.24,12.6,12.6,0,0,0,5.18,7.2,18.17,18.17,0,0,0,9.07,2.65q.91.05,1.82.05a48.46,48.46,0,0,0,9.42-1.06,92.41,92.41,0,0,0,12.37-3.45c3.83-1.33,7.84-2.91,12.25-4.85s8.83-4.06,13.31-6.38c1.63-.84,3.25-1.71,4.86-2.59s3.45-1.92,5.16-3a199.35,199.35,0,0,0,12.68,39c1,2.35,2.31,5.11,3.81,7.83a28.67,28.67,0,0,0,4.38,6.17,14.51,14.51,0,0,0,5.75,3.82,12.33,12.33,0,0,0,3.42.65l.65,0a16.66,16.66,0,0,0,3.5-.41,22.38,22.38,0,0,0,4.17-1.43,41.92,41.92,0,0,0,4-2,54.6,54.6,0,0,0,7.37-5.13,108,108,0,0,0,13.31-13.19c2.74-3.14,5.4-6.42,8-9.59,1.11-1.36,2.21-2.72,3.33-4.07,1.94-2.35,3.91-4.67,5.89-7,2.76-3.24,5.61-6.58,8.3-10,2-2.44,3.88-5,5.73-7.65a51.5,51.5,0,0,0,4.42-7.2c16.73,12.73,31.9,27.57,46.58,41.94,5,4.89,10,9.78,15.07,14.6,7.46,7.09,13.82,12.82,20,18a1.16,1.16,0,0,0,.76.27,1.35,1.35,0,0,0,1-.44,1.13,1.13,0,0,0,.09-1.35.82.82,0,0,0-.09-.49c-.57-1-1.07-2.06-1.56-3.09-.66-1.38-1.27-2.78-1.89-4.18-1.47-3.35-2.83-6.69-4.07-9.8-3-7.5-5.68-15.09-7.7-20.86q-2.09-6-4.13-11.92c-3.39-9.86-6.9-20.06-10.75-30-1.41-3.67-2.93-7.38-4.5-11a186.69,186.69,0,0,0,35.62,3.39q1.74,0,3.48,0a165,165,0,0,0,21.06-1.7,128.92,128.92,0,0,0,19.76-4.45,58.29,58.29,0,0,0,8.33-3.22,20.4,20.4,0,0,0,5.7-4,10.83,10.83,0,0,0,2.82-5.2,12.63,12.63,0,0,0-.48-6.49,21.27,21.27,0,0,0-1.5-3.58c-.82-1.61-1.74-3.14-2.62-4.56-1.69-2.74-3.62-5.53-6.08-8.79-4.35-5.73-9.26-11.22-13.92-16.3-5.37-5.85-10.55-11.13-15.84-16.16,13.87-7.93,25.87-18,34.77-25.83.76-.67,1.52-1.32,2.29-2l2-1.71c2-1.76,3.77-3.37,5.31-4.92a47.59,47.59,0,0,0,4.84-5.61,18.38,18.38,0,0,0,3-5.76A8.09,8.09,0,0,0,457.46,229.08Z" />
                <path id="_Path_2" data-name="&lt;Path&gt;" class="cls-1"
                    d="M192.74,398.46h0a1.27,1.27,0,0,0-.88.39c-4,5.3-8.28,10.57-12.41,15.65-5,6.19-10.23,12.6-15,19.13q-1.52,2.09-3,4.2l-.93,1.36c-.41.6-.82,1.21-1.25,1.8l-.16.22c-1.13,1.59-2.29,3.22-3.29,4.91a18.72,18.72,0,0,0-2.49,6.06,6.77,6.77,0,0,0,0,2.79,5,5,0,0,0,.47,1.25,5.7,5.7,0,0,0,1,1.28,5.22,5.22,0,0,0,1.21.92,6.54,6.54,0,0,0,1.32.58,5.73,5.73,0,0,0,1.78.28,6,6,0,0,0,.92-.07,10.42,10.42,0,0,0,5.13-2.73,28.75,28.75,0,0,0,4.35-5.08c1.24-1.72,2.34-3.52,3.35-5.2l1-1.7c.85-1.41,1.7-2.82,2.51-4.24,1.59-2.8,3.13-5.86,4.85-9.61,2.14-4.67,4.08-9.51,6-14.2.74-1.85,1.48-3.69,2.24-5.54,1.56-3.79,3-7.14,4.47-10.25a1.2,1.2,0,0,0,.11-.73.86.86,0,0,0,0-.33,1.19,1.19,0,0,0-.41-.83,1.39,1.39,0,0,0-.87-.3" />
                <path id="_Path_3" data-name="&lt;Path&gt;" class="cls-1"
                    d="M110.92,356.11a1.12,1.12,0,0,0-.78.29l-.28.08c-1.91.6-3.8,1.32-5.64,2-1,.39-2.05.78-3.09,1.15l-2.84,1-2,.69c-3.93,1.36-8.54,3-13,4.95-2.36,1-4.43,2-6.34,3.09a33.5,33.5,0,0,0-5.16,3.43A16.56,16.56,0,0,0,70,374.59a9.58,9.58,0,0,0-1.37,2,5.94,5.94,0,0,0-.32,4.69,4.06,4.06,0,0,0,2.91,2.48A7.5,7.5,0,0,0,73,384a13.47,13.47,0,0,0,2.87-.36,30.56,30.56,0,0,0,5.19-1.71c1.41-.58,2.88-1.28,4.37-2.07a57.48,57.48,0,0,0,5.3-3.26,90.91,90.91,0,0,0,7.43-5.7c3.8-3.22,7.44-6.72,11-10.11l2.68-2.57a1.25,1.25,0,0,0,.43-.8,1.17,1.17,0,0,0-.3-.88,1.39,1.39,0,0,0-1-.41" />
                <path id="_Path_4" data-name="&lt;Path&gt;" class="cls-1"
                    d="M41.23,267.41l-2.12,0A57.9,57.9,0,0,0,27,268.65a18.17,18.17,0,0,0-4.49,1.58,7.59,7.59,0,0,0-2.92,2.54,5.25,5.25,0,0,0-.7,1.74,5.64,5.64,0,0,0-.11,1.6,4.32,4.32,0,0,0,1.1,2.51,6.89,6.89,0,0,0,2.55,1.69,15.26,15.26,0,0,0,3.54.91,33.35,33.35,0,0,0,5.18.36c1.47,0,2.94-.07,4.39-.15,3.41-.2,7.09-.61,11.6-1.29,3.75-.57,7.67-1.28,12-2.17,3.37-.69,6.92-1.48,10.55-2.36,2.43-.58,4.86-1.2,7.27-1.88.82-.23,1.52-.43,2.19-.66a1,1,0,0,0,.54-.46,1.16,1.16,0,0,0,.54-.25,1.21,1.21,0,0,0,.43-.8,1.13,1.13,0,0,0-.31-.88,1.38,1.38,0,0,0-.83-.41A96.72,96.72,0,0,0,67.76,269c-1.61-.11-3.22-.22-4.83-.36-3.51-.31-7-.62-10.54-.84-4.13-.26-7.78-.39-11.16-.39" />
                <path id="_Path_5" data-name="&lt;Path&gt;" class="cls-1"
                    d="M47.48,143.3c-.35,0-.7,0-1.05,0-1.32.11-3.69.6-4.84,2.57-.93,1.6-.74,3.63.59,6.2a23.22,23.22,0,0,0,2.23,3.3,38,38,0,0,0,2.66,3.08,58.48,58.48,0,0,0,12.82,9.76,133.13,133.13,0,0,0,15.51,7.57c4.09,1.73,8.32,3.37,12.4,5l3.59,1.4c2.69,1.05,5.37,2.14,8,3.27h0c1,.44,2,.89,3,1.36a1.64,1.64,0,0,0,.68.17l.26,0a1.26,1.26,0,0,0,.8-.53,1.15,1.15,0,0,0,.16-.88,1.31,1.31,0,0,0-.23-.48,1,1,0,0,0-.23-.28l-5.54-4.7c-4.16-3.52-8.32-7-12.43-10.61-2.83-2.44-5.65-4.9-8.4-7.41l-2.4-2.2c-1.6-1.47-3.2-2.94-4.83-4.38a88.93,88.93,0,0,0-7.73-6.16,42.85,42.85,0,0,0-8.39-4.61,20.91,20.91,0,0,0-3.89-1.15,15.37,15.37,0,0,0-2.73-.26" />
                <path id="_Path_6" data-name="&lt;Path&gt;" class="cls-1"
                    d="M160.62,49.32h-.23a5.41,5.41,0,0,0-1.79.4,5.7,5.7,0,0,0-1.41.86,6.87,6.87,0,0,0-1.3,1.35,7.38,7.38,0,0,0-1.29,3.3,12.25,12.25,0,0,0,.08,3.88,23.35,23.35,0,0,0,1.19,4.35A47.87,47.87,0,0,0,158,68.4a93.8,93.8,0,0,0,6.25,10.43,247.27,247.27,0,0,0,15.09,19.66q2.08,2.48,4.2,5l.7.82c.7.82,1.4,1.65,2.09,2.48a1.15,1.15,0,0,0,.9.37c.4,0,.58.08.75.08l.26,0a1.27,1.27,0,0,0,.8-.53,1.09,1.09,0,0,0,.16-.88c-.7-1.93-1.37-3.86-2-5.79L186,96.6l-.71-2c-.32-.88-.64-1.77-.94-2.66l-1.08-3.19c-.47-1.41-.95-2.82-1.44-4.23-1.34-3.84-2.62-7.3-3.9-10.57-1.7-4.29-3.22-7.78-4.81-11a50.84,50.84,0,0,0-5.42-9,16.78,16.78,0,0,0-2.74-2.88,8,8,0,0,0-3-1.64,5.3,5.3,0,0,0-1.27-.17" />
                <path id="_Path_7" data-name="&lt;Path&gt;" class="cls-1"
                    d="M309.62,36.26h-.16a5.22,5.22,0,0,0-1.88.45,6.43,6.43,0,0,0-1.41.85,13.31,13.31,0,0,0-1.42,1.28,19.46,19.46,0,0,0-1.41,1.66,14.76,14.76,0,0,0-1.26,1.84,22.93,22.93,0,0,0-2.21,5.34,46.64,46.64,0,0,0-1.28,6.06c-.33,2.17-.56,4.36-.78,6.54-.19,1.83-.38,3.66-.63,5.49v0c-.66,4.74-1.06,9.57-1.4,14.08l0,.44c-.34,4.66-.69,9.48-1.35,14.19v0c-.2,1.37-.42,2.73-.67,4.1a1.16,1.16,0,0,0,.12.9.79.79,0,0,0,.15.2,1.28,1.28,0,0,0,2.39-.1c1.13-3.23,2.5-6.63,4.31-10.7a1,1,0,0,0,.06-.15s0-.14,0-.14c.69-1.49,1.39-3,2.08-4.54,2.27-5,4.61-10.14,6.52-15.36l.24-.67c.32-.9.64-1.79,1-2.69l.72-1.89.72-1.89a76.16,76.16,0,0,0,2.63-8.09,27.6,27.6,0,0,0,1-7.9,12.19,12.19,0,0,0-2.46-7.15,6,6,0,0,0-1.23-1.2,5.15,5.15,0,0,0-1.34-.69,3.38,3.38,0,0,0-1.11-.17" />
                <path id="_Path_8" data-name="&lt;Path&gt;" class="cls-1"
                    d="M441.93,86a25,25,0,0,0-4.15.38,29.37,29.37,0,0,0-12.54,5.77,65.23,65.23,0,0,0-9,8.22,128.4,128.4,0,0,0-8.22,9.86c-2.58,3.37-5.06,6.87-7.18,9.89l-1.44,2c-1.52,2.16-3,4.32-4.62,6.44a1.22,1.22,0,0,0-.3.84,1.19,1.19,0,0,0,.43.83,1.36,1.36,0,0,0,.86.28,1.15,1.15,0,0,0,.86-.34c4.78-3.14,9.72-5.92,14.5-8.6q2.51-1.41,5-2.83c1.56-.89,3.11-1.81,4.65-2.74.83-.5,1.65-1,2.46-1.54s1.65-1.15,2.45-1.74c2.6-1.9,5.14-3.89,7.67-6,3.27-2.72,5.87-5.06,8.16-7.37a44.38,44.38,0,0,0,3.23-3.57,20.32,20.32,0,0,0,2.25-3.3,6.46,6.46,0,0,0,.83-3,3.21,3.21,0,0,0-1.24-2.45A5.94,5.94,0,0,0,443.26,86q-.67-.05-1.33-.05" />
                <path id="_Path_9" data-name="&lt;Path&gt;" class="cls-1"
                    d="M479.55,181.29a16.19,16.19,0,0,0-2.23.16,48.91,48.91,0,0,0-9.08,2.25c-3.16,1-6.44,2.3-10.66,4.08-5.52,2.35-11.24,5-17.49,8.2q-3.27,1.65-6.5,3.38c-1,.56-2.08,1.11-3.11,1.69a1.19,1.19,0,0,0-.65.39,1.22,1.22,0,0,0-.61.77,1.1,1.1,0,0,0,.15.89,1.29,1.29,0,0,0,1.08.56,1.26,1.26,0,0,0,.65-.17l.37-.24v0c2.29-.54,4.61-1,6.92-1.44l1.45-.27c.89-.17,1.77-.34,2.66-.48h-.33c2.53-.35,5.08-.68,7.62-1l3.66-.47c3.84-.52,8.9-1.25,13.89-2.32a51.26,51.26,0,0,0,11.95-3.83,15,15,0,0,0,3.94-2.71,7.19,7.19,0,0,0,2-3.48,5.86,5.86,0,0,0,0-3,3.71,3.71,0,0,0-.56-1.09,4.18,4.18,0,0,0-1.14-1,4.79,4.79,0,0,0-1.23-.53,6.24,6.24,0,0,0-1.36-.27c-.44,0-.89-.06-1.32-.06" />
                <path id="_Path_10" data-name="&lt;Path&gt;" class="cls-1"
                    d="M439.31,279.14c-1.82,0-3.63,0-5.46.07-1.57,0-3.14.07-4.71.2a1.18,1.18,0,0,0-.48,2.26,1,1,0,0,0,0,.43,1.15,1.15,0,0,0,.6.69l3.56,1.32,4.24,1.57c4.51,1.62,8.56,3,12.36,4.07a101.52,101.52,0,0,0,13.46,3.14,45.23,45.23,0,0,0,6.1.55h.53a19.49,19.49,0,0,0,4.56-.5,9,9,0,0,0,3.8-1.88,6.55,6.55,0,0,0,1.91-2.67,3.31,3.31,0,0,0,.17-1.23,3.39,3.39,0,0,0-.42-1.41,4.13,4.13,0,0,0-.77-1,6.83,6.83,0,0,0-1.24-.95,14.92,14.92,0,0,0-3.27-1.42A35.84,35.84,0,0,0,470,281.3a98.86,98.86,0,0,0-10.93-1.43c-5.36-.45-11.09-.68-18-.73h-1.74" />
                <path id="_Compound_Path_" data-name="&lt;Compound Path&gt;" class="cls-2"
                    d="M314.62,366.69a3.67,3.67,0,0,0-2.5,1.13,3.28,3.28,0,0,0-.9,2.4c0,.28.11.57.17.86a3.32,3.32,0,0,0,1,1.5,136.35,136.35,0,0,0,11,10.12c1.94,1.62,3.91,3.19,5.85,4.81s4.1,3.46,6.11,5.22,3.82,3.32,5.69,5,4,3.53,6,5.34,3.62,3.47,5.4,5.25,3.71,3.75,5.49,5.69l-.2-.22c3,3.36,6,6.75,8.76,10.33a.88.88,0,0,0,1.15.23.76.76,0,0,0,.25-1.09c-2-2.65-4-5.29-6.06-7.92s-4.37-5.47-6.55-8.19-4.49-5.41-6.75-8.1c-1.14-1.34-2.24-2.71-3.4-4s-2.18-2.44-3.28-3.65l0,0-.17-.19-.31-.34,0,.05q-5.57-6.13-11.36-12.08a99.2,99.2,0,0,0-12.94-11.33,4,4,0,0,0-2.37-.85h-.17m27.11,24.55.13.14-.39-.43.26.29" />
                <path id="_Compound_Path_2" data-name="&lt;Compound Path&gt;" class="cls-2"
                    d="M278.82,367.9a4.24,4.24,0,0,0-2.53,2.06c-.5,1.15-1.11,2.26-1.65,3.39-.63,1.33-1.24,2.66-1.88,4-1.32,2.76-2.7,5.51-4.14,8.22a147.64,147.64,0,0,1-10.56,17c-2.08,2.82-4.28,5.56-6.62,8.19a70.77,70.77,0,0,1-7.48,7.28l.36-.28a36,36,0,0,1-6.85,4.57c-.56.25-1.13.48-1.71.7a1.11,1.11,0,0,0-.74,1.4,1.19,1.19,0,0,0,1.49.7,72.42,72.42,0,0,0,7.28-3.12,49.3,49.3,0,0,0,7.5-4.65,83.39,83.39,0,0,0,13.6-13,138.84,138.84,0,0,0,11.39-15.52q2.37-3.75,4.47-7.64a64.39,64.39,0,0,0,3.38-7.32l-.18.46c.07-.18.15-.37.23-.56a4.22,4.22,0,0,0,.26-3.25,4.29,4.29,0,0,0-2.18-2.39,4.72,4.72,0,0,0-3.44-.25m5.52,5.43-.14.37Zm-46.72,48.9-.1,0,.1,0" />
                <path id="_Compound_Path_3" data-name="&lt;Compound Path&gt;" class="cls-2"
                    d="M183.45,366.49c-2,1.66-4.06,3.36-6.1,5q-4.26,3.44-8.82,6.53a71.38,71.38,0,0,1-9.82,5.57l.1,0-.14.06-.29.14.18-.09a52.06,52.06,0,0,1-12,3.69l.35-.05c-1.08.18-2.16.33-3.24.45a1.26,1.26,0,0,0-1.23,1.27,1.28,1.28,0,0,0,1.36,1.15,78.83,78.83,0,0,0,23.32-5.92,80.53,80.53,0,0,0,10.67-5.62,76,76,0,0,0,10-7.47,3,3,0,0,0,.77-1.42,3,3,0,0,0-.47-2.38,3.31,3.31,0,0,0-2.05-1.33,3.78,3.78,0,0,0-.75-.07,2.94,2.94,0,0,0-1.78.51m-24.89,17.18.11,0,0,0-.15.07" />
                <path id="_Compound_Path_4" data-name="&lt;Compound Path&gt;" class="cls-2"
                    d="M127.67,313.29c-.28.17-.57.32-.87.47a36.06,36.06,0,0,1-7.42,2.08,85.81,85.81,0,0,1-9.69,1,81.43,81.43,0,0,1-10.14,0,49.32,49.32,0,0,1-10.88-2.05,22.89,22.89,0,0,1-3.89-1.8,1.77,1.77,0,0,0-2.3.7,1.6,1.6,0,0,0,.74,2.17,50.09,50.09,0,0,0,10.16,4.27,77.51,77.51,0,0,0,13.17,3,52.73,52.73,0,0,0,13.58.18,27.27,27.27,0,0,0,11.71-4,3.5,3.5,0,0,0,1.08-5,3.82,3.82,0,0,0-3.16-1.59,4.12,4.12,0,0,0-2.1.57m-1.16.61-.24.11.24-.11" />
                <path id="_Compound_Path_5" data-name="&lt;Compound Path&gt;" class="cls-2"
                    d="M82.38,230.43a1.16,1.16,0,0,0-.36,1.64,54.74,54.74,0,0,0,5.33,8c1.13,1.4,2.33,2.75,3.58,4.06s2.63,2.54,4,3.76a48.26,48.26,0,0,0,9.12,6.48,36.7,36.7,0,0,0,4.74,2.25A29.71,29.71,0,0,0,114.1,258a3.25,3.25,0,0,0,3.82-2.3,3.05,3.05,0,0,0-2.45-3.59c-2-.47-3.94-1.15-5.88-1.8l.79.26a56.8,56.8,0,0,1-6.71-2.86,66.46,66.46,0,0,1-6.1-3.42A55,55,0,0,1,88,236.17l.24.27a30.82,30.82,0,0,1-4.15-5.68,1.16,1.16,0,0,0-1-.53,1.32,1.32,0,0,0-.7.19M97.2,244.1l.14.09-.14-.09" />
                <path id="_Compound_Path_6" data-name="&lt;Compound Path&gt;" class="cls-2"
                    d="M129.14,127.37A112.79,112.79,0,0,0,128.09,141a114.49,114.49,0,0,0,.69,14.19c1.06,9.59,3.08,19.42,8.26,27.86a3.74,3.74,0,0,0,4.2,1.32,3.6,3.6,0,0,0,2.06-1.7,3.12,3.12,0,0,0,.18-2.66c-2.05-4.14-4.07-8.29-5.73-12.58a93.77,93.77,0,0,1-4.28-13.81,84.37,84.37,0,0,1-1.6-22.73c.08-1,.18-1.94.3-2.91a1.5,1.5,0,0,0-1.2-1.73l-.29,0a1.53,1.53,0,0,0-1.55,1.16m4.39,26.47,0,.19,0-.19" />
                <path id="_Compound_Path_7" data-name="&lt;Compound Path&gt;" class="cls-2"
                    d="M231.46,81.95A116.84,116.84,0,0,0,223,94a53.06,53.06,0,0,0-3.39,6.77,40,40,0,0,0-2.26,7.08,1.85,1.85,0,0,0,1.5,2.17,2,2,0,0,0,2.29-1.42,50.58,50.58,0,0,1,1.79-6.09,72.7,72.7,0,0,1,8.51-15.78c.71-1,1.45-2,2.2-2.94a1.42,1.42,0,0,0,.36-1,1.35,1.35,0,0,0-.49-.94,1.61,1.61,0,0,0-1-.34,1.31,1.31,0,0,0-1,.46m-8.58,20.67,0,.11,0-.11" />
                <path id="_Compound_Path_8" data-name="&lt;Compound Path&gt;" class="cls-2"
                    d="M354,102.65a34.24,34.24,0,0,0-6.62,2.81,27.79,27.79,0,0,0-5.7,4.26,1.18,1.18,0,0,0,.12,1.73,1.35,1.35,0,0,0,.94.31,1.42,1.42,0,0,0,.9-.42c.43-.4.87-.79,1.32-1.17l-.07.06.13-.11.12-.1-.06.05a27.08,27.08,0,0,1,9.73-5.22,1.16,1.16,0,0,0,.76-1.47,1.23,1.23,0,0,0-1.17-.78,1.31,1.31,0,0,0-.39.06m-9,7.46-.06.05.12-.1-.06,0" />
                <path id="_Path_11" data-name="&lt;Path&gt;" class="cls-2"
                    d="M422.28,334.86c-4.12,1.43-8.18,3-12.34,4.34-2.07.67-4.17,1.25-6.29,1.82s-4,1.08-6,1.52c-2.23.44-4.48.79-6.74,1a46.51,46.51,0,0,1-7,.34l.32,0c-.95,0-1.89-.12-2.83-.21a1.22,1.22,0,0,0-1.39.92,1.15,1.15,0,0,0,1,1.31c3.55.37,7.13.65,10.7.72a110.8,110.8,0,0,0,11.26-.52c1.71-.16,3.4-.44,5.09-.73,2-.34,3.9-.72,5.85-1.13,3.68-.76,7.35-1.63,10.94-2.72a3.54,3.54,0,0,0,2.29-4.56,3.83,3.83,0,0,0-3.59-2.36,3.78,3.78,0,0,0-1.24.21" />
            </g>
        </g>
    </g>
</svg>