<svg xmlns="http://www.w3.org/2000/svg" viewBox="0 0 512 512">
    <defs>
        <style>.cls-1{fill:#e66eff;}</style>
    </defs>
    <title>description_15</title>
    <g id="OBJECTS">
        <g id="_Group_" data-name="&lt;Group&gt;">
            <g id="_Group_2" data-name="&lt;Group&gt;">
                <path id="_Compound_Path_" data-name="&lt;Compound Path&gt;"
                    d="M20.17,321.16c.89-25,1.31-50,2.82-75.05,1.06-17.48,3.49-34.94,5.56-52.4,1.4-11.83,3.16-23.64,4.87-35.46,2.59-17.82,5.16-35.63,8-53.44,2.13-13.49,4.42-27,7-40.45a55.06,55.06,0,0,1,4.51-12.72c2.38-5,9-8,18.48-8.95a100.2,100.2,0,0,1,10.5-.59c9.88,0,19.79.06,29.65.39,23.26.79,46.47,2.06,69.75,2.56,24,.52,48,.67,72,.35,12.26-.16,24.47-1.69,36.68-2.65,5.58-.44,11.12-1,16.69-1.52,2.08-.18,4.22-.29,6.32-.29,8,0,13.58,2.24,14.93,6.46a20.42,20.42,0,0,1,.73,8.43c-1,9-2.22,18-3.56,27q-2.55,17.16-5.42,34.3c-2.44,14.42-5.23,28.83-7.54,43.26-2.67,16.68-5.54,33.36-7.31,50.07a702.78,702.78,0,0,0-3.38,102.69c.86,21.25,2,42.5,4.84,63.72.88,6.55.66,13.16.51,19.74-.05,2.22.91,3.92,3.55,5.64,21.45,14,46.52,25.69,75.63,35,21,6.67,43,12.19,65.42,17.25,8.44,1.9,16.84,3.89,25,6.08a58.08,58.08,0,0,1,11.25,4.15c7.49,3.85,6.38,8.95-2.54,11.87a66.17,66.17,0,0,1-11.71,2.49A301.63,301.63,0,0,1,441,481.55c-45.7,1-89.22-3.32-130-14.77a251,251,0,0,1-31.18-10.62c-11.25-4.85-22.56-9.69-33.27-14.86a39.9,39.9,0,0,0-19.07-3.82q-35.46.73-70.94,1.17-48.19.6-96.39,1c-7.06.07-14.13.15-21.19.14-3.52,0-7.09,0-10.56-.32-4.13-.33-6.09-1.52-6.59-3.79a43.88,43.88,0,0,1-1-6.74c-.71-11.28-1.92-22.56-1.84-33.84.16-24.65,1-49.29,1.56-73.94ZM34.26,431.08c6.57,0,12.49.08,18.41,0,49.06-.73,98.12-1.55,147.18-2.2,12-.16,24,.22,36,.3a37.1,37.1,0,0,1,17.08,3.87c2.79,1.44,5.58,2.88,8.47,4.26,16.06,7.65,32.09,15.36,51.29,20.79,43,12.15,88.91,16.66,137.24,14,6.81-.37,14-.52,20.68-2.44-2.48-1.83-5.94-2.41-9.06-3.17-9.28-2.29-18.63-4.51-28-6.71-22.29-5.25-44.13-11-64.74-17.94-25.55-8.65-48.14-19.06-66.61-31.89-12.08-8.39-11.63-8.59-12.35-19.14-.44-6.39-.52-12.79-.93-19.18-.83-13.16-2.13-26.31-2.57-39.48-1.29-38.56-1.82-77.12,1.32-115.66,1.58-19.36,4.48-38.67,7.84-58q3.67-21.07,7.15-42.14c1.95-11.8,3.86-23.61,5.59-35.42,1.18-8.06,2.1-16.13,3-24.21.2-1.83.87-3.76-1.43-5.85-7,.63-14.33,1.23-21.57,2-17.72,1.77-35.5,2.95-53.61,3-40.3,0-80.44-1.32-120.58-3-10.2-.42-20.45-.55-30.69-.57-11,0-12.27.42-14,6.09a133.28,133.28,0,0,0-3.91,17.91c-1.92,11.8-3.5,23.62-5.26,35.43-2.46,16.5-5,33-7.42,49.49-1.77,12.19-3.17,24.39-5,36.58a715.09,715.09,0,0,0-7.42,78.32q-3,72.78-6,145.56C34.15,424.68,34.26,427.67,34.26,431.08Z" />
                <path id="_Path_" data-name="&lt;Path&gt;" class="cls-1"
                    d="M34.26,431.08c0-3.41-.11-6.41,0-9.4q3-72.78,6-145.56a715.09,715.09,0,0,1,7.42-78.32c1.86-12.18,3.27-24.39,5-36.58,2.39-16.5,5-33,7.42-49.49,1.76-11.81,3.34-23.63,5.26-35.43A133.28,133.28,0,0,1,69.33,58.4c1.74-5.67,3-6.11,14-6.09,10.23,0,20.49.14,30.69.57,40.14,1.66,80.29,3,120.58,3,18.12,0,35.89-1.2,53.61-3,7.24-.72,14.53-1.32,21.57-2,2.3,2.1,1.62,4,1.43,5.85-.87,8.07-1.78,16.15-3,24.21-1.73,11.81-3.64,23.62-5.59,35.42q-3.48,21.07-7.15,42.14c-3.36,19.29-6.26,38.59-7.84,58-3.14,38.55-2.62,77.11-1.32,115.66.44,13.16,1.75,26.32,2.57,39.48.4,6.39.49,12.79.93,19.18.72,10.55.27,10.75,12.35,19.14,18.48,12.83,41.06,23.24,66.61,31.89,20.61,7,42.45,12.69,64.74,17.94,9.35,2.2,18.7,4.42,28,6.71,3.11.77,6.58,1.34,9.06,3.17-6.7,1.92-13.87,2.07-20.68,2.44-48.33,2.63-94.22-1.89-137.24-14-19.2-5.42-35.23-13.13-51.29-20.79-2.89-1.38-5.68-2.82-8.47-4.26a37.1,37.1,0,0,0-17.08-3.87c-12-.08-24-.46-36-.3-49.06.65-98.12,1.47-147.18,2.2C46.75,431.16,40.82,431.08,34.26,431.08Z" />
            </g>
        </g>
    </g>
</svg>