<svg xmlns="http://www.w3.org/2000/svg" viewBox="0 0 512 512">
    <defs>
        <style>.cls-1{fill:#de74b6;}.cls-2{fill:#fdfdfd;opacity:0.3;}</style>
    </defs>
    <title>description_17</title>
    <g id="OBJECTS">
        <path id="_Path_" data-name="&lt;Path&gt;" class="cls-1"
            d="M504.4,219.88c-.71-7.33-1.5-13.83-2.43-19.9a108.65,108.65,0,0,0-3.34-14.86,69.8,69.8,0,0,0-5.14-12.53,52.72,52.72,0,0,0-7.28-10.42,50.62,50.62,0,0,0-9.74-8.3A60.82,60.82,0,0,0,464,147.73c-2.48-.94-4.92-1.65-7.86-2.49-3.12-.88-6.38-1.71-10-2.54-5.94-1.38-12.35-2.6-19.59-3.74-13.49-2.13-27.26-3.51-39.41-4.73-6.72-.67-13.19-1.31-19.65-2-5.58-.63-11.16-1.29-16.74-1.95l-4.22-.5L337,128.61q-16.36-1.93-32.72-3.82c-23.14-2.61-53.69-5.82-84.72-7.43-13.52-.7-26.69-1.06-39.13-1.06h-2.94c-10.14,0-18.32.39-25.73,1.1a129.3,129.3,0,0,0-25.15,4.69,69.42,69.42,0,0,0-21.78,10.69,53.21,53.21,0,0,0-8.69,8.29,52,52,0,0,0-6.81,10.61,62.53,62.53,0,0,0-4.55,13.23c-.57,2.48-1,5-1.38,8-.43,3.19-.8,6.53-1.13,10.24a258.24,258.24,0,0,0,0,41.62,395,395,0,0,0,5.44,41.58c2.2,12.25,5,25.38,8.89,41.3,2.3,9.47,4.8,19,7.22,28.3l2.48,9.52q1.33,5.13,2.62,10.27c3.44,13.55,7,27.56,11.62,41a170.24,170.24,0,0,0,10.2,24,89.38,89.38,0,0,0,13.8,19.78,61.4,61.4,0,0,0,8.58,7.51,52.16,52.16,0,0,0,9.9,5.55,53.62,53.62,0,0,0,21.47,4.16c1,0,1.9,0,2.85-.06,2.88-.12,5.78-.45,8.58-.76,3-.35,6.27-.82,9.91-1.43,6.07-1,12.54-2.39,19.78-4.26a389.48,389.48,0,0,0,39-12.58c8.23-3,16.53-6.3,24.26-9.38q12.38-4.87,24.8-9.62l4.4-1.68c15-5.68,30.43-11.57,45.38-18.14.77.43,1.54.91,2.31,1.44a50.53,50.53,0,0,1,8.6,7.85,46.12,46.12,0,0,1,6.06,9.34l-.12-.4a50.24,50.24,0,0,1,3.51,10.64,49.43,49.43,0,0,1,.82,11.48,54.11,54.11,0,0,1-2.23,12.38,56.78,56.78,0,0,1-5.43,11.93,57.55,57.55,0,0,1-8.28,10.41h0s-.1.13-.09.14-.06.11-.06.11l-.66.54a1.79,1.79,0,0,0-.62,1,3.11,3.11,0,0,0-.38,1.22,1.75,1.75,0,0,0,.44,1.19,1.33,1.33,0,0,0,1,.47c11.33-.15,23.24-3.65,35.4-10.42a105.75,105.75,0,0,0,16.71-11.65,101.33,101.33,0,0,0,14.33-15,81.1,81.1,0,0,0,15-29.54,62.84,62.84,0,0,0,2-16.21,59.6,59.6,0,0,0-.7-8.47c-.23-1.55-.54-3.09-.88-4.6a22.94,22.94,0,0,0-1.67-4.94c2.57-1.28,5.17-2.55,7.78-3.82a186.69,186.69,0,0,0,19.93-10.77,57.62,57.62,0,0,0,12-10,47.77,47.77,0,0,0,8.21-14.09c4.12-10.28,6-21.18,7.51-34.38A389,389,0,0,0,506.37,263,427.19,427.19,0,0,0,504.4,219.88Z" />
        <path id="_Path_2" data-name="&lt;Path&gt;" class="cls-1"
            d="M84.62,25.43a5.93,5.93,0,0,0-1.51.2,8.21,8.21,0,0,0-3.66,2.3,14,14,0,0,0-3,4.75,18.16,18.16,0,0,0-1.15,6,27.45,27.45,0,0,0,.64,6.55,44.06,44.06,0,0,0,2,7A89.94,89.94,0,0,0,85.39,67c2.69,4.51,5.9,9.27,9.81,14.56,3,4.09,6.27,8.21,9.93,12.6,3.16,3.83,6.44,7.56,8.94,10.4a1.37,1.37,0,0,0,1,.38,1.65,1.65,0,0,0,.89-.33,1.56,1.56,0,0,0,.74-.51A1.64,1.64,0,0,0,117,103c-.8-4.55-1.7-9.45-2.84-14.38-.38-1.64-.81-3.26-1.23-4.88l-.17-.66q-1.31-5-2.71-9.9a238.77,238.77,0,0,0-9.72-28.32A77.69,77.69,0,0,0,94.08,32.7a27.24,27.24,0,0,0-3.41-4.24A11.28,11.28,0,0,0,87.17,26a6.42,6.42,0,0,0-1.83-.49,4.79,4.79,0,0,0-.72-.05" />
        <path id="_Path_3" data-name="&lt;Path&gt;" class="cls-1"
            d="M61.36,76.38a7.22,7.22,0,0,0-5.23,2.09,9.11,9.11,0,0,0-1.64,1.94,7.28,7.28,0,0,0-1.13,4.32A9.23,9.23,0,0,0,54.86,89a20.17,20.17,0,0,0,3.38,4A40.25,40.25,0,0,0,63,96.73a96.06,96.06,0,0,0,12.33,7.09c3.88,1.91,8,3.73,12.6,5.56,2.3.92,4.62,1.78,7,2.6a36.93,36.93,0,0,0,4,1.23h.17a2.74,2.74,0,0,0,1.6-.81,1.68,1.68,0,0,0,.35-1.16,1.8,1.8,0,0,0-.52-1.1c-3.56-4.18-7.42-8.57-11.78-13.42a138.06,138.06,0,0,0-12-12.08,57.43,57.43,0,0,0-6.59-5,21.71,21.71,0,0,0-6.24-2.88,9.64,9.64,0,0,0-2.5-.34" />
        <path id="_Path_4" data-name="&lt;Path&gt;" class="cls-1"
            d="M21.19,113.55c-1.07,0-2.13.05-3.19.15-3.58.37-6,1.52-7.32,3.54a6.76,6.76,0,0,0-1,4.13,10.08,10.08,0,0,0,.35,2.1,15,15,0,0,0,1,2.69c1.53,3.07,4.29,5.55,8.44,7.59A35.57,35.57,0,0,0,25.73,136a63.11,63.11,0,0,0,7.36,1.54,104.55,104.55,0,0,0,16.26,1.1c5.19,0,10.69-.29,16.34-.85a130.59,130.59,0,0,0,13.54-2,52.63,52.63,0,0,0,5.63-1.44,1.59,1.59,0,0,0,1-.64,1.71,1.71,0,0,0,.25-1.22,1.65,1.65,0,0,0-.47-.92,1.46,1.46,0,0,0-.79-.73c-4.31-1.57-8.64-3.06-13-4.54l-5-1.73c-3.22-1.11-6.45-2.2-9.68-3.24-4.82-1.55-9.16-2.83-13.27-3.93a143.21,143.21,0,0,0-14-3.09,54.86,54.86,0,0,0-8.65-.8" />
        <path class="cls-2"
            d="M429,378.48a6.26,6.26,0,0,0-2.06,4.31c0,4.45.15,8.88-.1,13.32a99.45,99.45,0,0,1-1.7,13.22,106.76,106.76,0,0,1-7.71,23.33,80.05,80.05,0,0,1-4.13,7.29,67.39,67.39,0,0,1-5.22,6.87,45.27,45.27,0,0,1-8.23,7.4l-1.15.76a2.78,2.78,0,0,0-1.16,3.49,2.37,2.37,0,0,0,3.25,1.24c2.86-1.83,5.61-3.84,8.33-5.89a80.67,80.67,0,0,0,8.24-7.16,92.7,92.7,0,0,0,7.64-8.59,65.61,65.61,0,0,0,6.24-9.29,86.84,86.84,0,0,0,4.84-10.55A70.74,70.74,0,0,0,439.21,406a62.08,62.08,0,0,0,.9-11.37,46.11,46.11,0,0,0-1.51-12.48,6.64,6.64,0,0,0-1.3-2.91,5.78,5.78,0,0,0-4-2.23l-.48,0a5.7,5.7,0,0,0-3.83,1.49m-21,68.42-.22.26.22-.26" />
        <path id="_Path_5" data-name="&lt;Path&gt;" class="cls-2"
            d="M97,249.27a1.2,1.2,0,0,0-.91,1.41c4.47,15.51,7.59,31.41,10.95,47.23,3.4,16,6.75,32.07,10.72,48a306.19,306.19,0,0,0,15.08,45.9,137.92,137.92,0,0,0,10.73,20.52,60.59,60.59,0,0,0,12.69,14.11,55.54,55.54,0,0,0,10.59,6.65,48,48,0,0,0,12.39,3.86,65.21,65.21,0,0,0,12,1,111.1,111.1,0,0,0,14.24-.92c4.27-.54,8.51-1.33,12.72-2.23,4.95-1.06,9.81-2.43,14.74-3.61,3-.71,5.91-1.38,8.86-2.09,3.25-.8,6.47-1.77,9.69-2.71,3.47-1,6.91-2.24,10.3-3.52a41.88,41.88,0,0,0,4.67-2.09,18.83,18.83,0,0,0,1.75-1.12,21.05,21.05,0,0,0,3.66-2.9,10.5,10.5,0,0,0,2.81-4.32,11.18,11.18,0,0,0,.43-5.46,10.55,10.55,0,0,0-2.12-4.75,9.12,9.12,0,0,0-6.53-3.62,25.67,25.67,0,0,0-5.58.46,41.05,41.05,0,0,0-6.48,2.21c-3.16,1.22-6.24,2.67-9.33,4.07Q237,409,228.69,412.06c-3.6,1.17-7.26,2.15-10.91,3.18s-7.05,2-10.62,2.85a111.15,111.15,0,0,1-18.81,3.36,60.06,60.06,0,0,1-14.31-1.2,45.07,45.07,0,0,1-9.51-3.67,50.08,50.08,0,0,1-8.48-6.49,75.33,75.33,0,0,1-10.37-13.43c-10.22-17.19-17.5-36.15-23.42-55.47.08.25.15.48.23.73-4.57-15.06-8.35-30.38-12-45.69s-7.72-30.78-12.12-46a1.21,1.21,0,0,0-1.09-1l-.22,0" />
        <path id="_Path_6" data-name="&lt;Path&gt;" class="cls-2"
            d="M284.76,396a7.11,7.11,0,0,0-2.25,4.7c-.27,3.51,2.36,7.43,5.86,7.43a6.46,6.46,0,0,0,4.67-1.6,7.1,7.1,0,0,0,2.25-4.7c.28-3.51-2.36-7.43-5.86-7.43a6.46,6.46,0,0,0-4.67,1.6" />
    </g>
</svg>