<svg xmlns="http://www.w3.org/2000/svg" xmlns:xlink="http://www.w3.org/1999/xlink" viewBox="0 0 512 512"><defs><style>.cls-1{fill:none;}.cls-2{clip-path:url(#clip-path);}.cls-3{fill:#e7157b;fill-rule:evenodd;}.cls-4,.cls-7{fill:#211c1d;}.cls-5{fill:#ff260d;}.cls-6{fill:#fff;}.cls-7{opacity:0.2;}</style><clipPath id="clip-path"><polygon id="_Clipping_Path_" data-name="&lt;Clipping Path&gt;" class="cls-1" points="-147.58 -585.78 -545.67 -527.28 -510.21 -285.92 -425.99 -284.17 -327.25 -198.08 -339.58 -282.52 -117.54 -278.4 -147.58 -585.78"/></clipPath></defs><title>description_3</title><g id="OBJECTS"><g id="_Group_" data-name="&lt;Group&gt;"><g id="_Group_2" data-name="&lt;Group&gt;"><g id="_Clip_Group_" data-name="&lt;Clip Group&gt;"><g class="cls-2"><g id="_Group_3" data-name="&lt;Group&gt;"><path id="_Path_" data-name="&lt;Path&gt;" class="cls-3" d="M11.65,3.27a1.73,1.73,0,0,0-.22-.73,5.81,5.81,0,0,0-1.8-2A4.24,4.24,0,0,0,5.42.13,4.71,4.71,0,0,0,3.31,1.86a3.88,3.88,0,0,0-.59,3.31,4.56,4.56,0,0,0,5.38,3,4.22,4.22,0,0,0,2.14-1A4.87,4.87,0,0,0,11.65,3.27Z"/><path id="_Path_2" data-name="&lt;Path&gt;" class="cls-3" d="M26.06,7.16C28.43,6.69,30.3,4,29.54,2A4.56,4.56,0,0,0,24.17-.92a4,4,0,0,0-3,5.06A4.24,4.24,0,0,0,26.06,7.16Z"/><path id="_Path_3" data-name="&lt;Path&gt;" class="cls-3" d="M11.94,23.07a4,4,0,0,0,.1-2.76c-.08-.22-.19-.6-.35-.94a4.37,4.37,0,0,0-4.84-1.91c-3.05,1.31-3.76,4.28-1.66,6.59C6.79,25.82,10.67,25.81,11.94,23.07Z"/><path id="_Path_4" data-name="&lt;Path&gt;" class="cls-3" d="M47.09,1.12a3.46,3.46,0,0,0-3.22-2.85,4.08,4.08,0,0,0-4.65,4.4A3.69,3.69,0,0,0,41.49,5.6,3.77,3.77,0,0,0,44.21,6C46.41,5.21,47.76,3.3,47.09,1.12Z"/><path id="_Path_5" data-name="&lt;Path&gt;" class="cls-3" d="M8.35,35a3.83,3.83,0,0,0-3.1,4.64,4.44,4.44,0,0,0,4.8,2.64,3.78,3.78,0,0,0,2.79-4.49A3.63,3.63,0,0,0,8.35,35Z"/><path id="_Path_6" data-name="&lt;Path&gt;" class="cls-3" d="M25.71,16.76a14.31,14.31,0,0,0-1.54.43,2.42,2.42,0,0,0-1.41,1.28,6.39,6.39,0,0,0-.48,1.46A3.16,3.16,0,0,0,24,23.49a4,4,0,0,0,.72.34c2.22.66,3.37.58,4.78-1.52A3.08,3.08,0,0,0,30,19.77,3.62,3.62,0,0,0,25.71,16.76Z"/><path id="_Path_7" data-name="&lt;Path&gt;" class="cls-3" d="M60.77-2.56A4.16,4.16,0,0,0,57.54,1.7c.28,1.77,2.61,3.28,4.5,3A3.48,3.48,0,0,0,65.12.56,3.88,3.88,0,0,0,60.77-2.56Z"/><path id="_Path_8" data-name="&lt;Path&gt;" class="cls-3" d="M27.28,34a3.34,3.34,0,0,0-3.65,3.55,10.44,10.44,0,0,0,.64,2.17,2.41,2.41,0,0,0,2.23,1.31c.4,0,.79-.07,1.14-.1s.81-.2,1.18-.32a3.2,3.2,0,0,0,1.7-4.71A4,4,0,0,0,27.28,34Z"/><path id="_Path_9" data-name="&lt;Path&gt;" class="cls-3" d="M43.87,15.94a3.35,3.35,0,0,0-3,4.11,3.61,3.61,0,0,0,4.48,2.67A3.44,3.44,0,0,0,48,18.66,3.5,3.5,0,0,0,43.87,15.94Z"/><path id="_Path_10" data-name="&lt;Path&gt;" class="cls-3" d="M61.35,15.17A3.35,3.35,0,0,0,59,19.35a3.67,3.67,0,0,0,3.85,2.59c2.35-.49,3.74-2.39,3.19-4.41A3.54,3.54,0,0,0,61.35,15.17Z"/><path id="_Path_11" data-name="&lt;Path&gt;" class="cls-3" d="M44.53,33.25a3.44,3.44,0,1,0,1.83,6.61A3.39,3.39,0,0,0,49,36.16,4,4,0,0,0,44.53,33.25Z"/><path id="_Path_12" data-name="&lt;Path&gt;" class="cls-3" d="M78.64-3c-1.71.44-3.17,2.33-2.57,4.14.36,2.06,2.35,2.75,4.28,2.58S83.52,1.3,83.1-.71A3.68,3.68,0,0,0,78.64-3Z"/><path id="_Path_13" data-name="&lt;Path&gt;" class="cls-3" d="M10.2,52.4a3.49,3.49,0,0,0-3.62,2.37A3.51,3.51,0,0,0,10.9,58.9a3.36,3.36,0,0,0,2.67-2,2.78,2.78,0,0,0-.81-3.46A5.41,5.41,0,0,0,10.2,52.4Z"/><path id="_Path_14" data-name="&lt;Path&gt;" class="cls-3" d="M80.59,14.32a2.76,2.76,0,0,0-1.16.15,3.66,3.66,0,0,0-2.31,3.63,1.35,1.35,0,0,0,.22.72A5.18,5.18,0,0,0,81,20.9a2.8,2.8,0,0,0,.4,0,2.57,2.57,0,0,0,.37-.13A4.76,4.76,0,0,0,84,17.37a1.69,1.69,0,0,0-.26-1.08A3.81,3.81,0,0,0,80.59,14.32Z"/><path id="_Path_15" data-name="&lt;Path&gt;" class="cls-3" d="M95.52-3.25a1.56,1.56,0,0,0-.54.54A4.2,4.2,0,0,0,94.27.16a2,2,0,0,0,.51,1,3.39,3.39,0,0,0,3.46,1.12,3.32,3.32,0,0,0,2.84-2.46,2.49,2.49,0,0,0-.55-2.48A3.72,3.72,0,0,0,95.52-3.25Z"/><path id="_Path_16" data-name="&lt;Path&gt;" class="cls-3" d="M27.65,51.88a3.22,3.22,0,0,0-2.75,2.33,2.56,2.56,0,0,0,.69,2.8,3.85,3.85,0,0,0,4.73.47,2,2,0,0,0,.56-.53,4.19,4.19,0,0,0,.8-2.86,1.83,1.83,0,0,0-.44-1A3.44,3.44,0,0,0,27.65,51.88Z"/><path id="_Path_17" data-name="&lt;Path&gt;" class="cls-3" d="M65.62,33.2a3.87,3.87,0,0,0-3-.79,3.62,3.62,0,0,0-.73.35A5.37,5.37,0,0,0,60,35.61a1.58,1.58,0,0,0,.31,1.44,5.7,5.7,0,0,0,3,1.84,1.94,1.94,0,0,0,1.84-.47,5.07,5.07,0,0,0,1.63-2.58,2.38,2.38,0,0,0-.18-1.46A3.62,3.62,0,0,0,65.62,33.2Z"/><path id="_Path_18" data-name="&lt;Path&gt;" class="cls-3" d="M10.29,70a3.44,3.44,0,0,0-2.64,3,3.05,3.05,0,0,0,2.14,2.9,3.5,3.5,0,0,0,2.33.05,2.52,2.52,0,0,0,2.13-2,3.83,3.83,0,0,0,.14-1.84A3.3,3.3,0,0,0,10.29,70Z"/><path id="_Path_19" data-name="&lt;Path&gt;" class="cls-3" d="M45.48,51.08c-1.65.45-2.37,1.52-2,3l.11.45A3.15,3.15,0,0,0,46.32,57,2.92,2.92,0,0,0,49,55.65a2.59,2.59,0,0,0,0-3.45A3,3,0,0,0,45.48,51.08Z"/><path id="_Path_20" data-name="&lt;Path&gt;" class="cls-3" d="M115.41-4.68A3.08,3.08,0,0,0,112.95-1,3.29,3.29,0,0,0,117,1.14a3.21,3.21,0,0,0,1.93-3.4A3.37,3.37,0,0,0,115.41-4.68Z"/><path id="_Path_21" data-name="&lt;Path&gt;" class="cls-3" d="M99,13.63a2,2,0,0,0-2.2.44c-1.4,1.42-1.5,2.73-.46,4.5a2,2,0,0,0,1.66.9,7.37,7.37,0,0,0,1-.06,3.2,3.2,0,0,0,2.7-3.74,1.12,1.12,0,0,0-.38-.64A22.43,22.43,0,0,0,99,13.63Z"/><path id="_Path_22" data-name="&lt;Path&gt;" class="cls-3" d="M81.71,32a6.38,6.38,0,0,0-1.57.33,2.19,2.19,0,0,0-1.54,2.41A6.54,6.54,0,0,0,79,36.23a2.3,2.3,0,0,0,2.26,1.3,2,2,0,0,0,.44-.05c1.7-.26,2.47-1,2.79-2.27A2.53,2.53,0,0,0,81.71,32Z"/><path id="_Path_23" data-name="&lt;Path&gt;" class="cls-3" d="M29.06,69.18a2.14,2.14,0,0,0-1.14.29,3.06,3.06,0,0,0-1.41,3.31A3.24,3.24,0,0,0,29.43,75a2.07,2.07,0,0,0,1.13-.29A3.06,3.06,0,0,0,32,71.43,3.24,3.24,0,0,0,29.06,69.18Z"/><path id="_Path_24" data-name="&lt;Path&gt;" class="cls-3" d="M63.93,50.21a3.12,3.12,0,0,0-2.28,3.18,2.34,2.34,0,0,0,2.72,2.16,7.79,7.79,0,0,0,1.53-.41A2.11,2.11,0,0,0,67.22,53c0-.25-.08-.5-.12-.75s-.15-.49-.24-.73A2.39,2.39,0,0,0,63.93,50.21Z"/><path id="_Path_25" data-name="&lt;Path&gt;" class="cls-3" d="M47.25,68.36a1.92,1.92,0,0,0-1.13.23,3.15,3.15,0,0,0-1.6,2.48,2.37,2.37,0,0,0,2.71,2.54c.26,0,.52-.11.77-.17,2-.46,2.72-2.28,1.57-3.76A3.37,3.37,0,0,0,47.25,68.36Z"/><path id="_Path_26" data-name="&lt;Path&gt;" class="cls-3" d="M12.11,87.79c-.13,0-.26.05-.39.08h0c-.26.06-.52.1-.77.18a2.26,2.26,0,0,0-1.26,3.41A3.36,3.36,0,0,0,12.26,93a1.94,1.94,0,0,0,1.13-.28,3.2,3.2,0,0,0,1.47-2.16A2.38,2.38,0,0,0,12.11,87.79Z"/><path id="_Path_27" data-name="&lt;Path&gt;" class="cls-3" d="M100.28,31.23a3,3,0,0,0-3.38,3,1.76,1.76,0,0,0,.45,1,4.59,4.59,0,0,0,1.27.92,2.66,2.66,0,0,0,3-.31,2.33,2.33,0,0,0,.6-2.64,5.58,5.58,0,0,0-.36-.91A2.12,2.12,0,0,0,100.28,31.23Z"/><path id="_Path_28" data-name="&lt;Path&gt;" class="cls-3" d="M81.44,49.59A3.08,3.08,0,0,0,79.77,52a1.65,1.65,0,0,0,.3,1.07,3.44,3.44,0,0,0,2.32,1.37,2.34,2.34,0,0,0,2.82-2.43c0-.25-.08-.5-.13-.75A2.43,2.43,0,0,0,81.44,49.59Z"/><path id="_Path_29" data-name="&lt;Path&gt;" class="cls-3" d="M116.67,13.18a7.06,7.06,0,0,0-1.53.43,1.43,1.43,0,0,0-.6.48,2.33,2.33,0,0,0,.25,3.12,3.59,3.59,0,0,0,2.5,1A1.19,1.19,0,0,0,118,18a2.84,2.84,0,0,0,1.25-3A2.21,2.21,0,0,0,116.67,13.18Z"/><path id="_Path_30" data-name="&lt;Path&gt;" class="cls-3" d="M31.59,87.17c-1.8-.62-3.89,0-4,2.29a1.12,1.12,0,0,0,.22.7A3.05,3.05,0,0,0,31,91.42a2.18,2.18,0,0,0,1.79-3A1.78,1.78,0,0,0,31.59,87.17Z"/><path id="_Path_31" data-name="&lt;Path&gt;" class="cls-3" d="M65,68.12l-.75.21a1.42,1.42,0,0,0-1,1.45,5.4,5.4,0,0,0,.59,1.81,2.28,2.28,0,0,0,1.26.85,2.4,2.4,0,0,0,2.53-.76,2.08,2.08,0,0,0,.33-2.17C67.53,68.34,66.47,67.84,65,68.12Z"/></g></g></g></g></g><g id="_Group_4" data-name="&lt;Group&gt;"><g id="_Group_5" data-name="&lt;Group&gt;"><path id="_Path_32" data-name="&lt;Path&gt;" class="cls-4" d="M248,257.09c-5.95.08-10.67-4.25-10.67-9.78s4.53-9.69,10.34-9.77,10.67,4.25,10.67,9.78S253.78,257,248,257.09Z"/><path id="_Path_33" data-name="&lt;Path&gt;" class="cls-4" d="M255.8,216.56c5.93.23,10.34,4.8,10,10.36-.33,5.38-5.11,9.39-10.95,9.16s-10.34-4.8-10-10.36C245.17,220.34,250,216.34,255.8,216.56Z"/><path id="_Path_34" data-name="&lt;Path&gt;" class="cls-4" d="M224.86,250.08c-5.93-.19-10.38-4.74-10.08-10.3.29-5.38,5.05-9.43,10.88-9.24s10.38,4.74,10.08,10.3C235.45,246.23,230.68,250.28,224.86,250.08Z"/><path id="_Path_35" data-name="&lt;Path&gt;" class="cls-4" d="M278.68,243.1c-5.95.06-10.65-4.29-10.62-9.82s4.57-9.67,10.38-9.73,10.65,4.29,10.62,9.82S284.49,243,278.68,243.1Z"/><path id="_Path_36" data-name="&lt;Path&gt;" class="cls-4" d="M240.43,278.71c-5.95.07-10.66-4.27-10.64-9.8s4.55-9.68,10.36-9.75,10.66,4.27,10.64,9.8S246.24,278.65,240.43,278.71Z"/><path id="_Path_37" data-name="&lt;Path&gt;" class="cls-4" d="M281.53,254.68c-.21,5.52-5.09,9.66-11.06,9.38-5.78-.27-10.13-4.7-9.92-10.13s5.09-9.66,11.06-9.38C277.39,244.82,281.74,249.26,281.53,254.68Z"/><path id="_Path_38" data-name="&lt;Path&gt;" class="cls-4" d="M289.56,303.8c.06,5.45-4.44,9.71-10.27,9.73s-10.39-4.2-10.37-9.64,4.43-9.49,10.1-9.57C284.89,294.23,289.5,298.38,289.56,303.8Z"/><path id="_Path_39" data-name="&lt;Path&gt;" class="cls-4" d="M263.57,285.67c-6,0-10.56-4.29-10.5-9.84s4.59-9.6,10.4-9.62S274,270.5,274,276,269.39,285.64,263.57,285.67Z"/><path id="_Path_40" data-name="&lt;Path&gt;" class="cls-4" d="M250,197.74c0,5.44-4.53,9.64-10.37,9.65s-10.55-4.3-10.46-9.89c.09-5.41,4.68-9.55,10.54-9.5S250,192.3,250,197.74Z"/><path id="_Path_41" data-name="&lt;Path&gt;" class="cls-4" d="M255.9,306.58c-5.82,0-10.28-4.25-10.27-9.68s4.65-9.75,10.66-9.64c5.78.11,10.18,4.39,10.1,9.84S261.74,306.63,255.9,306.58Z"/><path id="_Path_42" data-name="&lt;Path&gt;" class="cls-4" d="M273.29,204.61c0,5.42-4.39,9.71-10.19,9.82-6,.12-10.67-4.1-10.72-9.64s4.57-9.86,10.53-9.82S273.25,199.2,273.29,204.61Z"/><path id="_Path_43" data-name="&lt;Path&gt;" class="cls-4" d="M232.89,300.22c-5.85,0-10.41-4.07-10.5-9.47-.09-5.58,4.46-9.87,10.43-9.85s10.31,4.2,10.33,9.63S238.71,300.18,232.89,300.22Z"/><path id="_Path_44" data-name="&lt;Path&gt;" class="cls-4" d="M311.56,240.31c0,5.54-4.65,9.81-10.62,9.74-5.81-.07-10.29-4.31-10.29-9.72s4.65-9.81,10.62-9.74C307.07,230.66,311.56,234.89,311.56,240.31Z"/><path id="_Path_45" data-name="&lt;Path&gt;" class="cls-4" d="M227.38,190.83c-.06,5.42-4.67,9.57-10.54,9.48s-10.23-4.42-10.1-9.89c.13-5.27,4.66-9.34,10.37-9.32S227.44,185.38,227.38,190.83Z"/><path id="_Path_46" data-name="&lt;Path&gt;" class="cls-4" d="M194.53,245.31c5.84,0,10.33,4.22,10.32,9.66s-4.53,9.62-10.38,9.61-10.33-4.22-10.32-9.66S188.69,245.3,194.53,245.31Z"/><path id="_Path_47" data-name="&lt;Path&gt;" class="cls-4" d="M303.91,190.12c0,5.43-4.6,9.62-10.46,9.56s-10.28-4.35-10.19-9.81c.09-5.28,4.58-9.39,10.29-9.4S303.93,184.68,303.91,190.12Z"/><path id="_Path_48" data-name="&lt;Path&gt;" class="cls-4" d="M220.57,283.46c0,5.45-4.41,9.69-10.23,9.74s-10.41-4.11-10.46-9.53,4.41-9.69,10.23-9.74S220.52,278,220.57,283.46Z"/><path id="_Path_49" data-name="&lt;Path&gt;" class="cls-4" d="M324.21,256.29c-5.82,0-10.29-4.34-10.2-9.8s4.74-9.53,10.62-9.41c5.66.11,10,4.33,10,9.64S330.07,256.33,324.21,256.29Z"/><path id="_Path_50" data-name="&lt;Path&gt;" class="cls-4" d="M327.17,268.57c-.12,5.39-4.77,9.48-10.64,9.36s-10.18-4.44-10.06-9.9,4.77-9.48,10.64-9.36S327.29,263.11,327.17,268.57Z"/><path id="_Path_51" data-name="&lt;Path&gt;" class="cls-4" d="M286.27,273.24c5.82.08,10.27,4.34,10.22,9.79s-4.76,9.74-10.78,9.59c-5.79-.15-10.17-4.48-10.05-9.95S280.4,273.16,286.27,273.24Z"/><path id="_Path_52" data-name="&lt;Path&gt;" class="cls-4" d="M212.4,233.26c0,5.44-4.42,9.66-10.22,9.73-6,.06-10.58-4.19-10.53-9.75s4.56-9.57,10.39-9.57S212.37,227.83,212.4,233.26Z"/><path id="_Path_53" data-name="&lt;Path&gt;" class="cls-4" d="M280.7,183c0,5.44-4.45,9.67-10.28,9.69S260,188.56,260,183.14s4.45-9.67,10.28-9.69S280.68,177.59,280.7,183Z"/><path id="_Path_54" data-name="&lt;Path&gt;" class="cls-4" d="M242.54,219.27c0,5.55-4.6,9.84-10.57,9.78-5.81-.05-10.31-4.26-10.34-9.68s4.6-9.83,10.57-9.78C238,209.65,242.52,213.86,242.54,219.27Z"/><path id="_Path_55" data-name="&lt;Path&gt;" class="cls-4" d="M293.44,251.58c6-.07,10.61,4.21,10.6,9.75s-4.5,9.64-10.31,9.71c-6,.07-10.61-4.21-10.6-9.75S287.63,251.64,293.44,251.58Z"/><path id="_Path_56" data-name="&lt;Path&gt;" class="cls-4" d="M319,218.84c-.07,5.41-4.61,9.54-10.45,9.51s-10.45-4.38-10.3-10c.14-5.37,4.77-9.45,10.62-9.36S319.07,213.4,319,218.84Z"/><path id="_Path_57" data-name="&lt;Path&gt;" class="cls-4" d="M296.53,211.7c0,5.54-4.66,9.81-10.63,9.73-5.8-.08-10.28-4.32-10.28-9.73s4.66-9.81,10.63-9.73C292,202,296.53,206.28,296.53,211.7Z"/><path id="_Path_58" data-name="&lt;Path&gt;" class="cls-4" d="M219.92,212.29c0,5.43-4.43,9.65-10.24,9.71-6,.06-10.57-4.21-10.51-9.77.05-5.41,4.58-9.56,10.41-9.55S219.9,206.86,219.92,212.29Z"/><path id="_Path_59" data-name="&lt;Path&gt;" class="cls-4" d="M217.78,271.67c-6,0-10.56-4.3-10.49-9.85s4.59-9.59,10.41-9.61,10.56,4.3,10.49,9.85S223.6,271.65,217.78,271.67Z"/><path id="_Path_60" data-name="&lt;Path&gt;" class="cls-4" d="M309.2,280.34c5.82,0,10.39,4.17,10.4,9.57s-4.55,9.63-10.36,9.6-10.15-4.15-10.23-9.41C298.92,284.68,303.41,280.39,309.2,280.34Z"/><path id="_Path_61" data-name="&lt;Path&gt;" class="cls-4" d="M257.42,176.8c0,5.39-4.65,9.57-10.48,9.5s-10.23-4.41-10.12-9.83c.11-5.24,4.64-9.34,10.31-9.34S257.46,171.39,257.42,176.8Z"/><path id="_Path_62" data-name="&lt;Path&gt;" class="cls-4" d="M202.65,314.09c-5.59,0-10.17-4.31-10.18-9.51s4.74-9.67,10.47-9.55,10.09,4.46,10,9.67S208.24,314.12,202.65,314.09Z"/><path id="_Path_63" data-name="&lt;Path&gt;" class="cls-4" d="M312,311c-.06,5.2-4.67,9.44-10.26,9.43s-10.37-4.47-10.22-9.79,4.84-9.37,10.43-9.27S312.09,305.81,312,311Z"/><path id="_Path_64" data-name="&lt;Path&gt;" class="cls-4" d="M225.1,302c5.66-.07,10.3,4.08,10.42,9.32.12,5.4-4.48,9.78-10.27,9.77S215,316.88,215,311.62,219.46,302.08,225.1,302Z"/><path id="_Path_65" data-name="&lt;Path&gt;" class="cls-4" d="M342.13,225.92c-.11,5.37-4.86,9.52-10.69,9.33-5.62-.17-10-4.5-9.86-9.79s4.86-9.51,10.69-9.33C337.89,216.3,342.24,220.62,342.13,225.92Z"/><path id="_Path_66" data-name="&lt;Path&gt;" class="cls-4" d="M224.44,160.19c5.6-.06,10.26,4.13,10.37,9.33s-4.55,9.75-10.28,9.73-10.18-4.29-10.2-9.49S218.85,160.25,224.44,160.19Z"/><path id="_Path_67" data-name="&lt;Path&gt;" class="cls-4" d="M178.84,217.41c5.65,0,10.19,4.25,10.2,9.52s-4.68,9.68-10.48,9.58c-5.63-.1-10.1-4.41-10-9.67S173.2,217.39,178.84,217.41Z"/><path id="_Path_68" data-name="&lt;Path&gt;" class="cls-4" d="M161,248c0-5.21,4.54-9.5,10.13-9.56s10.43,4.33,10.35,9.66-4.71,9.43-10.3,9.4S161,253.18,161,248Z"/><path id="_Path_69" data-name="&lt;Path&gt;" class="cls-4" d="M186.86,286.14c-5.79-.05-10.29-4.42-10.15-9.84.13-5.24,4.73-9.34,10.4-9.29s10.29,4.42,10.15,9.84C197.13,282.09,192.54,286.19,186.86,286.14Z"/><path id="_Path_70" data-name="&lt;Path&gt;" class="cls-4" d="M316.25,187.5c5.79.05,10.29,4.41,10.16,9.83-.13,5.24-4.72,9.35-10.39,9.3s-10.29-4.41-10.16-9.83C306,191.56,310.58,187.45,316.25,187.5Z"/><path id="_Path_71" data-name="&lt;Path&gt;" class="cls-4" d="M186.2,195.79c5.65,0,10.27,4.13,10.36,9.37.09,5.39-4.54,9.75-10.32,9.72s-10.18-4.27-10.19-9.53S180.56,195.84,186.2,195.79Z"/><path id="_Path_72" data-name="&lt;Path&gt;" class="cls-4" d="M258.75,318.66c-.06,5.25-4.64,9.45-10.29,9.43s-10.36-4.42-10.22-9.82c.14-5.24,4.8-9.37,10.46-9.27S258.8,313.4,258.75,318.66Z"/><path id="_Path_73" data-name="&lt;Path&gt;" class="cls-4" d="M281.94,325.48c0,5.19-4.56,9.54-10.14,9.58s-10.25-4.25-10.29-9.44,4.56-9.54,10.14-9.58S281.9,320.28,281.94,325.48Z"/><path id="_Path_74" data-name="&lt;Path&gt;" class="cls-4" d="M339.9,265.79c5.57-.08,10.28,4.17,10.37,9.37s-4.48,9.57-10.06,9.65-10.28-4.17-10.37-9.37S334.32,265.87,339.9,265.79Z"/><path id="_Path_75" data-name="&lt;Path&gt;" class="cls-4" d="M277.88,152.58c5.58,0,10.21,4.33,10.21,9.52s-4.65,9.51-10.23,9.5-10.21-4.33-10.21-9.52S272.31,152.57,277.88,152.58Z"/><path id="_Path_76" data-name="&lt;Path&gt;" class="cls-4" d="M193.75,174.22c5.53,0,10.22,4.26,10.27,9.42s-4.57,9.52-10.12,9.56-10.22-4.26-10.27-9.42S188.21,174.27,193.75,174.22Z"/><path id="_Path_77" data-name="&lt;Path&gt;" class="cls-4" d="M300.32,159.59c5.53-.06,10.23,4.23,10.29,9.39s-4.55,9.52-10.09,9.58-10.23-4.23-10.29-9.39S294.77,159.65,300.32,159.59Z"/><path id="_Path_78" data-name="&lt;Path&gt;" class="cls-4" d="M357.76,253.58c.06,5.15-4.54,9.53-10.09,9.59s-10.23-4.23-10.3-9.39,4.55-9.53,10.09-9.59S357.7,248.41,357.76,253.58Z"/><path id="_Path_79" data-name="&lt;Path&gt;" class="cls-4" d="M349.56,204.32c-.17,5.16-5,9.39-10.47,9.23s-10.08-4.62-9.92-9.74,5-9.39,10.47-9.23S349.73,199.19,349.56,204.32Z"/><path id="_Path_80" data-name="&lt;Path&gt;" class="cls-4" d="M173.9,269.58c0,5.15-4.81,9.54-10.31,9.43s-10-4.42-10-9.44,4.81-9.54,10.31-9.43S173.9,264.56,173.9,269.58Z"/><path id="_Path_81" data-name="&lt;Path&gt;" class="cls-4" d="M333.79,176.08c0,5.15-4.81,9.54-10.31,9.43s-10-4.42-10-9.44,4.81-9.54,10.31-9.43S333.8,171.06,333.79,176.08Z"/><path id="_Path_82" data-name="&lt;Path&gt;" class="cls-4" d="M342.71,297.18c-.18,5.16-5,9.42-10.53,9.21s-10.09-4.79-9.8-9.88,5-9.16,10.35-9.05C338.27,287.57,342.88,292.07,342.71,297.18Z"/><path id="_Path_83" data-name="&lt;Path&gt;" class="cls-4" d="M179.47,288.12c5.53,0,10.26,4.47,10.14,9.59S184.87,307,179.48,307s-10.26-4.47-10.14-9.59S174.08,288.12,179.47,288.12Z"/><path id="_Path_84" data-name="&lt;Path&gt;" class="cls-4" d="M354.53,242.12c-5.51.08-10.29-4.34-10.26-9.48s4.6-9.32,10-9.39,10.29,4.34,10.26,9.48S359.94,242,354.53,242.12Z"/><path id="_Path_85" data-name="&lt;Path&gt;" class="cls-4" d="M264.81,155.08c0,5.14-4.73,9.52-10.25,9.47s-10.2-4.49-10.09-9.62,4.67-9.26,10.08-9.32S264.8,149.94,264.81,155.08Z"/><path id="_Path_86" data-name="&lt;Path&gt;" class="cls-4" d="M173.77,198.27c.05,5-4.5,9.34-9.94,9.39s-10-4.19-10.09-9.25,4.5-9.34,9.94-9.39S173.72,193.2,173.77,198.27Z"/><path id="_Path_87" data-name="&lt;Path&gt;" class="cls-4" d="M232.08,138.77c5.43,0,10,4.25,10,9.31s-4.57,9.33-10,9.34-10-4.25-10-9.31S226.64,138.78,232.08,138.77Z"/><path id="_Path_88" data-name="&lt;Path&gt;" class="cls-4" d="M335,317.85c0,5-4.5,9.34-9.95,9.39S315.05,323,315,318s4.5-9.34,9.95-9.39S335,312.78,335,317.85Z"/><path id="_Path_89" data-name="&lt;Path&gt;" class="cls-4" d="M201.43,172c-5.42.06-10-4.17-10.11-9.24s4.48-9.35,9.93-9.41,10,4.17,10.11,9.24S206.88,172,201.43,172Z"/><path id="_Path_90" data-name="&lt;Path&gt;" class="cls-4" d="M166.26,220c-.05,5.07-4.67,9.3-10.09,9.25s-10-4.35-9.94-9.4,4.67-9.3,10.09-9.25S166.31,215,166.26,220Z"/><path id="_Path_91" data-name="&lt;Path&gt;" class="cls-4" d="M294.27,341.91c-5.4,0-10-4.25-10.06-9.29s4.73-9.56,10.23-9.44,10,4.43,9.89,9.45S299.67,341.91,294.27,341.91Z"/><path id="_Path_92" data-name="&lt;Path&gt;" class="cls-4" d="M217.83,323.85c5.45.06,10,4.36,9.93,9.4s-4.69,9.3-10.1,9.24-10-4.36-9.93-9.41S212.41,323.8,217.83,323.85Z"/><path id="_Path_93" data-name="&lt;Path&gt;" class="cls-4" d="M241,330.85c5.43,0,10,4.25,10,9.31s-4.57,9.33-10,9.34-10-4.25-10-9.31S235.52,330.86,241,330.85Z"/><path id="_Path_94" data-name="&lt;Path&gt;" class="cls-4" d="M205.08,326c.09,5.13-4.31,9.31-9.83,9.34s-10-4.1-10-9.23,4.27-9.06,9.66-9.18S205,320.91,205.08,326Z"/><path id="_Path_95" data-name="&lt;Path&gt;" class="cls-4" d="M149,231.75c5.53.15,9.83,4.41,9.62,9.53s-4.81,9.11-10.32,8.87-9.56-4.35-9.46-9.36S143.49,231.6,149,231.75Z"/><path id="_Path_96" data-name="&lt;Path&gt;" class="cls-4" d="M308,156.51c-5.49,0-9.75-3.81-9.83-8.88-.09-5.24,4.19-9.26,9.8-9.23s9.65,3.95,9.66,9S313.5,156.47,308,156.51Z"/><path id="_Path_97" data-name="&lt;Path&gt;" class="cls-4" d="M372.38,282.19c.06,5.11-4.1,9.12-9.57,9.21-5.63.09-10-3.92-10-9.15s4.26-9,9.74-9S372.32,277.09,372.38,282.19Z"/><path id="_Path_98" data-name="&lt;Path&gt;" class="cls-4" d="M370.22,269.73c-5.49,0-9.75-3.81-9.83-8.88-.09-5.24,4.19-9.26,9.8-9.23s9.65,3.95,9.66,9S375.68,269.68,370.22,269.73Z"/><path id="_Path_99" data-name="&lt;Path&gt;" class="cls-4" d="M156.17,281.47c5.49,0,9.77,3.85,9.85,8.95s-4.24,9.29-9.87,9.25-9.68-4-9.68-9.11S150.69,281.5,156.17,281.47Z"/><path id="_Path_100" data-name="&lt;Path&gt;" class="cls-4" d="M171.29,167.62c5.48,0,9.72,3.93,9.75,9s-4.33,9.25-10,9.16c-5.47-.08-9.63-4.08-9.58-9.19S165.81,167.61,171.29,167.62Z"/><path id="_Path_101" data-name="&lt;Path&gt;" class="cls-4" d="M285.38,149.52c-5.47,0-9.69-3.9-9.73-9s4.28-9.21,9.91-9.13c5.45.07,9.6,4,9.55,9.14S290.86,149.52,285.38,149.52Z"/><path id="_Path_102" data-name="&lt;Path&gt;" class="cls-4" d="M346.77,192.22c-5.57-.06-9.86-4.21-9.71-9.41s4.49-8.94,9.94-8.88,9.86,4.21,9.71,9.41S352.23,192.27,346.77,192.22Z"/><path id="_Path_103" data-name="&lt;Path&gt;" class="cls-4" d="M362,220.21c-5.45.06-9.8-3.82-9.94-8.88s4.13-9.36,9.71-9.41,10,4,9.94,9.19S367.49,220.15,362,220.21Z"/><path id="_Path_104" data-name="&lt;Path&gt;" class="cls-4" d="M264.08,356.32c-5.57-.06-9.85-4.22-9.7-9.42s4.5-8.93,10-8.87,9.85,4.22,9.7,9.42S269.53,356.38,264.08,356.32Z"/><path id="_Path_105" data-name="&lt;Path&gt;" class="cls-4" d="M271.82,133.34c.06,5.12-4.14,9.1-9.62,9.12s-9.73-3.93-9.71-9,4.13-8.87,9.45-9C267.45,124.38,271.76,128.26,271.82,133.34Z"/><path id="_Path_106" data-name="&lt;Path&gt;" class="cls-4" d="M141.24,271.57c-5.48,0-9.72-3.94-9.69-9s4.31-9,9.8-8.94c5.33.06,9.47,3.93,9.52,8.89C150.92,267.59,146.71,271.56,141.24,271.57Z"/><path id="_Path_107" data-name="&lt;Path&gt;" class="cls-4" d="M355,294.9c5.49,0,9.74,3.85,9.78,8.94s-4.14,9.07-9.61,9.1-9.74-3.85-9.78-8.94S349.53,294.93,355,294.9Z"/><path id="_Path_108" data-name="&lt;Path&gt;" class="cls-4" d="M172,310.19c5.48,0,9.69,4,9.65,9.09s-4.34,9-9.85,8.9c-5.32-.07-9.45-4-9.48-8.93S166.49,310.19,172,310.19Z"/><path id="_Path_109" data-name="&lt;Path&gt;" class="cls-4" d="M218.49,141.2c0,5.06-4.36,8.95-9.83,8.87s-9.56-4.13-9.44-9.22c.12-4.9,4.35-8.72,9.65-8.71S218.54,136.12,218.49,141.2Z"/><path id="_Path_110" data-name="&lt;Path&gt;" class="cls-4" d="M387.27,240c-.13,5-4.53,8.85-10,8.69s-9.46-4.28-9.25-9.39c.2-4.88,4.5-8.62,9.83-8.54S387.4,234.86,387.27,240Z"/><path id="_Path_111" data-name="&lt;Path&gt;" class="cls-4" d="M340.81,154.58c-.06,5-4.39,8.93-9.86,8.84s-9.55-4.16-9.41-9.25c.13-4.9,4.38-8.7,9.69-8.68S340.87,149.5,340.81,154.58Z"/><path id="_Path_112" data-name="&lt;Path&gt;" class="cls-4" d="M317.76,330.57c5.4.1,9.53,4.18,9.38,9.28s-4.57,8.82-10.05,8.65c-5.25-.17-9.28-4.16-9.21-9.12S312.29,330.47,317.76,330.57Z"/><path id="_Path_113" data-name="&lt;Path&gt;" class="cls-4" d="M178.12,164.67c-5.43,0-9.69-4-9.62-9.09.07-4.91,4.3-8.79,9.6-8.79s9.69,4,9.62,9.09C187.65,160.79,183.41,164.67,178.12,164.67Z"/><path id="_Path_114" data-name="&lt;Path&gt;" class="cls-4" d="M286.7,363.11c-5.42,0-9.65-4.08-9.55-9.16.1-4.9,4.36-8.76,9.67-8.73s9.66,4.08,9.55,9.16C296.27,359.28,292,363.13,286.7,363.11Z"/><path id="_Path_115" data-name="&lt;Path&gt;" class="cls-4" d="M369.38,181.17c5.24,0,9.55,3.91,9.62,8.77s-4.3,9.09-9.68,9-9.46-4.06-9.45-8.93S364.15,181.19,369.38,181.17Z"/><path id="_Path_116" data-name="&lt;Path&gt;" class="cls-4" d="M249.15,126.36c.06,4.86-4.21,8.93-9.43,9s-9.6-3.92-9.66-8.78,4.21-8.93,9.43-9S249.09,121.5,249.15,126.36Z"/><path id="_Path_117" data-name="&lt;Path&gt;" class="cls-4" d="M357.13,325.17c-.14,4.85-4.52,8.73-9.76,8.64s-9.6-4.31-9.36-9.32c.23-4.84,4.68-8.65,9.92-8.48S357.27,320.29,357.13,325.17Z"/><path id="_Path_118" data-name="&lt;Path&gt;" class="cls-4" d="M210.16,345.28c5.22,0,9.57,4,9.61,8.82s-4.26,8.91-9.48,8.95-9.57-4-9.61-8.82S204.94,345.32,210.16,345.28Z"/><path id="_Path_119" data-name="&lt;Path&gt;" class="cls-4" d="M158.9,312.23c0,4.83-4.45,8.87-9.62,8.8s-9.5-4.24-9.37-9,4.4-8.61,9.45-8.64S158.93,307.41,158.9,312.23Z"/><path id="_Path_120" data-name="&lt;Path&gt;" class="cls-4" d="M133.16,204.11c5.22.08,9.51,4.25,9.37,9.08s-4.65,8.82-9.84,8.64-9.24-4.2-9.2-8.92S128,204,133.16,204.11Z"/><path id="_Path_121" data-name="&lt;Path&gt;" class="cls-4" d="M125.49,242.77c-5.16,0-9.58-4.18-9.47-9s4.42-8.65,9.46-8.65,9.58,4.18,9.47,9S130.54,242.77,125.49,242.77Z"/><path id="_Path_122" data-name="&lt;Path&gt;" class="cls-4" d="M354.57,152.61c5.19.1,9.49,4.28,9.33,9.07s-4.69,8.8-9.83,8.6-9.21-4.22-9.16-8.91S349.41,152.52,354.57,152.61Z"/><path id="_Path_123" data-name="&lt;Path&gt;" class="cls-4" d="M140.52,200.21c-5.22,0-9.57-4.1-9.52-8.95s4.49-8.88,9.7-8.78,9.3,4.05,9.35,8.79S145.74,200.21,140.52,200.21Z"/><path id="_Path_124" data-name="&lt;Path&gt;" class="cls-4" d="M394.65,217.92c.09,4.81-4.25,8.94-9.44,9s-9.57-4-9.55-8.86,4.2-8.68,9.27-8.81S394.56,213.1,394.65,217.92Z"/><path id="_Path_125" data-name="&lt;Path&gt;" class="cls-4" d="M143.19,283.69c-.09,4.83-4.56,8.84-9.72,8.71s-9.46-4.33-9.27-9.12,4.5-8.58,9.54-8.55S143.27,278.88,143.19,283.69Z"/><path id="_Path_126" data-name="&lt;Path&gt;" class="cls-4" d="M187.68,338.36c5.16,0,9.58,4.19,9.46,9s-4.42,8.65-9.47,8.65-9.58-4.19-9.46-9S182.63,338.36,187.68,338.36Z"/><path id="_Path_127" data-name="&lt;Path&gt;" class="cls-4" d="M233.62,352.3c5.22.09,9.51,4.26,9.36,9.1s-4.67,8.81-9.86,8.63-9.23-4.21-9.19-8.94S228.42,352.21,233.62,352.3Z"/><path id="_Path_128" data-name="&lt;Path&gt;" class="cls-4" d="M256.69,359.39c5,0,9.37,4,9.42,8.7s-4.45,9-9.6,8.85-9.31-4.17-9.25-8.86S251.65,359.38,256.69,359.39Z"/><path id="_Path_129" data-name="&lt;Path&gt;" class="cls-4" d="M148.13,178.45c-5,.05-9.41-3.94-9.47-8.66S142.9,161,148,161s9.41,3.95,9.47,8.66S153.19,178.4,148.13,178.45Z"/><path id="_Path_130" data-name="&lt;Path&gt;" class="cls-4" d="M319.32,361.14c0,4.69-4.26,8.7-9.31,8.72s-9.34-4-9.37-8.66,4.26-8.7,9.31-8.72S319.3,356.43,319.32,361.14Z"/><path id="_Path_131" data-name="&lt;Path&gt;" class="cls-4" d="M315.51,135.1c-5.1,0-9.35-3.91-9.33-8.66s4.3-8.67,9.39-8.6,9.07,3.86,9.16,8.5S320.62,135.07,315.51,135.1Z"/><path id="_Path_132" data-name="&lt;Path&gt;" class="cls-4" d="M395.11,289.29c0,4.75-4.26,8.69-9.35,8.64s-9.3-4-9.2-8.78,4.2-8.43,9.18-8.48S395.11,284.54,395.11,289.29Z"/><path id="_Path_133" data-name="&lt;Path&gt;" class="cls-4" d="M164.5,332.24c5.17,0,9.28,4,9.14,8.78s-4.23,8.38-9.26,8.35-9.28-4-9.14-8.78S159.47,332.21,164.5,332.24Z"/><path id="_Path_134" data-name="&lt;Path&gt;" class="cls-4" d="M340,355.17c-5.11,0-9.31-4-9.21-8.78s4.44-8.63,9.51-8.49,9,4,9,8.62S345.08,355.21,340,355.17Z"/><path id="_Path_135" data-name="&lt;Path&gt;" class="cls-4" d="M185.63,142.73c-5.1,0-9.33-4-9.28-8.71s4.35-8.66,9.44-8.56,9.05,3.91,9.11,8.55S190.73,142.73,185.63,142.73Z"/><path id="_Path_136" data-name="&lt;Path&gt;" class="cls-4" d="M225.58,119.31c.1,4.8-4,8.72-9.2,8.72s-9.11-3.72-9.2-8.41,4-8.72,9.21-8.72S225.48,114.63,225.58,119.31Z"/><path id="_Path_137" data-name="&lt;Path&gt;" class="cls-4" d="M393.2,259.1c5.16-.08,9.37,3.77,9.36,8.58s-4,8.47-9,8.55-9.37-3.77-9.36-8.58S388.16,259.18,393.2,259.1Z"/><path id="_Path_138" data-name="&lt;Path&gt;" class="cls-4" d="M292.93,128.1c-5.1,0-9.34-3.95-9.3-8.69s4.33-8.66,9.42-8.57,9.06,3.89,9.13,8.53S298,128.09,292.93,128.1Z"/><path id="_Path_139" data-name="&lt;Path&gt;" class="cls-4" d="M278.81,112.49c0,4.74-4,8.45-9.06,8.49s-9.3-3.81-9.2-8.67,4.14-8.38,9.23-8.33S278.81,107.75,278.81,112.49Z"/><path id="_Path_140" data-name="&lt;Path&gt;" class="cls-4" d="M378.19,302.42c5.09-.06,9.15,3.58,9.26,8.3s-3.95,8.72-9.17,8.7-9.07-3.72-9.09-8.46S373.11,302.48,378.19,302.42Z"/><path id="_Path_141" data-name="&lt;Path&gt;" class="cls-4" d="M118.14,247.08c5.08.08,9,3.84,9,8.57s-4.24,8.59-9.47,8.43c-5.06-.16-8.93-4-8.8-8.73S113,247,118.14,247.08Z"/><path id="_Path_142" data-name="&lt;Path&gt;" class="cls-4" d="M146.52,148.68c0-4.76,4-8.38,9.09-8.36s9,3.69,9,8.46-4,8.38-9.09,8.36S146.5,153.45,146.52,148.68Z"/><path id="_Path_143" data-name="&lt;Path&gt;" class="cls-4" d="M400.84,255.09c-5.11,0-9-3.67-9-8.44s3.95-8.39,9.07-8.38,9,3.68,9,8.44S406,255.1,400.84,255.09Z"/><path id="_Path_144" data-name="&lt;Path&gt;" class="cls-4" d="M279.09,383.57c-5.09-.06-9-3.78-8.88-8.55s4.06-8.33,9.19-8.27,9,3.77,8.88,8.55S284.22,383.63,279.09,383.57Z"/><path id="_Path_145" data-name="&lt;Path&gt;" class="cls-4" d="M401.67,196.38c0,4.78-3.89,8.44-9,8.43s-9-3.69-9-8.48c0-4.63,3.88-8.21,8.86-8.27C397.68,188,401.64,191.61,401.67,196.38Z"/><path id="_Path_146" data-name="&lt;Path&gt;" class="cls-4" d="M376.86,160.07c5.14,0,9.08,3.6,9.09,8.37s-3.94,8.41-9.08,8.38c-5,0-8.84-3.59-8.92-8.21C367.88,163.82,371.75,160.11,376.86,160.07Z"/><path id="_Path_147" data-name="&lt;Path&gt;" class="cls-4" d="M338.63,124.45c5.14,0,9.07,3.63,9.05,8.4s-4,8.39-9.11,8.35c-5,0-8.82-3.61-8.88-8.24C329.63,128.17,333.51,124.48,338.63,124.45Z"/><path id="_Path_148" data-name="&lt;Path&gt;" class="cls-4" d="M370.73,323.61c4.95,0,8.91,3.56,9,8.15s-3.93,8.49-9,8.45-8.82-3.7-8.82-8.3S365.79,323.64,370.73,323.61Z"/><path id="_Path_149" data-name="&lt;Path&gt;" class="cls-4" d="M142.06,342.07c-4.87.08-8.94-3.57-9-8.1s3.83-8.32,8.7-8.41,8.94,3.57,9,8.1S146.93,342,142.06,342.07Z"/><path id="_Path_150" data-name="&lt;Path&gt;" class="cls-4" d="M126.22,296.87c5.08,0,9,3.77,8.89,8.52-.09,4.58-4,8.14-9,8.12s-9-3.77-8.89-8.52C117.33,300.41,121.27,296.85,126.22,296.87Z"/><path id="_Path_151" data-name="&lt;Path&gt;" class="cls-4" d="M247.18,97.18c4.93,0,8.84,3.68,8.85,8.27s-4.05,8.42-9.14,8.32c-4.91-.1-8.75-3.82-8.68-8.43S242.24,97.16,247.18,97.18Z"/><path id="_Path_152" data-name="&lt;Path&gt;" class="cls-4" d="M119.33,276.42c.09,4.53-3.83,8.32-8.7,8.41s-8.94-3.57-9-8.1,3.83-8.32,8.7-8.41S119.24,271.89,119.33,276.42Z"/><path id="_Path_153" data-name="&lt;Path&gt;" class="cls-4" d="M417.23,225c0,4.51-4,8.31-8.85,8.31s-8.89-3.81-8.84-8.32,4-8.06,8.68-8.15S417.18,220.46,417.23,225Z"/><path id="_Path_154" data-name="&lt;Path&gt;" class="cls-4" d="M212.23,375.93c-.09,4.51-4.25,8.22-9.08,8.09s-8.79-4-8.6-8.53,4.2-8,8.91-7.93S212.32,371.43,212.23,375.93Z"/><path id="_Path_155" data-name="&lt;Path&gt;" class="cls-4" d="M193,120.65c-4.69-.1-8.67-3.9-8.62-8.24s4.35-8.3,9.11-8.1,8.61,4.07,8.45,8.4S197.64,120.74,193,120.65Z"/><path id="_Path_156" data-name="&lt;Path&gt;" class="cls-4" d="M234.75,382.85c0,4.49-4.25,8.28-9,8.15s-8.62-3.9-8.58-8.26,4.25-8.28,9-8.15S234.79,378.48,234.75,382.85Z"/><path id="_Path_157" data-name="&lt;Path&gt;" class="cls-4" d="M117.32,176.14c4.82,0,8.91,3.91,8.79,8.39s-4.15,8-8.84,8-8.91-3.91-8.79-8.39S112.63,176.13,117.32,176.14Z"/><path id="_Path_158" data-name="&lt;Path&gt;" class="cls-4" d="M109.77,197.77c4.83,0,8.92,3.88,8.82,8.36s-4.12,8-8.81,8-8.92-3.88-8.82-8.36S105.08,197.77,109.77,197.77Z"/><path id="_Path_159" data-name="&lt;Path&gt;" class="cls-4" d="M361.92,131.62c4.83,0,8.92,3.89,8.81,8.36s-4.12,8-8.82,8-8.92-3.89-8.81-8.36S357.23,131.62,361.92,131.62Z"/><path id="_Path_160" data-name="&lt;Path&gt;" class="cls-4" d="M341.35,367.56c0,4.49-4.22,8.29-9,8.17s-8.63-3.87-8.61-8.24,4.22-8.29,9-8.17S341.37,363.19,341.35,367.56Z"/><path id="_Path_161" data-name="&lt;Path&gt;" class="cls-4" d="M111,226.93c0,4.32-4,8.09-8.63,8.17s-9-3.83-8.86-8.27,4.16-8,8.8-8S111,222.6,111,226.93Z"/><path id="_Path_162" data-name="&lt;Path&gt;" class="cls-4" d="M162.91,135.2c-4.69-.1-8.64-3.92-8.53-8.25s4.21-8,8.86-7.94,8.64,3.92,8.53,8.25S167.56,135.3,162.91,135.2Z"/><path id="_Path_163" data-name="&lt;Path&gt;" class="cls-4" d="M188.9,368.75c0,4.32-3.94,8.1-8.61,8.18s-9-3.81-8.88-8.25,4.13-8,8.78-8S188.87,364.42,188.9,368.75Z"/><path id="_Path_164" data-name="&lt;Path&gt;" class="cls-4" d="M311.21,382.31c-.11,4.35-4.19,8-8.82,8-4.79-.05-8.88-4-8.65-8.45s4.38-8,9-7.82S311.33,378,311.21,382.31Z"/><path id="_Path_165" data-name="&lt;Path&gt;" class="cls-4" d="M249.15,381.75c4.71,0,8.7,3.72,8.66,8.1s-4.09,8.07-8.79,8-8.42-3.67-8.49-7.94S244.44,381.76,249.15,381.75Z"/><path id="_Path_166" data-name="&lt;Path&gt;" class="cls-4" d="M125.28,154.76c4.81.27,8.45,4.14,8.06,8.55a8.38,8.38,0,0,1-9,7.36c-4.81-.27-8.45-4.14-8.06-8.55A8.38,8.38,0,0,1,125.28,154.76Z"/><path id="_Path_167" data-name="&lt;Path&gt;" class="cls-4" d="M363.17,345.55c4.75-.07,8.72,3.59,8.69,8s-3.81,7.86-8.45,7.93-8.72-3.59-8.69-8S358.53,345.62,363.17,345.55Z"/><path id="_Path_168" data-name="&lt;Path&gt;" class="cls-4" d="M232.46,98.48c0,4.43-4,8.08-8.74,8s-8.4-3.67-8.4-8,4-8.08,8.74-8S232.46,94.18,232.46,98.48Z"/><path id="_Path_169" data-name="&lt;Path&gt;" class="cls-4" d="M103.8,248.65c0,4.45-3.71,7.8-8.52,7.73s-8.33-3.53-8.22-8c.11-4.31,3.7-7.56,8.35-7.57S103.83,244.18,103.8,248.65Z"/><path id="_Path_170" data-name="&lt;Path&gt;" class="cls-4" d="M408.31,304.13c-4.75,0-8.39-3.48-8.35-7.91s3.74-7.81,8.5-7.77,8.39,3.48,8.35,7.91S413.07,304.17,408.31,304.13Z"/><path id="_Path_171" data-name="&lt;Path&gt;" class="cls-4" d="M408.67,175.51c0,4.39-3.76,7.82-8.47,7.83s-8.63-3.62-8.5-8.12,3.93-7.75,8.64-7.67S408.71,171.13,408.67,175.51Z"/><path id="_Path_172" data-name="&lt;Path&gt;" class="cls-4" d="M424.27,274.74c0,4.45-3.73,7.79-8.53,7.72s-8.32-3.55-8.21-8c.11-4.31,3.71-7.56,8.36-7.56S424.31,270.27,424.27,274.74Z"/><path id="_Path_173" data-name="&lt;Path&gt;" class="cls-4" d="M157.06,354c4.77.06,8.34,3.52,8.24,8s-3.86,7.72-8.68,7.59c-4.62-.13-8.09-3.5-8.07-7.84S152.26,353.95,157.06,354Z"/><path id="_Path_174" data-name="&lt;Path&gt;" class="cls-4" d="M300.46,90.05c4.79,0,8.39,3.43,8.34,7.9s-3.77,7.77-8.57,7.68c-4.63-.08-8.14-3.41-8.17-7.74S295.67,90,300.46,90.05Z"/><path id="_Path_175" data-name="&lt;Path&gt;" class="cls-4" d="M111.2,298.25c0,4.29-3.62,7.62-8.23,7.63s-8.39-3.47-8.28-7.9c.1-4.27,3.78-7.53,8.41-7.47S111.23,294,111.2,298.25Z"/><path id="_Path_176" data-name="&lt;Path&gt;" class="cls-4" d="M118.5,334.51c-4.59-.07-8.13-3.46-8.1-7.76s3.82-7.76,8.59-7.61a7.85,7.85,0,0,1,7.92,7.92C126.81,331.31,123.12,334.57,118.5,334.51Z"/><path id="_Path_177" data-name="&lt;Path&gt;" class="cls-4" d="M392.76,146.84c0,4.43-3.7,7.78-8.49,7.69-4.61-.08-8.11-3.43-8.1-7.74s3.7-7.78,8.49-7.69C389.27,139.18,392.77,142.53,392.76,146.84Z"/><path id="_Path_178" data-name="&lt;Path&gt;" class="cls-4" d="M132.35,134.07c4.56,0,8.18,3.36,8.21,7.61s-3.72,7.81-8.43,7.72a7.88,7.88,0,0,1-8-7.77C124.15,137.39,127.79,134.06,132.35,134.07Z"/><path id="_Path_179" data-name="&lt;Path&gt;" class="cls-4" d="M322.94,112.59c-4.76,0-8.35-3.41-8.29-7.86s3.74-7.73,8.53-7.64c4.61.08,8.1,3.39,8.12,7.7S327.71,112.61,322.94,112.59Z"/><path id="_Path_180" data-name="&lt;Path&gt;" class="cls-4" d="M285.45,91c-.07,4.28-3.72,7.57-8.34,7.53s-8.34-3.56-8.18-8c.15-4.25,3.87-7.48,8.51-7.38A7.86,7.86,0,0,1,285.45,91Z"/><path id="_Path_181" data-name="&lt;Path&gt;" class="cls-4" d="M431.65,253.76c0,4.24-3.68,7.58-8.24,7.57s-8.35-3.53-8.22-7.91c.13-4.22,3.85-7.49,8.41-7.41A7.88,7.88,0,0,1,431.65,253.76Z"/><path id="_Path_182" data-name="&lt;Path&gt;" class="cls-4" d="M280,396.65c.06,4.31-3.45,7.72-8,7.82-4.77.1-8.5-3.3-8.49-7.72s3.6-7.64,8.2-7.66S279.92,392.37,280,396.65Z"/><path id="_Path_183" data-name="&lt;Path&gt;" class="cls-4" d="M409.81,317.26c0,4.3-3.55,7.66-8.15,7.71-4.76,0-8.44-3.39-8.37-7.82.07-4.28,3.7-7.58,8.32-7.55S409.8,313,409.81,317.26Z"/><path id="_Path_184" data-name="&lt;Path&gt;" class="cls-4" d="M424.19,203.45c0,4.43-3.7,7.77-8.49,7.69-4.61-.08-8.1-3.43-8.09-7.74s3.7-7.77,8.49-7.69C420.71,195.79,424.21,199.14,424.19,203.45Z"/><path id="_Path_185" data-name="&lt;Path&gt;" class="cls-4" d="M346.15,119.48a7.93,7.93,0,0,1-8.15-7.69c0-4.22,3.73-7.61,8.27-7.58a7.93,7.93,0,0,1,8.15,7.69C354.38,116.11,350.68,119.51,346.15,119.48Z"/><path id="_Path_186" data-name="&lt;Path&gt;" class="cls-4" d="M134.26,362.33c-4.32-.07-8-3.56-8-7.56s4-7.67,8.37-7.5,7.93,3.74,7.8,7.72S138.54,362.4,134.26,362.33Z"/><path id="_Path_187" data-name="&lt;Path&gt;" class="cls-4" d="M402.12,339c-.07,4-3.81,7.44-8.11,7.43s-8.25-3.7-8.06-7.79,4-7.39,8.28-7.27S402.2,335,402.12,339Z"/><path id="_Path_188" data-name="&lt;Path&gt;" class="cls-4" d="M333.79,389.4c-.18,4-4,7.39-8.27,7.28-4.44-.12-8.18-3.88-7.89-7.94a8.08,8.08,0,0,1,8.43-7.12C330.39,381.84,334,385.43,333.79,389.4Z"/><path id="_Path_189" data-name="&lt;Path&gt;" class="cls-4" d="M262,83.94c-.06,4-3.79,7.45-8.09,7.44s-8.25-3.68-8.08-7.77,4-7.39,8.26-7.28S262.1,80,262,83.94Z"/><path id="_Path_190" data-name="&lt;Path&gt;" class="cls-4" d="M170.47,98.59c4.28-.07,8.07,3.32,8.21,7.34s-3.71,7.75-8.14,7.72-8-3.49-8-7.49S166.16,98.66,170.47,98.59Z"/><path id="_Path_191" data-name="&lt;Path&gt;" class="cls-4" d="M96,270.25c0,4-3.76,7.47-8.08,7.45s-8-3.5-8-7.52,3.76-7.47,8.08-7.45S96,266.23,96,270.25Z"/><path id="_Path_192" data-name="&lt;Path&gt;" class="cls-4" d="M355.61,382c-4.32-.1-8-3.65-7.88-7.64s3.92-7.43,8.2-7.33,8,3.65,7.88,7.64S359.89,382.1,355.61,382Z"/><path id="_Path_193" data-name="&lt;Path&gt;" class="cls-4" d="M208.64,91.35c.09,4-3.59,7.53-7.93,7.57s-8.06-3.42-8-7.46,3.52-7.27,7.76-7.41S208.55,87.31,208.64,91.35Z"/><path id="_Path_194" data-name="&lt;Path&gt;" class="cls-4" d="M377.28,118.83a7.87,7.87,0,1,1-7.75-7.29A7.55,7.55,0,0,1,377.28,118.83Z"/><path id="_Path_195" data-name="&lt;Path&gt;" class="cls-4" d="M431,224.68c4.4,0,8,3.5,7.88,7.57a7.75,7.75,0,0,1-8,7.17c-4.4,0-8-3.5-7.88-7.57A7.75,7.75,0,0,1,431,224.68Z"/><path id="_Path_196" data-name="&lt;Path&gt;" class="cls-4" d="M302.65,403.65c.07,4.11-3.25,7.27-7.64,7.3s-7.77-3.1-7.75-7.19,3.23-7,7.47-7.14C299.14,396.51,302.59,399.57,302.65,403.65Z"/><path id="_Path_197" data-name="&lt;Path&gt;" class="cls-4" d="M94.93,199.09c-.06,4.08-3.5,7.14-7.91,7s-7.63-3.33-7.49-7.44c.13-3.94,3.47-6.91,7.74-6.89S95,195,94.93,199.09Z"/><path id="_Path_198" data-name="&lt;Path&gt;" class="cls-4" d="M196,404.58c-4.41.07-7.82-3-7.86-7.1s3.31-7.24,7.71-7.23,7.58,3,7.69,6.94C203.69,401.29,200.41,404.51,196,404.58Z"/><path id="_Path_199" data-name="&lt;Path&gt;" class="cls-4" d="M139.95,112.94c4.39,0,7.68,3.24,7.59,7.34s-3.56,7.11-8,7a7.29,7.29,0,0,1-7.42-7.19C132.15,116,135.54,112.89,139.95,112.94Z"/><path id="_Path_200" data-name="&lt;Path&gt;" class="cls-4" d="M172.62,383.37c4.23,0,7.55,3,7.6,6.95s-3.35,7.22-7.72,7.15a7.22,7.22,0,0,1-7.43-7.11C165.1,386.44,168.39,383.38,172.62,383.37Z"/><path id="_Path_201" data-name="&lt;Path&gt;" class="cls-4" d="M431,182.35c0,4-3.17,7.1-7.43,7.17-4.42.08-7.83-3-7.79-7.15s3.32-7,7.6-7S431,178.38,431,182.35Z"/><path id="_Path_202" data-name="&lt;Path&gt;" class="cls-4" d="M386.42,367.55a7,7,0,1,1,7.65-6.93A7.23,7.23,0,0,1,386.42,367.55Z"/><path id="_Path_203" data-name="&lt;Path&gt;" class="cls-4" d="M102.39,177.29c0,4.12-3.33,7.22-7.76,7.18-4.26,0-7.51-3.09-7.54-7.06s3.33-7.22,7.76-7.17C99.12,170.28,102.36,173.32,102.39,177.29Z"/><path id="_Path_204" data-name="&lt;Path&gt;" class="cls-4" d="M87.28,220c0,3.93-3.34,7-7.56,7s-7.7-3.2-7.58-7.28c.11-3.9,3.5-6.89,7.74-6.82A7.22,7.22,0,0,1,87.28,220Z"/><path id="_Path_205" data-name="&lt;Path&gt;" class="cls-4" d="M407.78,146.74c4.27,0,7.53,3.1,7.53,7.07s-3.43,7.2-7.85,7.09a7.21,7.21,0,0,1-7.36-7.23C400.17,149.71,403.49,146.7,407.78,146.74Z"/><path id="_Path_206" data-name="&lt;Path&gt;" class="cls-4" d="M218.34,411.53c-4.39,0-7.68-3.23-7.56-7.36.11-3.95,3.45-6.92,7.73-6.88s7.68,3.23,7.56,7.36C226,408.6,222.62,411.57,218.34,411.53Z"/><path id="_Path_207" data-name="&lt;Path&gt;" class="cls-4" d="M238.92,76.89a7.54,7.54,0,1,1-7.56-7A7.27,7.27,0,0,1,238.92,76.89Z"/><path id="_Path_208" data-name="&lt;Path&gt;" class="cls-4" d="M95.58,312.83a7.24,7.24,0,0,1,7.36,7.21,7.32,7.32,0,0,1-7.83,6.77,7,7,0,1,1,.47-14Z"/><path id="_Path_209" data-name="&lt;Path&gt;" class="cls-4" d="M109.77,156.48a7.54,7.54,0,1,1-7.47-7.11A7.29,7.29,0,0,1,109.77,156.48Z"/><path id="_Path_210" data-name="&lt;Path&gt;" class="cls-4" d="M241.49,418.4a7.24,7.24,0,0,1-7.35-7.23,7.33,7.33,0,0,1,7.85-6.76,7,7,0,1,1-.5,14Z"/><path id="_Path_211" data-name="&lt;Path&gt;" class="cls-4" d="M80.44,298.06c-4,0-7.45-3.21-7.42-6.9s3.54-6.9,7.49-6.83,7.17,3.15,7.25,6.74S84.42,298,80.44,298.06Z"/><path id="_Path_212" data-name="&lt;Path&gt;" class="cls-4" d="M391.88,119c4-.06,7.47,3.15,7.48,6.84s-3.48,6.92-7.44,6.88-7.19-3.1-7.31-6.68S387.9,119,391.88,119Z"/><path id="_Path_213" data-name="&lt;Path&gt;" class="cls-4" d="M118.52,348c-.11,3.71-3.69,6.86-7.62,6.71s-7.33-3.53-7.12-7.17a7.35,7.35,0,0,1,7.44-6.55C115.19,341,118.62,344.28,118.52,348Z"/><path id="_Path_214" data-name="&lt;Path&gt;" class="cls-4" d="M431.08,210.18c.17-3.71,3.81-6.82,7.72-6.61s7.29,3.62,7,7.26a7.38,7.38,0,0,1-7.54,6.46C434.29,217.18,430.91,213.84,431.08,210.18Z"/><path id="_Path_215" data-name="&lt;Path&gt;" class="cls-4" d="M72.19,248.4c-4,0-7.43-3.28-7.31-7a7.25,7.25,0,0,1,7.32-6.65c4,0,7.43,3.28,7.31,7A7.25,7.25,0,0,1,72.19,248.4Z"/><path id="_Path_216" data-name="&lt;Path&gt;" class="cls-4" d="M149.51,390.24c-4,.06-7.46-3.17-7.42-6.88s3.35-6.69,7.22-6.74,7.46,3.17,7.42,6.88S153.37,390.18,149.51,390.24Z"/><path id="_Path_217" data-name="&lt;Path&gt;" class="cls-4" d="M315.1,76.3A7.18,7.18,0,1,1,308,69.55,7,7,0,0,1,315.1,76.3Z"/><path id="_Path_218" data-name="&lt;Path&gt;" class="cls-4" d="M439.27,274.91c3.9.07,7.14,3.17,7.12,6.79s-3.55,6.88-7.55,6.7-7.08-3.34-6.95-6.94A7.15,7.15,0,0,1,439.27,274.91Z"/><path id="_Path_219" data-name="&lt;Path&gt;" class="cls-4" d="M438.87,303.22c0,3.61-3.19,6.72-7.09,6.81s-7.47-3.1-7.4-6.84a7.27,7.27,0,0,1,14.49,0Z"/><path id="_Path_220" data-name="&lt;Path&gt;" class="cls-4" d="M337.65,83.13a7.18,7.18,0,1,1-7.26-6.58A6.93,6.93,0,0,1,337.65,83.13Z"/><path id="_Path_221" data-name="&lt;Path&gt;" class="cls-4" d="M147.43,92.68c3.9,0,6.83,2.79,6.84,6.42s-3.1,6.55-7.16,6.44A6.52,6.52,0,0,1,140.45,99C140.52,95.36,143.53,92.65,147.43,92.68Z"/><path id="_Path_222" data-name="&lt;Path&gt;" class="cls-4" d="M453.56,260.67c0,3.64-2.93,6.4-6.83,6.44s-7.08-2.82-7-6.59c.08-3.61,3.09-6.31,7-6.28S453.56,257,453.56,260.67Z"/><path id="_Path_223" data-name="&lt;Path&gt;" class="cls-4" d="M116.85,134.59a6.74,6.74,0,0,1-7,6.73c-4,0-7.15-2.85-7.15-6.59a6.73,6.73,0,0,1,6.83-6.58C113.55,128,116.77,130.86,116.85,134.59Z"/><path id="_Path_224" data-name="&lt;Path&gt;" class="cls-4" d="M291.65,69.69c-.23,3.61-3.38,6.19-7.35,6a6.51,6.51,0,0,1-6.52-7.09c.31-3.58,3.53-6.09,7.51-5.84A6.5,6.5,0,0,1,291.65,69.69Z"/><path id="_Path_225" data-name="&lt;Path&gt;" class="cls-4" d="M348.39,389.56a6.73,6.73,0,0,1,6.94,6.79c-.11,3.72-3.35,6.53-7.38,6.38a6.72,6.72,0,0,1-6.77-6.63C341.21,392.36,344.36,389.5,348.39,389.56Z"/><path id="_Path_226" data-name="&lt;Path&gt;" class="cls-4" d="M360.6,90.39c-.09,3.59-3.19,6.31-7.07,6.22A6.54,6.54,0,0,1,346.84,90c.09-3.59,3.19-6.31,7.07-6.22A6.54,6.54,0,0,1,360.6,90.39Z"/><path id="_Path_227" data-name="&lt;Path&gt;" class="cls-4" d="M417,324.42a6.74,6.74,0,0,1,7-6.73c4,0,7.15,2.85,7.15,6.6a6.73,6.73,0,0,1-6.83,6.57C420.32,331,417.11,328.15,417,324.42Z"/><path id="_Path_228" data-name="&lt;Path&gt;" class="cls-4" d="M185.12,84.37c.06,3.8-3,6.66-7.05,6.64-3.92,0-6.9-2.77-7-6.41-.06-3.8,3-6.66,7.05-6.64C182.07,78,185.06,80.73,185.12,84.37Z"/><path id="_Path_229" data-name="&lt;Path&gt;" class="cls-4" d="M325.1,410.9c-.06,3.62-3.06,6.33-7,6.31s-7-2.94-6.86-6.72c.14-3.6,3.21-6.25,7.13-6.15A6.53,6.53,0,0,1,325.1,410.9Z"/><path id="_Path_230" data-name="&lt;Path&gt;" class="cls-4" d="M264,411.18c4-.08,7.2,2.78,7.23,6.52s-3.06,6.66-7.08,6.65a6.6,6.6,0,1,1-.15-13.17Z"/><path id="_Path_231" data-name="&lt;Path&gt;" class="cls-4" d="M379.1,375.14a6.57,6.57,0,0,1,6.75,6.54,6.64,6.64,0,0,1-7.12,6.2,6.39,6.39,0,1,1,.37-12.75Z"/><path id="_Path_232" data-name="&lt;Path&gt;" class="cls-4" d="M208.13,63.51a6.37,6.37,0,1,1-6.78,6.23A6.64,6.64,0,0,1,208.13,63.51Z"/><path id="_Path_233" data-name="&lt;Path&gt;" class="cls-4" d="M71.42,263.35c-.09,3.36-3.3,6.23-6.89,6.14s-6.69-3.07-6.6-6.41,3.3-6.23,6.89-6.14S71.51,260,71.42,263.35Z"/><path id="_Path_234" data-name="&lt;Path&gt;" class="cls-4" d="M133.64,376.33c.06,3.37-3,6.31-6.59,6.41s-7-2.88-7-6.37a6.81,6.81,0,0,1,13.57,0Z"/><path id="_Path_235" data-name="&lt;Path&gt;" class="cls-4" d="M416.54,339.62c3.6,0,6.76,2.88,6.79,6.24s-3.1,6.29-6.7,6.32-6.76-2.88-6.79-6.24S412.94,339.65,416.54,339.62Z"/><path id="_Path_236" data-name="&lt;Path&gt;" class="cls-4" d="M268.17,62.27c0,3.35-3.24,6.27-6.82,6.2s-6.71-3.11-6.57-6.43a6.69,6.69,0,0,1,6.65-6C265,56,268.2,58.93,268.17,62.27Z"/><path id="_Path_237" data-name="&lt;Path&gt;" class="cls-4" d="M430.51,154.58c3.61.16,6.65,3.25,6.43,6.56a6.72,6.72,0,0,1-7.12,5.9c-3.5-.25-6.38-3.18-6.27-6.38C423.67,157.29,427,154.42,430.51,154.58Z"/><path id="_Path_238" data-name="&lt;Path&gt;" class="cls-4" d="M382.73,97.29a6.48,6.48,0,1,1-6.37-6.09A6.21,6.21,0,0,1,382.73,97.29Z"/><path id="_Path_239" data-name="&lt;Path&gt;" class="cls-4" d="M460.63,239.13a6.48,6.48,0,1,1-6.37-6.09A6.21,6.21,0,0,1,460.63,239.13Z"/><path id="_Path_240" data-name="&lt;Path&gt;" class="cls-4" d="M287.53,418.75a6,6,0,1,1-6.55,5.93A6.18,6.18,0,0,1,287.53,418.75Z"/><path id="_Path_241" data-name="&lt;Path&gt;" class="cls-4" d="M415.16,126.9a6.06,6.06,0,0,1,6.43,5.71c.12,3.44-2.62,6.12-6.31,6.15s-6.49-2.59-6.43-6A6,6,0,0,1,415.16,126.9Z"/><path id="_Path_242" data-name="&lt;Path&gt;" class="cls-4" d="M123.66,113a6,6,0,0,1-6.09,6c-3.7.13-6.59-2.4-6.65-5.83s2.74-6.06,6.43-6A6,6,0,0,1,123.66,113Z"/><path id="_Path_243" data-name="&lt;Path&gt;" class="cls-4" d="M452.34,189.39a6,6,0,0,1-6.16,6c-3.7.1-6.56-2.46-6.59-5.89s2.8-6,6.5-6A6,6,0,0,1,452.34,189.39Z"/><path id="_Path_244" data-name="&lt;Path&gt;" class="cls-4" d="M94.16,340.85c0,3.31-2.73,5.8-6.29,5.78a5.91,5.91,0,0,1-6.21-5.86c0-3.31,2.73-5.8,6.29-5.78A5.91,5.91,0,0,1,94.16,340.85Z"/><path id="_Path_245" data-name="&lt;Path&gt;" class="cls-4" d="M79.13,313c-.08,3.29-2.85,5.74-6.42,5.66a5.91,5.91,0,0,1-6.09-6c.08-3.29,2.85-5.74,6.42-5.66A5.91,5.91,0,0,1,79.13,313Z"/><path id="_Path_246" data-name="&lt;Path&gt;" class="cls-4" d="M409,361.84a5.7,5.7,0,1,1-6,5.79A6,6,0,0,1,409,361.84Z"/><path id="_Path_247" data-name="&lt;Path&gt;" class="cls-4" d="M238.78,61.55a6,6,0,0,1-6-5.81A6.12,6.12,0,0,1,245,56,6,6,0,0,1,238.78,61.55Z"/><path id="_Path_248" data-name="&lt;Path&gt;" class="cls-4" d="M77.65,170.48a6.16,6.16,0,1,1-5.91-5.85A6,6,0,0,1,77.65,170.48Z"/><path id="_Path_249" data-name="&lt;Path&gt;" class="cls-4" d="M194.56,418.36a6.23,6.23,0,1,1-6.34-5.73A5.9,5.9,0,0,1,194.56,418.36Z"/><path id="_Path_250" data-name="&lt;Path&gt;" class="cls-4" d="M204.74,425.15a6,6,0,0,1,6.27-5.49,5.93,5.93,0,0,1,6.07,6,6,6,0,0,1-6.61,5.48A5.91,5.91,0,0,1,204.74,425.15Z"/><path id="_Path_251" data-name="&lt;Path&gt;" class="cls-4" d="M70.13,191.89A6.16,6.16,0,1,1,64,186.26,6,6,0,0,1,70.13,191.89Z"/><path id="_Path_252" data-name="&lt;Path&gt;" class="cls-4" d="M165.11,417c-3.28,0-6.11-2.69-6-5.73a6.07,6.07,0,1,1,6,5.73Z"/><path id="_Path_253" data-name="&lt;Path&gt;" class="cls-4" d="M240.07,432.27a5.86,5.86,0,0,1-5.71,5.64c-3.24.13-6.17-2.52-6.15-5.55a5.95,5.95,0,0,1,11.85-.09Z"/><path id="_Path_254" data-name="&lt;Path&gt;" class="cls-4" d="M56.39,207.38c3.24-.05,6.14,2.65,6.09,5.66a6,6,0,0,1-5.91,5.51c-3.24.05-6.14-2.65-6.09-5.66A6,6,0,0,1,56.39,207.38Z"/><path id="_Path_255" data-name="&lt;Path&gt;" class="cls-4" d="M73.2,149.28a5.85,5.85,0,1,1,5.74,5.51A5.69,5.69,0,0,1,73.2,149.28Z"/><path id="_Path_256" data-name="&lt;Path&gt;" class="cls-4" d="M340.83,412.34a5.44,5.44,0,1,1-5.92,5.34A5.66,5.66,0,0,1,340.83,412.34Z"/><path id="_Path_257" data-name="&lt;Path&gt;" class="cls-4" d="M63,284.28a5.85,5.85,0,1,1-5.75-5.5A5.69,5.69,0,0,1,63,284.28Z"/><path id="_Path_258" data-name="&lt;Path&gt;" class="cls-4" d="M103.71,374.86a5.44,5.44,0,1,1,5.74-5.51A5.69,5.69,0,0,1,103.71,374.86Z"/><path id="_Path_259" data-name="&lt;Path&gt;" class="cls-4" d="M405.14,104.06a5.31,5.31,0,0,1-5.4,5.4c-3.33.11-5.89-2.18-5.88-5.26a5.66,5.66,0,0,1,11.28-.13Z"/><path id="_Path_260" data-name="&lt;Path&gt;" class="cls-4" d="M467.33,217.49a5.66,5.66,0,1,1-5.48-5.32A5.34,5.34,0,0,1,467.33,217.49Z"/><path id="_Path_261" data-name="&lt;Path&gt;" class="cls-4" d="M377.13,403.25a5.66,5.66,0,1,1-5.44-5.35A5.34,5.34,0,0,1,377.13,403.25Z"/><path id="_Path_262" data-name="&lt;Path&gt;" class="cls-4" d="M154.81,72.17a5.34,5.34,0,1,1-5.65,5.23A5.49,5.49,0,0,1,154.81,72.17Z"/><path id="_Path_263" data-name="&lt;Path&gt;" class="cls-4" d="M185.61,57.67A5.2,5.2,0,1,1,180,62.88,5.26,5.26,0,0,1,185.61,57.67Z"/><path id="_Path_264" data-name="&lt;Path&gt;" class="cls-4" d="M54.45,234.45a5.5,5.5,0,1,1-5.48-5A5.25,5.25,0,0,1,54.45,234.45Z"/><path id="_Path_265" data-name="&lt;Path&gt;" class="cls-4" d="M142,409.56a5.15,5.15,0,1,1,5.43-5.31A5.25,5.25,0,0,1,142,409.56Z"/><path id="_Path_266" data-name="&lt;Path&gt;" class="cls-4" d="M315.4,60.21c-2.89,0-5.43-2.53-5.29-5.19a5.4,5.4,0,0,1,5.41-4.77c2.89,0,5.43,2.53,5.29,5.19A5.4,5.4,0,0,1,315.4,60.21Z"/><path id="_Path_267" data-name="&lt;Path&gt;" class="cls-4" d="M257.36,434.41c2.89,0,5.46,2.45,5.37,5.13a5.38,5.38,0,0,1-5.34,4.84c-2.89,0-5.46-2.45-5.37-5.13A5.38,5.38,0,0,1,257.36,434.41Z"/><path id="_Path_268" data-name="&lt;Path&gt;" class="cls-4" d="M316.08,431.85a5.42,5.42,0,1,1-5.31-5.12A5.37,5.37,0,0,1,316.08,431.85Z"/><path id="_Path_269" data-name="&lt;Path&gt;" class="cls-4" d="M124.11,97.1c-2.89,0-5.45-2.48-5.34-5.15a5.38,5.38,0,0,1,5.37-4.81c2.89,0,5.45,2.48,5.34,5.15A5.38,5.38,0,0,1,124.11,97.1Z"/><path id="_Path_270" data-name="&lt;Path&gt;" class="cls-4" d="M460.2,310.25A5.37,5.37,0,1,1,455,305.3,5.35,5.35,0,0,1,460.2,310.25Z"/><path id="_Path_271" data-name="&lt;Path&gt;" class="cls-4" d="M343.28,62.2a5.29,5.29,0,0,1-10.55-.09,5.3,5.3,0,0,1,10.55.09Z"/><path id="_Path_272" data-name="&lt;Path&gt;" class="cls-4" d="M86.51,122.83a4.92,4.92,0,1,1-5.24,4.87A5.28,5.28,0,0,1,86.51,122.83Z"/><path id="_Path_273" data-name="&lt;Path&gt;" class="cls-4" d="M462.52,293.57a5.32,5.32,0,0,1-5.43-4.69c-.15-2.67,2.4-5.14,5.29-5.14a4.92,4.92,0,1,1,.14,9.82Z"/><path id="_Path_274" data-name="&lt;Path&gt;" class="cls-4" d="M453.33,163.11a4.85,4.85,0,0,1,5.2,4.4,5.08,5.08,0,1,1-5.2-4.4Z"/><path id="_Path_275" data-name="&lt;Path&gt;" class="cls-4" d="M452.39,331.17a4.79,4.79,0,0,1-4.77,4.81,4.71,4.71,0,1,1,4.77-4.81Z"/><path id="_Path_276" data-name="&lt;Path&gt;" class="cls-4" d="M437.49,144.53a4.79,4.79,0,0,1-4.77-4.81,4.85,4.85,0,0,1,5.33-4.6,4.76,4.76,0,0,1,4.75,5.12A4.87,4.87,0,0,1,437.49,144.53Z"/><path id="_Path_277" data-name="&lt;Path&gt;" class="cls-4" d="M215.57,44.26a4.67,4.67,0,0,1,5.08,4.42A4.62,4.62,0,0,1,216,53.49c-3,.14-5.23-1.83-5.25-4.58A4.63,4.63,0,0,1,215.57,44.26Z"/><path id="_Path_278" data-name="&lt;Path&gt;" class="cls-4" d="M292.26,52.85a4.66,4.66,0,0,1-5-4.5c-.07-2.77,2.11-4.79,5.09-4.73a4.62,4.62,0,1,1-.09,9.23Z"/><path id="_Path_279" data-name="&lt;Path&gt;" class="cls-4" d="M401.39,393.22a4.78,4.78,0,0,1-4.88-5,4.86,4.86,0,0,1,5.21-4.39,4.78,4.78,0,0,1,4.88,5A4.85,4.85,0,0,1,401.39,393.22Z"/><path id="_Path_280" data-name="&lt;Path&gt;" class="cls-4" d="M469.61,271.53a4.58,4.58,0,0,1-4.56-4.59,4.64,4.64,0,0,1,5.1-4.41,4.57,4.57,0,0,1,4.55,4.91A4.68,4.68,0,0,1,469.61,271.53Z"/><path id="_Path_281" data-name="&lt;Path&gt;" class="cls-4" d="M361.26,73.72a4.51,4.51,0,1,1,4.81-4.36A4.6,4.6,0,0,1,361.26,73.72Z"/><path id="_Path_282" data-name="&lt;Path&gt;" class="cls-4" d="M70.15,333.9a4.8,4.8,0,0,1-9.58-.32,4.7,4.7,0,0,1,5-4.22A4.63,4.63,0,0,1,70.15,333.9Z"/><path id="_Path_283" data-name="&lt;Path&gt;" class="cls-4" d="M124.09,397.44a4.76,4.76,0,1,1-4.72-4.44A4.69,4.69,0,0,1,124.09,397.44Z"/><path id="_Path_284" data-name="&lt;Path&gt;" class="cls-4" d="M41.31,251.85a4.38,4.38,0,1,1-4.55,4.33A4.69,4.69,0,0,1,41.31,251.85Z"/><path id="_Path_285" data-name="&lt;Path&gt;" class="cls-4" d="M444.33,353a4.47,4.47,0,0,1-4.73,4.07c-2.47-.12-4.54-2.21-4.26-4.47.31-2.43,1.9-3.81,4.53-3.89A4.33,4.33,0,0,1,444.33,353Z"/><path id="_Path_286" data-name="&lt;Path&gt;" class="cls-4" d="M264.48,41.39A4.41,4.41,0,0,1,268.91,37c2.47,0,4.68,1.91,4.56,4.2-.12,2.45-1.63,3.91-4.24,4.17A4.39,4.39,0,0,1,264.48,41.39Z"/><path id="_Path_287" data-name="&lt;Path&gt;" class="cls-4" d="M469.05,200.51c-2.66-.3-4.15-1.65-4.19-4.15a4.07,4.07,0,0,1,4.67-4c2.68.27,4.12,1.79,4,4.26S471.68,200.38,469.05,200.51Z"/><path id="_Path_288" data-name="&lt;Path&gt;" class="cls-4" d="M80.66,358.38c2.39.19,3.94,1.48,4.07,4a4,4,0,0,1-4.51,4.11c-2.67-.18-4.12-1.63-4.16-4.12C76,360.09,78,358.38,80.66,358.38Z"/><path id="_Path_289" data-name="&lt;Path&gt;" class="cls-4" d="M54,305.94c-.31,2.48-1.74,3.88-4.43,3.93a4,4,0,0,1-4.29-4.32c.27-2.49,1.9-3.85,4.55-3.74S53.86,303.49,54,305.94Z"/><path id="_Path_290" data-name="&lt;Path&gt;" class="cls-4" d="M422.71,107.13c2.64.2,4.21,1.47,4.36,4a4,4,0,0,1-4.48,4.14c-2.67-.16-4.2-1.6-4.18-4.09S420.06,107.36,422.71,107.13Z"/><path id="_Path_291" data-name="&lt;Path&gt;" class="cls-4" d="M383.82,80.11a3.89,3.89,0,0,1-4.19-4c.15-2.37,1.59-3.67,4.13-3.75a3.89,3.89,0,0,1,4.21,4A4,4,0,0,1,383.82,80.11Z"/><path id="_Path_292" data-name="&lt;Path&gt;" class="cls-4" d="M94.22,102.24c2.42.33,3.9,1.54,4,3.92a3.89,3.89,0,0,1-4.4,3.78c-2.51-.25-3.91-1.66-3.8-4S91.7,102.42,94.22,102.24Z"/><path id="_Path_293" data-name="&lt;Path&gt;" class="cls-4" d="M477.56,249.92c-2.51-.18-4.06-1.32-4.27-3.68a3.84,3.84,0,0,1,4.15-4c2.53.11,4,1.43,4.05,3.78S480,249.59,477.56,249.92Z"/><path id="_Path_294" data-name="&lt;Path&gt;" class="cls-4" d="M284.14,446.58a4.22,4.22,0,0,1-8.4-.32,4,4,0,0,1,4.49-3.74A3.87,3.87,0,0,1,284.14,446.58Z"/><path id="_Path_295" data-name="&lt;Path&gt;" class="cls-4" d="M368.43,425.59c-1.51.94-2.94,2.48-4.56,2.68a3.52,3.52,0,1,1,.17-7c1.61.27,3,1.86,4.44,2.86Q368.45,424.86,368.43,425.59Z"/><path id="_Path_296" data-name="&lt;Path&gt;" class="cls-4" d="M166.75,56.58c-1.48.94-3,2.65-4.44,2.58s-3.23-1.93-3.52-3.26c-.46-2.1,1.37-3.76,3.68-3.42,1.52.22,2.83,1.71,4.23,2.64Q166.72,55.85,166.75,56.58Z"/><path id="_Path_297" data-name="&lt;Path&gt;" class="cls-4" d="M337.53,439.65c-1.53.87-3.14,2.52-4.56,2.39s-3.13-2.07-3.36-3.41c-.36-2.12,1.56-3.7,3.85-3.26,1.51.29,2.74,1.84,4.1,2.82Q337.55,438.92,337.53,439.65Z"/><path id="_Path_298" data-name="&lt;Path&gt;" class="cls-4" d="M132.47,74.3c-3.09-.67-4.73-1.86-4.19-3.9a5.14,5.14,0,0,1,3.37-3A2.71,2.71,0,0,1,135,70.61C134.79,71.94,133.37,73.08,132.47,74.3Z"/><path id="_Path_299" data-name="&lt;Path&gt;" class="cls-4" d="M433.26,370.75c.85,1.25,2.23,2.42,2.44,3.76.34,2.1-1.23,3.33-3.53,3.26s-3.75-1.47-3.26-3.51c.31-1.32,1.81-2.39,2.77-3.57Z"/><path id="_Path_300" data-name="&lt;Path&gt;" class="cls-4" d="M184.94,440.71c-1.38.86-2.81,2.44-4.14,2.38s-3-1.76-3.31-3c-.51-2,1.15-3.56,3.4-3.23,1.43.21,2.68,1.5,4,2.3Q184.92,439.94,184.94,440.71Z"/><path id="_Path_301" data-name="&lt;Path&gt;" class="cls-4" d="M398,410.83c-1.31.84-2.54,2.16-4,2.4a2.85,2.85,0,0,1-3.46-3c0-2,1.25-3.44,3.33-3.15,1.45.2,2.72,1.47,4.08,2.27Z"/><path id="_Path_302" data-name="&lt;Path&gt;" class="cls-4" d="M34.81,273.59c.83,1.26,2.49,2.66,2.27,3.74S35,280,33.64,280.14c-.89.1-2.85-1.87-2.88-2.95s1.59-2.43,2.5-3.64Z"/><path id="_Path_303" data-name="&lt;Path&gt;" class="cls-4" d="M100,391.69c-1.31.84-2.72,2.44-3.9,2.3A4.63,4.63,0,0,1,93,390.94c-.15-.84,1.85-2.77,3-2.84,1.29-.08,2.7,1.36,4.05,2.14Z"/><path id="_Path_304" data-name="&lt;Path&gt;" class="cls-4" d="M194,38.25c.85,1.25,2.51,2.63,2.31,3.72s-2.1,2.68-3.42,2.83C192,44.91,190,43,190,41.89s1.57-2.45,2.46-3.68Z"/><path id="_Path_305" data-name="&lt;Path&gt;" class="cls-4" d="M49,159.71c.88,1.23,2.58,2.57,2.41,3.66s-2,2.73-3.34,2.91c-.9.13-2.93-1.77-3-2.84s1.5-2.48,2.36-3.72Z"/><path id="_Path_306" data-name="&lt;Path&gt;" class="cls-4" d="M250.4,35.15c-1.37.77-2.67,2-4.11,2.19-2.09.24-3.34-1.22-3.26-3.22a2.86,2.86,0,0,1,3.53-3c1.43.27,2.62,1.62,3.91,2.49Z"/><path id="_Path_307" data-name="&lt;Path&gt;" class="cls-4" d="M40.55,188.69c-.85-1.26-2.22-2.44-2.43-3.78-.3-1.94,1.24-3.14,3.39-3.1s3.63,1.3,3.25,3.22c-.26,1.33-1.68,2.47-2.58,3.69Z"/><path id="_Path_308" data-name="&lt;Path&gt;" class="cls-4" d="M207.4,447.71c-1.31.84-2.53,2.16-4,2.41a2.85,2.85,0,0,1-3.46-3c0-2,1.24-3.44,3.33-3.16,1.44.19,2.72,1.47,4.06,2.26Q207.39,447,207.4,447.71Z"/><path id="_Path_309" data-name="&lt;Path&gt;" class="cls-4" d="M157.78,437.39c-1.61-1.93-3.42-3.19-3.25-4.13.22-1.23,2-2.21,3.14-3.29,1.08,1,2.9,2,3,3.07S159.23,435.36,157.78,437.39Z"/><path id="_Path_310" data-name="&lt;Path&gt;" class="cls-4" d="M34.13,202.26c1.44,2,3.13,3.42,2.88,4.35-.32,1.21-2.19,2.06-3.4,3.06-1-1.09-2.74-2.16-2.78-3.28S32.51,204.18,34.13,202.26Z"/><path id="_Path_311" data-name="&lt;Path&gt;" class="cls-4" d="M488.58,224.26c-1.83,1.4-3,3-4,2.91-1.27-.15-2.34-1.69-3.5-2.64,1.07-1,2-2.64,3.27-2.88C485.29,221.46,486.64,223,488.58,224.26Z"/><path id="_Path_312" data-name="&lt;Path&gt;" class="cls-4" d="M59.92,142.31c-1.9,1.28-3.11,2.69-4,2.53-1.15-.23-2-1.67-3-2.59,1-.84,1.86-2.26,2.9-2.36S58,141.08,59.92,142.31Z"/><path id="_Path_313" data-name="&lt;Path&gt;" class="cls-4" d="M226.45,458.06c-1.33-2-2.77-3.17-2.6-4.12a3.89,3.89,0,0,1,2.89-2.48,3.83,3.83,0,0,1,2.67,2.69C229.48,455.11,227.95,456.19,226.45,458.06Z"/><path id="_Path_314" data-name="&lt;Path&gt;" class="cls-4" d="M460.83,150.86c-1.33-2-2.77-3.17-2.6-4.12a3.89,3.89,0,0,1,2.89-2.48,3.83,3.83,0,0,1,2.67,2.69C463.86,147.91,462.32,149,460.83,150.86Z"/><path id="_Path_315" data-name="&lt;Path&gt;" class="cls-4" d="M411.36,82.76c-2.13,1.23-3.42,2.56-4.44,2.41s-2.7-1.78-2.65-2.7,1.8-2.4,2.9-2.47S409.36,81.36,411.36,82.76Z"/><path id="_Path_316" data-name="&lt;Path&gt;" class="cls-4" d="M101.43,88.89c-1.25-1.85-2.58-3-2.42-3.84s1.72-1.67,2.68-2.49c.88.89,2.38,1.72,2.47,2.67S102.82,87.14,101.43,88.89Z"/><path id="_Path_317" data-name="&lt;Path&gt;" class="cls-4" d="M134.59,429.58c-1.35-1.55-2.85-2.56-2.71-3.3.18-1,1.62-1.83,2.52-2.73.88.81,2.35,1.55,2.48,2.45S135.74,427.9,134.59,429.58Z"/><path id="_Path_318" data-name="&lt;Path&gt;" class="cls-4" d="M449.11,118c-1.68,1.25-2.76,2.64-3.56,2.51-1.09-.18-2-1.51-2.94-2.34.87-.82,1.66-2.19,2.63-2.31S447.29,116.94,449.11,118Z"/><path id="_Path_319" data-name="&lt;Path&gt;" class="cls-4" d="M26.62,231.15c-1.34-1.56-2.84-2.57-2.7-3.31.19-1,1.62-1.83,2.52-2.73.88.81,2.35,1.55,2.48,2.45S27.77,229.46,26.62,231.15Z"/><path id="_Path_320" data-name="&lt;Path&gt;" class="cls-4" d="M480.52,174.74c-1.7,1.19-2.71,2.45-3.64,2.4S475,175.78,474,175c.89-.9,1.65-2.3,2.73-2.55C477.56,172.3,478.75,173.61,480.52,174.74Z"/><path id="_Path_321" data-name="&lt;Path&gt;" class="cls-4" d="M307.2,453.48c-2,1.18-3.14,2.43-4.09,2.31s-1.82-1.58-2.71-2.46c.94-.83,1.82-2.24,2.83-2.33S305.3,452.21,307.2,453.48Z"/><path id="_Path_322" data-name="&lt;Path&gt;" class="cls-4" d="M58,352.44c1,1.38,1.92,2.18,2,3.07.07.6-1.06,1.33-1.65,2A13.67,13.67,0,0,1,56,354.9C55.79,354.61,56.93,353.68,58,352.44Z"/><path id="_Path_323" data-name="&lt;Path&gt;" class="cls-4" d="M42.17,323.9c1,1.24,2.06,2,2.11,2.87,0,.68-1.18,1.42-1.84,2.13a15.63,15.63,0,0,1-2.19-2.8C40.11,325.81,41.18,325,42.17,323.9Z"/></g><path id="_Path_324" data-name="&lt;Path&gt;" class="cls-4" d="M325.89,445.92a31.54,31.54,0,0,0-13.61,2.65c-.09,0-.16.12-.25.16h0c-.09,0-.16.12-.25.16h0c-.09,0-.16.12-.25.16h0c-.09,0-.16.12-.25.16h0c-.09,0-.16.12-.25.16h0c-.09,0-.16.12-.25.16h0c-.09,0-.16.12-.25.16h0c-.09,0-.16.12-.25.16h0c-.09,0-.16.12-.25.16h0c-.09,0-.16.12-.25.16h0c-.09,0-.16.12-.25.16h0c-.09,0-.16.12-.25.16h0c-.09,0-.16.12-.25.16h0c-.09,0-.16.12-.25.16h0c-.09,0-.16.12-.25.16h0c-.09,0-.16.12-.25.16h0c-.09,0-.16.12-.25.16h0c-.09,0-.16.12-.25.16h0c-.09,0-.16.12-.25.16h0c-.09,0-.16.12-.25.16h0c-.09,0-.16.12-.25.16h0c-.09,0-.16.12-.25.16h0c-.09,0-.16.12-.25.16h0c-.09,0-.16.12-.25.16h0c-.09,0-.16.12-.25.16h0c-.09,0-.16.12-.25.16h0c-.09,0-.16.12-.25.16h0c-.09,0-.16.12-.25.16h0c-.09,0-.16.12-.25.16h0c-.09,0-.16.12-.25.16h0c-.09,0-.16.12-.25.16h0c-.09,0-.16.12-.25.16h0c-.09,0-.16.12-.25.16h0c-.09,0-.16.12-.25.16h0c-.09,0-.16.12-.25.16h0c-.09,0-.16.12-.25.16h0c-.09,0-.16.12-.25.16h0c-.09,0-.16.12-.25.16h0c-.09,0-.16.11-.25.16h0c-.09,0-.16.12-.25.16h0c-.09,0-.16.12-.25.16h0a19.31,19.31,0,0,0-10.3,13.62,18.26,18.26,0,0,0,4.4,16.14c4.19,4.42,10.6,7,17.57,7a28,28,0,0,0,3.79-.26A29.9,29.9,0,0,0,329,486.84l.28-.17.28-.17.28-.18.28-.17.28-.17.28-.17.28-.17.28-.17.28-.17.28-.17.28-.17.28-.17.28-.17.28-.17.28-.17.28-.17.28-.17.28-.17.28-.17.28-.17.28-.17.28-.17.28-.17.28-.17.28-.17.28-.17.28-.17.28-.17.28-.17.28-.17.28-.17.28-.17.28-.17.28-.17.28-.17.28-.17.28-.17.28-.17.28-.17.28-.17c6.59-4.52,11.62-11.23,12.07-17.4.25-3.42-.64-11.73-14.25-15.14A51.48,51.48,0,0,0,325.89,445.92Z"/><path id="_Path_325" data-name="&lt;Path&gt;" class="cls-4" d="M89.37,345.76c2.43,10.38,12.16,27,35.19,27h0a55,55,0,0,0,7.18-.49c5.17,9.24,24,37,63.57,37,15.18,0,31.83-4.09,49.55-12.17,5.52,3.06,20.77,10.47,39.43,10.47a63.52,63.52,0,0,0,37.36-11.72l.28-.17.28-.17.28-.18.28-.17L323,395l.28-.17.28-.17.28-.17.28-.17.28-.17.28-.17.28-.17.28-.17.28-.17.28-.17.28-.17.28-.17.28-.17.28-.17.28-.17.28-.17.28-.17.28-.17.28-.17.28-.17.28-.17.28-.17.28-.17.28-.17.28-.17.28-.17.28-.17.28-.17.28-.17.28-.18.28-.17.28-.17.28-.17.28-.17.28-.17A77,77,0,0,0,345.24,378c1.73.07,3.67.13,5.84.13,13.23,0,35.66-1.92,54.18-13.06l.28-.17.27-.17.29-.18.28-.17.28-.17.28-.17.28-.17.28-.18.28-.17.28-.17.28-.17.28-.17.28-.18.28-.17.28-.17.28-.18.28-.17.27-.17.28-.17.28-.17.28-.18.28-.17.27-.17.28-.17.28-.17.28-.18.28-.17.27-.17.28-.17.28-.18.28-.17.28-.17.28-.17.27-.17L415,359l.28-.17.28-.17.28-.17.28-.17.28-.18c15.55-9.24,28.37-24.95,30.83-51.33a27.77,27.77,0,0,0,3.87-2.14l.28-.17.28-.17.28-.18.28-.17.28-.17.28-.17.28-.17.28-.18.28-.17.28-.17.28-.17.28-.17.28-.18.28-.17.28-.17.28-.17.28-.17.28-.17.28-.17.28-.17L457,301l.28-.17.28-.17.28-.17.28-.17.28-.17.28-.17.28-.17.28-.17.28-.17.28-.17.28-.17.28-.17.28-.17.28-.18.28-.17.28-.17.28-.17.28-.17.28-.17a24,24,0,0,0,5.07-4.41c5.61-6.54,7.2-15.7,4.72-27.25,4.79-7.44,24.84-41.5,11-69.72-8.85-18.09-29.59-29.67-61.67-34.45-4.08-11.79-24.44-58.68-89.87-58.68a152.37,152.37,0,0,0-15.67.84c-3.7-3-13.34-9.79-26.3-9.79a39.07,39.07,0,0,0-17.66,4.33C266.84,93.42,254.22,83,235.69,83c-9.86,0-19.87,3-29.9,8.91l-.27.17-.28.17-.28.17-.28.17-.28.17-.27.17-.28.18-.28.17-.28.17-.28.17-.28.17-.28.17-.28.18-.28.17-.28.17-.28.17-.27.17-.28.18-.28.17-.28.17-.28.17-.28.17-.28.18-.28.17-.28.17-.28.17-.28.17-.28.17-.28.17-.28.17-.28.17-.28.17-.28.17-.28.17-.28.17-.28.17-.28.17-.24.15c-2.82-.23-7.62-.52-13.87-.52-16.86,0-45.14,2.23-66.68,15.2l-.28.17-.28.17-.28.17-.28.17-.28.17-.27.17-.28.18-.28.17-.28.17-.28.17-.28.17-.28.17-.28.18-.28.17-.28.17-.28.17-.28.17-.28.18-.28.17-.28.17-.28.17-.28.17-.28.18-.28.17-.28.17-.28.17-.28.17-.28.17-.28.17-.28.17-.28.17-.28.17-.28.17-.28.17-.28.17-.28.17-.28.17-.27.17-.28.18-.28.17a64.89,64.89,0,0,0-13.69,10.75c-12.33,12.86-17.59,30.11-15.68,51.3l-.1.07-.28.17-.28.17-.28.17-.28.17-.27.17-.28.17-.28.17-.28.17-.28.17-.27.17-.28.17-.28.17-.28.17-.28.17-.27.17-.29.18-.28.17c-5.69,3.45-12.9,9.28-16.16,18-3.16,8.43-1.95,17.66,3.59,27.48-6,7.44-23.92,32.5-17.91,61.06C43.35,313.1,60.35,331.32,89.37,345.76Z"/><path id="_Path_326" data-name="&lt;Path&gt;" class="cls-4" d="M363.92,451.75c9.11-.06,16.45-1.71,22.45-5l.26-.17h0l.26-.17h0l.26-.17h0l.26-.17h0l.26-.17h0l.26-.17h0l.26-.17h0l.26-.16h0l.26-.17h0l.26-.17h0l.26-.16h0l.26-.16h0l.26-.16h0l.26-.17h0l.26-.16h0l.26-.16h0l.26-.17h0l.26-.17h0l.27-.17h0l.26-.16h0l.26-.16h0l.26-.17h0l.26-.17h0l.26-.17h0l.26-.16h0l.26-.16h0l.26-.17h0l.26-.17h0l.26-.17h0l.26-.16h0l.26-.17h0l.26-.17h0l.26-.17h0l.26-.17h0l.26-.16h0l.26-.17h0l.26-.17h0l.26-.17h0l.26-.17h0l.26-.16h0l.26-.17h0c7.79-4.33,12.78-11.66,13-19.13.29-8.51-5.51-16.94-14.76-21.47-5.94-2.92-13.15-4.34-22-4.34-1.21,0-2.41,0-3.61.07a43,43,0,0,0-12,1.83,26,26,0,0,0-6.1,3l-.28.17-.28.17-.28.17-.28.17-.28.17-.28.17-.28.17-.28.17-.28.17-.28.17-.28.17-.28.17-.28.17-.28.17-.28.17-.28.17-.28.17-.28.17-.28.17-.28.17-.28.17-.28.17-.28.17-.28.17-.28.17-.28.17-.28.17-.28.17-.28.17-.28.17-.28.17-.28.17-.28.17-.28.17-.28.17-.28.17-.28.17-.28.17-.28.18-.28.17a24.46,24.46,0,0,0-11,15.65,23.59,23.59,0,0,0,8.85,22.73c5.85,4.57,14.06,6.88,24.4,6.88Z"/><polygon id="_Path_327" data-name="&lt;Path&gt;" class="cls-1" points="374.98 440.65 374.98 440.66 374.98 440.65 374.98 440.65"/><path id="_Path_328" data-name="&lt;Path&gt;" class="cls-5" d="M106.62,332.49a4,4,0,0,1,2.27,3c.15.89,3.84,22.2,27.1,22.2h0a48.31,48.31,0,0,0,8.8-.87,4.67,4.67,0,0,1,.84-.08,4.32,4.32,0,0,1,4,2.49c.63,1.43,15.8,35,57.14,35,14.43,0,30.53-4.14,47.85-12.32a4.61,4.61,0,0,1,4.37.27c.16.1,16.48,10.35,36.75,10.35,19.76,0,36.61-9.54,50.08-28.35a4.45,4.45,0,0,1,4.17-1.74,107.89,107.89,0,0,0,12.54.65c28.24,0,75.76-8.32,76.6-64.08a3.88,3.88,0,0,1,1.34-2.84,4.17,4.17,0,0,1,3.11-1.09c1.41.09,11.51-.19,17.09-6.68,4.17-4.85,5.07-12.29,2.69-22.12a3.78,3.78,0,0,1,.58-3c.25-.36,24.72-36.33,11.38-63.53-7.81-15.94-27.27-26.11-57.81-30.22a4.19,4.19,0,0,1-3.56-3c-.57-2.26-14.82-55.18-82.34-55.18a144.34,144.34,0,0,0-16.63,1,4.38,4.38,0,0,1-3.65-1.23c-.08-.08-9.09-8.72-21.68-8.72a31.22,31.22,0,0,0-16.25,4.85,4.51,4.51,0,0,1-5.81-1C267.43,106,255.34,91,235.69,91c-11.38,0-23.3,4.95-35.42,14.7a4.4,4.4,0,0,1-3.32.94,155.6,155.6,0,0,0-15.59-.7c-19.25,0-54.41,3-73.69,23.11C96.4,140.76,92,157,94.44,177.36a4,4,0,0,1-2.7,4.17c-.15.05-14.76,5.51-19.07,17.1-2.52,6.78-1.06,14.58,4.35,23.17a3.79,3.79,0,0,1-.43,4.6c-.25.26-24.16,27-17.89,56.61C62.81,302.45,78.94,319.1,106.62,332.49Z"/><path id="_Compound_Path_" data-name="&lt;Compound Path&gt;" class="cls-4" d="M100.8,338.66c2.43,10.38,12.16,27,35.19,27h0a55,55,0,0,0,7.18-.49c5.17,9.24,24,37,63.57,37,15.18,0,31.83-4.09,49.55-12.17,5.52,3.06,20.77,10.47,39.43,10.47,22.07,0,40.81-10.05,55.74-29.89,2.38.21,6.23.45,11.05.45,24.79,0,81.93-6.74,85.05-68.25,5.17-.59,13.91-2.61,19.78-9.44,5.61-6.54,7.2-15.7,4.72-27.25,4.79-7.44,24.84-41.5,11-69.72-8.85-18.09-29.59-29.67-61.67-34.45-4.08-11.79-24.44-58.68-89.87-58.68a152.37,152.37,0,0,0-15.67.84c-3.7-3-13.34-9.79-26.3-9.79a39.07,39.07,0,0,0-17.66,4.33C266.84,93.42,254.22,83,235.69,83c-13,0-26.35,5.22-39.61,15.52-2.65-.23-7.88-.58-14.73-.58-20.68,0-58.58,3.35-80.09,25.78C88.86,136.63,83.6,154,85.61,175.38c-5.46,2.57-16.72,9.09-21,20.58-3.16,8.43-1.95,17.66,3.59,27.48-6,7.44-23.92,32.5-17.91,61.06C54.79,306,71.79,324.22,100.8,338.66ZM76.58,226.41a3.79,3.79,0,0,0,.43-4.6c-5.41-8.59-6.87-16.38-4.35-23.17C77,187,91.59,181.59,91.74,181.54a4,4,0,0,0,2.7-4.17C92,157,96.4,140.76,107.67,129c19.28-20.11,54.45-23.11,73.69-23.11a155.6,155.6,0,0,1,15.59.7,4.4,4.4,0,0,0,3.32-.94c12.12-9.75,24-14.7,35.42-14.7,19.65,0,31.74,15,31.85,15.15a4.51,4.51,0,0,0,5.81,1,31.22,31.22,0,0,1,16.25-4.85c12.59,0,21.6,8.65,21.68,8.72a4.38,4.38,0,0,0,3.65,1.23,144.34,144.34,0,0,1,16.63-1c67.52,0,81.77,52.92,82.34,55.18a4.19,4.19,0,0,0,3.56,3c30.55,4.11,50,14.28,57.81,30.22,13.34,27.21-11.13,63.18-11.38,63.53a3.78,3.78,0,0,0-.58,3c2.38,9.83,1.48,17.27-2.69,22.12-5.58,6.49-15.68,6.77-17.09,6.68a4.17,4.17,0,0,0-3.11,1.09,3.88,3.88,0,0,0-1.34,2.84c-.84,55.76-48.35,64.08-76.6,64.08a107.89,107.89,0,0,1-12.54-.65,4.45,4.45,0,0,0-4.17,1.74c-13.47,18.81-30.32,28.35-50.08,28.35-20.27,0-36.59-10.24-36.75-10.35a4.61,4.61,0,0,0-4.37-.27c-17.32,8.18-33.42,12.32-47.85,12.32-41.34,0-56.51-33.52-57.14-35a4.32,4.32,0,0,0-4-2.49,4.67,4.67,0,0,0-.84.08,48.31,48.31,0,0,1-8.8.87h0c-23.26,0-27-21.31-27.1-22.2a4,4,0,0,0-2.27-3c-27.69-13.39-43.82-30-47.93-49.47C52.42,253.4,76.33,226.67,76.58,226.41Z"/><path id="_Path_329" data-name="&lt;Path&gt;" class="cls-6" d="M375.31,436.67c7.53-.05,13.45-1.33,18.1-3.91,5.22-2.9,8.7-7.81,8.86-12.51.21-6.23-5-11.6-10.18-14.16-4.68-2.3-10.57-3.42-18-3.42-1.09,0-2.18,0-3.26.06a34.56,34.56,0,0,0-9.41,1.37,17,17,0,0,0-11.23,12.35,16,16,0,0,0,5.92,15.21c4.26,3.33,10.61,5,18.88,5v4h0Z"/><path id="_Compound_Path_2" data-name="&lt;Compound Path&gt;" class="cls-4" d="M375.36,444.65c9.11-.06,16.45-1.71,22.45-5,7.79-4.33,12.78-11.66,13-19.13.29-8.51-5.51-16.94-14.76-21.47-5.94-2.92-13.15-4.34-22-4.34-1.21,0-2.41,0-3.61.07a43,43,0,0,0-12,1.83c-8.58,2.86-15.17,10.11-16.77,18.46a23.59,23.59,0,0,0,8.85,22.73c5.85,4.57,14.06,6.88,24.4,6.88Zm-.38-4v-4c-8.27,0-14.62-1.68-18.88-5a16,16,0,0,1-5.92-15.21A17,17,0,0,1,361.4,404.1a34.56,34.56,0,0,1,9.41-1.37c1.08,0,2.17-.06,3.26-.06,7.44,0,13.33,1.12,18,3.42,5.22,2.56,10.39,7.93,10.18,14.16-.16,4.71-3.64,9.62-8.86,12.51-4.65,2.58-10.57,3.86-18.1,3.91l-.33,4h0Z"/><path id="_Path_330" data-name="&lt;Path&gt;" class="cls-6" d="M343.69,462c.08-1.19.35-4.82-7.91-6.88a42.66,42.66,0,0,0-9.89-1.19,22.66,22.66,0,0,0-9.62,1.73,11.22,11.22,0,0,0-5.85,8,10.61,10.61,0,0,0,2.4,9.4c3,3.18,8.44,4.85,13.66,4.08C334.24,476.05,343.25,468.12,343.69,462Z"/><path id="_Compound_Path_3" data-name="&lt;Compound Path&gt;" class="cls-4" d="M338,447.38a51.48,51.48,0,0,0-12.11-1.46,31.54,31.54,0,0,0-13.61,2.65A19.31,19.31,0,0,0,302,462.19a18.26,18.26,0,0,0,4.4,16.14c4.19,4.42,10.6,7,17.57,7a28,28,0,0,0,3.79-.26c11.66-1.62,23.8-12.76,24.51-22.51C352.5,459.1,351.61,450.78,338,447.38ZM312.82,473a10.61,10.61,0,0,1-2.4-9.4,11.22,11.22,0,0,1,5.85-8,22.66,22.66,0,0,1,9.62-1.73,42.66,42.66,0,0,1,9.89,1.19c8.27,2.06,8,5.69,7.91,6.88-.45,6.15-9.46,14.08-17.21,15.15C321.26,477.89,315.82,476.22,312.82,473Z"/><path id="_Path_331" data-name="&lt;Path&gt;" class="cls-7" d="M460.64,288.33c4.17-4.85,5.07-12.29,2.69-22.12a3.78,3.78,0,0,1,.58-3c.25-.35,23.48-34.63,12.17-61.57l-23.52,49.57c-2.54,5.36-5.35,11-10.6,14.25s-13.72,2.63-16.4-2.68c-8.26,18.25-32,29.07-52.54,24-3.36-.84-6.95-2-10.22-.92-4.39,1.51-6,6.33-7.82,10.36-10.31,23.3-45.93,32.79-67.92,18.1-2.94-2-5.85-4.34-9.44-4.71-4.6-.47-8.7,2.47-12.43,5-17.93,12.24-41.1,18.9-62.83,14.49s-40.91-21.32-43.29-41.9c-20.49,9.16-48-10.19-44.21-31-18,4.65-37.62,8-55.21,2.2a53.23,53.23,0,0,0-1,24.72c4.12,19.44,20.25,36.08,47.93,49.47a4,4,0,0,1,2.27,3c.15.89,3.84,22.2,27.1,22.2h0a48.31,48.31,0,0,0,8.8-.87,4.67,4.67,0,0,1,.84-.08,4.32,4.32,0,0,1,4,2.49c.63,1.43,15.8,35,57.14,35,14.43,0,30.53-4.14,47.85-12.32a4.61,4.61,0,0,1,4.37.27c.16.1,16.48,10.35,36.75,10.35,19.76,0,36.61-9.54,50.08-28.35a4.45,4.45,0,0,1,4.17-1.74,107.89,107.89,0,0,0,12.54.65c28.24,0,75.76-8.32,76.6-64.08a3.88,3.88,0,0,1,1.34-2.84,4.17,4.17,0,0,1,3.11-1.09C445,295.1,455.06,294.83,460.64,288.33Z"/><path id="_Path_332" data-name="&lt;Path&gt;" class="cls-4" d="M158.14,116.95c-18.74,1-46.5,19.88-44.2,39.14.26,2.16,3.79,3,4.37.55,4.27-18,26.61-24.76,42.14-31.77C164.52,123,162.58,116.72,158.14,116.95Z"/><path id="_Path_333" data-name="&lt;Path&gt;" class="cls-4" d="M188.13,127c-11.37.84-21.75,3.47-30.8,10.23-2.91,2.17.91,6.72,4,4.79,8.29-5.21,18.45-6.37,27.58-9.88C191.55,131.07,191.57,126.7,188.13,127Z"/><path id="_Path_334" data-name="&lt;Path&gt;" class="cls-4" d="M413.88,321.55c-6.84,4.83-11.54,11.92-18.13,17.15-7.79,6.18-17.2,9-26.14,13.28-2.55,1.21-1.28,4.88,1.42,4.88,18.83,0,42.71-13.93,49-30.88C421.22,322.91,416.83,319.46,413.88,321.55Z"/><path id="_Path_335" data-name="&lt;Path&gt;" class="cls-4" d="M405.38,302.3c-2.34,3-4.78,5.84-7,9s-4.6,6-6.9,9c-2.71,3.53,3.4,7.87,6.44,4.62,2.88-3.08,5.85-6.08,8.61-9.25A24.24,24.24,0,0,0,412,304.91C413,301,407.73,299.24,405.38,302.3Z"/></g></g></svg>