<svg xmlns="http://www.w3.org/2000/svg" viewBox="0 0 512 512">
    <defs>
        <style>.cls-1{fill:#80abda;}</style>
    </defs>
    <title>description_29</title>
    <g id="OBJECTS">
        <path id="_Compound_Path_" data-name="&lt;Compound Path&gt;" class="cls-1"
            d="M475.34,272.71a14.44,14.44,0,0,0,.67-28.82,14.45,14.45,0,0,0-3.12-28.66,14.45,14.45,0,0,0-6.86-28,14.46,14.46,0,0,0-10.48-26.88,14.4,14.4,0,0,0,4.9-19.1,14.58,14.58,0,0,0-18.82-6.2A14.39,14.39,0,0,0,444,115.48a14.59,14.59,0,0,0-19.47-3.7,14.39,14.39,0,0,0-.24-19.71,14.6,14.6,0,0,0-19.79-1.14,14.39,14.39,0,0,0-2.82-19.51,14.6,14.6,0,0,0-19.77,1.43,14.4,14.4,0,0,0-5.36-19,14.59,14.59,0,0,0-19.41,4,14.42,14.42,0,0,0-7.8-18.12,14.57,14.57,0,0,0-18.72,6.47,14.53,14.53,0,0,0-27.83-8.1,14.54,14.54,0,0,0-28.65-4.42,14.54,14.54,0,0,0-29-.67,14.54,14.54,0,0,0-28.83,3.1A14.54,14.54,0,0,0,188.13,43a14.53,14.53,0,0,0-27,10.41,14.58,14.58,0,0,0-19.21-4.87,14.41,14.41,0,0,0-6.23,18.71A14.59,14.59,0,0,0,116,64.86a14.4,14.4,0,0,0-3.72,19.36,14.6,14.6,0,0,0-19.82.23,14.39,14.39,0,0,0-1.15,19.67,14.59,14.59,0,0,0-19.62,2.8,14.39,14.39,0,0,0,1.44,19.66A14.58,14.58,0,0,0,54,131.92a14.4,14.4,0,0,0,4,19.3A14.56,14.56,0,0,0,39.8,159a14.41,14.41,0,0,0,6.51,18.61,14.45,14.45,0,0,0-8.15,27.67,14.45,14.45,0,0,0-4.45,28.49A14.44,14.44,0,0,0,33,262.57a14.45,14.45,0,0,0,3.12,28.66,14.45,14.45,0,0,0,6.86,28A14.46,14.46,0,0,0,53.5,346.12a14.4,14.4,0,0,0-4.9,19.1,14.58,14.58,0,0,0,18.82,6.2A14.39,14.39,0,0,0,65.06,391a14.59,14.59,0,0,0,19.47,3.7,14.39,14.39,0,0,0,.24,19.71,14.6,14.6,0,0,0,19.79,1.14A14.39,14.39,0,0,0,107.38,435a14.6,14.6,0,0,0,19.77-1.43,14.4,14.4,0,0,0,5.36,19,14.59,14.59,0,0,0,19.41-4,14.42,14.42,0,0,0,7.8,18.12,14.57,14.57,0,0,0,18.72-6.47,14.53,14.53,0,0,0,27.83,8.1,14.54,14.54,0,0,0,28.65,4.42,14.54,14.54,0,0,0,29,.67,14.54,14.54,0,0,0,28.83-3.1,14.53,14.53,0,0,0,28.17-6.82,14.53,14.53,0,0,0,27-10.41A14.58,14.58,0,0,0,367.17,458a14.41,14.41,0,0,0,6.23-18.71,14.59,14.59,0,0,0,19.68,2.34,14.4,14.4,0,0,0,3.72-19.36,14.6,14.6,0,0,0,19.82-.23,14.39,14.39,0,0,0,1.15-19.67,14.59,14.59,0,0,0,19.62-2.8A14.39,14.39,0,0,0,436,379.87,14.58,14.58,0,0,0,455,374.54a14.4,14.4,0,0,0-4-19.3,14.56,14.56,0,0,0,18.22-7.76,14.41,14.41,0,0,0-6.51-18.61,14.45,14.45,0,0,0,8.15-27.67,14.45,14.45,0,0,0,4.45-28.49ZM36,191.16a6.58,6.58,0,1,1,6.58,6.54A6.56,6.56,0,0,1,36,191.16ZM29.21,218.3a6.58,6.58,0,1,1,6.58,6.54A6.56,6.56,0,0,1,29.21,218.3Zm3.66,36.58a6.54,6.54,0,1,1,6.58-6.54A6.56,6.56,0,0,1,32.86,254.88ZM34.81,282a6.54,6.54,0,1,1,6.58-6.54A6.56,6.56,0,0,1,34.81,282Zm4.87,29.07a6.54,6.54,0,1,1,6.58-6.54A6.56,6.56,0,0,1,39.69,311.09Zm5.85,27.13a6.54,6.54,0,1,1,6.58-6.54A6.56,6.56,0,0,1,45.54,338.22Zm5.85-167.65A6.54,6.54,0,1,1,58,164,6.56,6.56,0,0,1,51.38,170.57Zm8.77,195.75a6.54,6.54,0,1,1,6.58-6.54A6.56,6.56,0,0,1,60.16,366.32ZM66,144.41a6.54,6.54,0,1,1,6.58-6.54A6.56,6.56,0,0,1,66,144.41Zm8.77,246.14A6.54,6.54,0,1,1,81.36,384,6.56,6.56,0,0,1,74.78,390.55Zm7.8-267.46a6.54,6.54,0,1,1,6.58-6.54A6.56,6.56,0,0,1,82.57,123.09ZM93.3,411.87a6.54,6.54,0,1,1,6.58-6.54A6.56,6.56,0,0,1,93.3,411.87Zm6.82-312a6.54,6.54,0,1,1,6.58-6.54A6.56,6.56,0,0,1,100.12,99.83Zm14.62,332.39a6.54,6.54,0,1,1,6.58-6.54A6.56,6.56,0,0,1,114.74,432.22Zm8.77-348.86a6.54,6.54,0,1,1,6.58-6.54A6.56,6.56,0,0,1,123.51,83.36Zm14.62,365.34a6.54,6.54,0,1,1,6.58-6.54A6.56,6.56,0,0,1,138.13,448.69Zm9.75-381.81a6.54,6.54,0,1,1,6.58-6.54A6.56,6.56,0,0,1,147.88,66.88Zm16.57,395.38a6.54,6.54,0,1,1,6.58-6.54A6.56,6.56,0,0,1,164.45,462.26Zm10.72-408a6.54,6.54,0,1,1,6.58-6.54A6.56,6.56,0,0,1,175.17,54.28ZM191.74,472a6.54,6.54,0,1,1,6.58-6.54A6.56,6.56,0,0,1,191.74,472ZM202.47,45.56A6.54,6.54,0,1,1,209,39,6.56,6.56,0,0,1,202.47,45.56ZM220,478.49a6.54,6.54,0,1,1,6.58-6.54A6.56,6.56,0,0,1,220,478.49Zm9.75-438.75a6.54,6.54,0,1,1,6.58-6.54A6.56,6.56,0,0,1,229.76,39.75Zm20.47,440.93a6.54,6.54,0,1,1,6.58-6.54A6.56,6.56,0,0,1,250.23,480.67ZM260,39.75a6.54,6.54,0,1,1,6.58-6.54A6.56,6.56,0,0,1,260,39.75Zm17.54,440a6.54,6.54,0,1,1,6.58-6.54A6.56,6.56,0,0,1,277.52,479.7Zm11.7-437a6.54,6.54,0,1,1,6.58-6.54A6.56,6.56,0,0,1,289.22,42.65Zm17.55,431.24a6.54,6.54,0,1,1,6.58-6.54A6.56,6.56,0,0,1,306.76,473.89ZM317.48,47.5A6.54,6.54,0,1,1,324.06,41,6.56,6.56,0,0,1,317.48,47.5ZM335,465.9a6.54,6.54,0,1,1,6.58-6.54A6.56,6.56,0,0,1,335,465.9Zm8.77-408.7a6.54,6.54,0,1,1,6.58-6.54A6.56,6.56,0,0,1,343.8,57.19Zm16.57,395.38A6.54,6.54,0,1,1,367,446,6.56,6.56,0,0,1,360.37,452.57Zm9.75-381.81a6.54,6.54,0,1,1,6.58-6.54A6.56,6.56,0,0,1,370.12,70.76ZM477.34,250.52a6.54,6.54,0,1,1-6.58,6.54A6.56,6.56,0,0,1,477.34,250.52Zm-1.95-29.07a6.54,6.54,0,1,1-6.58,6.54A6.56,6.56,0,0,1,475.39,221.45ZM472,194.8a6.54,6.54,0,1,1-6.58,6.54A6.56,6.56,0,0,1,472,194.8Zm-10.23-27.62a6.54,6.54,0,1,1-6.58,6.54A6.56,6.56,0,0,1,461.74,167.18ZM449.07,141a6.54,6.54,0,1,1-6.58,6.54A6.56,6.56,0,0,1,449.07,141ZM385.71,439a6.54,6.54,0,1,1,6.58-6.54A6.56,6.56,0,0,1,385.71,439Zm6.82-351.77a6.54,6.54,0,1,1,6.58-6.54A6.56,6.56,0,0,1,392.54,87.23Zm12.67,331.42a6.54,6.54,0,1,1,6.58-6.54A6.56,6.56,0,0,1,405.21,418.65Zm8.77-312a6.54,6.54,0,1,1,6.58-6.54A6.56,6.56,0,0,1,414,106.61ZM425.68,399a6.54,6.54,0,1,1,6.58-6.54A6.56,6.56,0,0,1,425.68,399Zm7.8-270.13a6.54,6.54,0,1,1,6.58-6.54A6.56,6.56,0,0,1,433.48,128.9ZM443.22,375a6.54,6.54,0,1,1,6.58-6.54A6.56,6.56,0,0,1,443.22,375Zm20.23-33.68a6.58,6.58,0,1,1-6.58-6.54A6.56,6.56,0,0,1,463.45,341.37Zm9.75-26.16a6.58,6.58,0,1,1-6.58-6.54A6.56,6.56,0,0,1,473.2,315.21Zm-.73-20.59a6.54,6.54,0,1,1,6.58-6.54A6.56,6.56,0,0,1,472.47,294.61Z" />
    </g>
</svg>